<svg xmlns="http://www.w3.org/2000/svg" width="370" height="320" viewBox="0 0 370 320"><defs><style>@import url("https://fonts.googleapis.com/css2?family=Shippori+Mincho+B1:wght@800&display=swap");</style><pattern id="hatchu21" width="7" height="7" patternUnits="userSpaceOnUse" patternTransform="rotate(-35)"><line x1="0" y1="0" x2="0" y2="7" stroke="#1E1A1D" stroke-width="1.8"/></pattern><pattern id="toneu21" width="6" height="6" patternUnits="userSpaceOnUse" patternTransform="rotate(45)"><circle cx="3" cy="3" r="1.5" fill="#1E1A1D"/></pattern><clipPath id="clipu21"><path d="M183.3,299.5 L172.7,302.0 L171.3,298.0 L166.5,295.4 L164.8,292.0 L158.1,287.5 L160.3,279.8 L163.9,277.6 L166.2,270.4 L164.5,270.2 L164.0,267.9 L157.8,266.8 L158.8,262.9 L157.9,260.9 L161.8,257.6 L161.5,254.1 L162.9,252.0 L161.6,249.0 L163.3,249.9 L164.8,248.9 L168.7,242.0 L163.2,236.8 L157.7,234.9 L155.7,236.3 L149.9,234.9 L148.7,237.3 L146.9,236.4 L158.9,220.8 L161.5,221.6 L161.9,224.2 L163.4,223.9 L163.4,227.4 L164.0,227.8 L163.5,231.4 L170.3,234.2 L170.3,235.6 L169.2,235.6 L171.7,239.7 L170.9,240.7 L173.1,245.3 L172.7,247.1 L176.8,249.9 L179.0,249.4 L179.7,252.7 L186.8,256.7 L186.9,257.9 L188.8,257.5 L189.5,264.0 L191.5,268.2 L197.4,272.1 L190.5,285.0 L186.3,286.6 L188.1,291.2 L184.8,298.9ZM184.2,255.6 L183.1,254.1 L179.7,252.7 L179.0,249.4 L176.8,249.9 L172.7,247.1 L173.1,245.3 L172.0,244.1 L172.0,241.5 L171.2,241.8 L170.9,240.7 L171.7,239.7 L169.2,235.6 L170.3,235.6 L170.3,234.2 L169.2,234.4 L168.4,233.1 L166.3,232.3 L166.6,228.0 L168.3,227.8 L168.6,226.7 L167.4,226.3 L167.4,224.3 L165.2,225.3 L164.4,222.9 L163.8,224.4 L162.6,223.4 L161.9,224.2 L161.5,221.6 L160.3,221.8 L158.9,220.8 L162.7,215.8 L162.7,215.4 L163.5,213.1 L164.6,213.1 L165.7,211.7 L165.0,211.0 L166.1,209.1 L168.9,211.4 L175.8,203.5 L177.2,204.5 L176.3,205.8 L178.7,208.6 L179.4,207.4 L183.5,208.9 L183.6,209.7 L185.5,209.3 L188.9,210.7 L188.5,213.1 L190.1,218.0 L189.5,220.5 L191.0,220.6 L193.0,223.3 L190.1,230.0 L189.9,232.3 L191.1,234.2 L190.1,235.9 L190.5,238.0 L189.2,239.5 L190.3,240.8 L187.9,243.0 L186.7,243.0 L186.6,244.2 L186.8,245.6 L187.9,245.7 L190.1,247.8 L190.7,252.9 L191.8,254.8 L187.7,258.1 L186.9,257.8 L186.8,256.7ZM151.1,288.7 L150.4,287.0 L151.2,283.0 L150.3,282.4 L149.5,274.7 L148.1,273.6 L148.3,272.0 L146.8,271.2 L146.4,270.0 L142.3,270.1 L141.1,269.5 L141.2,268.2 L139.9,266.7 L140.4,263.5 L138.6,262.4 L140.9,259.8 L140.4,259.9 L139.9,257.9 L138.1,258.0 L136.7,255.6 L137.6,253.7 L136.7,252.9 L135.7,253.4 L136.2,252.4 L134.8,250.7 L141.8,243.1 L142.5,243.6 L143.9,242.2 L147.9,242.3 L148.1,241.2 L148.9,241.0 L150.1,241.3 L148.7,244.0 L149.4,244.1 L149.2,245.5 L149.9,245.4 L150.1,244.0 L150.7,244.8 L154.9,243.3 L155.9,244.8 L157.5,245.6 L156.9,246.5 L158.3,247.0 L159.2,249.0 L160.2,248.2 L161.2,248.6 L162.6,250.5 L162.8,252.4 L161.5,254.1 L161.8,257.6 L160.6,258.8 L159.3,258.7 L159.2,259.9 L157.9,260.9 L158.8,262.9 L157.9,264.1 L158.6,265.1 L157.8,266.8 L159.0,267.5 L160.8,266.8 L162.1,267.8 L164.0,267.9 L164.5,270.2 L166.2,270.4 L164.9,272.2 L163.9,277.6 L160.3,279.8 L158.0,286.4 L158.3,287.8 L155.6,289.1 L154.3,288.4 L153.0,289.3ZM134.0,285.9 L132.9,286.2 L131.1,284.9 L130.0,283.0 L130.0,281.4 L129.0,279.1 L129.5,275.7 L127.5,274.9 L127.3,273.1 L126.4,272.9 L125.5,271.1 L123.4,270.5 L123.1,269.8 L121.0,269.9 L121.2,269.2 L120.5,269.3 L120.3,268.7 L120.6,267.8 L119.6,267.6 L119.9,266.0 L117.9,264.8 L122.1,261.2 L125.2,255.8 L127.1,255.8 L129.9,254.6 L134.8,250.7 L136.2,252.4 L135.7,253.4 L136.7,252.9 L137.6,253.7 L136.7,255.6 L138.1,257.1 L138.1,258.0 L139.9,257.9 L140.4,259.9 L140.9,259.8 L138.6,262.4 L140.4,263.5 L140.5,265.8 L139.9,266.7 L141.2,268.2 L141.1,269.5 L142.3,270.1 L146.4,270.0 L146.8,271.2 L148.3,272.0 L148.1,273.6 L148.6,274.6 L149.5,274.7 L150.3,282.4 L151.3,283.7 L150.4,287.3 L149.3,287.5 L146.4,290.8 L144.8,290.1 L143.7,290.7 L141.6,287.9 L140.3,287.5 L139.6,285.0 L137.1,285.8 L134.3,285.4ZM184.2,209.5 L184.0,209.2 L183.5,209.7 L183.5,208.9 L182.8,208.7 L182.3,209.0 L181.9,208.5 L179.6,207.9 L179.4,207.4 L178.7,208.6 L178.5,208.3 L178.8,207.9 L176.3,205.8 L177.2,204.5 L175.8,203.5 L177.0,201.8 L177.1,200.2 L177.7,200.3 L177.8,199.4 L178.4,199.4 L178.5,199.4 L180.8,199.0 L180.4,199.4 L180.8,199.6 L182.2,199.1 L182.6,197.7 L183.4,197.4 L183.6,196.7 L183.2,196.4 L184.5,195.6 L184.4,195.0 L184.8,195.1 L184.6,194.8 L184.8,194.9 L185.6,193.7 L186.6,192.9 L185.6,192.4 L185.9,190.6 L186.3,190.6 L186.6,189.9 L188.5,190.5 L191.1,189.1 L191.3,188.6 L191.8,189.0 L192.9,188.8 L194.2,186.8 L194.3,186.5 L194.9,186.1 L195.2,186.5 L195.1,188.3 L195.4,188.4 L195.0,188.8 L196.6,190.3 L196.6,190.7 L195.8,192.0 L193.6,192.8 L193.3,194.3 L191.8,194.4 L191.6,194.7 L190.2,194.5 L189.8,196.0 L189.3,196.2 L190.5,197.7 L192.7,199.2 L192.0,201.5 L193.4,201.9 L193.7,202.4 L193.4,203.4 L193.8,204.2 L193.1,204.6 L192.8,205.6 L192.1,206.1 L191.7,207.8 L190.8,208.0 L190.7,209.6 L189.9,210.5 L188.4,210.9 L187.8,210.1 L186.5,210.2 L185.7,209.8 L185.5,209.3 L184.9,209.2 L184.6,209.8ZM149.3,245.5 L149.4,244.1 L148.7,244.0 L150.1,241.3 L149.4,241.6 L148.9,241.0 L148.3,241.1 L147.9,242.3 L143.9,242.2 L142.5,243.6 L141.8,243.1 L146.9,236.4 L148.3,237.4 L149.0,237.0 L150.6,238.1 L153.7,237.0 L154.6,237.3 L154.5,237.9 L161.1,238.3 L161.1,237.9 L162.0,237.9 L162.1,238.3 L164.8,238.6 L166.5,239.2 L167.1,239.9 L167.2,240.8 L168.7,242.0 L168.5,243.1 L168.0,242.9 L166.6,246.5 L165.6,247.4 L165.0,247.4 L164.8,248.9 L163.8,249.1 L163.8,249.6 L163.4,249.9 L162.3,248.9 L161.7,249.0 L160.2,248.2 L159.6,249.1 L159.3,249.0 L158.3,247.9 L158.6,247.4 L158.3,247.0 L157.0,246.5 L156.0,247.3 L156.1,246.6 L157.5,245.6 L156.8,245.6 L155.9,244.8 L154.9,243.3 L150.7,244.8 L150.6,244.1 L150.1,244.0 L149.9,245.4ZM174.2,199.5 L173.6,199.1 L176.8,193.2 L180.8,184.7 L181.5,184.9 L183.1,184.4 L184.0,184.4 L184.0,185.6 L184.8,185.8 L185.7,185.3 L187.7,185.2 L188.0,185.4 L188.3,186.4 L189.4,186.5 L189.4,187.2 L191.1,187.5 L191.4,187.2 L193.0,188.4 L192.9,188.8 L191.9,189.0 L191.3,188.6 L191.1,189.1 L189.5,189.7 L188.5,190.5 L187.2,190.2 L186.9,189.7 L186.6,189.9 L186.3,190.6 L185.9,190.6 L186.0,191.4 L185.6,191.5 L185.6,192.4 L186.6,192.9 L186.1,193.6 L185.6,193.7 L184.8,194.9 L184.6,194.8 L184.8,195.1 L184.4,195.0 L184.6,195.2 L184.3,195.4 L184.5,195.6 L183.2,196.4 L183.6,196.7 L183.4,197.4 L183.2,197.3 L183.1,197.7 L182.6,197.7 L182.2,199.1 L180.8,199.6 L180.4,199.4 L180.5,199.2 L180.8,199.4 L180.8,199.0 L178.5,199.4 L178.4,199.4 L177.8,199.4 L177.7,200.3 L177.1,200.2 L176.7,202.2 L175.3,201.2 L175.9,200.2ZM167.8,210.2 L166.9,209.2 L168.0,208.2 L169.5,206.1 L170.1,205.0 L170.2,205.0 L170.3,204.8 L170.1,204.4 L170.3,204.5 L170.7,204.1 L173.6,199.2 L175.9,200.2 L175.3,201.2 L176.7,202.2 L173.3,207.1 L171.6,208.4 L168.9,211.4 L168.6,210.9ZM151.1,237.9 L150.6,238.1 L150.0,238.0 L149.0,237.0 L149.9,235.8 L149.9,234.9 L150.6,234.7 L152.9,235.6 L153.8,235.3 L154.4,235.5 L154.7,236.0 L155.7,236.3 L156.2,235.9 L156.9,235.7 L157.1,234.7 L158.6,235.1 L161.6,236.9 L163.2,236.8 L163.7,237.1 L164.2,238.0 L164.8,238.3 L164.7,238.6 L162.1,238.3 L162.0,237.9 L161.1,237.9 L161.1,238.3 L154.5,237.9 L154.6,237.3 L153.7,237.0 L152.8,237.1ZM164.3,231.9 L164.2,231.4 L163.5,231.4 L163.1,230.7 L163.2,230.2 L163.7,229.7 L163.6,229.0 L163.7,228.6 L163.9,228.5 L164.0,227.8 L163.0,227.6 L162.0,227.6 L162.0,227.1 L162.6,227.1 L162.7,227.4 L163.4,227.4 L163.3,226.5 L162.6,226.7 L162.6,225.8 L162.8,225.8 L162.8,225.9 L163.5,225.8 L163.8,225.1 L163.5,224.5 L163.8,224.4 L163.8,223.2 L164.4,223.1 L164.4,222.9 L164.6,222.9 L165.2,225.3 L166.0,225.1 L166.1,224.3 L166.4,224.4 L166.8,224.1 L167.1,224.4 L167.2,224.3 L167.4,224.3 L167.6,225.4 L167.9,225.9 L167.5,225.8 L167.4,226.3 L168.4,226.4 L168.6,226.7 L168.3,227.8 L167.2,227.6 L166.8,228.1 L166.6,228.0 L166.6,230.1 L166.2,231.1 L166.3,232.5 L165.6,232.5 L165.5,231.9 L165.2,231.9 L165.0,231.9 L165.0,232.1 L164.3,232.2ZM184.0,185.5 L184.0,184.4 L183.1,184.4 L181.5,184.9 L180.8,184.7 L183.4,178.5 L185.2,172.4 L187.6,172.3 L188.7,172.6 L188.6,171.2 L189.5,171.1 L189.4,169.7 L189.8,169.7 L190.5,168.3 L191.0,168.4 L190.9,168.9 L192.9,168.6 L194.2,168.9 L194.5,169.9 L195.2,170.6 L195.0,171.2 L195.2,171.5 L198.2,171.1 L198.5,171.9 L199.2,171.5 L200.0,171.7 L200.3,172.1 L200.0,172.9 L198.9,173.3 L199.0,173.8 L198.7,174.2 L199.5,174.8 L198.8,175.3 L198.8,176.4 L198.1,176.6 L198.6,178.4 L197.0,181.5 L197.8,184.0 L197.3,185.2 L196.4,185.9 L197.6,187.9 L197.1,189.7 L196.6,190.3 L195.2,189.1 L195.0,188.7 L195.4,188.4 L195.1,188.3 L194.9,186.8 L195.2,186.5 L194.9,186.1 L194.3,186.5 L194.2,186.8 L193.3,188.2 L192.9,188.4 L191.4,187.2 L191.1,187.5 L189.4,187.2 L189.4,186.5 L188.3,186.4 L187.7,185.2 L185.7,185.3 L184.8,185.8ZM185.3,172.4 L186.5,166.4 L186.4,164.3 L185.7,163.1 L185.4,163.0 L184.9,163.4 L185.1,163.1 L185.2,162.9 L184.6,163.0 L184.1,162.4 L184.1,161.8 L185.7,159.7 L185.5,158.8 L185.0,158.7 L185.0,158.4 L185.5,158.6 L185.9,158.2 L186.6,156.5 L187.8,156.4 L188.2,156.7 L188.6,157.3 L188.5,158.1 L189.0,158.9 L189.9,159.4 L190.2,158.3 L190.0,157.5 L189.6,157.4 L189.3,157.0 L189.3,156.1 L189.6,155.9 L190.2,156.3 L190.8,156.3 L191.0,156.6 L190.0,157.4 L190.3,158.3 L190.3,158.4 L190.2,159.0 L190.5,158.9 L190.5,158.7 L190.8,158.7 L190.8,159.0 L190.5,158.8 L190.5,158.9 L190.2,159.1 L190.4,159.4 L191.1,159.0 L191.3,159.2 L191.5,159.1 L191.4,159.3 L191.8,160.0 L191.1,160.0 L191.1,160.1 L191.0,160.2 L190.9,160.5 L190.5,159.5 L190.2,159.5 L190.2,159.7 L190.0,159.5 L190.2,160.6 L193.1,159.9 L194.0,158.9 L194.5,159.9 L194.3,160.0 L194.4,160.5 L193.7,161.0 L194.0,161.5 L194.9,160.2 L195.8,159.9 L196.1,160.2 L197.9,159.1 L197.9,159.9 L197.6,160.1 L197.9,160.2 L197.6,160.6 L199.2,160.9 L200.8,163.4 L200.8,164.5 L201.0,164.7 L201.9,164.6 L201.0,165.8 L200.9,166.9 L201.3,168.7 L201.9,169.3 L201.4,169.7 L201.5,170.7 L200.6,172.1 L199.6,171.6 L198.9,171.6 L198.5,171.9 L198.2,171.1 L195.2,171.5 L195.0,171.2 L195.2,170.6 L194.5,169.9 L194.2,168.9 L193.5,169.0 L192.9,168.6 L190.9,168.9 L191.0,168.4 L190.6,168.3 L189.8,169.7 L189.4,169.7 L189.5,171.1 L188.9,171.0 L188.6,171.2 L188.8,172.1 L188.7,172.6 L187.6,172.3ZM187.0,156.5 L186.2,152.8 L186.7,150.7 L183.3,148.6 L183.7,145.7 L182.9,145.8 L183.2,145.0 L182.0,143.9 L182.1,142.6 L181.6,142.8 L180.5,140.8 L180.1,141.0 L180.0,137.9 L180.7,136.9 L180.4,136.6 L181.5,134.7 L180.9,131.9 L181.2,128.7 L178.6,126.4 L177.6,126.4 L177.6,126.4 L177.1,127.9 L177.9,127.7 L177.6,128.1 L175.7,128.5 L175.7,127.7 L174.3,128.0 L173.6,126.3 L174.6,123.7 L174.3,120.7 L175.3,119.0 L174.7,118.2 L175.3,117.8 L175.0,117.0 L177.1,114.9 L179.2,114.5 L179.7,115.2 L179.1,117.1 L182.5,117.7 L182.3,118.5 L183.3,119.7 L187.2,117.8 L187.3,116.7 L189.1,115.1 L190.8,115.0 L192.7,113.7 L193.5,114.0 L194.1,115.7 L193.2,116.7 L193.6,118.6 L191.1,119.6 L190.8,122.4 L188.7,125.2 L188.3,127.2 L188.8,129.6 L187.6,131.2 L189.3,134.7 L191.3,135.7 L192.1,137.7 L192.8,137.4 L195.6,139.1 L194.9,140.7 L196.3,140.5 L196.9,142.2 L198.9,143.6 L197.2,146.9 L197.2,149.8 L196.1,151.7 L196.3,154.7 L197.6,156.1 L193.1,159.9 L190.2,160.7 L190.3,160.5 L190.5,159.5 L190.9,160.5 L191.8,160.0 L191.1,159.0 L190.4,159.4 L190.8,158.7 L190.2,159.0 L189.9,159.4 L190.1,157.4 L191.0,156.6 L189.3,156.1 L190.2,158.3 L189.9,159.4 L189.0,158.9 L188.2,156.7ZM189.2,114.4 L189.2,114.0 L190.2,113.9 L191.0,111.4 L192.3,110.2 L191.8,109.1 L192.4,109.1 L192.9,107.2 L193.5,108.7 L194.6,109.4 L194.2,110.3 L194.9,110.1 L195.5,111.1 L199.1,107.9 L200.5,105.7 L202.8,106.4 L204.9,104.9 L208.1,105.1 L209.4,103.8 L211.0,103.5 L211.1,102.8 L212.8,103.0 L214.9,101.1 L215.7,101.0 L216.2,101.8 L215.1,102.7 L216.7,103.5 L215.9,104.4 L216.0,106.3 L216.7,107.0 L217.4,106.7 L217.5,108.4 L218.4,107.6 L218.7,109.9 L222.5,110.2 L223.5,108.2 L224.3,108.2 L226.7,109.5 L226.9,110.6 L226.7,110.9 L225.7,113.0 L225.5,115.8 L224.7,116.0 L224.4,116.8 L223.5,116.4 L220.2,117.4 L221.1,117.7 L220.6,118.3 L221.3,118.9 L220.5,119.1 L220.2,120.2 L219.1,119.5 L218.3,120.9 L217.6,120.8 L215.7,118.2 L215.1,118.3 L214.6,117.3 L214.4,118.0 L213.1,118.0 L212.5,116.6 L212.3,117.6 L211.3,116.7 L210.9,114.9 L209.8,115.5 L211.2,113.4 L212.5,112.6 L211.7,112.2 L210.0,112.7 L209.4,114.2 L209.2,113.4 L208.7,113.9 L208.2,112.8 L207.4,113.3 L207.0,112.6 L206.8,113.3 L208.2,114.3 L208.0,114.8 L206.3,114.8 L205.9,113.6 L204.6,115.2 L205.9,115.2 L205.8,116.1 L206.8,115.8 L206.8,116.5 L207.7,117.1 L207.5,117.7 L207.1,118.4 L207.0,117.2 L205.8,118.1 L204.6,117.6 L205.5,119.0 L204.6,119.6 L202.4,123.2 L200.1,121.5 L198.0,122.2 L197.0,118.4 L194.8,118.0 L193.4,118.3 L193.2,116.7 L194.1,115.7 L193.5,115.1 L193.5,113.9 L192.4,113.7 L190.5,115.1ZM200.7,164.4 L200.8,163.4 L199.3,160.9 L197.6,160.6 L197.9,160.2 L197.6,160.1 L197.9,159.9 L197.9,159.1 L196.1,160.2 L195.8,159.9 L194.9,160.2 L194.0,161.5 L193.7,161.0 L194.5,160.3 L194.1,158.8 L196.1,157.9 L196.3,157.3 L197.6,156.1 L197.2,156.0 L196.8,154.8 L196.3,154.7 L196.5,154.2 L196.1,151.7 L197.2,149.8 L197.2,146.9 L197.7,146.0 L198.3,146.2 L198.5,146.6 L198.2,146.9 L198.8,147.5 L199.6,147.5 L200.0,147.9 L202.3,147.8 L203.3,148.3 L206.2,147.8 L207.1,150.1 L206.9,150.6 L207.4,151.2 L208.8,151.8 L209.5,151.6 L210.7,152.7 L211.1,153.4 L210.2,154.4 L211.8,155.2 L213.0,155.1 L213.8,154.4 L215.0,156.3 L214.6,158.3 L213.4,159.7 L213.0,159.1 L212.1,158.9 L210.8,157.7 L208.5,158.7 L207.8,158.6 L206.8,160.7 L206.3,160.8 L205.8,161.8 L203.2,162.8 L202.8,163.8 L202.2,164.1 L201.9,164.6 L201.0,164.7ZM177.6,115.1 L177.0,114.5 L178.3,113.1 L177.6,111.2 L180.4,109.1 L182.2,104.4 L181.8,103.1 L180.9,103.0 L180.5,98.0 L182.7,95.8 L182.5,94.1 L183.6,95.0 L184.7,94.3 L184.2,92.6 L185.0,91.4 L188.4,90.8 L189.5,89.3 L190.9,89.5 L192.2,87.8 L199.7,84.5 L202.7,85.5 L203.6,84.5 L204.2,86.1 L207.2,86.4 L218.0,80.7 L220.7,80.3 L222.9,77.5 L225.3,77.3 L227.9,75.0 L230.1,77.1 L231.9,75.8 L233.5,76.0 L234.2,76.9 L233.5,79.1 L239.2,81.7 L236.8,84.2 L233.7,85.6 L232.8,84.8 L230.6,86.3 L230.2,87.9 L229.1,87.3 L228.0,88.0 L226.3,86.5 L223.6,89.0 L221.2,87.0 L216.9,86.4 L212.6,89.8 L214.2,93.8 L213.0,95.6 L214.3,96.7 L211.9,100.4 L213.0,101.3 L212.5,102.8 L211.1,102.8 L208.1,105.1 L204.6,105.0 L202.9,106.4 L200.5,105.7 L195.5,111.1 L192.9,107.2 L191.7,111.2 L190.2,113.9 L189.2,114.0 L189.8,114.8 L185.9,118.6 L183.3,119.7 L182.5,117.7 L179.1,117.1 L179.2,114.5ZM212.4,100.8 L211.9,100.4 L213.1,98.3 L214.0,98.1 L214.3,96.7 L213.0,95.6 L214.2,93.8 L212.9,92.0 L213.4,91.0 L212.7,90.6 L212.6,89.8 L215.5,88.0 L217.0,86.3 L219.3,86.6 L220.3,87.3 L221.2,87.0 L224.2,89.1 L225.1,88.1 L225.2,86.7 L227.6,86.8 L228.1,88.0 L229.1,87.3 L230.2,87.9 L230.6,86.3 L232.1,86.1 L232.7,85.6 L234.5,85.5 L234.2,87.3 L236.1,88.8 L235.8,90.4 L236.6,90.4 L236.9,91.6 L236.4,92.8 L246.8,90.7 L247.8,90.0 L248.9,90.6 L248.6,91.6 L249.4,93.1 L250.1,93.3 L251.7,92.5 L251.8,92.9 L251.1,94.6 L249.9,95.3 L250.7,95.7 L251.6,95.3 L251.9,96.0 L251.1,97.1 L251.5,97.6 L249.7,99.0 L249.6,100.2 L248.2,101.4 L247.6,101.0 L246.7,101.0 L247.8,101.6 L246.7,101.8 L247.6,102.1 L247.5,102.8 L246.8,102.3 L245.8,102.9 L245.9,102.4 L245.0,102.2 L244.8,102.8 L244.2,102.7 L243.6,102.6 L244.1,101.6 L242.4,102.2 L241.8,101.7 L239.2,102.0 L238.3,101.1 L238.4,102.1 L237.3,102.4 L237.5,101.5 L236.7,100.8 L237.1,101.8 L236.5,102.5 L235.7,102.1 L229.7,105.4 L228.7,108.1 L229.2,109.0 L226.9,110.6 L226.7,109.5 L224.4,108.2 L223.5,108.2 L222.5,110.2 L218.7,110.0 L218.4,107.6 L217.5,108.4 L217.4,106.7 L216.7,107.0 L216.0,106.3 L215.9,104.4 L216.7,103.5 L215.1,102.6 L216.1,101.3 L214.9,101.1 L212.7,103.0 L213.0,101.4ZM215.0,156.0 L213.8,154.4 L211.8,155.2 L210.2,154.4 L211.1,153.4 L210.7,152.7 L209.5,151.6 L207.4,151.2 L206.2,147.8 L203.3,148.3 L198.8,147.5 L197.7,146.0 L198.9,143.6 L197.8,142.3 L196.9,142.2 L196.3,140.5 L194.9,140.7 L195.6,139.1 L192.8,137.4 L192.1,137.7 L191.3,135.7 L189.3,134.7 L187.6,131.2 L188.8,129.6 L188.3,127.2 L188.7,125.2 L190.8,122.4 L191.1,119.6 L193.8,118.2 L197.0,118.4 L198.0,122.2 L200.1,121.5 L202.5,123.2 L201.6,124.1 L201.1,126.5 L200.3,126.9 L200.5,127.8 L201.3,128.6 L201.3,127.9 L202.0,127.9 L201.7,127.4 L202.6,127.2 L203.9,128.5 L202.9,132.6 L201.6,131.9 L201.2,132.8 L200.4,132.1 L199.5,132.6 L199.3,134.8 L200.1,136.4 L198.9,137.0 L198.4,138.1 L200.3,139.2 L202.2,139.5 L202.5,138.5 L203.6,138.9 L204.6,137.7 L204.6,136.2 L205.8,135.7 L207.5,136.7 L209.5,137.0 L208.8,138.0 L208.4,137.8 L208.6,139.1 L209.1,139.6 L212.0,139.7 L211.1,141.3 L212.4,142.5 L213.7,142.9 L213.7,142.0 L215.0,142.8 L215.3,142.4 L216.1,142.3 L215.4,141.5 L216.2,140.9 L216.9,141.7 L217.5,141.3 L217.8,140.4 L217.0,140.1 L217.8,138.2 L218.4,138.7 L218.4,136.5 L219.7,134.1 L220.8,133.2 L221.4,133.8 L222.4,133.1 L223.7,133.4 L224.4,132.9 L224.3,133.8 L223.3,134.2 L224.0,138.4 L223.3,141.0 L223.4,144.0 L223.1,143.7 L222.8,144.5 L223.7,147.1 L222.9,148.8 L223.9,151.5 L223.2,152.8 L224.1,156.5 L223.6,157.2 L221.8,156.0 L220.4,156.7 L217.5,156.9 L216.4,156.0ZM234.3,87.1 L234.1,85.0 L236.9,84.2 L239.2,81.7 L235.5,80.4 L233.5,79.1 L233.5,77.8 L234.2,76.9 L233.5,76.0 L231.9,75.8 L231.2,76.8 L229.5,77.0 L228.0,74.7 L229.1,74.0 L228.6,73.2 L229.3,73.2 L229.1,72.8 L230.7,72.7 L231.3,71.6 L235.8,69.6 L239.4,68.9 L240.4,69.5 L243.2,68.1 L244.4,68.4 L245.4,67.8 L245.7,66.8 L247.4,66.7 L247.8,66.1 L248.8,66.3 L249.1,65.2 L249.7,65.4 L251.3,64.4 L251.7,64.8 L252.9,64.0 L253.8,65.0 L254.5,64.4 L255.8,65.2 L259.7,64.7 L259.9,66.3 L262.1,66.9 L261.8,67.7 L262.9,69.2 L261.8,70.4 L261.4,72.2 L263.6,75.1 L264.0,77.4 L262.6,78.6 L260.4,79.3 L257.5,79.7 L256.3,79.0 L256.1,78.7 L254.4,78.8 L251.8,79.7 L251.1,80.4 L250.6,80.4 L248.8,84.1 L249.1,86.2 L247.9,87.3 L248.2,90.0 L236.9,93.0 L236.4,92.8 L236.9,91.6 L236.6,90.5 L235.8,90.4 L236.1,88.8ZM216.9,131.6 L216.3,131.4 L215.3,132.2 L213.7,134.9 L212.1,133.7 L209.7,135.8 L209.1,132.0 L207.9,130.7 L206.5,130.4 L206.0,129.1 L204.6,128.9 L204.0,127.6 L204.6,127.0 L204.0,126.7 L204.0,125.9 L204.7,125.6 L204.8,126.4 L205.3,125.5 L206.9,126.7 L206.8,129.4 L207.9,128.9 L208.1,127.8 L208.3,128.3 L208.9,127.9 L209.1,126.9 L210.2,128.1 L210.6,127.2 L211.8,127.5 L212.1,126.8 L212.5,126.5 L212.6,125.4 L214.0,126.8 L214.2,126.2 L215.1,126.1 L215.4,127.5 L217.5,128.7 L218.0,127.4 L219.7,127.5 L220.2,124.8 L221.4,123.4 L222.2,123.3 L224.0,126.4 L222.6,127.0 L222.2,128.1 L222.7,129.3 L223.4,129.6 L223.2,130.9 L222.2,131.6 L220.4,131.7 L219.7,132.6 L219.4,132.1 L218.5,132.4 L218.4,131.5 L217.9,131.9 L217.8,131.0 L217.3,131.1 L217.7,132.3Z"/></clipPath><clipPath id="frameu21"><rect x="11" y="11" width="348" height="298"/></clipPath></defs><g clip-path="url(#frameu21)"><path d="M340.9,183.0 L650.8,172.9 L650.8,193.1ZM375.3,214.0 L647.2,241.1 L641.1,277.4ZM368.1,232.6 L638.2,290.6 L629.0,323.4ZM354.7,260.1 L613.6,364.6 L600.3,392.9ZM343.0,275.5 L591.2,409.7 L576.4,434.1ZM323.3,297.5 L547.2,474.0 L530.3,493.5ZM308.3,308.7 L513.2,511.2 L496.4,526.9ZM284.2,323.9 L453.2,560.9 L436.3,572.1ZM267.3,330.4 L418.7,582.6 L386.1,599.6ZM240.9,338.2 L348.0,615.4 L315.6,625.8ZM223.5,339.7 L299.8,629.9 L269.2,636.3ZM196.9,339.9 L222.8,641.9 L194.3,643.0ZM180.4,336.6 L172.4,642.6 L146.7,640.9ZM155.8,329.9 L95.1,632.9 L72.7,627.6ZM128.0,360.1 L46.5,619.7 L27.4,612.9ZM100.9,344.6 L-16.6,593.5 L-48.7,575.6ZM86.0,331.7 L-60.3,568.4 L-88.1,548.7ZM64.9,310.1 L-121.7,520.4 L-143.9,498.4ZM54.4,294.1 L-156.7,484.2 L-174.7,462.1ZM40.5,268.4 L-202.6,421.2 L-215.3,398.8ZM35.0,250.7 L-226.3,376.8 L-235.4,355.7ZM28.8,223.2 L-253.0,303.6 L-257.9,283.9ZM28.5,205.3 L-261.9,263.8 L-266.9,227.4ZM30.0,178.2 L-269.1,186.2 L-268.0,152.2ZM34.4,161.5 L-266.7,135.9 L-262.4,104.9ZM43.0,136.7 L-252.1,59.3 L-243.6,32.1ZM51.5,122.4 L-236.0,11.6 L-225.7,-12.0ZM32.5,80.0 L-200.9,-58.0 L-188.4,-77.3ZM46.6,65.6 L-172.2,-99.4 L-159.4,-115.1ZM70.1,45.6 L-126.4,-150.0 L-98.8,-174.3ZM87.1,35.9 L-88.1,-182.7 L-60.3,-202.4ZM114.2,23.5 L-22.3,-224.6 L5.9,-238.1ZM132.7,19.0 L23.5,-245.5 L50.4,-255.0ZM161.2,14.6 L98.2,-267.6 L123.6,-272.0ZM179.5,15.4 L148.1,-275.0 L171.0,-276.6ZM207.1,18.8 L226.0,-275.7 L246.1,-273.7ZM223.9,24.4 L266.4,-270.8 L302.5,-263.3ZM248.6,34.8 L341.9,-251.5 L373.6,-239.2ZM262.7,44.5 L388.6,-232.4 L416.3,-218.0ZM282.9,60.7 L455.8,-193.1 L478.6,-175.9ZM293.3,73.4 L495.4,-161.8 L514.2,-144.3ZM339.5,69.4 L549.2,-105.5 L563.2,-87.2ZM348.1,87.4 L578.6,-64.6 L589.1,-47.3ZM359.0,115.9 L611.0,-4.5 L624.6,29.7ZM362.3,135.0 L629.0,42.6 L638.2,75.4ZM364.9,164.4 L646.4,118.5 L649.7,149.6Z" fill="#3B3540" opacity="0.35"/></g><path d="M183.3,299.5 L172.7,302.0 L171.3,298.0 L166.5,295.4 L164.8,292.0 L158.1,287.5 L160.3,279.8 L163.9,277.6 L166.2,270.4 L164.5,270.2 L164.0,267.9 L157.8,266.8 L158.8,262.9 L157.9,260.9 L161.8,257.6 L161.5,254.1 L162.9,252.0 L161.6,249.0 L163.3,249.9 L164.8,248.9 L168.7,242.0 L163.2,236.8 L157.7,234.9 L155.7,236.3 L149.9,234.9 L148.7,237.3 L146.9,236.4 L158.9,220.8 L161.5,221.6 L161.9,224.2 L163.4,223.9 L163.4,227.4 L164.0,227.8 L163.5,231.4 L170.3,234.2 L170.3,235.6 L169.2,235.6 L171.7,239.7 L170.9,240.7 L173.1,245.3 L172.7,247.1 L176.8,249.9 L179.0,249.4 L179.7,252.7 L186.8,256.7 L186.9,257.9 L188.8,257.5 L189.5,264.0 L191.5,268.2 L197.4,272.1 L190.5,285.0 L186.3,286.6 L188.1,291.2 L184.8,298.9ZM184.2,255.6 L183.1,254.1 L179.7,252.7 L179.0,249.4 L176.8,249.9 L172.7,247.1 L173.1,245.3 L172.0,244.1 L172.0,241.5 L171.2,241.8 L170.9,240.7 L171.7,239.7 L169.2,235.6 L170.3,235.6 L170.3,234.2 L169.2,234.4 L168.4,233.1 L166.3,232.3 L166.6,228.0 L168.3,227.8 L168.6,226.7 L167.4,226.3 L167.4,224.3 L165.2,225.3 L164.4,222.9 L163.8,224.4 L162.6,223.4 L161.9,224.2 L161.5,221.6 L160.3,221.8 L158.9,220.8 L162.7,215.8 L162.7,215.4 L163.5,213.1 L164.6,213.1 L165.7,211.7 L165.0,211.0 L166.1,209.1 L168.9,211.4 L175.8,203.5 L177.2,204.5 L176.3,205.8 L178.7,208.6 L179.4,207.4 L183.5,208.9 L183.6,209.7 L185.5,209.3 L188.9,210.7 L188.5,213.1 L190.1,218.0 L189.5,220.5 L191.0,220.6 L193.0,223.3 L190.1,230.0 L189.9,232.3 L191.1,234.2 L190.1,235.9 L190.5,238.0 L189.2,239.5 L190.3,240.8 L187.9,243.0 L186.7,243.0 L186.6,244.2 L186.8,245.6 L187.9,245.7 L190.1,247.8 L190.7,252.9 L191.8,254.8 L187.7,258.1 L186.9,257.8 L186.8,256.7ZM151.1,288.7 L150.4,287.0 L151.2,283.0 L150.3,282.4 L149.5,274.7 L148.1,273.6 L148.3,272.0 L146.8,271.2 L146.4,270.0 L142.3,270.1 L141.1,269.5 L141.2,268.2 L139.9,266.7 L140.4,263.5 L138.6,262.4 L140.9,259.8 L140.4,259.9 L139.9,257.9 L138.1,258.0 L136.7,255.6 L137.6,253.7 L136.7,252.9 L135.7,253.4 L136.2,252.4 L134.8,250.7 L141.8,243.1 L142.5,243.6 L143.9,242.2 L147.9,242.3 L148.1,241.2 L148.9,241.0 L150.1,241.3 L148.7,244.0 L149.4,244.1 L149.2,245.5 L149.9,245.4 L150.1,244.0 L150.7,244.8 L154.9,243.3 L155.9,244.8 L157.5,245.6 L156.9,246.5 L158.3,247.0 L159.2,249.0 L160.2,248.2 L161.2,248.6 L162.6,250.5 L162.8,252.4 L161.5,254.1 L161.8,257.6 L160.6,258.8 L159.3,258.7 L159.2,259.9 L157.9,260.9 L158.8,262.9 L157.9,264.1 L158.6,265.1 L157.8,266.8 L159.0,267.5 L160.8,266.8 L162.1,267.8 L164.0,267.9 L164.5,270.2 L166.2,270.4 L164.9,272.2 L163.9,277.6 L160.3,279.8 L158.0,286.4 L158.3,287.8 L155.6,289.1 L154.3,288.4 L153.0,289.3ZM134.0,285.9 L132.9,286.2 L131.1,284.9 L130.0,283.0 L130.0,281.4 L129.0,279.1 L129.5,275.7 L127.5,274.9 L127.3,273.1 L126.4,272.9 L125.5,271.1 L123.4,270.5 L123.1,269.8 L121.0,269.9 L121.2,269.2 L120.5,269.3 L120.3,268.7 L120.6,267.8 L119.6,267.6 L119.9,266.0 L117.9,264.8 L122.1,261.2 L125.2,255.8 L127.1,255.8 L129.9,254.6 L134.8,250.7 L136.2,252.4 L135.7,253.4 L136.7,252.9 L137.6,253.7 L136.7,255.6 L138.1,257.1 L138.1,258.0 L139.9,257.9 L140.4,259.9 L140.9,259.8 L138.6,262.4 L140.4,263.5 L140.5,265.8 L139.9,266.7 L141.2,268.2 L141.1,269.5 L142.3,270.1 L146.4,270.0 L146.8,271.2 L148.3,272.0 L148.1,273.6 L148.6,274.6 L149.5,274.7 L150.3,282.4 L151.3,283.7 L150.4,287.3 L149.3,287.5 L146.4,290.8 L144.8,290.1 L143.7,290.7 L141.6,287.9 L140.3,287.5 L139.6,285.0 L137.1,285.8 L134.3,285.4ZM184.2,209.5 L184.0,209.2 L183.5,209.7 L183.5,208.9 L182.8,208.7 L182.3,209.0 L181.9,208.5 L179.6,207.9 L179.4,207.4 L178.7,208.6 L178.5,208.3 L178.8,207.9 L176.3,205.8 L177.2,204.5 L175.8,203.5 L177.0,201.8 L177.1,200.2 L177.7,200.3 L177.8,199.4 L178.4,199.4 L178.5,199.4 L180.8,199.0 L180.4,199.4 L180.8,199.6 L182.2,199.1 L182.6,197.7 L183.4,197.4 L183.6,196.7 L183.2,196.4 L184.5,195.6 L184.4,195.0 L184.8,195.1 L184.6,194.8 L184.8,194.9 L185.6,193.7 L186.6,192.9 L185.6,192.4 L185.9,190.6 L186.3,190.6 L186.6,189.9 L188.5,190.5 L191.1,189.1 L191.3,188.6 L191.8,189.0 L192.9,188.8 L194.2,186.8 L194.3,186.5 L194.9,186.1 L195.2,186.5 L195.1,188.3 L195.4,188.4 L195.0,188.8 L196.6,190.3 L196.6,190.7 L195.8,192.0 L193.6,192.8 L193.3,194.3 L191.8,194.4 L191.6,194.7 L190.2,194.5 L189.8,196.0 L189.3,196.2 L190.5,197.7 L192.7,199.2 L192.0,201.5 L193.4,201.9 L193.7,202.4 L193.4,203.4 L193.8,204.2 L193.1,204.6 L192.8,205.6 L192.1,206.1 L191.7,207.8 L190.8,208.0 L190.7,209.6 L189.9,210.5 L188.4,210.9 L187.8,210.1 L186.5,210.2 L185.7,209.8 L185.5,209.3 L184.9,209.2 L184.6,209.8ZM149.3,245.5 L149.4,244.1 L148.7,244.0 L150.1,241.3 L149.4,241.6 L148.9,241.0 L148.3,241.1 L147.9,242.3 L143.9,242.2 L142.5,243.6 L141.8,243.1 L146.9,236.4 L148.3,237.4 L149.0,237.0 L150.6,238.1 L153.7,237.0 L154.6,237.3 L154.5,237.9 L161.1,238.3 L161.1,237.9 L162.0,237.9 L162.1,238.3 L164.8,238.6 L166.5,239.2 L167.1,239.9 L167.2,240.8 L168.7,242.0 L168.5,243.1 L168.0,242.9 L166.6,246.5 L165.6,247.4 L165.0,247.4 L164.8,248.9 L163.8,249.1 L163.8,249.6 L163.4,249.9 L162.3,248.9 L161.7,249.0 L160.2,248.2 L159.6,249.1 L159.3,249.0 L158.3,247.9 L158.6,247.4 L158.3,247.0 L157.0,246.5 L156.0,247.3 L156.1,246.6 L157.5,245.6 L156.8,245.6 L155.9,244.8 L154.9,243.3 L150.7,244.8 L150.6,244.1 L150.1,244.0 L149.9,245.4ZM174.2,199.5 L173.6,199.1 L176.8,193.2 L180.8,184.7 L181.5,184.9 L183.1,184.4 L184.0,184.4 L184.0,185.6 L184.8,185.8 L185.7,185.3 L187.7,185.2 L188.0,185.4 L188.3,186.4 L189.4,186.5 L189.4,187.2 L191.1,187.5 L191.4,187.2 L193.0,188.4 L192.9,188.8 L191.9,189.0 L191.3,188.6 L191.1,189.1 L189.5,189.7 L188.5,190.5 L187.2,190.2 L186.9,189.7 L186.6,189.9 L186.3,190.6 L185.9,190.6 L186.0,191.4 L185.6,191.5 L185.6,192.4 L186.6,192.9 L186.1,193.6 L185.6,193.7 L184.8,194.9 L184.6,194.8 L184.8,195.1 L184.4,195.0 L184.6,195.2 L184.3,195.4 L184.5,195.6 L183.2,196.4 L183.6,196.7 L183.4,197.4 L183.2,197.3 L183.1,197.7 L182.6,197.7 L182.2,199.1 L180.8,199.6 L180.4,199.4 L180.5,199.2 L180.8,199.4 L180.8,199.0 L178.5,199.4 L178.4,199.4 L177.8,199.4 L177.7,200.3 L177.1,200.2 L176.7,202.2 L175.3,201.2 L175.9,200.2ZM167.8,210.2 L166.9,209.2 L168.0,208.2 L169.5,206.1 L170.1,205.0 L170.2,205.0 L170.3,204.8 L170.1,204.4 L170.3,204.5 L170.7,204.1 L173.6,199.2 L175.9,200.2 L175.3,201.2 L176.7,202.2 L173.3,207.1 L171.6,208.4 L168.9,211.4 L168.6,210.9ZM151.1,237.9 L150.6,238.1 L150.0,238.0 L149.0,237.0 L149.9,235.8 L149.9,234.9 L150.6,234.7 L152.9,235.6 L153.8,235.3 L154.4,235.5 L154.7,236.0 L155.7,236.3 L156.2,235.9 L156.9,235.7 L157.1,234.7 L158.6,235.1 L161.6,236.9 L163.2,236.8 L163.7,237.1 L164.2,238.0 L164.8,238.3 L164.7,238.6 L162.1,238.3 L162.0,237.9 L161.1,237.9 L161.1,238.3 L154.5,237.9 L154.6,237.3 L153.7,237.0 L152.8,237.1ZM164.3,231.9 L164.2,231.4 L163.5,231.4 L163.1,230.7 L163.2,230.2 L163.7,229.7 L163.6,229.0 L163.7,228.6 L163.9,228.5 L164.0,227.8 L163.0,227.6 L162.0,227.6 L162.0,227.1 L162.6,227.1 L162.7,227.4 L163.4,227.4 L163.3,226.5 L162.6,226.7 L162.6,225.8 L162.8,225.8 L162.8,225.9 L163.5,225.8 L163.8,225.1 L163.5,224.5 L163.8,224.4 L163.8,223.2 L164.4,223.1 L164.4,222.9 L164.6,222.9 L165.2,225.3 L166.0,225.1 L166.1,224.3 L166.4,224.4 L166.8,224.1 L167.1,224.4 L167.2,224.3 L167.4,224.3 L167.6,225.4 L167.9,225.9 L167.5,225.8 L167.4,226.3 L168.4,226.4 L168.6,226.7 L168.3,227.8 L167.2,227.6 L166.8,228.1 L166.6,228.0 L166.6,230.1 L166.2,231.1 L166.3,232.5 L165.6,232.5 L165.5,231.9 L165.2,231.9 L165.0,231.9 L165.0,232.1 L164.3,232.2ZM184.0,185.5 L184.0,184.4 L183.1,184.4 L181.5,184.9 L180.8,184.7 L183.4,178.5 L185.2,172.4 L187.6,172.3 L188.7,172.6 L188.6,171.2 L189.5,171.1 L189.4,169.7 L189.8,169.7 L190.5,168.3 L191.0,168.4 L190.9,168.9 L192.9,168.6 L194.2,168.9 L194.5,169.9 L195.2,170.6 L195.0,171.2 L195.2,171.5 L198.2,171.1 L198.5,171.9 L199.2,171.5 L200.0,171.7 L200.3,172.1 L200.0,172.9 L198.9,173.3 L199.0,173.8 L198.7,174.2 L199.5,174.8 L198.8,175.3 L198.8,176.4 L198.1,176.6 L198.6,178.4 L197.0,181.5 L197.8,184.0 L197.3,185.2 L196.4,185.9 L197.6,187.9 L197.1,189.7 L196.6,190.3 L195.2,189.1 L195.0,188.7 L195.4,188.4 L195.1,188.3 L194.9,186.8 L195.2,186.5 L194.9,186.1 L194.3,186.5 L194.2,186.8 L193.3,188.2 L192.9,188.4 L191.4,187.2 L191.1,187.5 L189.4,187.2 L189.4,186.5 L188.3,186.4 L187.7,185.2 L185.7,185.3 L184.8,185.8ZM185.3,172.4 L186.5,166.4 L186.4,164.3 L185.7,163.1 L185.4,163.0 L184.9,163.4 L185.1,163.1 L185.2,162.9 L184.6,163.0 L184.1,162.4 L184.1,161.8 L185.7,159.7 L185.5,158.8 L185.0,158.7 L185.0,158.4 L185.5,158.6 L185.9,158.2 L186.6,156.5 L187.8,156.4 L188.2,156.7 L188.6,157.3 L188.5,158.1 L189.0,158.9 L189.9,159.4 L190.2,158.3 L190.0,157.5 L189.6,157.4 L189.3,157.0 L189.3,156.1 L189.6,155.9 L190.2,156.3 L190.8,156.3 L191.0,156.6 L190.0,157.4 L190.3,158.3 L190.3,158.4 L190.2,159.0 L190.5,158.9 L190.5,158.7 L190.8,158.7 L190.8,159.0 L190.5,158.8 L190.5,158.9 L190.2,159.1 L190.4,159.4 L191.1,159.0 L191.3,159.2 L191.5,159.1 L191.4,159.3 L191.8,160.0 L191.1,160.0 L191.1,160.1 L191.0,160.2 L190.9,160.5 L190.5,159.5 L190.2,159.5 L190.2,159.7 L190.0,159.5 L190.2,160.6 L193.1,159.9 L194.0,158.9 L194.5,159.9 L194.3,160.0 L194.4,160.5 L193.7,161.0 L194.0,161.5 L194.9,160.2 L195.8,159.9 L196.1,160.2 L197.9,159.1 L197.9,159.9 L197.6,160.1 L197.9,160.2 L197.6,160.6 L199.2,160.9 L200.8,163.4 L200.8,164.5 L201.0,164.7 L201.9,164.6 L201.0,165.8 L200.9,166.9 L201.3,168.7 L201.9,169.3 L201.4,169.7 L201.5,170.7 L200.6,172.1 L199.6,171.6 L198.9,171.6 L198.5,171.9 L198.2,171.1 L195.2,171.5 L195.0,171.2 L195.2,170.6 L194.5,169.9 L194.2,168.9 L193.5,169.0 L192.9,168.6 L190.9,168.9 L191.0,168.4 L190.6,168.3 L189.8,169.7 L189.4,169.7 L189.5,171.1 L188.9,171.0 L188.6,171.2 L188.8,172.1 L188.7,172.6 L187.6,172.3ZM187.0,156.5 L186.2,152.8 L186.7,150.7 L183.3,148.6 L183.7,145.7 L182.9,145.8 L183.2,145.0 L182.0,143.9 L182.1,142.6 L181.6,142.8 L180.5,140.8 L180.1,141.0 L180.0,137.9 L180.7,136.9 L180.4,136.6 L181.5,134.7 L180.9,131.9 L181.2,128.7 L178.6,126.4 L177.6,126.4 L177.6,126.4 L177.1,127.9 L177.9,127.7 L177.6,128.1 L175.7,128.5 L175.7,127.7 L174.3,128.0 L173.6,126.3 L174.6,123.7 L174.3,120.7 L175.3,119.0 L174.7,118.2 L175.3,117.8 L175.0,117.0 L177.1,114.9 L179.2,114.5 L179.7,115.2 L179.1,117.1 L182.5,117.7 L182.3,118.5 L183.3,119.7 L187.2,117.8 L187.3,116.7 L189.1,115.1 L190.8,115.0 L192.7,113.7 L193.5,114.0 L194.1,115.7 L193.2,116.7 L193.6,118.6 L191.1,119.6 L190.8,122.4 L188.7,125.2 L188.3,127.2 L188.8,129.6 L187.6,131.2 L189.3,134.7 L191.3,135.7 L192.1,137.7 L192.8,137.4 L195.6,139.1 L194.9,140.7 L196.3,140.5 L196.9,142.2 L198.9,143.6 L197.2,146.9 L197.2,149.8 L196.1,151.7 L196.3,154.7 L197.6,156.1 L193.1,159.9 L190.2,160.7 L190.3,160.5 L190.5,159.5 L190.9,160.5 L191.8,160.0 L191.1,159.0 L190.4,159.4 L190.8,158.7 L190.2,159.0 L189.9,159.4 L190.1,157.4 L191.0,156.6 L189.3,156.1 L190.2,158.3 L189.9,159.4 L189.0,158.9 L188.2,156.7ZM189.2,114.4 L189.2,114.0 L190.2,113.9 L191.0,111.4 L192.3,110.2 L191.8,109.1 L192.4,109.1 L192.9,107.2 L193.5,108.7 L194.6,109.4 L194.2,110.3 L194.9,110.1 L195.5,111.1 L199.1,107.9 L200.5,105.7 L202.8,106.4 L204.9,104.9 L208.1,105.1 L209.4,103.8 L211.0,103.5 L211.1,102.8 L212.8,103.0 L214.9,101.1 L215.7,101.0 L216.2,101.8 L215.1,102.7 L216.7,103.5 L215.9,104.4 L216.0,106.3 L216.7,107.0 L217.4,106.7 L217.5,108.4 L218.4,107.6 L218.7,109.9 L222.5,110.2 L223.5,108.2 L224.3,108.2 L226.7,109.5 L226.9,110.6 L226.7,110.9 L225.7,113.0 L225.5,115.8 L224.7,116.0 L224.4,116.8 L223.5,116.4 L220.2,117.4 L221.1,117.7 L220.6,118.3 L221.3,118.9 L220.5,119.1 L220.2,120.2 L219.1,119.5 L218.3,120.9 L217.6,120.8 L215.7,118.2 L215.1,118.3 L214.6,117.3 L214.4,118.0 L213.1,118.0 L212.5,116.6 L212.3,117.6 L211.3,116.7 L210.9,114.9 L209.8,115.5 L211.2,113.4 L212.5,112.6 L211.7,112.2 L210.0,112.7 L209.4,114.2 L209.2,113.4 L208.7,113.9 L208.2,112.8 L207.4,113.3 L207.0,112.6 L206.8,113.3 L208.2,114.3 L208.0,114.8 L206.3,114.8 L205.9,113.6 L204.6,115.2 L205.9,115.2 L205.8,116.1 L206.8,115.8 L206.8,116.5 L207.7,117.1 L207.5,117.7 L207.1,118.4 L207.0,117.2 L205.8,118.1 L204.6,117.6 L205.5,119.0 L204.6,119.6 L202.4,123.2 L200.1,121.5 L198.0,122.2 L197.0,118.4 L194.8,118.0 L193.4,118.3 L193.2,116.7 L194.1,115.7 L193.5,115.1 L193.5,113.9 L192.4,113.7 L190.5,115.1ZM200.7,164.4 L200.8,163.4 L199.3,160.9 L197.6,160.6 L197.9,160.2 L197.6,160.1 L197.9,159.9 L197.9,159.1 L196.1,160.2 L195.8,159.9 L194.9,160.2 L194.0,161.5 L193.7,161.0 L194.5,160.3 L194.1,158.8 L196.1,157.9 L196.3,157.3 L197.6,156.1 L197.2,156.0 L196.8,154.8 L196.3,154.7 L196.5,154.2 L196.1,151.7 L197.2,149.8 L197.2,146.9 L197.7,146.0 L198.3,146.2 L198.5,146.6 L198.2,146.9 L198.8,147.5 L199.6,147.5 L200.0,147.9 L202.3,147.8 L203.3,148.3 L206.2,147.8 L207.1,150.1 L206.9,150.6 L207.4,151.2 L208.8,151.8 L209.5,151.6 L210.7,152.7 L211.1,153.4 L210.2,154.4 L211.8,155.2 L213.0,155.1 L213.8,154.4 L215.0,156.3 L214.6,158.3 L213.4,159.7 L213.0,159.1 L212.1,158.9 L210.8,157.7 L208.5,158.7 L207.8,158.6 L206.8,160.7 L206.3,160.8 L205.8,161.8 L203.2,162.8 L202.8,163.8 L202.2,164.1 L201.9,164.6 L201.0,164.7ZM177.6,115.1 L177.0,114.5 L178.3,113.1 L177.6,111.2 L180.4,109.1 L182.2,104.4 L181.8,103.1 L180.9,103.0 L180.5,98.0 L182.7,95.8 L182.5,94.1 L183.6,95.0 L184.7,94.3 L184.2,92.6 L185.0,91.4 L188.4,90.8 L189.5,89.3 L190.9,89.5 L192.2,87.8 L199.7,84.5 L202.7,85.5 L203.6,84.5 L204.2,86.1 L207.2,86.4 L218.0,80.7 L220.7,80.3 L222.9,77.5 L225.3,77.3 L227.9,75.0 L230.1,77.1 L231.9,75.8 L233.5,76.0 L234.2,76.9 L233.5,79.1 L239.2,81.7 L236.8,84.2 L233.7,85.6 L232.8,84.8 L230.6,86.3 L230.2,87.9 L229.1,87.3 L228.0,88.0 L226.3,86.5 L223.6,89.0 L221.2,87.0 L216.9,86.4 L212.6,89.8 L214.2,93.8 L213.0,95.6 L214.3,96.7 L211.9,100.4 L213.0,101.3 L212.5,102.8 L211.1,102.8 L208.1,105.1 L204.6,105.0 L202.9,106.4 L200.5,105.7 L195.5,111.1 L192.9,107.2 L191.7,111.2 L190.2,113.9 L189.2,114.0 L189.8,114.8 L185.9,118.6 L183.3,119.7 L182.5,117.7 L179.1,117.1 L179.2,114.5ZM212.4,100.8 L211.9,100.4 L213.1,98.3 L214.0,98.1 L214.3,96.7 L213.0,95.6 L214.2,93.8 L212.9,92.0 L213.4,91.0 L212.7,90.6 L212.6,89.8 L215.5,88.0 L217.0,86.3 L219.3,86.6 L220.3,87.3 L221.2,87.0 L224.2,89.1 L225.1,88.1 L225.2,86.7 L227.6,86.8 L228.1,88.0 L229.1,87.3 L230.2,87.9 L230.6,86.3 L232.1,86.1 L232.7,85.6 L234.5,85.5 L234.2,87.3 L236.1,88.8 L235.8,90.4 L236.6,90.4 L236.9,91.6 L236.4,92.8 L246.8,90.7 L247.8,90.0 L248.9,90.6 L248.6,91.6 L249.4,93.1 L250.1,93.3 L251.7,92.5 L251.8,92.9 L251.1,94.6 L249.9,95.3 L250.7,95.7 L251.6,95.3 L251.9,96.0 L251.1,97.1 L251.5,97.6 L249.7,99.0 L249.6,100.2 L248.2,101.4 L247.6,101.0 L246.7,101.0 L247.8,101.6 L246.7,101.8 L247.6,102.1 L247.5,102.8 L246.8,102.3 L245.8,102.9 L245.9,102.4 L245.0,102.2 L244.8,102.8 L244.2,102.7 L243.6,102.6 L244.1,101.6 L242.4,102.2 L241.8,101.7 L239.2,102.0 L238.3,101.1 L238.4,102.1 L237.3,102.4 L237.5,101.5 L236.7,100.8 L237.1,101.8 L236.5,102.5 L235.7,102.1 L229.7,105.4 L228.7,108.1 L229.2,109.0 L226.9,110.6 L226.7,109.5 L224.4,108.2 L223.5,108.2 L222.5,110.2 L218.7,110.0 L218.4,107.6 L217.5,108.4 L217.4,106.7 L216.7,107.0 L216.0,106.3 L215.9,104.4 L216.7,103.5 L215.1,102.6 L216.1,101.3 L214.9,101.1 L212.7,103.0 L213.0,101.4ZM215.0,156.0 L213.8,154.4 L211.8,155.2 L210.2,154.4 L211.1,153.4 L210.7,152.7 L209.5,151.6 L207.4,151.2 L206.2,147.8 L203.3,148.3 L198.8,147.5 L197.7,146.0 L198.9,143.6 L197.8,142.3 L196.9,142.2 L196.3,140.5 L194.9,140.7 L195.6,139.1 L192.8,137.4 L192.1,137.7 L191.3,135.7 L189.3,134.7 L187.6,131.2 L188.8,129.6 L188.3,127.2 L188.7,125.2 L190.8,122.4 L191.1,119.6 L193.8,118.2 L197.0,118.4 L198.0,122.2 L200.1,121.5 L202.5,123.2 L201.6,124.1 L201.1,126.5 L200.3,126.9 L200.5,127.8 L201.3,128.6 L201.3,127.9 L202.0,127.9 L201.7,127.4 L202.6,127.2 L203.9,128.5 L202.9,132.6 L201.6,131.9 L201.2,132.8 L200.4,132.1 L199.5,132.6 L199.3,134.8 L200.1,136.4 L198.9,137.0 L198.4,138.1 L200.3,139.2 L202.2,139.5 L202.5,138.5 L203.6,138.9 L204.6,137.7 L204.6,136.2 L205.8,135.7 L207.5,136.7 L209.5,137.0 L208.8,138.0 L208.4,137.8 L208.6,139.1 L209.1,139.6 L212.0,139.7 L211.1,141.3 L212.4,142.5 L213.7,142.9 L213.7,142.0 L215.0,142.8 L215.3,142.4 L216.1,142.3 L215.4,141.5 L216.2,140.9 L216.9,141.7 L217.5,141.3 L217.8,140.4 L217.0,140.1 L217.8,138.2 L218.4,138.7 L218.4,136.5 L219.7,134.1 L220.8,133.2 L221.4,133.8 L222.4,133.1 L223.7,133.4 L224.4,132.9 L224.3,133.8 L223.3,134.2 L224.0,138.4 L223.3,141.0 L223.4,144.0 L223.1,143.7 L222.8,144.5 L223.7,147.1 L222.9,148.8 L223.9,151.5 L223.2,152.8 L224.1,156.5 L223.6,157.2 L221.8,156.0 L220.4,156.7 L217.5,156.9 L216.4,156.0ZM234.3,87.1 L234.1,85.0 L236.9,84.2 L239.2,81.7 L235.5,80.4 L233.5,79.1 L233.5,77.8 L234.2,76.9 L233.5,76.0 L231.9,75.8 L231.2,76.8 L229.5,77.0 L228.0,74.7 L229.1,74.0 L228.6,73.2 L229.3,73.2 L229.1,72.8 L230.7,72.7 L231.3,71.6 L235.8,69.6 L239.4,68.9 L240.4,69.5 L243.2,68.1 L244.4,68.4 L245.4,67.8 L245.7,66.8 L247.4,66.7 L247.8,66.1 L248.8,66.3 L249.1,65.2 L249.7,65.4 L251.3,64.4 L251.7,64.8 L252.9,64.0 L253.8,65.0 L254.5,64.4 L255.8,65.2 L259.7,64.7 L259.9,66.3 L262.1,66.9 L261.8,67.7 L262.9,69.2 L261.8,70.4 L261.4,72.2 L263.6,75.1 L264.0,77.4 L262.6,78.6 L260.4,79.3 L257.5,79.7 L256.3,79.0 L256.1,78.7 L254.4,78.8 L251.8,79.7 L251.1,80.4 L250.6,80.4 L248.8,84.1 L249.1,86.2 L247.9,87.3 L248.2,90.0 L236.9,93.0 L236.4,92.8 L236.9,91.6 L236.6,90.5 L235.8,90.4 L236.1,88.8ZM216.9,131.6 L216.3,131.4 L215.3,132.2 L213.7,134.9 L212.1,133.7 L209.7,135.8 L209.1,132.0 L207.9,130.7 L206.5,130.4 L206.0,129.1 L204.6,128.9 L204.0,127.6 L204.6,127.0 L204.0,126.7 L204.0,125.9 L204.7,125.6 L204.8,126.4 L205.3,125.5 L206.9,126.7 L206.8,129.4 L207.9,128.9 L208.1,127.8 L208.3,128.3 L208.9,127.9 L209.1,126.9 L210.2,128.1 L210.6,127.2 L211.8,127.5 L212.1,126.8 L212.5,126.5 L212.6,125.4 L214.0,126.8 L214.2,126.2 L215.1,126.1 L215.4,127.5 L217.5,128.7 L218.0,127.4 L219.7,127.5 L220.2,124.8 L221.4,123.4 L222.2,123.3 L224.0,126.4 L222.6,127.0 L222.2,128.1 L222.7,129.3 L223.4,129.6 L223.2,130.9 L222.2,131.6 L220.4,131.7 L219.7,132.6 L219.4,132.1 L218.5,132.4 L218.4,131.5 L217.9,131.9 L217.8,131.0 L217.3,131.1 L217.7,132.3Z" fill="none" stroke="#1E1A1D" stroke-width="12" stroke-linejoin="round"/><path d="M183.3,299.5 L172.7,302.0 L171.3,298.0 L166.5,295.4 L164.8,292.0 L158.1,287.5 L160.3,279.8 L163.9,277.6 L166.2,270.4 L164.5,270.2 L164.0,267.9 L157.8,266.8 L158.8,262.9 L157.9,260.9 L161.8,257.6 L161.5,254.1 L162.9,252.0 L161.6,249.0 L163.3,249.9 L164.8,248.9 L168.7,242.0 L163.2,236.8 L157.7,234.9 L155.7,236.3 L149.9,234.9 L148.7,237.3 L146.9,236.4 L158.9,220.8 L161.5,221.6 L161.9,224.2 L163.4,223.9 L163.4,227.4 L164.0,227.8 L163.5,231.4 L170.3,234.2 L170.3,235.6 L169.2,235.6 L171.7,239.7 L170.9,240.7 L173.1,245.3 L172.7,247.1 L176.8,249.9 L179.0,249.4 L179.7,252.7 L186.8,256.7 L186.9,257.9 L188.8,257.5 L189.5,264.0 L191.5,268.2 L197.4,272.1 L190.5,285.0 L186.3,286.6 L188.1,291.2 L184.8,298.9ZM184.2,255.6 L183.1,254.1 L179.7,252.7 L179.0,249.4 L176.8,249.9 L172.7,247.1 L173.1,245.3 L172.0,244.1 L172.0,241.5 L171.2,241.8 L170.9,240.7 L171.7,239.7 L169.2,235.6 L170.3,235.6 L170.3,234.2 L169.2,234.4 L168.4,233.1 L166.3,232.3 L166.6,228.0 L168.3,227.8 L168.6,226.7 L167.4,226.3 L167.4,224.3 L165.2,225.3 L164.4,222.9 L163.8,224.4 L162.6,223.4 L161.9,224.2 L161.5,221.6 L160.3,221.8 L158.9,220.8 L162.7,215.8 L162.7,215.4 L163.5,213.1 L164.6,213.1 L165.7,211.7 L165.0,211.0 L166.1,209.1 L168.9,211.4 L175.8,203.5 L177.2,204.5 L176.3,205.8 L178.7,208.6 L179.4,207.4 L183.5,208.9 L183.6,209.7 L185.5,209.3 L188.9,210.7 L188.5,213.1 L190.1,218.0 L189.5,220.5 L191.0,220.6 L193.0,223.3 L190.1,230.0 L189.9,232.3 L191.1,234.2 L190.1,235.9 L190.5,238.0 L189.2,239.5 L190.3,240.8 L187.9,243.0 L186.7,243.0 L186.6,244.2 L186.8,245.6 L187.9,245.7 L190.1,247.8 L190.7,252.9 L191.8,254.8 L187.7,258.1 L186.9,257.8 L186.8,256.7ZM151.1,288.7 L150.4,287.0 L151.2,283.0 L150.3,282.4 L149.5,274.7 L148.1,273.6 L148.3,272.0 L146.8,271.2 L146.4,270.0 L142.3,270.1 L141.1,269.5 L141.2,268.2 L139.9,266.7 L140.4,263.5 L138.6,262.4 L140.9,259.8 L140.4,259.9 L139.9,257.9 L138.1,258.0 L136.7,255.6 L137.6,253.7 L136.7,252.9 L135.7,253.4 L136.2,252.4 L134.8,250.7 L141.8,243.1 L142.5,243.6 L143.9,242.2 L147.9,242.3 L148.1,241.2 L148.9,241.0 L150.1,241.3 L148.7,244.0 L149.4,244.1 L149.2,245.5 L149.9,245.4 L150.1,244.0 L150.7,244.8 L154.9,243.3 L155.9,244.8 L157.5,245.6 L156.9,246.5 L158.3,247.0 L159.2,249.0 L160.2,248.2 L161.2,248.6 L162.6,250.5 L162.8,252.4 L161.5,254.1 L161.8,257.6 L160.6,258.8 L159.3,258.7 L159.2,259.9 L157.9,260.9 L158.8,262.9 L157.9,264.1 L158.6,265.1 L157.8,266.8 L159.0,267.5 L160.8,266.8 L162.1,267.8 L164.0,267.9 L164.5,270.2 L166.2,270.4 L164.9,272.2 L163.9,277.6 L160.3,279.8 L158.0,286.4 L158.3,287.8 L155.6,289.1 L154.3,288.4 L153.0,289.3ZM134.0,285.9 L132.9,286.2 L131.1,284.9 L130.0,283.0 L130.0,281.4 L129.0,279.1 L129.5,275.7 L127.5,274.9 L127.3,273.1 L126.4,272.9 L125.5,271.1 L123.4,270.5 L123.1,269.8 L121.0,269.9 L121.2,269.2 L120.5,269.3 L120.3,268.7 L120.6,267.8 L119.6,267.6 L119.9,266.0 L117.9,264.8 L122.1,261.2 L125.2,255.8 L127.1,255.8 L129.9,254.6 L134.8,250.7 L136.2,252.4 L135.7,253.4 L136.7,252.9 L137.6,253.7 L136.7,255.6 L138.1,257.1 L138.1,258.0 L139.9,257.9 L140.4,259.9 L140.9,259.8 L138.6,262.4 L140.4,263.5 L140.5,265.8 L139.9,266.7 L141.2,268.2 L141.1,269.5 L142.3,270.1 L146.4,270.0 L146.8,271.2 L148.3,272.0 L148.1,273.6 L148.6,274.6 L149.5,274.7 L150.3,282.4 L151.3,283.7 L150.4,287.3 L149.3,287.5 L146.4,290.8 L144.8,290.1 L143.7,290.7 L141.6,287.9 L140.3,287.5 L139.6,285.0 L137.1,285.8 L134.3,285.4ZM184.2,209.5 L184.0,209.2 L183.5,209.7 L183.5,208.9 L182.8,208.7 L182.3,209.0 L181.9,208.5 L179.6,207.9 L179.4,207.4 L178.7,208.6 L178.5,208.3 L178.8,207.9 L176.3,205.8 L177.2,204.5 L175.8,203.5 L177.0,201.8 L177.1,200.2 L177.7,200.3 L177.8,199.4 L178.4,199.4 L178.5,199.4 L180.8,199.0 L180.4,199.4 L180.8,199.6 L182.2,199.1 L182.6,197.7 L183.4,197.4 L183.6,196.7 L183.2,196.4 L184.5,195.6 L184.4,195.0 L184.8,195.1 L184.6,194.8 L184.8,194.9 L185.6,193.7 L186.6,192.9 L185.6,192.4 L185.9,190.6 L186.3,190.6 L186.6,189.9 L188.5,190.5 L191.1,189.1 L191.3,188.6 L191.8,189.0 L192.9,188.8 L194.2,186.8 L194.3,186.5 L194.9,186.1 L195.2,186.5 L195.1,188.3 L195.4,188.4 L195.0,188.8 L196.6,190.3 L196.6,190.7 L195.8,192.0 L193.6,192.8 L193.3,194.3 L191.8,194.4 L191.6,194.7 L190.2,194.5 L189.8,196.0 L189.3,196.2 L190.5,197.7 L192.7,199.2 L192.0,201.5 L193.4,201.9 L193.7,202.4 L193.4,203.4 L193.8,204.2 L193.1,204.6 L192.8,205.6 L192.1,206.1 L191.7,207.8 L190.8,208.0 L190.7,209.6 L189.9,210.5 L188.4,210.9 L187.8,210.1 L186.5,210.2 L185.7,209.8 L185.5,209.3 L184.9,209.2 L184.6,209.8ZM149.3,245.5 L149.4,244.1 L148.7,244.0 L150.1,241.3 L149.4,241.6 L148.9,241.0 L148.3,241.1 L147.9,242.3 L143.9,242.2 L142.5,243.6 L141.8,243.1 L146.9,236.4 L148.3,237.4 L149.0,237.0 L150.6,238.1 L153.7,237.0 L154.6,237.3 L154.5,237.9 L161.1,238.3 L161.1,237.9 L162.0,237.9 L162.1,238.3 L164.8,238.6 L166.5,239.2 L167.1,239.9 L167.2,240.8 L168.7,242.0 L168.5,243.1 L168.0,242.9 L166.6,246.5 L165.6,247.4 L165.0,247.4 L164.8,248.9 L163.8,249.1 L163.8,249.6 L163.4,249.9 L162.3,248.9 L161.7,249.0 L160.2,248.2 L159.6,249.1 L159.3,249.0 L158.3,247.9 L158.6,247.4 L158.3,247.0 L157.0,246.5 L156.0,247.3 L156.1,246.6 L157.5,245.6 L156.8,245.6 L155.9,244.8 L154.9,243.3 L150.7,244.8 L150.6,244.1 L150.1,244.0 L149.9,245.4ZM174.2,199.5 L173.6,199.1 L176.8,193.2 L180.8,184.7 L181.5,184.9 L183.1,184.4 L184.0,184.4 L184.0,185.6 L184.8,185.8 L185.7,185.3 L187.7,185.2 L188.0,185.4 L188.3,186.4 L189.4,186.5 L189.4,187.2 L191.1,187.5 L191.4,187.2 L193.0,188.4 L192.9,188.8 L191.9,189.0 L191.3,188.6 L191.1,189.1 L189.5,189.7 L188.5,190.5 L187.2,190.2 L186.9,189.7 L186.6,189.9 L186.3,190.6 L185.9,190.6 L186.0,191.4 L185.6,191.5 L185.6,192.4 L186.6,192.9 L186.1,193.6 L185.6,193.7 L184.8,194.9 L184.6,194.8 L184.8,195.1 L184.4,195.0 L184.6,195.2 L184.3,195.4 L184.5,195.6 L183.2,196.4 L183.6,196.7 L183.4,197.4 L183.2,197.3 L183.1,197.7 L182.6,197.7 L182.2,199.1 L180.8,199.6 L180.4,199.4 L180.5,199.2 L180.8,199.4 L180.8,199.0 L178.5,199.4 L178.4,199.4 L177.8,199.4 L177.7,200.3 L177.1,200.2 L176.7,202.2 L175.3,201.2 L175.9,200.2ZM167.8,210.2 L166.9,209.2 L168.0,208.2 L169.5,206.1 L170.1,205.0 L170.2,205.0 L170.3,204.8 L170.1,204.4 L170.3,204.5 L170.7,204.1 L173.6,199.2 L175.9,200.2 L175.3,201.2 L176.7,202.2 L173.3,207.1 L171.6,208.4 L168.9,211.4 L168.6,210.9ZM151.1,237.9 L150.6,238.1 L150.0,238.0 L149.0,237.0 L149.9,235.8 L149.9,234.9 L150.6,234.7 L152.9,235.6 L153.8,235.3 L154.4,235.5 L154.7,236.0 L155.7,236.3 L156.2,235.9 L156.9,235.7 L157.1,234.7 L158.6,235.1 L161.6,236.9 L163.2,236.8 L163.7,237.1 L164.2,238.0 L164.8,238.3 L164.7,238.6 L162.1,238.3 L162.0,237.9 L161.1,237.9 L161.1,238.3 L154.5,237.9 L154.6,237.3 L153.7,237.0 L152.8,237.1ZM164.3,231.9 L164.2,231.4 L163.5,231.4 L163.1,230.7 L163.2,230.2 L163.7,229.7 L163.6,229.0 L163.7,228.6 L163.9,228.5 L164.0,227.8 L163.0,227.6 L162.0,227.6 L162.0,227.1 L162.6,227.1 L162.7,227.4 L163.4,227.4 L163.3,226.5 L162.6,226.7 L162.6,225.8 L162.8,225.8 L162.8,225.9 L163.5,225.8 L163.8,225.1 L163.5,224.5 L163.8,224.4 L163.8,223.2 L164.4,223.1 L164.4,222.9 L164.6,222.9 L165.2,225.3 L166.0,225.1 L166.1,224.3 L166.4,224.4 L166.8,224.1 L167.1,224.4 L167.2,224.3 L167.4,224.3 L167.6,225.4 L167.9,225.9 L167.5,225.8 L167.4,226.3 L168.4,226.4 L168.6,226.7 L168.3,227.8 L167.2,227.6 L166.8,228.1 L166.6,228.0 L166.6,230.1 L166.2,231.1 L166.3,232.5 L165.6,232.5 L165.5,231.9 L165.2,231.9 L165.0,231.9 L165.0,232.1 L164.3,232.2ZM184.0,185.5 L184.0,184.4 L183.1,184.4 L181.5,184.9 L180.8,184.7 L183.4,178.5 L185.2,172.4 L187.6,172.3 L188.7,172.6 L188.6,171.2 L189.5,171.1 L189.4,169.7 L189.8,169.7 L190.5,168.3 L191.0,168.4 L190.9,168.9 L192.9,168.6 L194.2,168.9 L194.5,169.9 L195.2,170.6 L195.0,171.2 L195.2,171.5 L198.2,171.1 L198.5,171.9 L199.2,171.5 L200.0,171.7 L200.3,172.1 L200.0,172.9 L198.9,173.3 L199.0,173.8 L198.7,174.2 L199.5,174.8 L198.8,175.3 L198.8,176.4 L198.1,176.6 L198.6,178.4 L197.0,181.5 L197.8,184.0 L197.3,185.2 L196.4,185.9 L197.6,187.9 L197.1,189.7 L196.6,190.3 L195.2,189.1 L195.0,188.7 L195.4,188.4 L195.1,188.3 L194.9,186.8 L195.2,186.5 L194.9,186.1 L194.3,186.5 L194.2,186.8 L193.3,188.2 L192.9,188.4 L191.4,187.2 L191.1,187.5 L189.4,187.2 L189.4,186.5 L188.3,186.4 L187.7,185.2 L185.7,185.3 L184.8,185.8ZM185.3,172.4 L186.5,166.4 L186.4,164.3 L185.7,163.1 L185.4,163.0 L184.9,163.4 L185.1,163.1 L185.2,162.9 L184.6,163.0 L184.1,162.4 L184.1,161.8 L185.7,159.7 L185.5,158.8 L185.0,158.7 L185.0,158.4 L185.5,158.6 L185.9,158.2 L186.6,156.5 L187.8,156.4 L188.2,156.7 L188.6,157.3 L188.5,158.1 L189.0,158.9 L189.9,159.4 L190.2,158.3 L190.0,157.5 L189.6,157.4 L189.3,157.0 L189.3,156.1 L189.6,155.9 L190.2,156.3 L190.8,156.3 L191.0,156.6 L190.0,157.4 L190.3,158.3 L190.3,158.4 L190.2,159.0 L190.5,158.9 L190.5,158.7 L190.8,158.7 L190.8,159.0 L190.5,158.8 L190.5,158.9 L190.2,159.1 L190.4,159.4 L191.1,159.0 L191.3,159.2 L191.5,159.1 L191.4,159.3 L191.8,160.0 L191.1,160.0 L191.1,160.1 L191.0,160.2 L190.9,160.5 L190.5,159.5 L190.2,159.5 L190.2,159.7 L190.0,159.5 L190.2,160.6 L193.1,159.9 L194.0,158.9 L194.5,159.9 L194.3,160.0 L194.4,160.5 L193.7,161.0 L194.0,161.5 L194.9,160.2 L195.8,159.9 L196.1,160.2 L197.9,159.1 L197.9,159.9 L197.6,160.1 L197.9,160.2 L197.6,160.6 L199.2,160.9 L200.8,163.4 L200.8,164.5 L201.0,164.7 L201.9,164.6 L201.0,165.8 L200.9,166.9 L201.3,168.7 L201.9,169.3 L201.4,169.7 L201.5,170.7 L200.6,172.1 L199.6,171.6 L198.9,171.6 L198.5,171.9 L198.2,171.1 L195.2,171.5 L195.0,171.2 L195.2,170.6 L194.5,169.9 L194.2,168.9 L193.5,169.0 L192.9,168.6 L190.9,168.9 L191.0,168.4 L190.6,168.3 L189.8,169.7 L189.4,169.7 L189.5,171.1 L188.9,171.0 L188.6,171.2 L188.8,172.1 L188.7,172.6 L187.6,172.3ZM187.0,156.5 L186.2,152.8 L186.7,150.7 L183.3,148.6 L183.7,145.7 L182.9,145.8 L183.2,145.0 L182.0,143.9 L182.1,142.6 L181.6,142.8 L180.5,140.8 L180.1,141.0 L180.0,137.9 L180.7,136.9 L180.4,136.6 L181.5,134.7 L180.9,131.9 L181.2,128.7 L178.6,126.4 L177.6,126.4 L177.6,126.4 L177.1,127.9 L177.9,127.7 L177.6,128.1 L175.7,128.5 L175.7,127.7 L174.3,128.0 L173.6,126.3 L174.6,123.7 L174.3,120.7 L175.3,119.0 L174.7,118.2 L175.3,117.8 L175.0,117.0 L177.1,114.9 L179.2,114.5 L179.7,115.2 L179.1,117.1 L182.5,117.7 L182.3,118.5 L183.3,119.7 L187.2,117.8 L187.3,116.7 L189.1,115.1 L190.8,115.0 L192.7,113.7 L193.5,114.0 L194.1,115.7 L193.2,116.7 L193.6,118.6 L191.1,119.6 L190.8,122.4 L188.7,125.2 L188.3,127.2 L188.8,129.6 L187.6,131.2 L189.3,134.7 L191.3,135.7 L192.1,137.7 L192.8,137.4 L195.6,139.1 L194.9,140.7 L196.3,140.5 L196.9,142.2 L198.9,143.6 L197.2,146.9 L197.2,149.8 L196.1,151.7 L196.3,154.7 L197.6,156.1 L193.1,159.9 L190.2,160.7 L190.3,160.5 L190.5,159.5 L190.9,160.5 L191.8,160.0 L191.1,159.0 L190.4,159.4 L190.8,158.7 L190.2,159.0 L189.9,159.4 L190.1,157.4 L191.0,156.6 L189.3,156.1 L190.2,158.3 L189.9,159.4 L189.0,158.9 L188.2,156.7ZM189.2,114.4 L189.2,114.0 L190.2,113.9 L191.0,111.4 L192.3,110.2 L191.8,109.1 L192.4,109.1 L192.9,107.2 L193.5,108.7 L194.6,109.4 L194.2,110.3 L194.9,110.1 L195.5,111.1 L199.1,107.9 L200.5,105.7 L202.8,106.4 L204.9,104.9 L208.1,105.1 L209.4,103.8 L211.0,103.5 L211.1,102.8 L212.8,103.0 L214.9,101.1 L215.7,101.0 L216.2,101.8 L215.1,102.7 L216.7,103.5 L215.9,104.4 L216.0,106.3 L216.7,107.0 L217.4,106.7 L217.5,108.4 L218.4,107.6 L218.7,109.9 L222.5,110.2 L223.5,108.2 L224.3,108.2 L226.7,109.5 L226.9,110.6 L226.7,110.9 L225.7,113.0 L225.5,115.8 L224.7,116.0 L224.4,116.8 L223.5,116.4 L220.2,117.4 L221.1,117.7 L220.6,118.3 L221.3,118.9 L220.5,119.1 L220.2,120.2 L219.1,119.5 L218.3,120.9 L217.6,120.8 L215.7,118.2 L215.1,118.3 L214.6,117.3 L214.4,118.0 L213.1,118.0 L212.5,116.6 L212.3,117.6 L211.3,116.7 L210.9,114.9 L209.8,115.5 L211.2,113.4 L212.5,112.6 L211.7,112.2 L210.0,112.7 L209.4,114.2 L209.2,113.4 L208.7,113.9 L208.2,112.8 L207.4,113.3 L207.0,112.6 L206.8,113.3 L208.2,114.3 L208.0,114.8 L206.3,114.8 L205.9,113.6 L204.6,115.2 L205.9,115.2 L205.8,116.1 L206.8,115.8 L206.8,116.5 L207.7,117.1 L207.5,117.7 L207.1,118.4 L207.0,117.2 L205.8,118.1 L204.6,117.6 L205.5,119.0 L204.6,119.6 L202.4,123.2 L200.1,121.5 L198.0,122.2 L197.0,118.4 L194.8,118.0 L193.4,118.3 L193.2,116.7 L194.1,115.7 L193.5,115.1 L193.5,113.9 L192.4,113.7 L190.5,115.1ZM200.7,164.4 L200.8,163.4 L199.3,160.9 L197.6,160.6 L197.9,160.2 L197.6,160.1 L197.9,159.9 L197.9,159.1 L196.1,160.2 L195.8,159.9 L194.9,160.2 L194.0,161.5 L193.7,161.0 L194.5,160.3 L194.1,158.8 L196.1,157.9 L196.3,157.3 L197.6,156.1 L197.2,156.0 L196.8,154.8 L196.3,154.7 L196.5,154.2 L196.1,151.7 L197.2,149.8 L197.2,146.9 L197.7,146.0 L198.3,146.2 L198.5,146.6 L198.2,146.9 L198.8,147.5 L199.6,147.5 L200.0,147.9 L202.3,147.8 L203.3,148.3 L206.2,147.8 L207.1,150.1 L206.9,150.6 L207.4,151.2 L208.8,151.8 L209.5,151.6 L210.7,152.7 L211.1,153.4 L210.2,154.4 L211.8,155.2 L213.0,155.1 L213.8,154.4 L215.0,156.3 L214.6,158.3 L213.4,159.7 L213.0,159.1 L212.1,158.9 L210.8,157.7 L208.5,158.7 L207.8,158.6 L206.8,160.7 L206.3,160.8 L205.8,161.8 L203.2,162.8 L202.8,163.8 L202.2,164.1 L201.9,164.6 L201.0,164.7ZM177.6,115.1 L177.0,114.5 L178.3,113.1 L177.6,111.2 L180.4,109.1 L182.2,104.4 L181.8,103.1 L180.9,103.0 L180.5,98.0 L182.7,95.8 L182.5,94.1 L183.6,95.0 L184.7,94.3 L184.2,92.6 L185.0,91.4 L188.4,90.8 L189.5,89.3 L190.9,89.5 L192.2,87.8 L199.7,84.5 L202.7,85.5 L203.6,84.5 L204.2,86.1 L207.2,86.4 L218.0,80.7 L220.7,80.3 L222.9,77.5 L225.3,77.3 L227.9,75.0 L230.1,77.1 L231.9,75.8 L233.5,76.0 L234.2,76.9 L233.5,79.1 L239.2,81.7 L236.8,84.2 L233.7,85.6 L232.8,84.8 L230.6,86.3 L230.2,87.9 L229.1,87.3 L228.0,88.0 L226.3,86.5 L223.6,89.0 L221.2,87.0 L216.9,86.4 L212.6,89.8 L214.2,93.8 L213.0,95.6 L214.3,96.7 L211.9,100.4 L213.0,101.3 L212.5,102.8 L211.1,102.8 L208.1,105.1 L204.6,105.0 L202.9,106.4 L200.5,105.7 L195.5,111.1 L192.9,107.2 L191.7,111.2 L190.2,113.9 L189.2,114.0 L189.8,114.8 L185.9,118.6 L183.3,119.7 L182.5,117.7 L179.1,117.1 L179.2,114.5ZM212.4,100.8 L211.9,100.4 L213.1,98.3 L214.0,98.1 L214.3,96.7 L213.0,95.6 L214.2,93.8 L212.9,92.0 L213.4,91.0 L212.7,90.6 L212.6,89.8 L215.5,88.0 L217.0,86.3 L219.3,86.6 L220.3,87.3 L221.2,87.0 L224.2,89.1 L225.1,88.1 L225.2,86.7 L227.6,86.8 L228.1,88.0 L229.1,87.3 L230.2,87.9 L230.6,86.3 L232.1,86.1 L232.7,85.6 L234.5,85.5 L234.2,87.3 L236.1,88.8 L235.8,90.4 L236.6,90.4 L236.9,91.6 L236.4,92.8 L246.8,90.7 L247.8,90.0 L248.9,90.6 L248.6,91.6 L249.4,93.1 L250.1,93.3 L251.7,92.5 L251.8,92.9 L251.1,94.6 L249.9,95.3 L250.7,95.7 L251.6,95.3 L251.9,96.0 L251.1,97.1 L251.5,97.6 L249.7,99.0 L249.6,100.2 L248.2,101.4 L247.6,101.0 L246.7,101.0 L247.8,101.6 L246.7,101.8 L247.6,102.1 L247.5,102.8 L246.8,102.3 L245.8,102.9 L245.9,102.4 L245.0,102.2 L244.8,102.8 L244.2,102.7 L243.6,102.6 L244.1,101.6 L242.4,102.2 L241.8,101.7 L239.2,102.0 L238.3,101.1 L238.4,102.1 L237.3,102.4 L237.5,101.5 L236.7,100.8 L237.1,101.8 L236.5,102.5 L235.7,102.1 L229.7,105.4 L228.7,108.1 L229.2,109.0 L226.9,110.6 L226.7,109.5 L224.4,108.2 L223.5,108.2 L222.5,110.2 L218.7,110.0 L218.4,107.6 L217.5,108.4 L217.4,106.7 L216.7,107.0 L216.0,106.3 L215.9,104.4 L216.7,103.5 L215.1,102.6 L216.1,101.3 L214.9,101.1 L212.7,103.0 L213.0,101.4ZM215.0,156.0 L213.8,154.4 L211.8,155.2 L210.2,154.4 L211.1,153.4 L210.7,152.7 L209.5,151.6 L207.4,151.2 L206.2,147.8 L203.3,148.3 L198.8,147.5 L197.7,146.0 L198.9,143.6 L197.8,142.3 L196.9,142.2 L196.3,140.5 L194.9,140.7 L195.6,139.1 L192.8,137.4 L192.1,137.7 L191.3,135.7 L189.3,134.7 L187.6,131.2 L188.8,129.6 L188.3,127.2 L188.7,125.2 L190.8,122.4 L191.1,119.6 L193.8,118.2 L197.0,118.4 L198.0,122.2 L200.1,121.5 L202.5,123.2 L201.6,124.1 L201.1,126.5 L200.3,126.9 L200.5,127.8 L201.3,128.6 L201.3,127.9 L202.0,127.9 L201.7,127.4 L202.6,127.2 L203.9,128.5 L202.9,132.6 L201.6,131.9 L201.2,132.8 L200.4,132.1 L199.5,132.6 L199.3,134.8 L200.1,136.4 L198.9,137.0 L198.4,138.1 L200.3,139.2 L202.2,139.5 L202.5,138.5 L203.6,138.9 L204.6,137.7 L204.6,136.2 L205.8,135.7 L207.5,136.7 L209.5,137.0 L208.8,138.0 L208.4,137.8 L208.6,139.1 L209.1,139.6 L212.0,139.7 L211.1,141.3 L212.4,142.5 L213.7,142.9 L213.7,142.0 L215.0,142.8 L215.3,142.4 L216.1,142.3 L215.4,141.5 L216.2,140.9 L216.9,141.7 L217.5,141.3 L217.8,140.4 L217.0,140.1 L217.8,138.2 L218.4,138.7 L218.4,136.5 L219.7,134.1 L220.8,133.2 L221.4,133.8 L222.4,133.1 L223.7,133.4 L224.4,132.9 L224.3,133.8 L223.3,134.2 L224.0,138.4 L223.3,141.0 L223.4,144.0 L223.1,143.7 L222.8,144.5 L223.7,147.1 L222.9,148.8 L223.9,151.5 L223.2,152.8 L224.1,156.5 L223.6,157.2 L221.8,156.0 L220.4,156.7 L217.5,156.9 L216.4,156.0ZM234.3,87.1 L234.1,85.0 L236.9,84.2 L239.2,81.7 L235.5,80.4 L233.5,79.1 L233.5,77.8 L234.2,76.9 L233.5,76.0 L231.9,75.8 L231.2,76.8 L229.5,77.0 L228.0,74.7 L229.1,74.0 L228.6,73.2 L229.3,73.2 L229.1,72.8 L230.7,72.7 L231.3,71.6 L235.8,69.6 L239.4,68.9 L240.4,69.5 L243.2,68.1 L244.4,68.4 L245.4,67.8 L245.7,66.8 L247.4,66.7 L247.8,66.1 L248.8,66.3 L249.1,65.2 L249.7,65.4 L251.3,64.4 L251.7,64.8 L252.9,64.0 L253.8,65.0 L254.5,64.4 L255.8,65.2 L259.7,64.7 L259.9,66.3 L262.1,66.9 L261.8,67.7 L262.9,69.2 L261.8,70.4 L261.4,72.2 L263.6,75.1 L264.0,77.4 L262.6,78.6 L260.4,79.3 L257.5,79.7 L256.3,79.0 L256.1,78.7 L254.4,78.8 L251.8,79.7 L251.1,80.4 L250.6,80.4 L248.8,84.1 L249.1,86.2 L247.9,87.3 L248.2,90.0 L236.9,93.0 L236.4,92.8 L236.9,91.6 L236.6,90.5 L235.8,90.4 L236.1,88.8ZM216.9,131.6 L216.3,131.4 L215.3,132.2 L213.7,134.9 L212.1,133.7 L209.7,135.8 L209.1,132.0 L207.9,130.7 L206.5,130.4 L206.0,129.1 L204.6,128.9 L204.0,127.6 L204.6,127.0 L204.0,126.7 L204.0,125.9 L204.7,125.6 L204.8,126.4 L205.3,125.5 L206.9,126.7 L206.8,129.4 L207.9,128.9 L208.1,127.8 L208.3,128.3 L208.9,127.9 L209.1,126.9 L210.2,128.1 L210.6,127.2 L211.8,127.5 L212.1,126.8 L212.5,126.5 L212.6,125.4 L214.0,126.8 L214.2,126.2 L215.1,126.1 L215.4,127.5 L217.5,128.7 L218.0,127.4 L219.7,127.5 L220.2,124.8 L221.4,123.4 L222.2,123.3 L224.0,126.4 L222.6,127.0 L222.2,128.1 L222.7,129.3 L223.4,129.6 L223.2,130.9 L222.2,131.6 L220.4,131.7 L219.7,132.6 L219.4,132.1 L218.5,132.4 L218.4,131.5 L217.9,131.9 L217.8,131.0 L217.3,131.1 L217.7,132.3Z" fill="#9CC8F0" stroke="#9CC8F0" stroke-width="2.5" stroke-linejoin="round"/><g clip-path="url(#clipu21)"><rect x="216.0" y="0" width="370" height="320" fill="url(#hatchu21)" opacity="0.35"/></g><g transform="translate(190.9,183.0) scale(0.370)"><path d="M-96,-30 L-16,-58 L-12,-42 L-92,-16Z" fill="#1E1A1D"/><path d="M96,-30 L16,-58 L12,-42 L92,-16Z" fill="#1E1A1D"/><ellipse cx="-50" cy="-4" rx="34" ry="22" fill="#fff" stroke="#1E1A1D" stroke-width="7"/><circle cx="-50" cy="-4" r="5" fill="#1E1A1D"/><ellipse cx="50" cy="-4" rx="34" ry="22" fill="#fff" stroke="#1E1A1D" stroke-width="7"/><circle cx="50" cy="-4" r="5" fill="#1E1A1D"/><path d="M4,-8 L12,34 q-8,8 -20,4" fill="none" stroke="#1E1A1D" stroke-width="5" stroke-linecap="round" stroke-linejoin="round"/><path d="M-58,26 q-14,34 -2,66" fill="none" stroke="#1E1A1D" stroke-width="5" stroke-linecap="round" stroke-linejoin="round"/><path d="M58,26 q14,34 2,66" fill="none" stroke="#1E1A1D" stroke-width="5" stroke-linecap="round" stroke-linejoin="round"/><path d="M-78,18 l26,8" fill="none" stroke="#1E1A1D" stroke-width="4" stroke-linecap="round" stroke-linejoin="round"/><path d="M78,18 l-26,8" fill="none" stroke="#1E1A1D" stroke-width="4" stroke-linecap="round" stroke-linejoin="round"/><path d="M-50,52 L50,52 L34,108 L-34,108Z" fill="#1E1A1D"/><path d="M-44,56 L44,56 L40,68 L-40,68Z" fill="#fff"/><path d="M-32,96 L32,96 L30,104 L-30,104Z" fill="#fff"/><path d="M112,-60 C126,-34 132,-20 130,-8 a18,18 0 0 1 -34,-2 C98,-20 104,-36 112,-60Z" fill="#BFE6FF"/><path d="M112,-60 C126,-34 132,-20 130,-8 a18,18 0 0 1 -34,-2 C98,-20 104,-36 112,-60Z" fill="none" stroke="#1E1A1D" stroke-width="5" stroke-linecap="round" stroke-linejoin="round"/></g><defs><clipPath id="mapclip"><rect x="270" y="10" width="90" height="96"/></clipPath></defs><g clip-path="url(#mapclip)"><path d="M314.2,68.2 L310.6,67.2 L309.4,65.6 L306.8,68.5 L305.9,67.7 L303.2,72.0 L304.9,73.3 L305.3,72.7 L305.5,73.6 L306.1,73.2 L306.7,74.1 L306.0,74.6 L305.9,76.2 L307.3,77.0 L307.0,77.5 L307.9,78.9 L308.2,81.7 L309.6,82.7 L310.6,82.5 L310.8,83.7 L313.8,85.7 L315.3,84.5 L314.7,82.0 L313.4,80.6 L314.7,79.4 L314.7,75.4 L315.7,72.9 L314.5,71.8Z" fill="#D8312A" stroke="#1E1A1D" stroke-width="1.2" stroke-linejoin="round"/><path d="M326.4,35.9 L325.7,37.3 L324.6,37.9 L323.1,36.7 L320.9,38.2 L320.5,36.8 L319.8,36.9 L319.8,37.5 L322.0,40.1 L323.4,40.2 L324.3,38.9 L325.7,39.3 L327.0,38.6 L326.5,37.7 L327.1,37.0ZM319.2,35.9 L317.6,35.5 L317.2,34.1 L315.3,34.4 L314.0,37.3 L313.8,38.8 L314.4,40.1 L316.7,41.7 L316.5,42.3 L317.7,43.2 L317.9,44.8 L320.6,45.0 L322.7,47.7 L327.1,48.3 L327.2,39.6 L325.6,40.0 L324.8,42.6 L323.8,43.1 L320.5,40.6 L319.6,41.7 L318.5,41.8 L317.8,41.2 L318.4,40.7 L318.2,39.4 L319.4,39.3 L319.7,37.8 L318.5,37.6Z" fill="#D8312A" stroke="#1E1A1D" stroke-width="1.2" stroke-linejoin="round"/><path d="M304.2,82.4 L303.3,82.4 L301.7,80.3 L299.5,81.1 L299.5,79.4 L296.8,80.2 L294.2,83.0 L296.3,86.0 L295.7,87.2 L296.5,90.0 L298.5,90.1 L299.2,90.9 L300.3,94.9 L300.0,96.5 L300.7,97.2 L302.9,96.7 L303.7,93.8 L304.9,93.1 L305.8,90.4 L304.6,89.3 L302.8,89.0 L302.8,86.8 L304.2,85.5Z" fill="#D8312A" stroke="#1E1A1D" stroke-width="1.2" stroke-linejoin="round"/><path d="M330.9,21.9 L332.6,20.4 L331.0,19.8 L330.7,18.4 L329.2,18.8 L328.7,18.0 L326.0,20.0 L320.9,22.3 L318.2,21.6 L312.8,24.1 L312.6,25.2 L311.9,25.3 L311.1,26.8 L311.7,29.2 L309.9,32.8 L310.6,32.7 L310.6,33.5 L312.3,34.5 L313.1,34.2 L314.5,32.8 L315.7,30.0 L316.6,31.4 L318.4,29.5 L319.4,29.7 L323.0,28.4 L323.6,26.2 L323.1,23.4 L324.6,22.3 L327.3,23.3 L327.6,22.4 L329.3,22.8Z" fill="#D8312A" stroke="#1E1A1D" stroke-width="1.2" stroke-linejoin="round"/><path d="M330.9,21.9 L332.0,24.7 L336.1,23.6 L337.0,20.1 L342.0,19.0 L341.0,17.0 L341.3,15.1 L340.3,14.2 L337.9,14.0 L329.1,17.3 L328.7,18.0 L329.2,18.8 L330.7,18.4 L331.0,19.8 L332.8,20.7Z" fill="#D8312A" stroke="#1E1A1D" stroke-width="1.2" stroke-linejoin="round"/><path d="M294.2,83.0 L290.7,84.9 L288.0,88.3 L289.2,90.0 L290.8,90.6 L292.3,92.3 L292.9,95.7 L293.5,96.1 L296.0,95.7 L297.5,97.8 L298.7,97.8 L300.2,95.8 L299.7,91.9 L298.5,90.1 L296.5,90.0 L295.7,87.2 L296.3,86.0Z" fill="#D8312A" stroke="#1E1A1D" stroke-width="1.2" stroke-linejoin="round"/><path d="M316.1,49.1 L315.3,49.6 L314.7,49.2 L314.9,48.1 L314.4,48.3 L314.6,49.3 L313.4,48.2 L312.5,50.4 L313.3,51.2 L312.9,54.1 L314.1,54.1 L314.9,52.5 L316.2,52.8 L316.6,53.8 L318.6,54.0 L319.0,51.2 L317.5,49.2Z" fill="#D8312A" stroke="#1E1A1D" stroke-width="1.2" stroke-linejoin="round"/><path d="M315.7,60.0 L313.8,58.8 L311.2,58.6 L308.6,64.0 L309.7,65.1 L310.1,64.1 L311.8,63.9 L313.5,60.5Z" fill="#D8312A" stroke="#1E1A1D" stroke-width="1.2" stroke-linejoin="round"/><path d="M305.9,76.2 L304.8,75.9 L304.8,73.1 L303.2,72.0 L298.7,77.7 L299.2,78.1 L300.1,77.1 L301.9,77.7 L302.5,77.1 L304.7,77.9 L306.8,79.8 L305.3,82.3 L304.2,82.4 L304.2,85.5 L302.8,86.8 L302.8,89.0 L304.6,89.3 L305.8,90.4 L302.8,96.3 L307.7,100.5 L308.1,101.9 L308.8,102.0 L312.7,100.8 L314.0,97.5 L313.3,96.4 L314.8,95.7 L317.4,91.1 L315.2,89.5 L314.1,85.5 L313.5,85.7 L310.8,83.7 L310.6,82.5 L309.6,82.7 L308.2,81.7 L307.9,78.9 L307.0,77.5 L307.3,77.0Z" fill="#D8312A" stroke="#1E1A1D" stroke-width="1.2" stroke-linejoin="round"/><path d="M304.2,82.4 L305.3,82.3 L306.7,80.2 L305.8,78.7 L301.3,78.0 L300.1,78.4 L298.7,77.7 L296.8,80.2 L299.5,79.4 L299.5,81.1 L301.7,80.3 L303.3,82.4Z" fill="#D8312A" stroke="#1E1A1D" stroke-width="1.2" stroke-linejoin="round"/><path d="M304.9,73.3 L304.8,75.9 L305.9,76.2 L306.0,74.6 L306.7,74.1 L306.1,73.2 L305.5,73.6 L305.3,72.7Z" fill="#D8312A" stroke="#1E1A1D" stroke-width="1.2" stroke-linejoin="round"/><path d="M299.5,77.9 L305.3,78.5 L302.5,77.1 L301.9,77.7 L300.1,77.1Z" fill="#D8312A" stroke="#1E1A1D" stroke-width="1.2" stroke-linejoin="round"/><path d="M314.2,68.2 L316.0,65.8 L315.5,63.8 L314.4,63.0 L316.8,61.3 L316.4,59.2 L315.7,60.1 L313.1,60.8 L313.3,61.7 L311.8,63.9 L310.1,64.1 L309.4,65.6 L310.6,67.2Z" fill="#D8312A" stroke="#1E1A1D" stroke-width="1.2" stroke-linejoin="round"/><path d="M309.4,65.6 L309.4,64.4 L308.6,64.0 L306.1,67.7 L306.8,68.5Z" fill="#D8312A" stroke="#1E1A1D" stroke-width="1.2" stroke-linejoin="round"/><path d="M315.9,34.1 L315.6,32.4 L312.3,34.5 L310.6,33.5 L310.6,32.7 L309.9,32.8 L309.1,33.6 L308.6,37.2 L309.4,37.7 L310.6,37.1 L311.4,37.9 L311.1,42.5 L312.3,44.3 L312.2,45.3 L313.4,46.1 L313.4,48.2 L314.6,49.3 L314.4,48.3 L314.9,48.1 L314.7,49.2 L315.3,49.6 L317.4,48.2 L316.9,46.7 L317.8,43.6 L313.8,38.8 L314.2,36.6Z" fill="#D8312A" stroke="#1E1A1D" stroke-width="1.2" stroke-linejoin="round"/><path d="M312.9,54.1 L311.2,58.6 L313.8,58.8 L315.7,60.0 L316.4,59.2 L317.1,60.7 L317.3,57.2 L318.4,54.0 L316.6,53.8 L316.2,52.8 L314.9,52.5 L314.1,54.1Z" fill="#D8312A" stroke="#1E1A1D" stroke-width="1.2" stroke-linejoin="round"/><path d="M317.5,44.3 L316.9,46.7 L317.4,48.2 L316.3,49.4 L317.5,49.2 L318.7,51.2 L321.3,49.0 L323.7,48.9 L323.4,47.4 L322.1,47.4 L322.3,46.8 L321.1,46.2 L320.6,45.0 L317.9,44.8Z" fill="#D8312A" stroke="#1E1A1D" stroke-width="1.2" stroke-linejoin="round"/><path d="M319.2,35.9 L320.2,34.1 L321.2,33.6 L320.1,32.8 L320.6,32.4 L320.9,32.8 L321.4,32.6 L321.0,32.2 L322.6,31.8 L322.2,32.7 L322.6,33.5 L324.8,35.0 L325.8,34.7 L325.8,33.7 L327.9,32.9 L328.6,31.1 L327.0,30.3 L326.6,31.1 L325.4,31.0 L324.3,29.6 L324.2,27.7 L321.3,29.2 L318.4,29.5 L316.6,31.4 L315.7,30.0 L314.5,32.8 L315.9,32.5 L315.9,34.1 L317.2,34.1 L317.6,35.5Z" fill="#D8312A" stroke="#1E1A1D" stroke-width="1.2" stroke-linejoin="round"/><path d="M323.0,28.4 L324.2,27.7 L324.3,29.6 L325.4,31.0 L326.6,31.1 L327.0,30.3 L328.6,31.1 L329.3,29.3 L331.9,27.8 L335.6,28.3 L335.7,27.5 L336.5,27.6 L337.3,26.5 L337.4,25.6 L336.8,25.6 L337.5,24.8 L336.6,24.8 L336.0,23.6 L332.0,24.7 L330.9,21.9 L329.3,22.8 L327.6,22.4 L327.3,23.3 L324.6,22.3 L323.1,23.4 L323.6,26.2Z" fill="#D8312A" stroke="#1E1A1D" stroke-width="1.2" stroke-linejoin="round"/></g><text x="20" y="39.8" font-size="23.7" font-family="'Shippori Mincho B1','Hiragino Mincho ProN',serif" font-weight="800" fill="#1E1A1D" stroke="#fff" stroke-width="6.2" paint-order="stroke" stroke-linejoin="round">なんしとるが？</text><rect x="14" y="278" width="80" height="30" fill="#1E1A1D"/><text x="54.0" y="300" font-size="21" text-anchor="middle" font-family="'Shippori Mincho B1','Hiragino Mincho ProN',serif" font-weight="800" fill="#fff">石川県</text></svg>