<svg xmlns="http://www.w3.org/2000/svg" width="370" height="320" viewBox="0 0 370 320"><defs><style>@import url("https://fonts.googleapis.com/css2?family=Shippori+Mincho+B1:wght@800&display=swap");</style><pattern id="hatchu5" width="7" height="7" patternUnits="userSpaceOnUse" patternTransform="rotate(-35)"><line x1="0" y1="0" x2="0" y2="7" stroke="#1E1A1D" stroke-width="1.8"/></pattern><pattern id="toneu5" width="6" height="6" patternUnits="userSpaceOnUse" patternTransform="rotate(45)"><circle cx="3" cy="3" r="1.5" fill="#1E1A1D"/></pattern><clipPath id="clipu5"><path d="M165.5,295.9 L163.2,285.6 L171.9,274.3 L171.4,246.2 L177.3,226.6 L171.6,233.2 L164.0,233.4 L164.2,227.1 L158.2,226.0 L156.8,196.9 L162.3,207.4 L172.9,200.2 L172.8,194.4 L178.5,199.1 L181.6,194.7 L176.8,172.2 L170.0,164.2 L172.1,161.8 L165.8,154.7 L167.7,147.1 L164.4,144.9 L168.8,142.2 L165.2,137.4 L168.8,137.1 L164.9,130.1 L171.8,122.1 L193.9,117.4 L187.7,103.2 L196.2,91.8 L197.0,83.3 L209.7,77.8 L209.2,64.0 L218.5,81.4 L231.9,87.0 L245.4,84.8 L253.5,93.4 L257.2,123.6 L249.4,157.8 L264.0,176.6 L255.5,191.3 L259.5,207.4 L253.2,223.4 L253.5,235.6 L238.3,247.4 L223.8,268.8 L222.1,283.4 L213.9,281.8 L214.0,266.7 L203.2,260.4 L194.0,269.1 L188.1,269.4 L179.3,280.5 L175.4,295.0 L179.3,302.0Z"/></clipPath><clipPath id="frameu5"><rect x="11" y="11" width="348" height="298"/></clipPath></defs><g clip-path="url(#frameu5)"><path d="M365.8,212.8 L675.6,202.6 L675.6,222.9ZM400.2,243.8 L672.1,270.8 L666.0,307.1ZM392.9,262.4 L663.0,320.4 L653.8,353.2ZM379.5,289.8 L638.4,394.3 L625.1,422.6ZM367.8,305.2 L616.0,439.5 L601.2,463.8ZM348.1,327.2 L572.0,503.8 L555.2,523.2ZM333.2,338.5 L538.0,541.0 L521.2,556.7ZM309.0,353.7 L478.0,590.7 L461.1,601.8ZM292.1,360.1 L443.6,612.4 L410.9,629.3ZM265.7,367.9 L372.8,645.1 L340.4,655.5ZM248.3,369.4 L324.6,659.7 L294.0,666.0ZM221.8,369.6 L247.6,671.6 L219.1,672.7ZM205.3,366.4 L197.2,672.4 L171.5,670.6ZM180.6,359.6 L119.9,662.7 L97.6,657.3ZM152.8,389.9 L71.3,649.5 L52.2,642.7ZM125.8,374.4 L8.2,623.3 L-23.9,605.4ZM110.8,361.4 L-35.4,598.1 L-63.2,578.5ZM89.7,339.8 L-96.9,550.2 L-119.1,528.2ZM79.2,323.8 L-131.9,514.0 L-149.9,491.9ZM65.3,298.2 L-177.7,451.0 L-190.5,428.6ZM59.8,280.5 L-201.4,406.5 L-210.6,385.4ZM53.7,253.0 L-228.2,333.3 L-233.0,313.7ZM53.3,235.1 L-237.1,293.6 L-242.1,257.1ZM54.8,207.9 L-244.2,216.0 L-243.2,182.0ZM59.2,191.2 L-241.8,165.6 L-237.6,134.7ZM67.8,166.5 L-227.3,89.1 L-218.8,61.9ZM76.3,152.2 L-211.1,41.4 L-200.9,17.7ZM57.3,109.7 L-176.1,-28.2 L-163.5,-47.5ZM71.5,95.4 L-147.4,-69.6 L-134.6,-85.3ZM94.9,75.3 L-101.6,-120.3 L-73.9,-144.6ZM112.0,65.7 L-63.2,-153.0 L-35.4,-172.6ZM139.1,53.2 L2.5,-194.8 L30.7,-208.4ZM157.5,48.8 L48.4,-215.7 L75.2,-225.3ZM186.0,44.4 L123.1,-237.8 L148.4,-242.3ZM204.3,45.1 L172.9,-245.2 L195.9,-246.8ZM232.0,48.5 L250.8,-245.9 L271.0,-243.9ZM248.7,54.1 L291.3,-241.0 L327.3,-233.5ZM273.5,64.6 L366.8,-221.8 L398.5,-209.4ZM287.5,74.2 L413.4,-202.6 L441.2,-188.2ZM307.7,90.5 L480.7,-163.3 L503.5,-146.2ZM318.1,103.1 L520.2,-132.1 L539.0,-114.5ZM364.3,99.1 L574.0,-75.8 L588.0,-57.5ZM373.0,117.1 L603.4,-34.8 L614.0,-17.6ZM383.9,145.7 L635.8,25.3 L649.5,59.4ZM387.2,164.7 L653.8,72.3 L663.0,105.1ZM389.8,194.1 L671.2,148.3 L674.5,179.4Z" fill="#3B3540" opacity="0.35"/></g><path d="M165.5,295.9 L163.2,285.6 L171.9,274.3 L171.4,246.2 L177.3,226.6 L171.6,233.2 L164.0,233.4 L164.2,227.1 L158.2,226.0 L156.8,196.9 L162.3,207.4 L172.9,200.2 L172.8,194.4 L178.5,199.1 L181.6,194.7 L176.8,172.2 L170.0,164.2 L172.1,161.8 L165.8,154.7 L167.7,147.1 L164.4,144.9 L168.8,142.2 L165.2,137.4 L168.8,137.1 L164.9,130.1 L171.8,122.1 L193.9,117.4 L187.7,103.2 L196.2,91.8 L197.0,83.3 L209.7,77.8 L209.2,64.0 L218.5,81.4 L231.9,87.0 L245.4,84.8 L253.5,93.4 L257.2,123.6 L249.4,157.8 L264.0,176.6 L255.5,191.3 L259.5,207.4 L253.2,223.4 L253.5,235.6 L238.3,247.4 L223.8,268.8 L222.1,283.4 L213.9,281.8 L214.0,266.7 L203.2,260.4 L194.0,269.1 L188.1,269.4 L179.3,280.5 L175.4,295.0 L179.3,302.0Z" fill="none" stroke="#1E1A1D" stroke-width="12" stroke-linejoin="round"/><path d="M165.5,295.9 L163.2,285.6 L171.9,274.3 L171.4,246.2 L177.3,226.6 L171.6,233.2 L164.0,233.4 L164.2,227.1 L158.2,226.0 L156.8,196.9 L162.3,207.4 L172.9,200.2 L172.8,194.4 L178.5,199.1 L181.6,194.7 L176.8,172.2 L170.0,164.2 L172.1,161.8 L165.8,154.7 L167.7,147.1 L164.4,144.9 L168.8,142.2 L165.2,137.4 L168.8,137.1 L164.9,130.1 L171.8,122.1 L193.9,117.4 L187.7,103.2 L196.2,91.8 L197.0,83.3 L209.7,77.8 L209.2,64.0 L218.5,81.4 L231.9,87.0 L245.4,84.8 L253.5,93.4 L257.2,123.6 L249.4,157.8 L264.0,176.6 L255.5,191.3 L259.5,207.4 L253.2,223.4 L253.5,235.6 L238.3,247.4 L223.8,268.8 L222.1,283.4 L213.9,281.8 L214.0,266.7 L203.2,260.4 L194.0,269.1 L188.1,269.4 L179.3,280.5 L175.4,295.0 L179.3,302.0Z" fill="#F7D98B" stroke="#F7D98B" stroke-width="2.5" stroke-linejoin="round"/><g clip-path="url(#clipu5)"><rect x="237.0" y="0" width="370" height="320" fill="url(#hatchu5)" opacity="0.35"/></g><g transform="translate(215.8,212.8) scale(0.313)"><path d="M-98,-58 L-14,-30 L-10,-12 L-94,-36Z" fill="#1E1A1D"/><path d="M98,-58 L14,-30 L10,-12 L94,-36Z" fill="#1E1A1D"/><path d="M-86,4 Q-56,-20 -16,-6 Q-50,14 -86,4Z" fill="#fff"/><path d="M-86,4 Q-56,-20 -16,-6" fill="none" stroke="#1E1A1D" stroke-width="8" stroke-linecap="round" stroke-linejoin="round"/><path d="M-80,8 Q-50,14 -20,0" fill="none" stroke="#1E1A1D" stroke-width="4" stroke-linecap="round" stroke-linejoin="round"/><circle cx="-42" cy="-2" r="6" fill="#1E1A1D"/><path d="M86,4 Q56,-20 16,-6 Q50,14 86,4Z" fill="#fff"/><path d="M86,4 Q56,-20 16,-6" fill="none" stroke="#1E1A1D" stroke-width="8" stroke-linecap="round" stroke-linejoin="round"/><path d="M80,8 Q50,14 20,0" fill="none" stroke="#1E1A1D" stroke-width="4" stroke-linecap="round" stroke-linejoin="round"/><circle cx="42" cy="-2" r="6" fill="#1E1A1D"/><path d="M4,-8 L12,34 q-8,8 -20,4" fill="none" stroke="#1E1A1D" stroke-width="5" stroke-linecap="round" stroke-linejoin="round"/><path d="M-58,26 q-14,34 -2,66" fill="none" stroke="#1E1A1D" stroke-width="5" stroke-linecap="round" stroke-linejoin="round"/><path d="M58,26 q14,34 2,66" fill="none" stroke="#1E1A1D" stroke-width="5" stroke-linecap="round" stroke-linejoin="round"/><path d="M-78,18 l26,8" fill="none" stroke="#1E1A1D" stroke-width="4" stroke-linecap="round" stroke-linejoin="round"/><path d="M78,18 l-26,8" fill="none" stroke="#1E1A1D" stroke-width="4" stroke-linecap="round" stroke-linejoin="round"/><rect x="-42" y="62" width="84" height="26" rx="3" fill="#fff" stroke="#1E1A1D" stroke-width="6"/><path d="M-42,75 h84" fill="none" stroke="#1E1A1D" stroke-width="3" stroke-linecap="round" stroke-linejoin="round"/><path d="M-24,64 v22" fill="none" stroke="#1E1A1D" stroke-width="3" stroke-linecap="round" stroke-linejoin="round"/><path d="M-8,64 v22" fill="none" stroke="#1E1A1D" stroke-width="3" stroke-linecap="round" stroke-linejoin="round"/><path d="M8,64 v22" fill="none" stroke="#1E1A1D" stroke-width="3" stroke-linecap="round" stroke-linejoin="round"/><path d="M24,64 v22" fill="none" stroke="#1E1A1D" stroke-width="3" stroke-linecap="round" stroke-linejoin="round"/></g><defs><clipPath id="mapclip"><rect x="270" y="10" width="90" height="96"/></clipPath></defs><g clip-path="url(#mapclip)"><path d="M350.5,29.9 L349.6,28.7 L349.7,27.8 L348.5,24.8 L347.4,24.0 L343.5,26.9 L333.2,30.7 L333.6,33.6 L335.2,36.1 L336.0,39.1 L336.3,43.5 L337.4,46.1 L341.1,51.7 L343.5,52.4 L344.5,51.5 L345.8,51.3 L346.9,51.8 L350.5,51.8 L351.0,49.6 L352.6,49.4 L353.2,46.4 L354.3,47.8 L355.1,47.7 L355.2,45.8 L356.0,43.7 L355.4,42.4 L354.3,41.6 L353.9,40.2 L353.0,40.6 L353.3,36.9 L355.0,36.0 L353.1,34.1 L350.2,33.7 L350.9,32.1 L350.2,30.4Z" fill="#fff" stroke="#1E1A1D" stroke-width="0.6" stroke-linejoin="round"/><path d="M333.2,30.7 L326.8,31.5 L326.6,32.2 L323.7,33.0 L322.0,34.5 L321.7,35.3 L324.6,41.9 L323.2,42.5 L323.4,43.8 L324.1,44.7 L325.4,44.6 L327.5,46.3 L331.2,43.9 L332.9,42.2 L335.9,41.1 L336.0,39.1 L335.2,36.1 L333.6,33.6Z" fill="#fff" stroke="#1E1A1D" stroke-width="0.6" stroke-linejoin="round"/><path d="M322.0,34.5 L320.6,34.1 L317.8,36.9 L310.8,42.3 L311.4,42.1 L312.7,44.7 L312.9,46.8 L314.6,49.4 L317.1,48.7 L317.4,49.8 L318.4,50.0 L323.3,48.7 L327.5,46.3 L327.2,45.6 L325.4,44.6 L324.1,44.7 L323.4,43.8 L323.2,42.5 L324.6,41.9 L321.7,35.3Z" fill="#fff" stroke="#1E1A1D" stroke-width="0.6" stroke-linejoin="round"/><path d="M335.9,41.1 L332.9,42.2 L331.2,43.9 L323.3,48.7 L318.4,50.0 L317.4,49.8 L317.1,48.7 L314.6,49.4 L314.9,51.2 L314.2,54.0 L315.3,56.4 L317.4,57.5 L319.6,57.2 L320.7,57.7 L321.2,58.8 L322.9,58.8 L324.8,57.2 L326.9,58.1 L328.6,56.9 L330.5,56.8 L331.1,58.4 L332.8,57.9 L333.5,59.0 L334.6,58.7 L335.0,59.8 L337.0,60.9 L337.9,59.9 L338.6,60.8 L340.5,61.1 L340.9,59.4 L337.7,58.0 L336.7,56.7 L337.6,55.9 L337.8,54.9 L341.1,51.7 L337.4,46.1Z" fill="#fff" stroke="#1E1A1D" stroke-width="0.6" stroke-linejoin="round"/><path d="M321.2,58.8 L321.2,61.8 L321.8,63.4 L321.3,67.0 L320.6,68.7 L321.1,70.1 L322.4,70.9 L322.9,72.2 L321.5,74.4 L322.2,77.0 L321.1,79.5 L321.2,81.3 L322.4,80.8 L324.8,81.7 L325.7,80.6 L327.6,80.1 L329.1,81.9 L329.7,80.0 L331.3,80.3 L333.1,79.2 L333.4,77.1 L335.9,75.4 L335.8,73.8 L337.1,72.8 L337.9,73.3 L339.8,72.4 L339.5,71.3 L341.5,70.7 L342.8,71.5 L342.9,70.4 L340.9,70.2 L340.3,68.6 L341.4,65.9 L341.1,64.8 L337.2,64.2 L336.4,62.5 L338.6,60.8 L337.9,59.9 L337.0,60.9 L335.0,59.8 L334.6,58.7 L333.5,59.0 L332.8,57.9 L331.1,58.4 L330.5,56.8 L328.6,56.9 L326.9,58.1 L324.8,57.2 L322.9,58.8Z" fill="#fff" stroke="#1E1A1D" stroke-width="0.6" stroke-linejoin="round"/><path d="M310.8,42.3 L303.1,47.6 L297.3,50.8 L288.4,57.3 L286.7,58.9 L287.8,59.8 L286.8,61.4 L286.2,64.3 L287.3,64.5 L288.4,63.8 L289.1,64.4 L291.0,64.0 L292.0,64.6 L295.3,63.3 L298.0,63.7 L300.6,62.0 L303.5,61.4 L304.3,59.1 L306.1,63.7 L307.1,64.5 L308.4,63.2 L311.8,62.2 L310.8,60.1 L312.7,56.5 L314.3,56.0 L314.2,54.0 L314.9,51.2 L314.6,49.4 L312.9,46.8 L312.7,44.7 L311.4,42.1Z" fill="#fff" stroke="#1E1A1D" stroke-width="0.6" stroke-linejoin="round"/><path d="M307.1,64.5 L306.1,63.7 L304.3,59.1 L303.5,61.4 L300.6,62.0 L298.0,63.7 L295.3,63.3 L292.0,64.6 L291.0,64.0 L289.1,64.4 L288.4,63.8 L287.3,64.5 L286.2,64.3 L286.8,61.4 L287.8,59.8 L286.7,58.9 L282.5,63.5 L279.2,68.4 L275.9,77.7 L275.4,80.7 L274.1,82.9 L274.0,85.9 L275.0,86.3 L276.0,85.2 L277.9,86.0 L279.3,83.5 L282.1,84.3 L284.1,84.3 L285.3,85.5 L287.6,86.0 L288.8,85.0 L293.6,84.4 L295.6,83.4 L296.1,80.9 L299.2,80.9 L298.8,82.9 L300.5,83.1 L301.5,84.0 L301.4,86.5 L303.1,86.8 L304.8,86.3 L304.1,89.1 L306.0,89.9 L306.3,91.4 L307.2,90.9 L306.9,89.2 L308.3,87.1 L308.2,80.9 L306.0,79.7 L305.7,76.3 L306.7,76.8 L308.7,75.0 L309.8,74.8 L309.0,71.2 L307.5,70.2 L308.0,69.1 L307.2,68.1 L307.7,65.4Z" fill="#fff" stroke="#1E1A1D" stroke-width="0.6" stroke-linejoin="round"/><path d="M314.2,54.0 L314.3,56.0 L312.7,56.5 L310.8,60.1 L311.8,62.2 L308.4,63.2 L307.1,64.5 L307.7,65.4 L307.2,68.1 L308.0,69.1 L307.5,70.2 L309.0,71.2 L309.8,74.8 L308.7,75.0 L306.7,76.8 L305.7,76.3 L306.0,79.7 L308.2,80.9 L308.3,87.1 L306.9,89.2 L307.2,90.9 L305.0,91.6 L309.4,91.8 L309.0,90.6 L309.4,88.4 L310.8,86.7 L311.8,86.6 L313.5,85.2 L314.9,86.2 L314.9,88.6 L316.2,88.9 L316.2,87.3 L318.7,83.2 L321.2,81.3 L321.1,79.5 L322.2,77.0 L321.5,74.4 L322.9,72.2 L322.4,70.9 L321.1,70.1 L320.6,68.7 L321.3,67.0 L321.8,63.4 L321.2,61.8 L321.2,58.8 L320.7,57.7 L319.6,57.2 L317.4,57.5 L315.3,56.4Z" fill="#D8312A" stroke="#1E1A1D" stroke-width="1.2" stroke-linejoin="round"/></g><text x="20" y="64.0" font-size="50.0" font-family="'Shippori Mincho B1','Hiragino Mincho ProN',serif" font-weight="800" fill="#1E1A1D" stroke="#fff" stroke-width="13.0" paint-order="stroke" stroke-linejoin="round">凧揚げ</text><text x="20" y="118.0" font-size="50.0" font-family="'Shippori Mincho B1','Hiragino Mincho ProN',serif" font-weight="800" fill="#1E1A1D" stroke="#fff" stroke-width="13.0" paint-order="stroke" stroke-linejoin="round">勝負や</text><rect x="14" y="278" width="58" height="30" fill="#1E1A1D"/><text x="43.0" y="300" font-size="21" text-anchor="middle" font-family="'Shippori Mincho B1','Hiragino Mincho ProN',serif" font-weight="800" fill="#fff">南区</text></svg>