<svg xmlns="http://www.w3.org/2000/svg" width="370" height="320" viewBox="0 0 370 320"><defs><style>@import url("https://fonts.googleapis.com/css2?family=Shippori+Mincho+B1:wght@800&display=swap");</style><pattern id="hatchu23" width="7" height="7" patternUnits="userSpaceOnUse" patternTransform="rotate(-35)"><line x1="0" y1="0" x2="0" y2="7" stroke="#1E1A1D" stroke-width="1.8"/></pattern><pattern id="toneu23" width="6" height="6" patternUnits="userSpaceOnUse" patternTransform="rotate(45)"><circle cx="3" cy="3" r="1.5" fill="#1E1A1D"/></pattern><clipPath id="clipu23"><path d="M250.9,210.4 L251.5,207.9 L252.7,207.4 L253.2,205.5 L254.2,205.0 L253.6,203.7 L254.8,200.9 L252.9,198.4 L251.2,197.9 L251.1,196.7 L247.2,196.6 L246.9,195.5 L245.3,196.1 L244.7,195.7 L244.4,193.7 L245.3,193.2 L246.0,191.6 L245.2,189.6 L242.7,188.5 L243.3,184.7 L241.9,184.0 L241.5,182.6 L243.0,181.4 L245.5,180.9 L245.9,179.0 L247.9,177.5 L248.3,175.3 L248.7,176.1 L250.6,176.6 L252.4,175.3 L258.2,174.4 L258.2,173.3 L259.3,172.3 L261.6,173.5 L263.2,170.6 L265.4,171.0 L268.2,169.9 L271.5,171.2 L274.7,171.0 L276.9,170.1 L278.0,168.5 L284.2,171.9 L284.6,174.8 L281.9,177.2 L282.5,178.9 L280.0,179.8 L279.4,181.0 L278.9,185.7 L275.6,186.0 L273.6,187.1 L272.7,191.5 L274.2,193.5 L271.3,195.5 L270.0,198.5 L272.0,200.7 L272.3,203.6 L268.9,206.1 L268.5,208.3 L265.8,211.6 L266.1,213.0 L259.0,215.2 L257.0,214.4 L252.5,214.9 L250.9,213.8 L251.6,212.8ZM184.8,237.6 L184.1,236.8 L185.1,234.9 L186.1,234.0 L187.0,234.6 L187.0,233.4 L189.4,234.0 L189.1,232.5 L190.6,232.0 L188.8,231.4 L190.4,228.0 L189.3,227.8 L188.6,229.9 L186.0,231.2 L186.7,230.0 L185.4,227.5 L187.7,227.3 L191.0,222.7 L191.9,224.1 L194.4,224.1 L194.5,225.2 L198.5,224.2 L197.7,222.2 L199.2,218.9 L201.0,217.7 L204.4,217.3 L205.7,219.5 L207.4,219.7 L210.0,217.2 L212.2,220.1 L216.9,219.1 L220.3,221.7 L222.7,222.4 L223.7,221.2 L225.1,221.5 L225.0,222.5 L226.6,222.4 L227.9,219.7 L227.5,217.1 L229.7,217.0 L230.3,218.1 L231.8,217.4 L233.0,212.3 L237.6,212.0 L240.3,209.1 L241.3,210.1 L243.6,206.8 L247.1,210.0 L250.9,210.4 L251.5,214.7 L244.7,213.3 L241.3,214.3 L239.6,216.1 L239.8,217.2 L242.1,218.4 L241.7,220.9 L243.1,222.3 L243.3,225.3 L245.7,225.6 L245.9,226.6 L242.0,229.5 L241.5,231.9 L239.2,234.0 L236.8,233.5 L236.3,232.1 L233.0,234.1 L229.2,233.9 L228.8,232.9 L227.8,233.8 L222.3,233.1 L218.9,236.5 L214.5,235.8 L207.5,236.9 L203.2,234.9 L201.6,235.3 L200.5,238.8 L199.7,236.8 L199.4,238.2 L196.7,237.7 L197.0,238.6 L194.9,239.3 L191.9,237.6 L190.7,240.1 L188.1,239.2 L187.2,237.7ZM264.1,161.7 L262.4,162.5 L261.6,160.2 L260.7,159.7 L260.0,157.2 L260.9,155.5 L258.6,151.4 L259.0,148.7 L259.6,148.1 L260.5,148.2 L261.0,147.4 L261.3,142.2 L262.5,140.6 L264.6,140.2 L265.2,140.7 L267.2,139.5 L268.6,139.9 L269.4,137.2 L272.6,136.5 L272.0,137.4 L273.4,137.9 L275.1,140.3 L275.3,142.1 L276.2,141.8 L275.9,142.8 L277.0,142.9 L277.8,141.8 L279.3,142.8 L278.4,144.4 L279.2,145.3 L279.4,143.5 L280.1,142.7 L280.1,144.2 L281.1,144.9 L285.3,142.9 L285.9,144.9 L286.6,144.4 L285.8,142.7 L287.0,142.7 L286.7,141.8 L287.7,141.5 L288.1,142.4 L289.0,142.0 L289.4,142.0 L293.3,141.2 L293.4,141.2 L293.8,141.1 L293.8,143.3 L294.6,143.1 L295.5,146.1 L294.5,147.5 L296.5,151.9 L295.3,153.0 L296.0,154.4 L298.2,155.5 L299.3,159.6 L298.1,160.7 L297.2,164.2 L296.0,166.0 L292.1,167.3 L290.2,165.2 L288.6,165.3 L287.3,169.4 L284.2,171.9 L281.0,169.7 L279.0,169.4 L278.0,168.5 L276.0,170.7 L271.5,171.2 L266.6,169.5 L266.3,167.5 L267.1,166.9 L266.9,165.6 L265.8,163.8 L265.8,162.3ZM197.7,273.7 L197.2,275.7 L196.9,274.8 L195.8,274.8 L196.9,274.0 L195.8,273.3 L196.0,272.2 L196.7,272.7 L198.3,271.6 L197.0,271.2 L197.5,270.2 L196.3,269.4 L196.5,268.4 L193.9,267.4 L196.8,267.1 L196.9,268.9 L198.6,267.4 L200.6,268.0 L200.7,265.5 L197.9,264.8 L197.5,265.8 L197.1,264.8 L195.6,265.4 L194.8,264.7 L194.6,266.3 L193.5,265.6 L193.4,263.7 L191.1,262.6 L191.6,262.2 L192.2,262.9 L192.0,260.5 L193.5,260.8 L194.3,259.5 L195.3,260.8 L196.2,260.1 L194.0,258.2 L194.0,257.0 L192.9,258.1 L192.5,256.3 L190.8,254.6 L189.9,255.3 L188.4,255.1 L188.9,256.5 L190.4,256.4 L190.0,257.6 L187.9,258.2 L187.4,257.8 L187.8,256.6 L186.7,256.2 L187.1,255.1 L189.9,254.7 L190.6,253.6 L193.9,255.8 L195.4,254.3 L195.9,254.8 L194.9,255.3 L195.6,256.5 L194.9,257.0 L195.7,257.1 L195.3,258.0 L196.3,259.3 L197.0,259.5 L198.5,258.0 L198.8,258.6 L198.0,259.5 L198.8,259.6 L197.8,260.5 L199.3,261.3 L199.5,260.3 L200.3,260.2 L199.7,258.2 L200.5,258.4 L201.3,259.0 L200.8,260.4 L202.5,260.4 L202.0,257.8 L201.2,257.7 L201.8,256.8 L199.9,257.1 L199.2,256.0 L201.0,256.8 L201.4,256.2 L200.7,255.2 L201.8,254.9 L202.7,253.4 L206.3,253.8 L205.7,251.8 L206.6,252.7 L208.0,252.7 L207.1,252.0 L207.7,251.3 L207.4,250.4 L205.6,250.5 L204.9,249.1 L203.2,248.5 L205.9,246.9 L206.0,245.0 L204.1,246.4 L202.3,245.9 L202.7,246.7 L201.9,246.9 L200.8,245.2 L199.1,245.3 L198.5,244.5 L197.6,245.2 L198.6,245.8 L196.6,247.6 L197.2,244.8 L198.6,243.4 L198.4,242.2 L201.7,239.7 L204.3,239.6 L204.0,238.6 L202.6,237.8 L200.5,238.8 L201.6,235.3 L203.2,234.9 L207.5,236.9 L210.3,236.1 L213.4,236.6 L214.5,235.8 L218.9,236.5 L220.7,235.7 L222.0,237.1 L221.6,239.6 L222.5,244.3 L221.0,243.2 L220.2,244.5 L218.4,244.7 L218.0,244.0 L216.0,243.9 L215.8,246.1 L214.4,246.5 L213.6,248.0 L215.0,250.4 L214.9,255.4 L216.7,255.5 L218.1,253.9 L220.2,253.7 L222.1,255.1 L218.6,258.0 L216.0,258.7 L215.3,260.6 L217.5,263.6 L217.0,266.1 L218.1,266.2 L219.2,268.7 L221.5,269.9 L222.3,273.3 L221.8,276.3 L220.7,277.7 L218.1,276.7 L215.8,278.7 L213.1,278.1 L210.1,280.0 L206.4,279.8 L204.9,281.0 L203.1,280.1 L201.5,280.5 L196.9,277.9 L192.3,278.5 L190.8,277.3 L189.3,277.2 L188.3,277.9 L188.8,279.7 L187.7,282.0 L187.3,280.5 L188.3,280.4 L188.6,279.3 L187.6,278.1 L188.8,276.9 L188.5,275.8 L190.0,275.4 L189.6,276.5 L190.2,276.9 L191.2,276.1 L191.3,277.5 L192.2,278.3 L193.6,277.7 L194.0,276.4 L194.2,278.0 L198.0,276.5 L198.4,276.8 L199.3,276.4 L198.1,275.4 L198.9,274.8 L198.1,274.8ZM195.9,212.0 L196.5,209.8 L198.0,209.1 L198.4,207.0 L196.9,206.2 L196.3,204.8 L195.0,205.3 L192.0,204.4 L191.3,201.7 L198.1,192.0 L199.5,192.2 L201.7,190.2 L202.0,190.7 L204.6,189.1 L208.2,194.5 L211.0,190.8 L213.8,191.3 L215.1,192.9 L215.4,195.2 L217.5,198.1 L216.6,199.9 L217.5,199.8 L218.4,202.2 L218.2,203.8 L217.1,204.7 L217.3,207.0 L218.9,207.9 L219.0,209.7 L221.0,209.4 L221.6,211.5 L224.4,209.0 L227.9,208.6 L230.7,206.9 L231.3,205.5 L232.7,205.8 L234.9,203.9 L237.5,205.7 L239.0,203.5 L241.2,202.6 L243.8,206.8 L241.3,210.1 L240.3,209.1 L237.6,212.0 L235.5,212.4 L234.1,211.6 L233.0,212.3 L231.8,217.4 L230.3,218.1 L229.7,217.0 L227.5,217.1 L227.5,221.3 L226.7,222.4 L225.1,222.5 L224.9,221.4 L223.7,221.2 L222.7,222.4 L220.2,221.7 L216.9,219.1 L212.2,220.1 L210.0,217.2 L207.4,219.7 L205.7,219.5 L204.4,217.3 L201.0,217.7 L200.5,215.0 L198.9,213.7 L199.2,213.0 L196.8,212.9ZM239.8,173.4 L238.0,169.6 L238.3,167.6 L239.6,167.1 L238.6,166.5 L237.0,166.3 L232.7,163.6 L224.3,163.6 L223.9,163.0 L224.2,162.0 L224.8,163.0 L224.8,162.4 L225.5,162.7 L224.6,161.7 L225.1,160.6 L224.5,159.1 L225.4,159.1 L225.4,158.3 L225.7,157.7 L225.5,156.9 L225.5,155.8 L226.2,156.4 L226.8,156.3 L227.4,156.1 L227.1,155.0 L227.6,155.4 L226.9,154.1 L228.5,154.4 L225.9,152.5 L227.3,148.0 L229.9,148.5 L229.9,148.4 L231.7,148.3 L233.1,147.3 L235.2,139.6 L235.6,135.2 L234.4,134.0 L236.9,132.4 L238.8,132.2 L239.8,131.0 L243.0,134.0 L244.1,133.0 L246.1,134.5 L249.6,134.9 L249.8,141.3 L254.0,143.5 L254.8,146.9 L253.7,150.0 L251.1,150.8 L249.0,152.8 L248.4,154.6 L249.5,157.1 L247.4,160.7 L247.0,163.3 L244.2,164.8 L241.6,164.5 L242.6,165.1 L241.9,166.6 L243.9,167.0 L243.5,168.1 L244.7,170.7 L248.2,174.9 L247.9,177.5 L245.9,179.0 L245.5,180.9 L242.8,181.5 L241.8,180.4 L241.7,176.2ZM221.5,211.4 L221.7,210.6 L221.0,209.4 L219.0,209.7 L218.9,207.9 L217.3,207.0 L217.1,204.7 L218.2,203.8 L218.4,202.2 L217.5,199.8 L216.6,199.9 L216.4,199.2 L217.5,198.1 L216.3,195.7 L215.4,195.2 L215.1,192.9 L213.7,190.8 L215.9,187.2 L217.1,187.4 L217.7,186.7 L219.6,186.5 L220.2,191.8 L221.1,192.4 L223.0,191.6 L223.3,192.4 L224.9,192.2 L227.1,194.0 L228.8,192.9 L230.4,190.7 L230.8,191.2 L232.4,190.6 L234.8,193.7 L236.9,192.1 L236.8,191.1 L238.3,192.0 L239.4,191.1 L240.5,191.2 L240.4,190.5 L241.9,190.3 L243.8,188.7 L245.2,189.7 L246.1,191.9 L244.4,193.7 L244.9,196.0 L246.9,195.5 L246.7,196.2 L247.2,196.6 L248.9,196.2 L251.0,196.6 L251.2,197.9 L252.9,198.4 L254.8,200.9 L253.6,203.7 L254.2,205.0 L253.2,205.5 L252.7,207.4 L251.5,207.9 L250.9,210.4 L248.1,210.4 L244.7,208.3 L244.4,207.1 L242.0,204.4 L242.2,203.8 L241.3,202.5 L239.0,203.5 L238.9,204.5 L237.5,205.7 L236.7,205.5 L235.8,204.0 L234.9,203.9 L232.7,205.8 L231.3,205.5 L230.8,206.8 L229.7,206.9 L228.6,208.2 L224.4,209.0ZM259.5,148.2 L254.6,148.2 L254.0,143.5 L249.8,141.3 L249.6,134.9 L246.1,134.5 L244.1,133.0 L243.0,134.0 L239.8,131.2 L242.9,128.4 L243.5,128.0 L243.9,127.4 L245.6,126.9 L247.0,124.8 L249.6,124.9 L251.4,123.4 L252.9,124.3 L254.3,123.7 L253.9,120.6 L255.4,119.7 L254.9,117.0 L252.1,116.5 L251.2,117.1 L250.3,115.7 L253.3,115.3 L254.6,116.0 L256.8,112.0 L260.2,117.5 L261.4,116.1 L261.6,118.0 L265.0,123.7 L264.9,122.4 L266.7,123.9 L267.3,126.2 L268.3,125.1 L267.9,126.8 L272.6,136.5 L269.4,137.2 L268.6,139.9 L262.5,140.6 L261.3,142.2 L261.0,147.4ZM216.5,255.5 L214.9,255.4 L215.0,250.4 L214.5,248.8 L213.8,248.9 L213.6,248.0 L214.4,246.5 L215.4,246.6 L215.8,246.1 L216.0,243.9 L218.0,244.0 L218.4,244.7 L220.2,244.5 L221.0,243.2 L221.9,244.4 L222.6,244.2 L221.6,239.6 L222.0,237.1 L220.6,235.6 L221.3,233.2 L224.8,233.1 L227.8,233.8 L228.8,232.9 L229.2,233.9 L232.3,233.6 L233.0,234.1 L236.3,232.1 L236.8,233.5 L239.0,234.1 L241.5,231.9 L242.0,229.5 L244.3,228.6 L245.5,227.2 L246.4,230.2 L250.2,231.9 L251.8,234.9 L250.9,238.8 L247.9,239.9 L245.0,242.2 L243.4,242.2 L242.3,243.2 L240.9,243.1 L237.9,244.5 L237.1,245.7 L235.2,244.1 L233.8,246.5 L232.7,246.9 L231.5,246.5 L229.9,249.3 L228.5,248.7 L227.8,249.5 L227.3,248.8 L224.2,249.4 L223.5,249.9 L223.5,251.4 L221.6,253.3 L218.1,253.9ZM200.6,299.1 L201.3,299.4 L204.2,298.5 L202.8,301.1 L200.6,300.8 L199.7,301.2 L199.6,302.0 L198.8,301.0 L197.1,300.7 L197.8,300.1 L197.9,298.3 L197.3,298.0 L197.0,296.4 L195.9,296.1 L195.8,295.6 L197.8,295.2 L197.8,295.9 L198.4,295.8 L198.7,294.9 L199.7,295.6 L201.0,293.3 L198.3,292.3 L197.9,291.1 L198.7,290.8 L198.7,289.4 L200.3,288.3 L200.6,288.6 L199.9,289.1 L201.4,289.5 L200.2,290.3 L201.3,290.6 L199.8,291.8 L201.4,292.1 L202.1,291.3 L202.8,292.4 L203.7,291.8 L204.2,292.5 L204.6,291.6 L207.0,293.0 L207.5,292.5 L205.4,290.2 L205.4,291.2 L204.7,290.3 L204.5,290.9 L203.7,290.6 L203.8,289.8 L203.4,290.4 L202.1,290.0 L200.8,287.4 L201.5,285.7 L200.2,284.6 L200.0,283.6 L199.6,284.7 L198.7,284.7 L198.3,281.8 L198.9,280.0 L198.4,278.9 L196.9,280.4 L196.9,278.8 L195.4,279.4 L194.3,279.0 L194.2,280.1 L195.0,280.5 L194.6,281.0 L193.4,280.1 L192.9,278.6 L192.1,278.6 L191.8,279.5 L191.6,278.2 L190.3,277.5 L189.3,277.8 L188.9,279.1 L189.5,280.5 L188.5,281.2 L189.5,282.2 L188.0,282.3 L187.5,284.4 L187.1,283.3 L185.8,283.6 L185.3,282.9 L187.2,282.9 L188.6,280.4 L188.4,277.8 L189.9,277.1 L192.3,278.5 L196.9,277.9 L201.1,279.7 L201.5,280.5 L203.1,280.1 L204.9,281.0 L206.4,279.8 L210.1,280.0 L210.6,279.2 L211.6,279.2 L213.1,278.1 L215.8,278.7 L218.1,276.7 L221.1,278.0 L223.3,280.7 L223.1,284.8 L224.4,286.7 L223.7,287.4 L225.0,290.4 L224.3,292.0 L223.7,291.9 L224.0,294.5 L223.3,295.1 L220.1,295.5 L220.4,297.8 L219.1,297.4 L213.2,299.7 L212.7,299.2 L213.3,298.3 L212.1,297.8 L211.6,295.8 L213.5,295.2 L213.7,294.4 L211.9,295.2 L210.7,294.9 L210.5,295.8 L210.0,294.5 L208.8,294.5 L208.8,295.0 L207.0,294.6 L207.0,295.7 L209.1,296.3 L209.2,297.2 L205.8,296.2 L205.3,294.3 L204.0,294.8 L203.8,294.2 L202.3,294.0 L201.3,294.5 L201.3,295.3 L202.7,295.4 L204.1,296.7 L202.7,296.8 L200.3,298.7ZM311.6,160.0 L309.3,159.1 L308.0,160.5 L306.5,161.0 L305.5,162.1 L303.5,161.9 L301.4,159.9 L300.1,159.4 L299.4,159.7 L298.2,155.5 L296.0,154.4 L295.3,153.0 L296.3,152.6 L296.5,151.9 L295.9,151.0 L296.0,149.9 L294.5,147.5 L294.7,146.7 L295.5,146.1 L295.2,144.4 L294.5,143.0 L293.8,143.3 L294.0,140.5 L295.0,140.4 L295.0,141.0 L295.5,141.1 L295.5,139.9 L295.7,139.8 L296.4,139.3 L295.8,139.3 L295.7,137.6 L296.6,136.7 L297.4,136.8 L297.0,137.3 L297.6,138.4 L298.5,138.6 L298.0,138.0 L298.4,137.6 L299.6,137.7 L297.8,136.8 L298.4,136.3 L299.5,136.6 L299.3,136.1 L299.7,135.4 L300.4,136.8 L300.9,136.4 L301.6,136.7 L303.5,136.2 L304.4,135.5 L304.7,134.9 L304.9,134.7 L305.5,134.7 L305.8,135.2 L306.5,134.9 L306.4,136.3 L305.7,136.5 L306.8,136.8 L307.3,136.7 L306.8,134.9 L307.9,135.1 L308.6,136.1 L308.7,136.3 L309.4,137.0 L313.5,136.0 L313.8,136.6 L312.9,138.2 L312.3,138.4 L311.1,141.1 L310.6,144.3 L311.0,146.0 L310.8,147.5 L310.3,149.0 L308.8,150.4 L308.7,151.5 L309.0,152.2 L311.7,152.8 L313.8,152.2 L314.8,151.0 L316.1,151.1 L319.8,150.3 L321.0,151.4 L320.8,152.5 L321.7,153.7 L320.8,154.5 L321.6,156.0 L321.9,158.5 L321.1,159.3 L316.8,158.2 L315.0,158.8 L313.8,160.6ZM248.3,175.0 L247.0,173.6 L246.7,172.4 L244.7,170.7 L244.9,169.8 L243.5,168.1 L243.4,167.6 L244.1,167.5 L243.9,167.0 L241.9,166.6 L242.6,165.1 L241.6,164.8 L241.6,164.5 L244.2,164.8 L247.0,163.3 L247.6,161.8 L247.4,160.7 L248.1,160.2 L249.5,157.1 L248.4,154.6 L249.5,151.9 L251.6,150.6 L252.2,150.7 L253.7,150.0 L254.8,148.2 L256.1,148.8 L256.8,148.0 L258.7,148.2 L259.1,149.9 L258.6,151.4 L259.0,152.9 L260.2,153.9 L260.9,155.7 L260.0,157.2 L260.7,159.7 L261.6,160.2 L262.4,162.5 L263.5,161.7 L265.8,162.3 L265.8,163.8 L267.1,166.6 L266.3,167.5 L266.4,169.2 L267.2,170.1 L265.4,171.0 L263.2,170.6 L263.2,171.6 L261.6,173.5 L260.9,172.8 L259.3,172.3 L258.2,173.3 L258.2,174.4 L255.6,174.5 L255.3,175.0 L254.6,174.8 L253.2,175.5 L252.4,175.3 L252.0,175.8 L250.9,175.9 L250.6,176.6 L248.7,176.1ZM208.4,194.5 L207.5,193.9 L206.9,191.6 L206.3,191.4 L204.6,189.1 L209.8,187.3 L210.0,187.1 L211.6,186.7 L215.7,183.1 L216.8,182.7 L217.9,181.1 L220.0,180.0 L222.9,174.7 L223.1,172.7 L225.2,171.6 L225.2,170.4 L225.9,171.2 L226.1,170.0 L225.4,170.5 L225.7,169.3 L226.1,169.3 L225.9,167.9 L226.6,167.9 L226.7,168.7 L227.3,168.3 L227.3,168.9 L228.1,168.5 L228.1,167.7 L229.3,167.7 L229.3,168.6 L230.2,168.7 L230.2,167.7 L231.8,167.7 L231.7,166.8 L233.9,166.5 L234.1,165.8 L235.5,166.1 L235.2,167.7 L233.9,168.8 L233.5,170.5 L231.4,170.8 L232.0,172.3 L230.7,174.0 L231.6,174.5 L231.8,175.7 L232.9,175.7 L233.6,176.2 L234.3,178.7 L236.1,180.2 L235.4,182.7 L236.4,182.3 L236.5,182.7 L235.1,183.8 L235.3,184.5 L234.4,185.6 L234.3,187.6 L232.8,188.2 L231.8,190.6 L230.8,191.2 L230.6,190.7 L229.7,191.0 L228.8,192.9 L227.1,194.0 L224.9,192.2 L223.3,192.4 L223.0,191.6 L221.1,192.4 L220.8,191.7 L219.8,191.3 L220.3,189.0 L220.0,186.9 L219.6,186.4 L218.4,186.5 L217.1,187.4 L215.7,187.3 L213.7,190.8 L213.8,191.3 L211.0,190.8ZM185.6,227.4 L185.3,227.7 L185.5,227.0 L187.0,226.3 L187.6,225.5 L186.7,224.7 L187.2,224.4 L187.2,223.3 L186.2,222.7 L185.3,222.9 L187.6,220.8 L187.9,220.8 L188.0,221.4 L188.7,221.6 L188.5,220.6 L190.0,218.8 L189.0,218.6 L187.4,219.2 L185.7,218.9 L187.3,218.4 L187.6,218.7 L187.8,218.3 L188.1,218.6 L188.4,218.1 L189.0,218.3 L189.4,217.4 L190.2,217.4 L190.3,216.7 L189.8,216.4 L188.8,216.8 L188.5,216.3 L187.8,216.6 L186.8,216.4 L186.4,216.3 L186.6,215.2 L187.0,214.8 L188.0,215.4 L188.2,214.5 L187.5,214.2 L187.6,213.6 L187.3,214.0 L186.7,213.6 L186.5,214.0 L185.9,213.9 L185.3,214.8 L185.2,216.3 L184.6,216.1 L184.4,214.7 L185.1,213.6 L184.8,211.8 L185.1,211.5 L184.7,210.5 L184.1,210.3 L183.8,209.0 L182.9,208.4 L182.6,207.7 L184.9,206.7 L186.1,205.4 L186.7,205.8 L186.8,205.1 L188.3,204.1 L188.3,203.6 L188.8,203.9 L191.6,202.3 L191.5,204.0 L192.7,204.9 L194.2,204.7 L195.0,205.3 L196.3,204.8 L196.9,206.2 L198.4,207.0 L198.0,209.1 L196.5,209.8 L195.8,211.8 L196.8,212.9 L198.1,212.6 L199.2,213.0 L198.9,213.7 L200.5,215.0 L200.2,215.9 L200.9,218.0 L199.2,218.9 L199.0,220.0 L198.4,220.8 L198.5,221.5 L197.7,222.2 L198.5,224.2 L194.5,225.2 L194.4,224.1 L192.6,223.8 L191.9,224.1 L191.0,222.7 L189.3,224.1 L189.2,225.6 L187.7,227.3ZM232.1,190.1 L232.8,188.2 L234.3,187.6 L234.4,185.6 L235.3,184.5 L235.1,183.8 L236.5,182.7 L236.4,182.3 L235.4,182.7 L236.1,180.2 L234.3,178.7 L233.6,176.2 L232.9,175.7 L231.8,175.7 L231.6,174.5 L230.7,174.0 L232.0,172.3 L231.5,170.7 L233.5,170.5 L233.9,168.8 L235.2,167.7 L235.5,166.1 L234.9,165.6 L235.0,165.0 L237.0,166.3 L238.6,166.5 L239.6,167.1 L238.9,167.1 L238.3,167.6 L238.0,169.6 L238.6,171.1 L239.4,171.4 L239.6,173.2 L241.0,174.6 L241.1,175.8 L242.0,177.1 L241.5,178.2 L241.9,178.9 L241.8,180.4 L242.8,181.5 L241.5,182.6 L241.5,183.1 L241.9,184.0 L243.3,184.6 L242.8,186.1 L243.3,187.0 L242.7,188.5 L243.3,188.5 L243.6,189.0 L241.9,190.3 L240.4,190.5 L240.5,191.2 L239.4,191.1 L238.3,192.0 L236.8,191.1 L236.9,192.1 L234.7,193.7 L233.6,191.7 L232.4,190.6 L231.8,190.6ZM228.5,261.0 L227.9,262.5 L225.9,264.1 L225.6,265.4 L224.4,265.8 L222.7,263.4 L221.3,262.8 L220.9,261.9 L219.3,260.2 L218.3,259.9 L217.8,258.8 L218.1,258.2 L219.9,256.8 L220.6,256.7 L222.1,255.2 L220.8,253.8 L223.5,251.4 L223.5,249.9 L224.2,249.4 L225.2,249.4 L226.2,248.9 L226.6,249.3 L227.3,248.8 L227.8,249.5 L228.3,249.4 L228.5,248.7 L229.0,249.1 L229.9,249.3 L230.4,247.6 L231.5,246.5 L232.7,246.9 L233.8,246.5 L235.2,244.1 L235.6,244.1 L237.2,245.8 L237.1,246.3 L236.2,247.3 L235.9,248.9 L235.2,249.6 L235.6,250.9 L235.1,252.7 L235.4,253.0 L235.7,255.0 L233.5,255.7 L232.2,255.4 L231.2,255.7 L230.9,256.5 L231.4,257.5 L230.8,258.0 L230.9,258.7 L229.6,260.5ZM153.1,230.6 L150.2,231.0 L150.6,229.2 L152.1,229.6 L151.4,228.6 L152.5,228.3 L152.3,226.8 L149.2,227.3 L146.4,229.2 L145.7,229.0 L143.6,231.0 L143.8,231.8 L140.4,233.9 L138.8,233.9 L140.6,233.1 L142.3,230.3 L147.2,227.2 L147.9,225.6 L150.9,224.1 L152.0,222.6 L153.0,222.3 L153.4,224.4 L154.4,224.9 L154.8,222.1 L157.1,224.3 L158.8,222.5 L156.0,220.4 L157.1,219.2 L159.3,221.3 L159.2,218.3 L160.2,217.9 L161.9,218.9 L162.6,216.8 L163.9,218.4 L165.8,218.6 L165.9,216.3 L167.6,216.2 L167.9,215.4 L168.6,215.9 L168.1,216.5 L170.2,217.7 L170.9,215.1 L170.0,214.1 L171.2,214.2 L171.8,213.5 L172.4,214.2 L173.0,212.9 L173.3,213.4 L174.7,212.0 L175.9,212.2 L176.3,211.2 L180.4,209.7 L182.6,207.7 L183.8,209.0 L185.1,211.5 L184.4,214.7 L183.5,213.2 L181.9,212.5 L182.1,211.8 L181.2,212.0 L180.6,212.5 L182.1,214.0 L178.4,214.2 L177.4,217.5 L176.1,214.2 L175.3,214.0 L174.7,215.5 L173.6,215.9 L172.8,218.2 L169.6,219.1 L167.3,221.5 L165.3,221.5 L162.9,223.2 L160.4,223.5 L156.8,226.8 L156.7,229.5 L155.6,229.1 L153.7,230.9ZM226.1,167.9 L225.9,167.9 L225.7,167.0 L225.3,167.0 L225.3,166.6 L226.0,166.7 L226.1,166.3 L225.3,166.5 L225.2,166.1 L224.8,166.1 L224.5,165.3 L225.1,165.0 L224.9,165.0 L224.7,163.8 L224.3,163.6 L226.6,163.5 L227.5,163.2 L228.5,163.1 L229.7,163.5 L232.3,163.5 L233.7,164.0 L235.0,165.0 L234.9,165.3 L235.0,165.8 L234.7,165.7 L234.5,166.0 L234.1,165.8 L234.2,166.1 L233.8,166.1 L233.9,166.5 L233.0,166.4 L233.0,166.7 L232.8,166.8 L231.7,166.8 L231.8,167.7 L230.2,167.7 L230.2,168.7 L229.3,168.6 L229.3,167.7 L228.1,167.7 L228.1,168.5 L227.9,168.5 L227.8,168.8 L227.3,168.9 L227.3,168.3 L227.0,168.3 L226.9,168.7 L226.7,168.7 L226.6,167.9ZM325.5,159.3 L321.9,158.7 L320.8,154.5 L321.7,153.7 L320.8,152.5 L321.0,151.4 L319.8,150.3 L314.8,151.0 L313.8,152.2 L311.7,152.8 L308.8,151.7 L308.6,150.7 L310.8,147.5 L311.2,140.8 L313.8,136.6 L313.7,135.6 L316.3,135.2 L316.7,136.0 L318.7,135.7 L321.4,136.7 L321.7,136.2 L323.2,137.6 L324.0,137.3 L323.8,137.7 L326.2,138.5 L329.4,137.8 L329.1,138.4 L331.7,135.8 L331.8,135.6 L332.4,134.6 L333.1,136.0 L334.2,134.5 L332.8,133.3 L333.4,132.6 L333.8,132.2 L335.4,132.4 L335.5,131.5 L336.4,131.2 L335.8,131.0 L336.4,129.8 L336.8,130.2 L337.7,130.2 L337.5,129.0 L339.2,128.7 L340.1,127.1 L342.0,128.9 L343.7,128.0 L345.3,129.8 L347.5,129.2 L348.9,129.8 L351.1,132.8 L349.8,136.3 L350.7,136.4 L350.8,139.2 L352.0,139.5 L351.3,140.7 L352.0,142.4 L349.9,144.3 L349.9,145.0 L351.1,145.1 L351.8,146.6 L350.1,147.6 L350.2,150.1 L347.9,151.9 L344.7,152.1 L343.7,153.3 L341.7,152.0 L339.9,152.1 L338.1,154.0 L336.6,153.7 L334.8,151.8 L333.9,151.8 L332.7,152.3 L332.2,154.3 L330.9,154.9 L330.9,156.1 L329.9,157.1 L328.6,157.1 L328.3,159.2 L327.4,159.9Z"/></clipPath><clipPath id="frameu23"><rect x="11" y="11" width="348" height="298"/></clipPath></defs><g clip-path="url(#frameu23)"><path d="M395.4,207.0 L705.3,196.9 L705.3,217.1ZM429.8,238.0 L701.7,265.1 L695.6,301.4ZM422.6,256.6 L692.6,314.6 L683.5,347.4ZM409.2,284.1 L668.1,388.6 L654.8,416.9ZM397.5,299.5 L645.7,433.7 L630.9,458.1ZM377.8,321.5 L601.7,498.0 L584.8,517.5ZM362.8,332.7 L567.7,535.2 L550.9,550.9ZM338.7,347.9 L507.7,584.9 L490.8,596.1ZM321.8,354.4 L473.2,606.6 L440.5,623.6ZM295.4,362.2 L402.5,639.4 L370.1,649.8ZM278.0,363.7 L354.3,653.9 L323.6,660.3ZM251.4,363.9 L277.3,665.9 L248.8,667.0ZM234.9,360.6 L226.9,666.6 L201.2,664.9ZM210.3,353.9 L149.6,656.9 L127.2,651.6ZM182.5,384.1 L100.9,643.7 L81.9,636.9ZM155.4,368.6 L37.9,617.5 L5.7,599.6ZM140.5,355.7 L-5.8,592.4 L-33.6,572.7ZM119.4,334.1 L-67.2,544.4 L-89.4,522.4ZM108.9,318.1 L-102.2,508.2 L-120.2,486.1ZM95.0,292.4 L-148.1,445.2 L-160.8,422.8ZM89.5,274.7 L-171.8,400.8 L-180.9,379.7ZM83.3,247.2 L-198.5,327.6 L-203.4,307.9ZM82.9,229.3 L-207.4,287.8 L-212.4,251.4ZM84.5,202.2 L-214.6,210.2 L-213.5,176.2ZM88.9,185.5 L-212.2,159.9 L-207.9,128.9ZM97.5,160.7 L-197.6,83.3 L-189.1,56.1ZM106.0,146.4 L-181.5,35.6 L-171.2,12.0ZM87.0,104.0 L-146.4,-34.0 L-133.9,-53.3ZM101.1,89.6 L-117.7,-75.4 L-104.9,-91.1ZM124.6,69.6 L-71.9,-126.0 L-44.3,-150.3ZM141.6,59.9 L-33.6,-158.7 L-5.8,-178.4ZM168.7,47.5 L32.2,-200.6 L60.3,-214.1ZM187.1,43.0 L78.0,-221.5 L104.9,-231.0ZM215.7,38.6 L152.7,-243.6 L178.1,-248.0ZM234.0,39.4 L202.6,-251.0 L225.5,-252.6ZM261.6,42.8 L280.5,-251.7 L300.6,-249.7ZM278.4,48.4 L320.9,-246.8 L356.9,-239.3ZM303.1,58.8 L396.4,-227.5 L428.1,-215.2ZM317.2,68.5 L443.0,-208.4 L470.8,-194.0ZM337.4,84.7 L510.3,-169.1 L533.1,-151.9ZM347.8,97.4 L549.9,-137.8 L568.7,-120.3ZM394.0,93.4 L603.7,-81.5 L617.7,-63.2ZM402.6,111.4 L633.1,-40.6 L643.6,-23.3ZM413.5,139.9 L665.5,19.5 L679.1,53.7ZM416.8,159.0 L683.5,66.6 L692.6,99.4ZM419.4,188.4 L700.9,142.5 L704.2,173.6Z" fill="#3B3540" opacity="0.35"/></g><path d="M250.9,210.4 L251.5,207.9 L252.7,207.4 L253.2,205.5 L254.2,205.0 L253.6,203.7 L254.8,200.9 L252.9,198.4 L251.2,197.9 L251.1,196.7 L247.2,196.6 L246.9,195.5 L245.3,196.1 L244.7,195.7 L244.4,193.7 L245.3,193.2 L246.0,191.6 L245.2,189.6 L242.7,188.5 L243.3,184.7 L241.9,184.0 L241.5,182.6 L243.0,181.4 L245.5,180.9 L245.9,179.0 L247.9,177.5 L248.3,175.3 L248.7,176.1 L250.6,176.6 L252.4,175.3 L258.2,174.4 L258.2,173.3 L259.3,172.3 L261.6,173.5 L263.2,170.6 L265.4,171.0 L268.2,169.9 L271.5,171.2 L274.7,171.0 L276.9,170.1 L278.0,168.5 L284.2,171.9 L284.6,174.8 L281.9,177.2 L282.5,178.9 L280.0,179.8 L279.4,181.0 L278.9,185.7 L275.6,186.0 L273.6,187.1 L272.7,191.5 L274.2,193.5 L271.3,195.5 L270.0,198.5 L272.0,200.7 L272.3,203.6 L268.9,206.1 L268.5,208.3 L265.8,211.6 L266.1,213.0 L259.0,215.2 L257.0,214.4 L252.5,214.9 L250.9,213.8 L251.6,212.8ZM184.8,237.6 L184.1,236.8 L185.1,234.9 L186.1,234.0 L187.0,234.6 L187.0,233.4 L189.4,234.0 L189.1,232.5 L190.6,232.0 L188.8,231.4 L190.4,228.0 L189.3,227.8 L188.6,229.9 L186.0,231.2 L186.7,230.0 L185.4,227.5 L187.7,227.3 L191.0,222.7 L191.9,224.1 L194.4,224.1 L194.5,225.2 L198.5,224.2 L197.7,222.2 L199.2,218.9 L201.0,217.7 L204.4,217.3 L205.7,219.5 L207.4,219.7 L210.0,217.2 L212.2,220.1 L216.9,219.1 L220.3,221.7 L222.7,222.4 L223.7,221.2 L225.1,221.5 L225.0,222.5 L226.6,222.4 L227.9,219.7 L227.5,217.1 L229.7,217.0 L230.3,218.1 L231.8,217.4 L233.0,212.3 L237.6,212.0 L240.3,209.1 L241.3,210.1 L243.6,206.8 L247.1,210.0 L250.9,210.4 L251.5,214.7 L244.7,213.3 L241.3,214.3 L239.6,216.1 L239.8,217.2 L242.1,218.4 L241.7,220.9 L243.1,222.3 L243.3,225.3 L245.7,225.6 L245.9,226.6 L242.0,229.5 L241.5,231.9 L239.2,234.0 L236.8,233.5 L236.3,232.1 L233.0,234.1 L229.2,233.9 L228.8,232.9 L227.8,233.8 L222.3,233.1 L218.9,236.5 L214.5,235.8 L207.5,236.9 L203.2,234.9 L201.6,235.3 L200.5,238.8 L199.7,236.8 L199.4,238.2 L196.7,237.7 L197.0,238.6 L194.9,239.3 L191.9,237.6 L190.7,240.1 L188.1,239.2 L187.2,237.7ZM264.1,161.7 L262.4,162.5 L261.6,160.2 L260.7,159.7 L260.0,157.2 L260.9,155.5 L258.6,151.4 L259.0,148.7 L259.6,148.1 L260.5,148.2 L261.0,147.4 L261.3,142.2 L262.5,140.6 L264.6,140.2 L265.2,140.7 L267.2,139.5 L268.6,139.9 L269.4,137.2 L272.6,136.5 L272.0,137.4 L273.4,137.9 L275.1,140.3 L275.3,142.1 L276.2,141.8 L275.9,142.8 L277.0,142.9 L277.8,141.8 L279.3,142.8 L278.4,144.4 L279.2,145.3 L279.4,143.5 L280.1,142.7 L280.1,144.2 L281.1,144.9 L285.3,142.9 L285.9,144.9 L286.6,144.4 L285.8,142.7 L287.0,142.7 L286.7,141.8 L287.7,141.5 L288.1,142.4 L289.0,142.0 L289.4,142.0 L293.3,141.2 L293.4,141.2 L293.8,141.1 L293.8,143.3 L294.6,143.1 L295.5,146.1 L294.5,147.5 L296.5,151.9 L295.3,153.0 L296.0,154.4 L298.2,155.5 L299.3,159.6 L298.1,160.7 L297.2,164.2 L296.0,166.0 L292.1,167.3 L290.2,165.2 L288.6,165.3 L287.3,169.4 L284.2,171.9 L281.0,169.7 L279.0,169.4 L278.0,168.5 L276.0,170.7 L271.5,171.2 L266.6,169.5 L266.3,167.5 L267.1,166.9 L266.9,165.6 L265.8,163.8 L265.8,162.3ZM197.7,273.7 L197.2,275.7 L196.9,274.8 L195.8,274.8 L196.9,274.0 L195.8,273.3 L196.0,272.2 L196.7,272.7 L198.3,271.6 L197.0,271.2 L197.5,270.2 L196.3,269.4 L196.5,268.4 L193.9,267.4 L196.8,267.1 L196.9,268.9 L198.6,267.4 L200.6,268.0 L200.7,265.5 L197.9,264.8 L197.5,265.8 L197.1,264.8 L195.6,265.4 L194.8,264.7 L194.6,266.3 L193.5,265.6 L193.4,263.7 L191.1,262.6 L191.6,262.2 L192.2,262.9 L192.0,260.5 L193.5,260.8 L194.3,259.5 L195.3,260.8 L196.2,260.1 L194.0,258.2 L194.0,257.0 L192.9,258.1 L192.5,256.3 L190.8,254.6 L189.9,255.3 L188.4,255.1 L188.9,256.5 L190.4,256.4 L190.0,257.6 L187.9,258.2 L187.4,257.8 L187.8,256.6 L186.7,256.2 L187.1,255.1 L189.9,254.7 L190.6,253.6 L193.9,255.8 L195.4,254.3 L195.9,254.8 L194.9,255.3 L195.6,256.5 L194.9,257.0 L195.7,257.1 L195.3,258.0 L196.3,259.3 L197.0,259.5 L198.5,258.0 L198.8,258.6 L198.0,259.5 L198.8,259.6 L197.8,260.5 L199.3,261.3 L199.5,260.3 L200.3,260.2 L199.7,258.2 L200.5,258.4 L201.3,259.0 L200.8,260.4 L202.5,260.4 L202.0,257.8 L201.2,257.7 L201.8,256.8 L199.9,257.1 L199.2,256.0 L201.0,256.8 L201.4,256.2 L200.7,255.2 L201.8,254.9 L202.7,253.4 L206.3,253.8 L205.7,251.8 L206.6,252.7 L208.0,252.7 L207.1,252.0 L207.7,251.3 L207.4,250.4 L205.6,250.5 L204.9,249.1 L203.2,248.5 L205.9,246.9 L206.0,245.0 L204.1,246.4 L202.3,245.9 L202.7,246.7 L201.9,246.9 L200.8,245.2 L199.1,245.3 L198.5,244.5 L197.6,245.2 L198.6,245.8 L196.6,247.6 L197.2,244.8 L198.6,243.4 L198.4,242.2 L201.7,239.7 L204.3,239.6 L204.0,238.6 L202.6,237.8 L200.5,238.8 L201.6,235.3 L203.2,234.9 L207.5,236.9 L210.3,236.1 L213.4,236.6 L214.5,235.8 L218.9,236.5 L220.7,235.7 L222.0,237.1 L221.6,239.6 L222.5,244.3 L221.0,243.2 L220.2,244.5 L218.4,244.7 L218.0,244.0 L216.0,243.9 L215.8,246.1 L214.4,246.5 L213.6,248.0 L215.0,250.4 L214.9,255.4 L216.7,255.5 L218.1,253.9 L220.2,253.7 L222.1,255.1 L218.6,258.0 L216.0,258.7 L215.3,260.6 L217.5,263.6 L217.0,266.1 L218.1,266.2 L219.2,268.7 L221.5,269.9 L222.3,273.3 L221.8,276.3 L220.7,277.7 L218.1,276.7 L215.8,278.7 L213.1,278.1 L210.1,280.0 L206.4,279.8 L204.9,281.0 L203.1,280.1 L201.5,280.5 L196.9,277.9 L192.3,278.5 L190.8,277.3 L189.3,277.2 L188.3,277.9 L188.8,279.7 L187.7,282.0 L187.3,280.5 L188.3,280.4 L188.6,279.3 L187.6,278.1 L188.8,276.9 L188.5,275.8 L190.0,275.4 L189.6,276.5 L190.2,276.9 L191.2,276.1 L191.3,277.5 L192.2,278.3 L193.6,277.7 L194.0,276.4 L194.2,278.0 L198.0,276.5 L198.4,276.8 L199.3,276.4 L198.1,275.4 L198.9,274.8 L198.1,274.8ZM195.9,212.0 L196.5,209.8 L198.0,209.1 L198.4,207.0 L196.9,206.2 L196.3,204.8 L195.0,205.3 L192.0,204.4 L191.3,201.7 L198.1,192.0 L199.5,192.2 L201.7,190.2 L202.0,190.7 L204.6,189.1 L208.2,194.5 L211.0,190.8 L213.8,191.3 L215.1,192.9 L215.4,195.2 L217.5,198.1 L216.6,199.9 L217.5,199.8 L218.4,202.2 L218.2,203.8 L217.1,204.7 L217.3,207.0 L218.9,207.9 L219.0,209.7 L221.0,209.4 L221.6,211.5 L224.4,209.0 L227.9,208.6 L230.7,206.9 L231.3,205.5 L232.7,205.8 L234.9,203.9 L237.5,205.7 L239.0,203.5 L241.2,202.6 L243.8,206.8 L241.3,210.1 L240.3,209.1 L237.6,212.0 L235.5,212.4 L234.1,211.6 L233.0,212.3 L231.8,217.4 L230.3,218.1 L229.7,217.0 L227.5,217.1 L227.5,221.3 L226.7,222.4 L225.1,222.5 L224.9,221.4 L223.7,221.2 L222.7,222.4 L220.2,221.7 L216.9,219.1 L212.2,220.1 L210.0,217.2 L207.4,219.7 L205.7,219.5 L204.4,217.3 L201.0,217.7 L200.5,215.0 L198.9,213.7 L199.2,213.0 L196.8,212.9ZM239.8,173.4 L238.0,169.6 L238.3,167.6 L239.6,167.1 L238.6,166.5 L237.0,166.3 L232.7,163.6 L224.3,163.6 L223.9,163.0 L224.2,162.0 L224.8,163.0 L224.8,162.4 L225.5,162.7 L224.6,161.7 L225.1,160.6 L224.5,159.1 L225.4,159.1 L225.4,158.3 L225.7,157.7 L225.5,156.9 L225.5,155.8 L226.2,156.4 L226.8,156.3 L227.4,156.1 L227.1,155.0 L227.6,155.4 L226.9,154.1 L228.5,154.4 L225.9,152.5 L227.3,148.0 L229.9,148.5 L229.9,148.4 L231.7,148.3 L233.1,147.3 L235.2,139.6 L235.6,135.2 L234.4,134.0 L236.9,132.4 L238.8,132.2 L239.8,131.0 L243.0,134.0 L244.1,133.0 L246.1,134.5 L249.6,134.9 L249.8,141.3 L254.0,143.5 L254.8,146.9 L253.7,150.0 L251.1,150.8 L249.0,152.8 L248.4,154.6 L249.5,157.1 L247.4,160.7 L247.0,163.3 L244.2,164.8 L241.6,164.5 L242.6,165.1 L241.9,166.6 L243.9,167.0 L243.5,168.1 L244.7,170.7 L248.2,174.9 L247.9,177.5 L245.9,179.0 L245.5,180.9 L242.8,181.5 L241.8,180.4 L241.7,176.2ZM221.5,211.4 L221.7,210.6 L221.0,209.4 L219.0,209.7 L218.9,207.9 L217.3,207.0 L217.1,204.7 L218.2,203.8 L218.4,202.2 L217.5,199.8 L216.6,199.9 L216.4,199.2 L217.5,198.1 L216.3,195.7 L215.4,195.2 L215.1,192.9 L213.7,190.8 L215.9,187.2 L217.1,187.4 L217.7,186.7 L219.6,186.5 L220.2,191.8 L221.1,192.4 L223.0,191.6 L223.3,192.4 L224.9,192.2 L227.1,194.0 L228.8,192.9 L230.4,190.7 L230.8,191.2 L232.4,190.6 L234.8,193.7 L236.9,192.1 L236.8,191.1 L238.3,192.0 L239.4,191.1 L240.5,191.2 L240.4,190.5 L241.9,190.3 L243.8,188.7 L245.2,189.7 L246.1,191.9 L244.4,193.7 L244.9,196.0 L246.9,195.5 L246.7,196.2 L247.2,196.6 L248.9,196.2 L251.0,196.6 L251.2,197.9 L252.9,198.4 L254.8,200.9 L253.6,203.7 L254.2,205.0 L253.2,205.5 L252.7,207.4 L251.5,207.9 L250.9,210.4 L248.1,210.4 L244.7,208.3 L244.4,207.1 L242.0,204.4 L242.2,203.8 L241.3,202.5 L239.0,203.5 L238.9,204.5 L237.5,205.7 L236.7,205.5 L235.8,204.0 L234.9,203.9 L232.7,205.8 L231.3,205.5 L230.8,206.8 L229.7,206.9 L228.6,208.2 L224.4,209.0ZM259.5,148.2 L254.6,148.2 L254.0,143.5 L249.8,141.3 L249.6,134.9 L246.1,134.5 L244.1,133.0 L243.0,134.0 L239.8,131.2 L242.9,128.4 L243.5,128.0 L243.9,127.4 L245.6,126.9 L247.0,124.8 L249.6,124.9 L251.4,123.4 L252.9,124.3 L254.3,123.7 L253.9,120.6 L255.4,119.7 L254.9,117.0 L252.1,116.5 L251.2,117.1 L250.3,115.7 L253.3,115.3 L254.6,116.0 L256.8,112.0 L260.2,117.5 L261.4,116.1 L261.6,118.0 L265.0,123.7 L264.9,122.4 L266.7,123.9 L267.3,126.2 L268.3,125.1 L267.9,126.8 L272.6,136.5 L269.4,137.2 L268.6,139.9 L262.5,140.6 L261.3,142.2 L261.0,147.4ZM216.5,255.5 L214.9,255.4 L215.0,250.4 L214.5,248.8 L213.8,248.9 L213.6,248.0 L214.4,246.5 L215.4,246.6 L215.8,246.1 L216.0,243.9 L218.0,244.0 L218.4,244.7 L220.2,244.5 L221.0,243.2 L221.9,244.4 L222.6,244.2 L221.6,239.6 L222.0,237.1 L220.6,235.6 L221.3,233.2 L224.8,233.1 L227.8,233.8 L228.8,232.9 L229.2,233.9 L232.3,233.6 L233.0,234.1 L236.3,232.1 L236.8,233.5 L239.0,234.1 L241.5,231.9 L242.0,229.5 L244.3,228.6 L245.5,227.2 L246.4,230.2 L250.2,231.9 L251.8,234.9 L250.9,238.8 L247.9,239.9 L245.0,242.2 L243.4,242.2 L242.3,243.2 L240.9,243.1 L237.9,244.5 L237.1,245.7 L235.2,244.1 L233.8,246.5 L232.7,246.9 L231.5,246.5 L229.9,249.3 L228.5,248.7 L227.8,249.5 L227.3,248.8 L224.2,249.4 L223.5,249.9 L223.5,251.4 L221.6,253.3 L218.1,253.9ZM200.6,299.1 L201.3,299.4 L204.2,298.5 L202.8,301.1 L200.6,300.8 L199.7,301.2 L199.6,302.0 L198.8,301.0 L197.1,300.7 L197.8,300.1 L197.9,298.3 L197.3,298.0 L197.0,296.4 L195.9,296.1 L195.8,295.6 L197.8,295.2 L197.8,295.9 L198.4,295.8 L198.7,294.9 L199.7,295.6 L201.0,293.3 L198.3,292.3 L197.9,291.1 L198.7,290.8 L198.7,289.4 L200.3,288.3 L200.6,288.6 L199.9,289.1 L201.4,289.5 L200.2,290.3 L201.3,290.6 L199.8,291.8 L201.4,292.1 L202.1,291.3 L202.8,292.4 L203.7,291.8 L204.2,292.5 L204.6,291.6 L207.0,293.0 L207.5,292.5 L205.4,290.2 L205.4,291.2 L204.7,290.3 L204.5,290.9 L203.7,290.6 L203.8,289.8 L203.4,290.4 L202.1,290.0 L200.8,287.4 L201.5,285.7 L200.2,284.6 L200.0,283.6 L199.6,284.7 L198.7,284.7 L198.3,281.8 L198.9,280.0 L198.4,278.9 L196.9,280.4 L196.9,278.8 L195.4,279.4 L194.3,279.0 L194.2,280.1 L195.0,280.5 L194.6,281.0 L193.4,280.1 L192.9,278.6 L192.1,278.6 L191.8,279.5 L191.6,278.2 L190.3,277.5 L189.3,277.8 L188.9,279.1 L189.5,280.5 L188.5,281.2 L189.5,282.2 L188.0,282.3 L187.5,284.4 L187.1,283.3 L185.8,283.6 L185.3,282.9 L187.2,282.9 L188.6,280.4 L188.4,277.8 L189.9,277.1 L192.3,278.5 L196.9,277.9 L201.1,279.7 L201.5,280.5 L203.1,280.1 L204.9,281.0 L206.4,279.8 L210.1,280.0 L210.6,279.2 L211.6,279.2 L213.1,278.1 L215.8,278.7 L218.1,276.7 L221.1,278.0 L223.3,280.7 L223.1,284.8 L224.4,286.7 L223.7,287.4 L225.0,290.4 L224.3,292.0 L223.7,291.9 L224.0,294.5 L223.3,295.1 L220.1,295.5 L220.4,297.8 L219.1,297.4 L213.2,299.7 L212.7,299.2 L213.3,298.3 L212.1,297.8 L211.6,295.8 L213.5,295.2 L213.7,294.4 L211.9,295.2 L210.7,294.9 L210.5,295.8 L210.0,294.5 L208.8,294.5 L208.8,295.0 L207.0,294.6 L207.0,295.7 L209.1,296.3 L209.2,297.2 L205.8,296.2 L205.3,294.3 L204.0,294.8 L203.8,294.2 L202.3,294.0 L201.3,294.5 L201.3,295.3 L202.7,295.4 L204.1,296.7 L202.7,296.8 L200.3,298.7ZM311.6,160.0 L309.3,159.1 L308.0,160.5 L306.5,161.0 L305.5,162.1 L303.5,161.9 L301.4,159.9 L300.1,159.4 L299.4,159.7 L298.2,155.5 L296.0,154.4 L295.3,153.0 L296.3,152.6 L296.5,151.9 L295.9,151.0 L296.0,149.9 L294.5,147.5 L294.7,146.7 L295.5,146.1 L295.2,144.4 L294.5,143.0 L293.8,143.3 L294.0,140.5 L295.0,140.4 L295.0,141.0 L295.5,141.1 L295.5,139.9 L295.7,139.8 L296.4,139.3 L295.8,139.3 L295.7,137.6 L296.6,136.7 L297.4,136.8 L297.0,137.3 L297.6,138.4 L298.5,138.6 L298.0,138.0 L298.4,137.6 L299.6,137.7 L297.8,136.8 L298.4,136.3 L299.5,136.6 L299.3,136.1 L299.7,135.4 L300.4,136.8 L300.9,136.4 L301.6,136.7 L303.5,136.2 L304.4,135.5 L304.7,134.9 L304.9,134.7 L305.5,134.7 L305.8,135.2 L306.5,134.9 L306.4,136.3 L305.7,136.5 L306.8,136.8 L307.3,136.7 L306.8,134.9 L307.9,135.1 L308.6,136.1 L308.7,136.3 L309.4,137.0 L313.5,136.0 L313.8,136.6 L312.9,138.2 L312.3,138.4 L311.1,141.1 L310.6,144.3 L311.0,146.0 L310.8,147.5 L310.3,149.0 L308.8,150.4 L308.7,151.5 L309.0,152.2 L311.7,152.8 L313.8,152.2 L314.8,151.0 L316.1,151.1 L319.8,150.3 L321.0,151.4 L320.8,152.5 L321.7,153.7 L320.8,154.5 L321.6,156.0 L321.9,158.5 L321.1,159.3 L316.8,158.2 L315.0,158.8 L313.8,160.6ZM248.3,175.0 L247.0,173.6 L246.7,172.4 L244.7,170.7 L244.9,169.8 L243.5,168.1 L243.4,167.6 L244.1,167.5 L243.9,167.0 L241.9,166.6 L242.6,165.1 L241.6,164.8 L241.6,164.5 L244.2,164.8 L247.0,163.3 L247.6,161.8 L247.4,160.7 L248.1,160.2 L249.5,157.1 L248.4,154.6 L249.5,151.9 L251.6,150.6 L252.2,150.7 L253.7,150.0 L254.8,148.2 L256.1,148.8 L256.8,148.0 L258.7,148.2 L259.1,149.9 L258.6,151.4 L259.0,152.9 L260.2,153.9 L260.9,155.7 L260.0,157.2 L260.7,159.7 L261.6,160.2 L262.4,162.5 L263.5,161.7 L265.8,162.3 L265.8,163.8 L267.1,166.6 L266.3,167.5 L266.4,169.2 L267.2,170.1 L265.4,171.0 L263.2,170.6 L263.2,171.6 L261.6,173.5 L260.9,172.8 L259.3,172.3 L258.2,173.3 L258.2,174.4 L255.6,174.5 L255.3,175.0 L254.6,174.8 L253.2,175.5 L252.4,175.3 L252.0,175.8 L250.9,175.9 L250.6,176.6 L248.7,176.1ZM208.4,194.5 L207.5,193.9 L206.9,191.6 L206.3,191.4 L204.6,189.1 L209.8,187.3 L210.0,187.1 L211.6,186.7 L215.7,183.1 L216.8,182.7 L217.9,181.1 L220.0,180.0 L222.9,174.7 L223.1,172.7 L225.2,171.6 L225.2,170.4 L225.9,171.2 L226.1,170.0 L225.4,170.5 L225.7,169.3 L226.1,169.3 L225.9,167.9 L226.6,167.9 L226.7,168.7 L227.3,168.3 L227.3,168.9 L228.1,168.5 L228.1,167.7 L229.3,167.7 L229.3,168.6 L230.2,168.7 L230.2,167.7 L231.8,167.7 L231.7,166.8 L233.9,166.5 L234.1,165.8 L235.5,166.1 L235.2,167.7 L233.9,168.8 L233.5,170.5 L231.4,170.8 L232.0,172.3 L230.7,174.0 L231.6,174.5 L231.8,175.7 L232.9,175.7 L233.6,176.2 L234.3,178.7 L236.1,180.2 L235.4,182.7 L236.4,182.3 L236.5,182.7 L235.1,183.8 L235.3,184.5 L234.4,185.6 L234.3,187.6 L232.8,188.2 L231.8,190.6 L230.8,191.2 L230.6,190.7 L229.7,191.0 L228.8,192.9 L227.1,194.0 L224.9,192.2 L223.3,192.4 L223.0,191.6 L221.1,192.4 L220.8,191.7 L219.8,191.3 L220.3,189.0 L220.0,186.9 L219.6,186.4 L218.4,186.5 L217.1,187.4 L215.7,187.3 L213.7,190.8 L213.8,191.3 L211.0,190.8ZM185.6,227.4 L185.3,227.7 L185.5,227.0 L187.0,226.3 L187.6,225.5 L186.7,224.7 L187.2,224.4 L187.2,223.3 L186.2,222.7 L185.3,222.9 L187.6,220.8 L187.9,220.8 L188.0,221.4 L188.7,221.6 L188.5,220.6 L190.0,218.8 L189.0,218.6 L187.4,219.2 L185.7,218.9 L187.3,218.4 L187.6,218.7 L187.8,218.3 L188.1,218.6 L188.4,218.1 L189.0,218.3 L189.4,217.4 L190.2,217.4 L190.3,216.7 L189.8,216.4 L188.8,216.8 L188.5,216.3 L187.8,216.6 L186.8,216.4 L186.4,216.3 L186.6,215.2 L187.0,214.8 L188.0,215.4 L188.2,214.5 L187.5,214.2 L187.6,213.6 L187.3,214.0 L186.7,213.6 L186.5,214.0 L185.9,213.9 L185.3,214.8 L185.2,216.3 L184.6,216.1 L184.4,214.7 L185.1,213.6 L184.8,211.8 L185.1,211.5 L184.7,210.5 L184.1,210.3 L183.8,209.0 L182.9,208.4 L182.6,207.7 L184.9,206.7 L186.1,205.4 L186.7,205.8 L186.8,205.1 L188.3,204.1 L188.3,203.6 L188.8,203.9 L191.6,202.3 L191.5,204.0 L192.7,204.9 L194.2,204.7 L195.0,205.3 L196.3,204.8 L196.9,206.2 L198.4,207.0 L198.0,209.1 L196.5,209.8 L195.8,211.8 L196.8,212.9 L198.1,212.6 L199.2,213.0 L198.9,213.7 L200.5,215.0 L200.2,215.9 L200.9,218.0 L199.2,218.9 L199.0,220.0 L198.4,220.8 L198.5,221.5 L197.7,222.2 L198.5,224.2 L194.5,225.2 L194.4,224.1 L192.6,223.8 L191.9,224.1 L191.0,222.7 L189.3,224.1 L189.2,225.6 L187.7,227.3ZM232.1,190.1 L232.8,188.2 L234.3,187.6 L234.4,185.6 L235.3,184.5 L235.1,183.8 L236.5,182.7 L236.4,182.3 L235.4,182.7 L236.1,180.2 L234.3,178.7 L233.6,176.2 L232.9,175.7 L231.8,175.7 L231.6,174.5 L230.7,174.0 L232.0,172.3 L231.5,170.7 L233.5,170.5 L233.9,168.8 L235.2,167.7 L235.5,166.1 L234.9,165.6 L235.0,165.0 L237.0,166.3 L238.6,166.5 L239.6,167.1 L238.9,167.1 L238.3,167.6 L238.0,169.6 L238.6,171.1 L239.4,171.4 L239.6,173.2 L241.0,174.6 L241.1,175.8 L242.0,177.1 L241.5,178.2 L241.9,178.9 L241.8,180.4 L242.8,181.5 L241.5,182.6 L241.5,183.1 L241.9,184.0 L243.3,184.6 L242.8,186.1 L243.3,187.0 L242.7,188.5 L243.3,188.5 L243.6,189.0 L241.9,190.3 L240.4,190.5 L240.5,191.2 L239.4,191.1 L238.3,192.0 L236.8,191.1 L236.9,192.1 L234.7,193.7 L233.6,191.7 L232.4,190.6 L231.8,190.6ZM228.5,261.0 L227.9,262.5 L225.9,264.1 L225.6,265.4 L224.4,265.8 L222.7,263.4 L221.3,262.8 L220.9,261.9 L219.3,260.2 L218.3,259.9 L217.8,258.8 L218.1,258.2 L219.9,256.8 L220.6,256.7 L222.1,255.2 L220.8,253.8 L223.5,251.4 L223.5,249.9 L224.2,249.4 L225.2,249.4 L226.2,248.9 L226.6,249.3 L227.3,248.8 L227.8,249.5 L228.3,249.4 L228.5,248.7 L229.0,249.1 L229.9,249.3 L230.4,247.6 L231.5,246.5 L232.7,246.9 L233.8,246.5 L235.2,244.1 L235.6,244.1 L237.2,245.8 L237.1,246.3 L236.2,247.3 L235.9,248.9 L235.2,249.6 L235.6,250.9 L235.1,252.7 L235.4,253.0 L235.7,255.0 L233.5,255.7 L232.2,255.4 L231.2,255.7 L230.9,256.5 L231.4,257.5 L230.8,258.0 L230.9,258.7 L229.6,260.5ZM153.1,230.6 L150.2,231.0 L150.6,229.2 L152.1,229.6 L151.4,228.6 L152.5,228.3 L152.3,226.8 L149.2,227.3 L146.4,229.2 L145.7,229.0 L143.6,231.0 L143.8,231.8 L140.4,233.9 L138.8,233.9 L140.6,233.1 L142.3,230.3 L147.2,227.2 L147.9,225.6 L150.9,224.1 L152.0,222.6 L153.0,222.3 L153.4,224.4 L154.4,224.9 L154.8,222.1 L157.1,224.3 L158.8,222.5 L156.0,220.4 L157.1,219.2 L159.3,221.3 L159.2,218.3 L160.2,217.9 L161.9,218.9 L162.6,216.8 L163.9,218.4 L165.8,218.6 L165.9,216.3 L167.6,216.2 L167.9,215.4 L168.6,215.9 L168.1,216.5 L170.2,217.7 L170.9,215.1 L170.0,214.1 L171.2,214.2 L171.8,213.5 L172.4,214.2 L173.0,212.9 L173.3,213.4 L174.7,212.0 L175.9,212.2 L176.3,211.2 L180.4,209.7 L182.6,207.7 L183.8,209.0 L185.1,211.5 L184.4,214.7 L183.5,213.2 L181.9,212.5 L182.1,211.8 L181.2,212.0 L180.6,212.5 L182.1,214.0 L178.4,214.2 L177.4,217.5 L176.1,214.2 L175.3,214.0 L174.7,215.5 L173.6,215.9 L172.8,218.2 L169.6,219.1 L167.3,221.5 L165.3,221.5 L162.9,223.2 L160.4,223.5 L156.8,226.8 L156.7,229.5 L155.6,229.1 L153.7,230.9ZM226.1,167.9 L225.9,167.9 L225.7,167.0 L225.3,167.0 L225.3,166.6 L226.0,166.7 L226.1,166.3 L225.3,166.5 L225.2,166.1 L224.8,166.1 L224.5,165.3 L225.1,165.0 L224.9,165.0 L224.7,163.8 L224.3,163.6 L226.6,163.5 L227.5,163.2 L228.5,163.1 L229.7,163.5 L232.3,163.5 L233.7,164.0 L235.0,165.0 L234.9,165.3 L235.0,165.8 L234.7,165.7 L234.5,166.0 L234.1,165.8 L234.2,166.1 L233.8,166.1 L233.9,166.5 L233.0,166.4 L233.0,166.7 L232.8,166.8 L231.7,166.8 L231.8,167.7 L230.2,167.7 L230.2,168.7 L229.3,168.6 L229.3,167.7 L228.1,167.7 L228.1,168.5 L227.9,168.5 L227.8,168.8 L227.3,168.9 L227.3,168.3 L227.0,168.3 L226.9,168.7 L226.7,168.7 L226.6,167.9ZM325.5,159.3 L321.9,158.7 L320.8,154.5 L321.7,153.7 L320.8,152.5 L321.0,151.4 L319.8,150.3 L314.8,151.0 L313.8,152.2 L311.7,152.8 L308.8,151.7 L308.6,150.7 L310.8,147.5 L311.2,140.8 L313.8,136.6 L313.7,135.6 L316.3,135.2 L316.7,136.0 L318.7,135.7 L321.4,136.7 L321.7,136.2 L323.2,137.6 L324.0,137.3 L323.8,137.7 L326.2,138.5 L329.4,137.8 L329.1,138.4 L331.7,135.8 L331.8,135.6 L332.4,134.6 L333.1,136.0 L334.2,134.5 L332.8,133.3 L333.4,132.6 L333.8,132.2 L335.4,132.4 L335.5,131.5 L336.4,131.2 L335.8,131.0 L336.4,129.8 L336.8,130.2 L337.7,130.2 L337.5,129.0 L339.2,128.7 L340.1,127.1 L342.0,128.9 L343.7,128.0 L345.3,129.8 L347.5,129.2 L348.9,129.8 L351.1,132.8 L349.8,136.3 L350.7,136.4 L350.8,139.2 L352.0,139.5 L351.3,140.7 L352.0,142.4 L349.9,144.3 L349.9,145.0 L351.1,145.1 L351.8,146.6 L350.1,147.6 L350.2,150.1 L347.9,151.9 L344.7,152.1 L343.7,153.3 L341.7,152.0 L339.9,152.1 L338.1,154.0 L336.6,153.7 L334.8,151.8 L333.9,151.8 L332.7,152.3 L332.2,154.3 L330.9,154.9 L330.9,156.1 L329.9,157.1 L328.6,157.1 L328.3,159.2 L327.4,159.9Z" fill="none" stroke="#1E1A1D" stroke-width="12" stroke-linejoin="round"/><path d="M250.9,210.4 L251.5,207.9 L252.7,207.4 L253.2,205.5 L254.2,205.0 L253.6,203.7 L254.8,200.9 L252.9,198.4 L251.2,197.9 L251.1,196.7 L247.2,196.6 L246.9,195.5 L245.3,196.1 L244.7,195.7 L244.4,193.7 L245.3,193.2 L246.0,191.6 L245.2,189.6 L242.7,188.5 L243.3,184.7 L241.9,184.0 L241.5,182.6 L243.0,181.4 L245.5,180.9 L245.9,179.0 L247.9,177.5 L248.3,175.3 L248.7,176.1 L250.6,176.6 L252.4,175.3 L258.2,174.4 L258.2,173.3 L259.3,172.3 L261.6,173.5 L263.2,170.6 L265.4,171.0 L268.2,169.9 L271.5,171.2 L274.7,171.0 L276.9,170.1 L278.0,168.5 L284.2,171.9 L284.6,174.8 L281.9,177.2 L282.5,178.9 L280.0,179.8 L279.4,181.0 L278.9,185.7 L275.6,186.0 L273.6,187.1 L272.7,191.5 L274.2,193.5 L271.3,195.5 L270.0,198.5 L272.0,200.7 L272.3,203.6 L268.9,206.1 L268.5,208.3 L265.8,211.6 L266.1,213.0 L259.0,215.2 L257.0,214.4 L252.5,214.9 L250.9,213.8 L251.6,212.8ZM184.8,237.6 L184.1,236.8 L185.1,234.9 L186.1,234.0 L187.0,234.6 L187.0,233.4 L189.4,234.0 L189.1,232.5 L190.6,232.0 L188.8,231.4 L190.4,228.0 L189.3,227.8 L188.6,229.9 L186.0,231.2 L186.7,230.0 L185.4,227.5 L187.7,227.3 L191.0,222.7 L191.9,224.1 L194.4,224.1 L194.5,225.2 L198.5,224.2 L197.7,222.2 L199.2,218.9 L201.0,217.7 L204.4,217.3 L205.7,219.5 L207.4,219.7 L210.0,217.2 L212.2,220.1 L216.9,219.1 L220.3,221.7 L222.7,222.4 L223.7,221.2 L225.1,221.5 L225.0,222.5 L226.6,222.4 L227.9,219.7 L227.5,217.1 L229.7,217.0 L230.3,218.1 L231.8,217.4 L233.0,212.3 L237.6,212.0 L240.3,209.1 L241.3,210.1 L243.6,206.8 L247.1,210.0 L250.9,210.4 L251.5,214.7 L244.7,213.3 L241.3,214.3 L239.6,216.1 L239.8,217.2 L242.1,218.4 L241.7,220.9 L243.1,222.3 L243.3,225.3 L245.7,225.6 L245.9,226.6 L242.0,229.5 L241.5,231.9 L239.2,234.0 L236.8,233.5 L236.3,232.1 L233.0,234.1 L229.2,233.9 L228.8,232.9 L227.8,233.8 L222.3,233.1 L218.9,236.5 L214.5,235.8 L207.5,236.9 L203.2,234.9 L201.6,235.3 L200.5,238.8 L199.7,236.8 L199.4,238.2 L196.7,237.7 L197.0,238.6 L194.9,239.3 L191.9,237.6 L190.7,240.1 L188.1,239.2 L187.2,237.7ZM264.1,161.7 L262.4,162.5 L261.6,160.2 L260.7,159.7 L260.0,157.2 L260.9,155.5 L258.6,151.4 L259.0,148.7 L259.6,148.1 L260.5,148.2 L261.0,147.4 L261.3,142.2 L262.5,140.6 L264.6,140.2 L265.2,140.7 L267.2,139.5 L268.6,139.9 L269.4,137.2 L272.6,136.5 L272.0,137.4 L273.4,137.9 L275.1,140.3 L275.3,142.1 L276.2,141.8 L275.9,142.8 L277.0,142.9 L277.8,141.8 L279.3,142.8 L278.4,144.4 L279.2,145.3 L279.4,143.5 L280.1,142.7 L280.1,144.2 L281.1,144.9 L285.3,142.9 L285.9,144.9 L286.6,144.4 L285.8,142.7 L287.0,142.7 L286.7,141.8 L287.7,141.5 L288.1,142.4 L289.0,142.0 L289.4,142.0 L293.3,141.2 L293.4,141.2 L293.8,141.1 L293.8,143.3 L294.6,143.1 L295.5,146.1 L294.5,147.5 L296.5,151.9 L295.3,153.0 L296.0,154.4 L298.2,155.5 L299.3,159.6 L298.1,160.7 L297.2,164.2 L296.0,166.0 L292.1,167.3 L290.2,165.2 L288.6,165.3 L287.3,169.4 L284.2,171.9 L281.0,169.7 L279.0,169.4 L278.0,168.5 L276.0,170.7 L271.5,171.2 L266.6,169.5 L266.3,167.5 L267.1,166.9 L266.9,165.6 L265.8,163.8 L265.8,162.3ZM197.7,273.7 L197.2,275.7 L196.9,274.8 L195.8,274.8 L196.9,274.0 L195.8,273.3 L196.0,272.2 L196.7,272.7 L198.3,271.6 L197.0,271.2 L197.5,270.2 L196.3,269.4 L196.5,268.4 L193.9,267.4 L196.8,267.1 L196.9,268.9 L198.6,267.4 L200.6,268.0 L200.7,265.5 L197.9,264.8 L197.5,265.8 L197.1,264.8 L195.6,265.4 L194.8,264.7 L194.6,266.3 L193.5,265.6 L193.4,263.7 L191.1,262.6 L191.6,262.2 L192.2,262.9 L192.0,260.5 L193.5,260.8 L194.3,259.5 L195.3,260.8 L196.2,260.1 L194.0,258.2 L194.0,257.0 L192.9,258.1 L192.5,256.3 L190.8,254.6 L189.9,255.3 L188.4,255.1 L188.9,256.5 L190.4,256.4 L190.0,257.6 L187.9,258.2 L187.4,257.8 L187.8,256.6 L186.7,256.2 L187.1,255.1 L189.9,254.7 L190.6,253.6 L193.9,255.8 L195.4,254.3 L195.9,254.8 L194.9,255.3 L195.6,256.5 L194.9,257.0 L195.7,257.1 L195.3,258.0 L196.3,259.3 L197.0,259.5 L198.5,258.0 L198.8,258.6 L198.0,259.5 L198.8,259.6 L197.8,260.5 L199.3,261.3 L199.5,260.3 L200.3,260.2 L199.7,258.2 L200.5,258.4 L201.3,259.0 L200.8,260.4 L202.5,260.4 L202.0,257.8 L201.2,257.7 L201.8,256.8 L199.9,257.1 L199.2,256.0 L201.0,256.8 L201.4,256.2 L200.7,255.2 L201.8,254.9 L202.7,253.4 L206.3,253.8 L205.7,251.8 L206.6,252.7 L208.0,252.7 L207.1,252.0 L207.7,251.3 L207.4,250.4 L205.6,250.5 L204.9,249.1 L203.2,248.5 L205.9,246.9 L206.0,245.0 L204.1,246.4 L202.3,245.9 L202.7,246.7 L201.9,246.9 L200.8,245.2 L199.1,245.3 L198.5,244.5 L197.6,245.2 L198.6,245.8 L196.6,247.6 L197.2,244.8 L198.6,243.4 L198.4,242.2 L201.7,239.7 L204.3,239.6 L204.0,238.6 L202.6,237.8 L200.5,238.8 L201.6,235.3 L203.2,234.9 L207.5,236.9 L210.3,236.1 L213.4,236.6 L214.5,235.8 L218.9,236.5 L220.7,235.7 L222.0,237.1 L221.6,239.6 L222.5,244.3 L221.0,243.2 L220.2,244.5 L218.4,244.7 L218.0,244.0 L216.0,243.9 L215.8,246.1 L214.4,246.5 L213.6,248.0 L215.0,250.4 L214.9,255.4 L216.7,255.5 L218.1,253.9 L220.2,253.7 L222.1,255.1 L218.6,258.0 L216.0,258.7 L215.3,260.6 L217.5,263.6 L217.0,266.1 L218.1,266.2 L219.2,268.7 L221.5,269.9 L222.3,273.3 L221.8,276.3 L220.7,277.7 L218.1,276.7 L215.8,278.7 L213.1,278.1 L210.1,280.0 L206.4,279.8 L204.9,281.0 L203.1,280.1 L201.5,280.5 L196.9,277.9 L192.3,278.5 L190.8,277.3 L189.3,277.2 L188.3,277.9 L188.8,279.7 L187.7,282.0 L187.3,280.5 L188.3,280.4 L188.6,279.3 L187.6,278.1 L188.8,276.9 L188.5,275.8 L190.0,275.4 L189.6,276.5 L190.2,276.9 L191.2,276.1 L191.3,277.5 L192.2,278.3 L193.6,277.7 L194.0,276.4 L194.2,278.0 L198.0,276.5 L198.4,276.8 L199.3,276.4 L198.1,275.4 L198.9,274.8 L198.1,274.8ZM195.9,212.0 L196.5,209.8 L198.0,209.1 L198.4,207.0 L196.9,206.2 L196.3,204.8 L195.0,205.3 L192.0,204.4 L191.3,201.7 L198.1,192.0 L199.5,192.2 L201.7,190.2 L202.0,190.7 L204.6,189.1 L208.2,194.5 L211.0,190.8 L213.8,191.3 L215.1,192.9 L215.4,195.2 L217.5,198.1 L216.6,199.9 L217.5,199.8 L218.4,202.2 L218.2,203.8 L217.1,204.7 L217.3,207.0 L218.9,207.9 L219.0,209.7 L221.0,209.4 L221.6,211.5 L224.4,209.0 L227.9,208.6 L230.7,206.9 L231.3,205.5 L232.7,205.8 L234.9,203.9 L237.5,205.7 L239.0,203.5 L241.2,202.6 L243.8,206.8 L241.3,210.1 L240.3,209.1 L237.6,212.0 L235.5,212.4 L234.1,211.6 L233.0,212.3 L231.8,217.4 L230.3,218.1 L229.7,217.0 L227.5,217.1 L227.5,221.3 L226.7,222.4 L225.1,222.5 L224.9,221.4 L223.7,221.2 L222.7,222.4 L220.2,221.7 L216.9,219.1 L212.2,220.1 L210.0,217.2 L207.4,219.7 L205.7,219.5 L204.4,217.3 L201.0,217.7 L200.5,215.0 L198.9,213.7 L199.2,213.0 L196.8,212.9ZM239.8,173.4 L238.0,169.6 L238.3,167.6 L239.6,167.1 L238.6,166.5 L237.0,166.3 L232.7,163.6 L224.3,163.6 L223.9,163.0 L224.2,162.0 L224.8,163.0 L224.8,162.4 L225.5,162.7 L224.6,161.7 L225.1,160.6 L224.5,159.1 L225.4,159.1 L225.4,158.3 L225.7,157.7 L225.5,156.9 L225.5,155.8 L226.2,156.4 L226.8,156.3 L227.4,156.1 L227.1,155.0 L227.6,155.4 L226.9,154.1 L228.5,154.4 L225.9,152.5 L227.3,148.0 L229.9,148.5 L229.9,148.4 L231.7,148.3 L233.1,147.3 L235.2,139.6 L235.6,135.2 L234.4,134.0 L236.9,132.4 L238.8,132.2 L239.8,131.0 L243.0,134.0 L244.1,133.0 L246.1,134.5 L249.6,134.9 L249.8,141.3 L254.0,143.5 L254.8,146.9 L253.7,150.0 L251.1,150.8 L249.0,152.8 L248.4,154.6 L249.5,157.1 L247.4,160.7 L247.0,163.3 L244.2,164.8 L241.6,164.5 L242.6,165.1 L241.9,166.6 L243.9,167.0 L243.5,168.1 L244.7,170.7 L248.2,174.9 L247.9,177.5 L245.9,179.0 L245.5,180.9 L242.8,181.5 L241.8,180.4 L241.7,176.2ZM221.5,211.4 L221.7,210.6 L221.0,209.4 L219.0,209.7 L218.9,207.9 L217.3,207.0 L217.1,204.7 L218.2,203.8 L218.4,202.2 L217.5,199.8 L216.6,199.9 L216.4,199.2 L217.5,198.1 L216.3,195.7 L215.4,195.2 L215.1,192.9 L213.7,190.8 L215.9,187.2 L217.1,187.4 L217.7,186.7 L219.6,186.5 L220.2,191.8 L221.1,192.4 L223.0,191.6 L223.3,192.4 L224.9,192.2 L227.1,194.0 L228.8,192.9 L230.4,190.7 L230.8,191.2 L232.4,190.6 L234.8,193.7 L236.9,192.1 L236.8,191.1 L238.3,192.0 L239.4,191.1 L240.5,191.2 L240.4,190.5 L241.9,190.3 L243.8,188.7 L245.2,189.7 L246.1,191.9 L244.4,193.7 L244.9,196.0 L246.9,195.5 L246.7,196.2 L247.2,196.6 L248.9,196.2 L251.0,196.6 L251.2,197.9 L252.9,198.4 L254.8,200.9 L253.6,203.7 L254.2,205.0 L253.2,205.5 L252.7,207.4 L251.5,207.9 L250.9,210.4 L248.1,210.4 L244.7,208.3 L244.4,207.1 L242.0,204.4 L242.2,203.8 L241.3,202.5 L239.0,203.5 L238.9,204.5 L237.5,205.7 L236.7,205.5 L235.8,204.0 L234.9,203.9 L232.7,205.8 L231.3,205.5 L230.8,206.8 L229.7,206.9 L228.6,208.2 L224.4,209.0ZM259.5,148.2 L254.6,148.2 L254.0,143.5 L249.8,141.3 L249.6,134.9 L246.1,134.5 L244.1,133.0 L243.0,134.0 L239.8,131.2 L242.9,128.4 L243.5,128.0 L243.9,127.4 L245.6,126.9 L247.0,124.8 L249.6,124.9 L251.4,123.4 L252.9,124.3 L254.3,123.7 L253.9,120.6 L255.4,119.7 L254.9,117.0 L252.1,116.5 L251.2,117.1 L250.3,115.7 L253.3,115.3 L254.6,116.0 L256.8,112.0 L260.2,117.5 L261.4,116.1 L261.6,118.0 L265.0,123.7 L264.9,122.4 L266.7,123.9 L267.3,126.2 L268.3,125.1 L267.9,126.8 L272.6,136.5 L269.4,137.2 L268.6,139.9 L262.5,140.6 L261.3,142.2 L261.0,147.4ZM216.5,255.5 L214.9,255.4 L215.0,250.4 L214.5,248.8 L213.8,248.9 L213.6,248.0 L214.4,246.5 L215.4,246.6 L215.8,246.1 L216.0,243.9 L218.0,244.0 L218.4,244.7 L220.2,244.5 L221.0,243.2 L221.9,244.4 L222.6,244.2 L221.6,239.6 L222.0,237.1 L220.6,235.6 L221.3,233.2 L224.8,233.1 L227.8,233.8 L228.8,232.9 L229.2,233.9 L232.3,233.6 L233.0,234.1 L236.3,232.1 L236.8,233.5 L239.0,234.1 L241.5,231.9 L242.0,229.5 L244.3,228.6 L245.5,227.2 L246.4,230.2 L250.2,231.9 L251.8,234.9 L250.9,238.8 L247.9,239.9 L245.0,242.2 L243.4,242.2 L242.3,243.2 L240.9,243.1 L237.9,244.5 L237.1,245.7 L235.2,244.1 L233.8,246.5 L232.7,246.9 L231.5,246.5 L229.9,249.3 L228.5,248.7 L227.8,249.5 L227.3,248.8 L224.2,249.4 L223.5,249.9 L223.5,251.4 L221.6,253.3 L218.1,253.9ZM200.6,299.1 L201.3,299.4 L204.2,298.5 L202.8,301.1 L200.6,300.8 L199.7,301.2 L199.6,302.0 L198.8,301.0 L197.1,300.7 L197.8,300.1 L197.9,298.3 L197.3,298.0 L197.0,296.4 L195.9,296.1 L195.8,295.6 L197.8,295.2 L197.8,295.9 L198.4,295.8 L198.7,294.9 L199.7,295.6 L201.0,293.3 L198.3,292.3 L197.9,291.1 L198.7,290.8 L198.7,289.4 L200.3,288.3 L200.6,288.6 L199.9,289.1 L201.4,289.5 L200.2,290.3 L201.3,290.6 L199.8,291.8 L201.4,292.1 L202.1,291.3 L202.8,292.4 L203.7,291.8 L204.2,292.5 L204.6,291.6 L207.0,293.0 L207.5,292.5 L205.4,290.2 L205.4,291.2 L204.7,290.3 L204.5,290.9 L203.7,290.6 L203.8,289.8 L203.4,290.4 L202.1,290.0 L200.8,287.4 L201.5,285.7 L200.2,284.6 L200.0,283.6 L199.6,284.7 L198.7,284.7 L198.3,281.8 L198.9,280.0 L198.4,278.9 L196.9,280.4 L196.9,278.8 L195.4,279.4 L194.3,279.0 L194.2,280.1 L195.0,280.5 L194.6,281.0 L193.4,280.1 L192.9,278.6 L192.1,278.6 L191.8,279.5 L191.6,278.2 L190.3,277.5 L189.3,277.8 L188.9,279.1 L189.5,280.5 L188.5,281.2 L189.5,282.2 L188.0,282.3 L187.5,284.4 L187.1,283.3 L185.8,283.6 L185.3,282.9 L187.2,282.9 L188.6,280.4 L188.4,277.8 L189.9,277.1 L192.3,278.5 L196.9,277.9 L201.1,279.7 L201.5,280.5 L203.1,280.1 L204.9,281.0 L206.4,279.8 L210.1,280.0 L210.6,279.2 L211.6,279.2 L213.1,278.1 L215.8,278.7 L218.1,276.7 L221.1,278.0 L223.3,280.7 L223.1,284.8 L224.4,286.7 L223.7,287.4 L225.0,290.4 L224.3,292.0 L223.7,291.9 L224.0,294.5 L223.3,295.1 L220.1,295.5 L220.4,297.8 L219.1,297.4 L213.2,299.7 L212.7,299.2 L213.3,298.3 L212.1,297.8 L211.6,295.8 L213.5,295.2 L213.7,294.4 L211.9,295.2 L210.7,294.9 L210.5,295.8 L210.0,294.5 L208.8,294.5 L208.8,295.0 L207.0,294.6 L207.0,295.7 L209.1,296.3 L209.2,297.2 L205.8,296.2 L205.3,294.3 L204.0,294.8 L203.8,294.2 L202.3,294.0 L201.3,294.5 L201.3,295.3 L202.7,295.4 L204.1,296.7 L202.7,296.8 L200.3,298.7ZM311.6,160.0 L309.3,159.1 L308.0,160.5 L306.5,161.0 L305.5,162.1 L303.5,161.9 L301.4,159.9 L300.1,159.4 L299.4,159.7 L298.2,155.5 L296.0,154.4 L295.3,153.0 L296.3,152.6 L296.5,151.9 L295.9,151.0 L296.0,149.9 L294.5,147.5 L294.7,146.7 L295.5,146.1 L295.2,144.4 L294.5,143.0 L293.8,143.3 L294.0,140.5 L295.0,140.4 L295.0,141.0 L295.5,141.1 L295.5,139.9 L295.7,139.8 L296.4,139.3 L295.8,139.3 L295.7,137.6 L296.6,136.7 L297.4,136.8 L297.0,137.3 L297.6,138.4 L298.5,138.6 L298.0,138.0 L298.4,137.6 L299.6,137.7 L297.8,136.8 L298.4,136.3 L299.5,136.6 L299.3,136.1 L299.7,135.4 L300.4,136.8 L300.9,136.4 L301.6,136.7 L303.5,136.2 L304.4,135.5 L304.7,134.9 L304.9,134.7 L305.5,134.7 L305.8,135.2 L306.5,134.9 L306.4,136.3 L305.7,136.5 L306.8,136.8 L307.3,136.7 L306.8,134.9 L307.9,135.1 L308.6,136.1 L308.7,136.3 L309.4,137.0 L313.5,136.0 L313.8,136.6 L312.9,138.2 L312.3,138.4 L311.1,141.1 L310.6,144.3 L311.0,146.0 L310.8,147.5 L310.3,149.0 L308.8,150.4 L308.7,151.5 L309.0,152.2 L311.7,152.8 L313.8,152.2 L314.8,151.0 L316.1,151.1 L319.8,150.3 L321.0,151.4 L320.8,152.5 L321.7,153.7 L320.8,154.5 L321.6,156.0 L321.9,158.5 L321.1,159.3 L316.8,158.2 L315.0,158.8 L313.8,160.6ZM248.3,175.0 L247.0,173.6 L246.7,172.4 L244.7,170.7 L244.9,169.8 L243.5,168.1 L243.4,167.6 L244.1,167.5 L243.9,167.0 L241.9,166.6 L242.6,165.1 L241.6,164.8 L241.6,164.5 L244.2,164.8 L247.0,163.3 L247.6,161.8 L247.4,160.7 L248.1,160.2 L249.5,157.1 L248.4,154.6 L249.5,151.9 L251.6,150.6 L252.2,150.7 L253.7,150.0 L254.8,148.2 L256.1,148.8 L256.8,148.0 L258.7,148.2 L259.1,149.9 L258.6,151.4 L259.0,152.9 L260.2,153.9 L260.9,155.7 L260.0,157.2 L260.7,159.7 L261.6,160.2 L262.4,162.5 L263.5,161.7 L265.8,162.3 L265.8,163.8 L267.1,166.6 L266.3,167.5 L266.4,169.2 L267.2,170.1 L265.4,171.0 L263.2,170.6 L263.2,171.6 L261.6,173.5 L260.9,172.8 L259.3,172.3 L258.2,173.3 L258.2,174.4 L255.6,174.5 L255.3,175.0 L254.6,174.8 L253.2,175.5 L252.4,175.3 L252.0,175.8 L250.9,175.9 L250.6,176.6 L248.7,176.1ZM208.4,194.5 L207.5,193.9 L206.9,191.6 L206.3,191.4 L204.6,189.1 L209.8,187.3 L210.0,187.1 L211.6,186.7 L215.7,183.1 L216.8,182.7 L217.9,181.1 L220.0,180.0 L222.9,174.7 L223.1,172.7 L225.2,171.6 L225.2,170.4 L225.9,171.2 L226.1,170.0 L225.4,170.5 L225.7,169.3 L226.1,169.3 L225.9,167.9 L226.6,167.9 L226.7,168.7 L227.3,168.3 L227.3,168.9 L228.1,168.5 L228.1,167.7 L229.3,167.7 L229.3,168.6 L230.2,168.7 L230.2,167.7 L231.8,167.7 L231.7,166.8 L233.9,166.5 L234.1,165.8 L235.5,166.1 L235.2,167.7 L233.9,168.8 L233.5,170.5 L231.4,170.8 L232.0,172.3 L230.7,174.0 L231.6,174.5 L231.8,175.7 L232.9,175.7 L233.6,176.2 L234.3,178.7 L236.1,180.2 L235.4,182.7 L236.4,182.3 L236.5,182.7 L235.1,183.8 L235.3,184.5 L234.4,185.6 L234.3,187.6 L232.8,188.2 L231.8,190.6 L230.8,191.2 L230.6,190.7 L229.7,191.0 L228.8,192.9 L227.1,194.0 L224.9,192.2 L223.3,192.4 L223.0,191.6 L221.1,192.4 L220.8,191.7 L219.8,191.3 L220.3,189.0 L220.0,186.9 L219.6,186.4 L218.4,186.5 L217.1,187.4 L215.7,187.3 L213.7,190.8 L213.8,191.3 L211.0,190.8ZM185.6,227.4 L185.3,227.7 L185.5,227.0 L187.0,226.3 L187.6,225.5 L186.7,224.7 L187.2,224.4 L187.2,223.3 L186.2,222.7 L185.3,222.9 L187.6,220.8 L187.9,220.8 L188.0,221.4 L188.7,221.6 L188.5,220.6 L190.0,218.8 L189.0,218.6 L187.4,219.2 L185.7,218.9 L187.3,218.4 L187.6,218.7 L187.8,218.3 L188.1,218.6 L188.4,218.1 L189.0,218.3 L189.4,217.4 L190.2,217.4 L190.3,216.7 L189.8,216.4 L188.8,216.8 L188.5,216.3 L187.8,216.6 L186.8,216.4 L186.4,216.3 L186.6,215.2 L187.0,214.8 L188.0,215.4 L188.2,214.5 L187.5,214.2 L187.6,213.6 L187.3,214.0 L186.7,213.6 L186.5,214.0 L185.9,213.9 L185.3,214.8 L185.2,216.3 L184.6,216.1 L184.4,214.7 L185.1,213.6 L184.8,211.8 L185.1,211.5 L184.7,210.5 L184.1,210.3 L183.8,209.0 L182.9,208.4 L182.6,207.7 L184.9,206.7 L186.1,205.4 L186.7,205.8 L186.8,205.1 L188.3,204.1 L188.3,203.6 L188.8,203.9 L191.6,202.3 L191.5,204.0 L192.7,204.9 L194.2,204.7 L195.0,205.3 L196.3,204.8 L196.9,206.2 L198.4,207.0 L198.0,209.1 L196.5,209.8 L195.8,211.8 L196.8,212.9 L198.1,212.6 L199.2,213.0 L198.9,213.7 L200.5,215.0 L200.2,215.9 L200.9,218.0 L199.2,218.9 L199.0,220.0 L198.4,220.8 L198.5,221.5 L197.7,222.2 L198.5,224.2 L194.5,225.2 L194.4,224.1 L192.6,223.8 L191.9,224.1 L191.0,222.7 L189.3,224.1 L189.2,225.6 L187.7,227.3ZM232.1,190.1 L232.8,188.2 L234.3,187.6 L234.4,185.6 L235.3,184.5 L235.1,183.8 L236.5,182.7 L236.4,182.3 L235.4,182.7 L236.1,180.2 L234.3,178.7 L233.6,176.2 L232.9,175.7 L231.8,175.7 L231.6,174.5 L230.7,174.0 L232.0,172.3 L231.5,170.7 L233.5,170.5 L233.9,168.8 L235.2,167.7 L235.5,166.1 L234.9,165.6 L235.0,165.0 L237.0,166.3 L238.6,166.5 L239.6,167.1 L238.9,167.1 L238.3,167.6 L238.0,169.6 L238.6,171.1 L239.4,171.4 L239.6,173.2 L241.0,174.6 L241.1,175.8 L242.0,177.1 L241.5,178.2 L241.9,178.9 L241.8,180.4 L242.8,181.5 L241.5,182.6 L241.5,183.1 L241.9,184.0 L243.3,184.6 L242.8,186.1 L243.3,187.0 L242.7,188.5 L243.3,188.5 L243.6,189.0 L241.9,190.3 L240.4,190.5 L240.5,191.2 L239.4,191.1 L238.3,192.0 L236.8,191.1 L236.9,192.1 L234.7,193.7 L233.6,191.7 L232.4,190.6 L231.8,190.6ZM228.5,261.0 L227.9,262.5 L225.9,264.1 L225.6,265.4 L224.4,265.8 L222.7,263.4 L221.3,262.8 L220.9,261.9 L219.3,260.2 L218.3,259.9 L217.8,258.8 L218.1,258.2 L219.9,256.8 L220.6,256.7 L222.1,255.2 L220.8,253.8 L223.5,251.4 L223.5,249.9 L224.2,249.4 L225.2,249.4 L226.2,248.9 L226.6,249.3 L227.3,248.8 L227.8,249.5 L228.3,249.4 L228.5,248.7 L229.0,249.1 L229.9,249.3 L230.4,247.6 L231.5,246.5 L232.7,246.9 L233.8,246.5 L235.2,244.1 L235.6,244.1 L237.2,245.8 L237.1,246.3 L236.2,247.3 L235.9,248.9 L235.2,249.6 L235.6,250.9 L235.1,252.7 L235.4,253.0 L235.7,255.0 L233.5,255.7 L232.2,255.4 L231.2,255.7 L230.9,256.5 L231.4,257.5 L230.8,258.0 L230.9,258.7 L229.6,260.5ZM153.1,230.6 L150.2,231.0 L150.6,229.2 L152.1,229.6 L151.4,228.6 L152.5,228.3 L152.3,226.8 L149.2,227.3 L146.4,229.2 L145.7,229.0 L143.6,231.0 L143.8,231.8 L140.4,233.9 L138.8,233.9 L140.6,233.1 L142.3,230.3 L147.2,227.2 L147.9,225.6 L150.9,224.1 L152.0,222.6 L153.0,222.3 L153.4,224.4 L154.4,224.9 L154.8,222.1 L157.1,224.3 L158.8,222.5 L156.0,220.4 L157.1,219.2 L159.3,221.3 L159.2,218.3 L160.2,217.9 L161.9,218.9 L162.6,216.8 L163.9,218.4 L165.8,218.6 L165.9,216.3 L167.6,216.2 L167.9,215.4 L168.6,215.9 L168.1,216.5 L170.2,217.7 L170.9,215.1 L170.0,214.1 L171.2,214.2 L171.8,213.5 L172.4,214.2 L173.0,212.9 L173.3,213.4 L174.7,212.0 L175.9,212.2 L176.3,211.2 L180.4,209.7 L182.6,207.7 L183.8,209.0 L185.1,211.5 L184.4,214.7 L183.5,213.2 L181.9,212.5 L182.1,211.8 L181.2,212.0 L180.6,212.5 L182.1,214.0 L178.4,214.2 L177.4,217.5 L176.1,214.2 L175.3,214.0 L174.7,215.5 L173.6,215.9 L172.8,218.2 L169.6,219.1 L167.3,221.5 L165.3,221.5 L162.9,223.2 L160.4,223.5 L156.8,226.8 L156.7,229.5 L155.6,229.1 L153.7,230.9ZM226.1,167.9 L225.9,167.9 L225.7,167.0 L225.3,167.0 L225.3,166.6 L226.0,166.7 L226.1,166.3 L225.3,166.5 L225.2,166.1 L224.8,166.1 L224.5,165.3 L225.1,165.0 L224.9,165.0 L224.7,163.8 L224.3,163.6 L226.6,163.5 L227.5,163.2 L228.5,163.1 L229.7,163.5 L232.3,163.5 L233.7,164.0 L235.0,165.0 L234.9,165.3 L235.0,165.8 L234.7,165.7 L234.5,166.0 L234.1,165.8 L234.2,166.1 L233.8,166.1 L233.9,166.5 L233.0,166.4 L233.0,166.7 L232.8,166.8 L231.7,166.8 L231.8,167.7 L230.2,167.7 L230.2,168.7 L229.3,168.6 L229.3,167.7 L228.1,167.7 L228.1,168.5 L227.9,168.5 L227.8,168.8 L227.3,168.9 L227.3,168.3 L227.0,168.3 L226.9,168.7 L226.7,168.7 L226.6,167.9ZM325.5,159.3 L321.9,158.7 L320.8,154.5 L321.7,153.7 L320.8,152.5 L321.0,151.4 L319.8,150.3 L314.8,151.0 L313.8,152.2 L311.7,152.8 L308.8,151.7 L308.6,150.7 L310.8,147.5 L311.2,140.8 L313.8,136.6 L313.7,135.6 L316.3,135.2 L316.7,136.0 L318.7,135.7 L321.4,136.7 L321.7,136.2 L323.2,137.6 L324.0,137.3 L323.8,137.7 L326.2,138.5 L329.4,137.8 L329.1,138.4 L331.7,135.8 L331.8,135.6 L332.4,134.6 L333.1,136.0 L334.2,134.5 L332.8,133.3 L333.4,132.6 L333.8,132.2 L335.4,132.4 L335.5,131.5 L336.4,131.2 L335.8,131.0 L336.4,129.8 L336.8,130.2 L337.7,130.2 L337.5,129.0 L339.2,128.7 L340.1,127.1 L342.0,128.9 L343.7,128.0 L345.3,129.8 L347.5,129.2 L348.9,129.8 L351.1,132.8 L349.8,136.3 L350.7,136.4 L350.8,139.2 L352.0,139.5 L351.3,140.7 L352.0,142.4 L349.9,144.3 L349.9,145.0 L351.1,145.1 L351.8,146.6 L350.1,147.6 L350.2,150.1 L347.9,151.9 L344.7,152.1 L343.7,153.3 L341.7,152.0 L339.9,152.1 L338.1,154.0 L336.6,153.7 L334.8,151.8 L333.9,151.8 L332.7,152.3 L332.2,154.3 L330.9,154.9 L330.9,156.1 L329.9,157.1 L328.6,157.1 L328.3,159.2 L327.4,159.9Z" fill="#F7D98B" stroke="#F7D98B" stroke-width="2.5" stroke-linejoin="round"/><g clip-path="url(#clipu23)"><rect x="277.3" y="0" width="370" height="320" fill="url(#hatchu23)" opacity="0.35"/></g><g transform="translate(245.4,207.0) scale(0.470)"><path d="M-96,-30 L-16,-58 L-12,-42 L-92,-16Z" fill="#1E1A1D"/><path d="M96,-30 L16,-58 L12,-42 L92,-16Z" fill="#1E1A1D"/><path d="M-84,-2 Q-50,-12 -16,-2 Q-50,14 -84,-2Z" fill="#fff"/><path d="M-88,-6 Q-50,-16 -12,-6" fill="none" stroke="#1E1A1D" stroke-width="10" stroke-linecap="round" stroke-linejoin="round"/><path d="M-84,-2 Q-50,14 -16,-2" fill="none" stroke="#1E1A1D" stroke-width="5" stroke-linecap="round" stroke-linejoin="round"/><circle cx="-44" cy="1" r="6" fill="#1E1A1D"/><path d="M16,-2 Q50,-12 84,-2 Q50,14 16,-2Z" fill="#fff"/><path d="M12,-6 Q50,-16 88,-6" fill="none" stroke="#1E1A1D" stroke-width="10" stroke-linecap="round" stroke-linejoin="round"/><path d="M16,-2 Q50,14 84,-2" fill="none" stroke="#1E1A1D" stroke-width="5" stroke-linecap="round" stroke-linejoin="round"/><circle cx="44" cy="1" r="6" fill="#1E1A1D"/><path d="M4,-8 L12,34 q-8,8 -20,4" fill="none" stroke="#1E1A1D" stroke-width="5" stroke-linecap="round" stroke-linejoin="round"/><path d="M-58,26 q-14,34 -2,66" fill="none" stroke="#1E1A1D" stroke-width="5" stroke-linecap="round" stroke-linejoin="round"/><path d="M58,26 q14,34 2,66" fill="none" stroke="#1E1A1D" stroke-width="5" stroke-linecap="round" stroke-linejoin="round"/><path d="M-78,18 l26,8" fill="none" stroke="#1E1A1D" stroke-width="4" stroke-linecap="round" stroke-linejoin="round"/><path d="M78,18 l-26,8" fill="none" stroke="#1E1A1D" stroke-width="4" stroke-linecap="round" stroke-linejoin="round"/><path d="M-30,76 h60" fill="none" stroke="#1E1A1D" stroke-width="7" stroke-linecap="round" stroke-linejoin="round"/><path d="M112,-60 C126,-34 132,-20 130,-8 a18,18 0 0 1 -34,-2 C98,-20 104,-36 112,-60Z" fill="#BFE6FF"/><path d="M112,-60 C126,-34 132,-20 130,-8 a18,18 0 0 1 -34,-2 C98,-20 104,-36 112,-60Z" fill="none" stroke="#1E1A1D" stroke-width="5" stroke-linecap="round" stroke-linejoin="round"/></g><defs><clipPath id="mapclip"><rect x="270" y="10" width="90" height="96"/></clipPath></defs><g clip-path="url(#mapclip)"><path d="M299.3,43.2 L298.4,43.3 L299.2,43.7ZM307.0,38.8 L306.4,39.8 L305.4,39.8 L305.1,40.4 L305.9,40.6 L305.9,42.1 L306.9,41.8 L306.1,40.8 L306.1,40.3 L307.1,40.2 L307.4,39.0ZM300.0,38.1 L298.8,38.2 L298.5,38.8 L299.4,38.8ZM305.5,36.0 L304.9,37.0 L306.2,37.3 L306.1,36.3ZM306.9,35.8 L306.7,36.5 L307.3,36.5ZM298.2,35.1 L297.4,35.7 L297.5,36.3 L298.7,35.3ZM300.6,34.8 L299.3,35.3 L299.6,36.8ZM304.7,33.4 L303.6,34.9 L302.7,35.0 L301.4,36.4 L302.5,37.9 L303.2,37.1 L304.5,37.1 L304.5,36.2 L304.0,36.1 L304.7,35.6ZM318.4,40.1 L318.2,38.2 L316.6,37.4 L316.5,34.9 L314.3,34.2 L314.0,34.6 L312.7,33.4 L310.6,34.6 L311.1,35.1 L310.9,36.8 L310.1,39.7 L309.4,40.2 L307.9,40.0 L307.4,41.2 L308.0,42.8 L307.2,43.2 L307.4,44.0 L306.8,44.3 L307.2,45.5 L306.6,45.8 L309.8,46.0 L312.3,47.1 L312.0,48.3 L313.4,50.8 L313.9,52.9 L314.9,52.7 L316.0,50.5 L313.4,46.5 L315.5,45.9 L316.4,43.5 L316.2,41.9Z" fill="#D8312A" stroke="#1E1A1D" stroke-width="1.2" stroke-linejoin="round"/><path d="M326.8,30.9 L326.8,31.1 L327.1,31.1ZM322.4,27.2 L322.6,27.4 L322.6,27.3ZM318.4,40.1 L320.8,40.0 L321.4,37.1 L323.7,36.8 L324.1,35.8 L325.3,35.5 L323.6,31.4 L322.4,30.6 L321.0,27.7 L320.6,28.1 L319.2,26.1 L318.4,27.7 L316.9,27.5 L317.2,28.0 L318.5,28.1 L318.7,29.3 L318.2,29.4 L318.0,30.8 L315.5,31.0 L312.7,33.4 L314.0,34.6 L314.3,34.2 L316.5,34.9 L316.6,37.4 L318.2,38.2ZM322.0,25.2 L321.6,25.6 L322.6,25.8ZM323.9,23.0 L323.1,24.0 L323.8,24.5 L324.1,25.7 L323.4,25.2 L322.7,28.0 L323.8,28.2 L326.3,25.2 L327.1,25.1 L327.5,24.1 L326.2,24.5 L325.4,23.2ZM315.9,22.9 L315.3,23.1 L316.2,24.1 L316.9,23.3ZM318.4,22.6 L318.1,23.5 L318.8,23.7ZM327.4,20.3 L325.9,21.0 L325.3,20.7 L325.3,21.7 L324.8,22.2 L325.5,22.2 L326.1,23.1 L326.8,22.5 L327.5,23.2 L328.3,23.0 L328.0,22.4 L328.8,21.8 L327.4,21.4ZM322.7,16.9 L321.3,17.4 L321.3,18.6 L320.4,19.0 L321.6,19.1 L321.9,20.0 L321.5,19.9 L321.6,21.4 L320.6,21.1 L319.8,21.5 L319.2,22.5 L319.7,22.5 L319.7,23.1 L325.0,21.5 L324.9,19.3 L324.3,19.1 L323.5,17.3Z" fill="#D8312A" stroke="#1E1A1D" stroke-width="1.2" stroke-linejoin="round"/><path d="M288.3,83.7 L287.3,84.1 L288.4,84.6ZM286.0,82.5 L286.2,83.5 L287.3,83.8 L287.6,82.9 L286.7,83.3ZM291.5,80.3 L291.0,81.2 L290.1,81.2 L290.6,82.2 L291.0,82.2 L290.8,81.5 L291.9,81.1ZM298.5,79.2 L298.0,79.9 L298.6,80.6 L299.3,80.0ZM305.3,73.8 L300.2,74.3 L298.0,73.7 L297.5,75.0 L298.2,74.6 L299.0,75.3 L298.0,75.4 L296.8,76.3 L296.1,78.2 L296.8,77.2 L298.1,78.1 L299.7,77.5 L299.6,78.2 L298.6,78.7 L300.1,79.6 L300.4,80.4 L299.5,80.0 L299.6,80.6 L297.6,81.3 L297.9,81.8 L297.1,81.9 L297.9,81.9 L298.3,83.2 L297.7,83.4 L297.5,82.6 L297.0,83.7 L296.5,83.4 L296.8,82.4 L296.2,83.0 L295.6,82.5 L295.6,81.0 L294.9,81.5 L293.8,80.8 L292.4,81.3 L292.8,82.5 L293.6,81.8 L293.0,81.8 L292.9,81.3 L293.8,81.1 L295.9,83.3 L294.5,83.4 L294.0,84.1 L294.8,84.6 L294.8,85.3 L295.3,85.6 L295.3,85.0 L297.6,85.4 L297.6,86.3 L295.4,86.1 L296.6,87.6 L295.7,88.3 L296.2,89.2 L296.3,88.5 L296.9,88.9 L296.8,90.0 L296.5,89.6 L295.1,90.1 L295.0,89.5 L294.3,90.2 L293.9,89.4 L293.3,89.7 L293.4,89.1 L292.6,90.0 L293.0,90.6 L292.5,91.7 L291.7,92.0 L292.6,91.9 L293.2,89.8 L294.4,90.3 L296.1,90.1 L299.3,91.3 L302.4,90.2 L303.4,90.4 L304.3,89.6 L305.3,90.0 L305.8,89.5 L305.6,87.0 L304.0,85.6 L304.1,84.6 L303.2,83.4 L303.5,82.7 L305.9,81.3 L305.1,80.8 L303.1,81.4 L303.1,79.5 L302.6,78.6 L303.5,77.8 L303.5,77.0 L306.1,77.0 L305.8,74.4Z" fill="#D8312A" stroke="#1E1A1D" stroke-width="1.2" stroke-linejoin="round"/><path d="M330.1,20.0 L329.5,20.8 L330.3,20.7 L330.5,20.3ZM331.5,19.4 L330.9,21.1 L331.5,20.7ZM329.6,18.0 L328.6,18.9 L328.6,20.3 L330.2,19.5ZM330.5,17.7 L330.3,18.4 L330.8,19.4 L331.2,18.7ZM333.3,17.3 L331.8,18.7 L331.9,20.4 L332.8,19.8 L332.3,19.3 L333.7,18.2ZM337.2,23.7 L337.6,24.4 L338.2,24.3ZM335.4,22.7 L335.2,23.8 L335.6,23.7Z" fill="#D8312A" stroke="#1E1A1D" stroke-width="1.2" stroke-linejoin="round"/><path d="M313.9,52.9 L313.4,53.5 L314.0,54.1 L313.8,55.6 L315.1,56.8 L314.5,57.6 L314.6,58.4 L317.0,58.8 L318.5,60.4 L318.2,62.0 L317.2,63.1 L317.0,65.4 L317.6,65.8 L320.1,65.9 L322.8,65.1 L323.9,62.4 L325.2,61.4 L325.1,60.3 L324.4,59.5 L324.8,58.4 L326.0,57.5 L325.4,56.7 L325.8,55.1 L327.8,54.5 L327.9,52.8 L329.2,51.9 L328.9,51.2 L330.0,50.3 L329.8,49.2 L327.4,47.9 L326.3,48.8 L321.7,48.7 L321.1,49.8 L320.2,49.4 L319.8,50.2 L316.9,51.0 L316.0,50.5 L314.9,52.7Z" fill="#D8312A" stroke="#1E1A1D" stroke-width="1.2" stroke-linejoin="round"/><path d="M306.7,46.0 L307.9,48.0 L308.2,47.6 L309.0,48.0 L310.9,46.8 L309.8,46.0Z" fill="#D8312A" stroke="#1E1A1D" stroke-width="1.2" stroke-linejoin="round"/><path d="M310.9,46.5 L310.9,47.6 L309.4,48.8 L309.7,49.3 L309.2,50.0 L311.3,52.6 L311.1,53.3 L311.4,53.4 L309.6,56.4 L310.6,57.6 L311.6,56.6 L312.1,57.0 L314.2,55.8 L314.0,54.1 L313.4,53.5 L313.9,52.9 L313.6,51.3 L312.0,48.3 L312.4,47.3Z" fill="#D8312A" stroke="#1E1A1D" stroke-width="1.2" stroke-linejoin="round"/><path d="M314.1,55.7 L313.0,56.7 L311.6,56.6 L310.8,57.6 L309.6,56.4 L307.9,57.6 L305.2,56.9 L304.9,54.8 L303.4,55.1 L302.6,56.5 L304.0,59.0 L303.7,59.7 L304.4,60.8 L304.0,62.8 L304.6,63.1 L304.7,63.8 L305.4,63.6 L305.9,64.5 L306.8,63.5 L309.2,62.7 L309.5,62.1 L310.8,61.6 L311.8,62.2 L313.3,61.0 L314.6,63.2 L315.9,64.1 L317.0,64.1 L318.2,62.0 L318.5,60.4 L317.0,58.8 L314.7,58.5 L314.5,57.6 L315.1,56.8Z" fill="#D8312A" stroke="#1E1A1D" stroke-width="1.2" stroke-linejoin="round"/><path d="M290.6,63.0 L286.8,65.4 L285.8,65.6 L285.8,66.9 L285.0,66.0 L284.2,66.3 L284.1,67.2 L282.9,66.5 L282.6,67.4 L281.6,67.1 L281.6,68.3 L280.6,67.7 L281.4,68.7 L281.2,69.2 L280.6,69.4 L279.9,68.6 L279.6,69.6 L279.0,68.7 L274.0,73.1 L276.5,71.2 L278.7,70.4 L278.9,71.4 L278.2,71.4 L278.2,72.1 L279.5,72.0 L280.6,71.3 L280.6,70.5 L282.1,69.1 L284.7,68.3 L285.6,67.4 L286.9,67.1 L287.8,65.4 L288.7,66.5 L289.0,65.5 L290.4,65.5 L289.9,64.8 L291.3,65.7 L291.6,64.5Z" fill="#D8312A" stroke="#1E1A1D" stroke-width="1.2" stroke-linejoin="round"/><path d="M290.0,71.0 L290.2,71.4 L290.9,71.4ZM291.2,67.5 L290.9,67.5 L291.0,67.6ZM291.3,65.7 L291.6,66.2 L292.2,65.3 L292.8,65.8 L292.2,65.8 L292.1,66.3 L293.5,66.2 L293.6,66.5 L292.2,67.3 L293.5,67.3 L293.0,68.3 L292.5,68.1 L291.9,68.7 L292.4,69.1 L292.5,70.0 L291.7,70.7 L292.6,70.6 L293.9,68.8 L295.2,69.8 L296.8,69.3 L296.5,68.6 L297.7,66.9 L297.0,65.0 L295.7,64.6 L296.7,62.8 L295.9,61.9 L294.5,62.0 L294.0,60.9 L290.6,63.0 L291.6,64.5Z" fill="#D8312A" stroke="#1E1A1D" stroke-width="1.2" stroke-linejoin="round"/><path d="M341.1,35.3 L339.5,35.7 L338.6,35.0 L338.6,35.7 L337.8,34.8 L336.1,35.7 L335.8,35.1 L335.2,35.7 L335.5,36.0 L335.0,36.8 L334.6,35.6 L334.3,36.0 L334.6,37.0 L333.6,37.1 L333.5,38.2 L334.2,39.3 L333.8,39.8 L334.6,41.5 L334.1,41.9 L335.1,42.8 L335.7,44.5 L337.3,45.3 L338.1,45.4 L339.5,44.3 L341.3,44.8 L342.3,44.0 L344.4,44.1 L343.6,40.9 L340.5,41.9 L339.3,41.3 L340.1,39.8 L340.2,37.3ZM340.1,34.0 L339.3,34.4 L339.7,35.1Z" fill="#D8312A" stroke="#1E1A1D" stroke-width="1.2" stroke-linejoin="round"/><path d="M320.1,40.2 L320.8,44.5 L321.4,45.6 L322.7,45.5 L323.3,48.5 L326.3,48.8 L327.4,47.9 L329.8,49.2 L331.1,48.2 L331.5,46.6 L332.9,47.4 L334.3,47.0 L335.7,44.5 L335.1,42.8 L334.1,41.9 L334.6,41.5 L333.8,39.8 L334.2,39.3 L333.6,37.3 L331.8,37.7 L331.8,38.3 L331.7,37.7 L330.8,37.6 L330.5,38.8 L330.3,38.1 L328.6,38.8 L328.2,37.9 L327.8,38.9 L327.9,38.0 L326.4,37.7 L325.2,36.0 L325.3,35.5 L324.6,35.6 L323.7,36.8 L321.6,37.0 L321.0,37.5 L320.9,39.7Z" fill="#D8312A" stroke="#1E1A1D" stroke-width="1.2" stroke-linejoin="round"/><path d="M302.7,56.7 L301.6,56.5 L300.6,57.9 L299.1,55.8 L298.0,56.3 L296.6,57.1 L294.4,59.9 L294.1,61.6 L295.9,61.9 L296.7,62.8 L295.7,64.6 L297.0,65.0 L297.7,66.9 L298.8,66.8 L300.2,67.7 L301.2,66.7 L302.0,67.8 L303.9,67.4 L305.2,68.4 L307.6,68.7 L308.0,66.7 L309.6,66.8 L310.1,64.8 L311.8,64.6 L312.9,63.6 L313.7,63.7 L314.2,62.7 L313.3,61.0 L311.8,62.2 L310.8,61.6 L309.5,62.1 L309.2,62.7 L306.8,63.5 L305.7,64.5 L305.5,63.8 L304.7,63.8 L304.6,63.1 L304.0,62.8 L304.4,60.8Z" fill="#D8312A" stroke="#1E1A1D" stroke-width="1.2" stroke-linejoin="round"/><path d="M307.3,47.7 L307.4,48.6 L306.4,49.5 L305.1,52.3 L301.8,54.9 L299.1,55.8 L300.6,57.9 L301.6,56.5 L302.7,56.7 L303.4,55.1 L304.4,54.8 L305.0,55.0 L305.2,56.9 L307.9,57.6 L310.6,55.3 L311.3,52.6 L309.2,50.0 L309.7,49.3 L309.4,48.8 L310.4,48.4 L311.0,47.0 L309.8,47.2 L309.0,48.0Z" fill="#D8312A" stroke="#1E1A1D" stroke-width="1.2" stroke-linejoin="round"/><path d="M344.4,44.1 L346.5,44.6 L349.0,41.5 L350.6,42.3 L351.3,41.6 L352.8,42.0 L355.3,40.8 L355.3,39.8 L355.9,39.4 L355.2,38.5 L356.0,37.6 L355.1,35.5 L355.7,34.3 L355.3,33.4 L354.2,32.8 L353.4,33.0 L352.8,32.3 L352.1,32.6 L351.4,31.9 L349.6,34.0 L349.1,33.7 L349.3,34.4 L348.6,34.3 L349.1,34.8 L348.9,35.2 L348.5,34.9 L348.4,35.5 L347.5,36.1 L346.1,36.3 L344.3,35.4 L341.3,35.1 L340.3,37.1 L340.1,39.8 L339.3,41.3 L340.5,41.9 L343.6,40.9Z" fill="#D8312A" stroke="#1E1A1D" stroke-width="1.2" stroke-linejoin="round"/><path d="M305.3,73.8 L305.6,72.8 L310.2,73.1 L311.4,72.4 L311.5,73.0 L312.5,73.2 L315.0,70.1 L314.0,69.8 L313.6,67.1 L312.6,66.3 L314.6,65.2 L317.2,65.7 L317.0,64.1 L315.5,63.9 L314.2,62.7 L313.3,63.9 L312.9,63.6 L311.8,64.6 L310.1,64.8 L309.4,66.9 L308.0,66.7 L307.6,68.7 L305.2,68.4 L303.9,67.4 L302.0,67.8 L301.2,66.7 L300.2,67.7 L298.8,66.8 L297.7,66.9 L296.5,68.6 L296.8,69.3 L295.8,69.7 L294.2,69.4 L293.9,68.8 L292.6,70.6 L291.7,70.7 L292.0,72.1 L293.7,70.8 L293.1,72.2 L293.7,72.5 L293.2,72.6 L293.2,73.2 L291.6,73.5 L291.3,74.6 L292.3,74.6 L293.8,75.5 L294.4,74.6 L295.3,75.2 L297.2,74.2 L297.5,75.0 L298.0,73.7 L298.6,73.5 L300.2,74.3Z" fill="#D8312A" stroke="#1E1A1D" stroke-width="1.2" stroke-linejoin="round"/><path d="M316.0,50.5 L316.9,51.0 L319.8,50.2 L320.2,49.4 L321.1,49.8 L321.7,48.7 L323.3,48.5 L322.7,45.5 L321.4,45.6 L320.8,44.5 L320.0,40.0 L318.4,40.1 L316.5,41.5 L316.0,42.5 L316.4,43.5 L315.5,45.9 L313.4,46.5Z" fill="#D8312A" stroke="#1E1A1D" stroke-width="1.2" stroke-linejoin="round"/><path d="M304.3,82.5 L305.6,84.3 L306.8,85.4 L307.2,85.3 L309.3,82.7 L309.4,81.5 L311.1,81.3 L310.9,79.2 L311.7,77.7 L310.9,77.1 L308.8,79.0 L306.7,79.1 L305.4,80.8 L305.9,81.3Z" fill="#D8312A" stroke="#1E1A1D" stroke-width="1.2" stroke-linejoin="round"/><path d="M305.4,80.8 L306.7,79.1 L308.8,79.0 L310.9,77.1 L311.7,77.7 L317.0,75.0 L317.3,73.5 L316.7,72.3 L315.2,71.7 L314.9,70.5 L313.5,71.4 L312.5,73.2 L311.5,73.0 L311.4,72.4 L310.2,73.1 L305.6,72.8 L305.3,73.8 L305.8,74.4 L306.1,77.0 L303.5,77.0 L303.5,77.8 L302.6,78.6 L303.1,79.5 L303.1,81.4Z" fill="#D8312A" stroke="#1E1A1D" stroke-width="1.2" stroke-linejoin="round"/><path d="M295.4,96.2 L294.5,96.9 L295.4,96.7ZM291.7,92.0 L292.6,92.5 L292.8,91.7 L293.2,91.8 L293.1,90.1 L293.6,90.0 L295.3,91.3 L295.1,90.6 L296.2,90.5 L296.1,91.0 L296.9,90.6 L296.9,92.8 L297.4,92.3 L297.9,93.1 L297.6,93.7 L298.2,94.7 L300.2,95.7 L297.6,95.4 L297.4,94.2 L296.3,95.0 L297.7,96.0 L297.3,96.9 L295.7,97.0 L296.5,98.0 L296.3,98.8 L297.1,99.1 L298.4,99.1 L298.9,98.5 L298.9,98.1 L297.5,98.1 L298.8,97.3 L297.8,96.7 L298.2,96.3 L299.4,96.4 L299.6,97.1 L300.8,97.5 L300.1,97.0 L300.1,96.5 L301.4,97.0 L302.5,96.6 L301.8,97.2 L302.5,98.5 L305.2,97.7 L305.1,97.0 L306.6,96.5 L307.0,94.9 L306.3,91.1 L304.3,89.6 L303.4,90.4 L302.4,90.2 L299.3,91.3 L296.1,90.1 L294.4,90.3 L293.2,89.8 L292.6,91.9Z" fill="#D8312A" stroke="#1E1A1D" stroke-width="1.2" stroke-linejoin="round"/></g><text x="20" y="56.2" font-size="41.5" font-family="'Shippori Mincho B1','Hiragino Mincho ProN',serif" font-weight="800" fill="#1E1A1D" stroke="#fff" stroke-width="10.8" paint-order="stroke" stroke-linejoin="round">お疲れ</text><text x="20" y="101.0" font-size="41.5" font-family="'Shippori Mincho B1','Hiragino Mincho ProN',serif" font-weight="800" fill="#1E1A1D" stroke="#fff" stroke-width="10.8" paint-order="stroke" stroke-linejoin="round">さまです</text><rect x="14" y="278" width="80" height="30" fill="#1E1A1D"/><text x="54.0" y="300" font-size="21" text-anchor="middle" font-family="'Shippori Mincho B1','Hiragino Mincho ProN',serif" font-weight="800" fill="#fff">愛媛県</text></svg>