<?xml version="1.0" encoding="UTF-8"?>
<svg xmlns="http://www.w3.org/2000/svg" width="360" height="360" viewBox="-1 -2 102 104"><path d="M23,27 C14,29 10,37 12,45 C16,48 24,47 26,43 L25,30 Z" fill="#FFFFFF" stroke="#2E2A28" stroke-width="3.4" stroke-linejoin="round" stroke-linecap="round" /><path d="M 77,27 C 86,29,90,37,88,45 C 84,48,76,47,74,43 L 75,30 Z" fill="#FFFFFF" stroke="#2E2A28" stroke-width="3.4" stroke-linejoin="round" stroke-linecap="round" /><path d="M25,55 L75,55 L86,84 C70,88.5 30,88.5 14,84 Z" fill="#8E8E96" stroke="#2E2A28" stroke-width="3.4" stroke-linejoin="round" stroke-linecap="round" /><path d="M33.6,55 L25.7,84" fill="none" stroke="#6C6C75" stroke-width="1.7000000000000002" stroke-linejoin="round" stroke-linecap="round" opacity="0.55"/><path d="M40.1,55 L35.4,84" fill="none" stroke="#6C6C75" stroke-width="1.7000000000000002" stroke-linejoin="round" stroke-linecap="round" opacity="0.55"/><path d="M46.7,55 L45.1,84" fill="none" stroke="#6C6C75" stroke-width="1.7000000000000002" stroke-linejoin="round" stroke-linecap="round" opacity="0.55"/><path d="M53.3,55 L54.9,84" fill="none" stroke="#6C6C75" stroke-width="1.7000000000000002" stroke-linejoin="round" stroke-linecap="round" opacity="0.55"/><path d="M59.9,55 L64.6,84" fill="none" stroke="#6C6C75" stroke-width="1.7000000000000002" stroke-linejoin="round" stroke-linecap="round" opacity="0.55"/><path d="M66.4,55 L74.3,84" fill="none" stroke="#6C6C75" stroke-width="1.7000000000000002" stroke-linejoin="round" stroke-linecap="round" opacity="0.55"/><path d="M22,27 C22,22 30,20 38,20 C42,25.5 58,25.5 62,20 C70,20 78,22 78,27 L75,57 L25,57 Z" fill="#FFFFFF" stroke="#2E2A28" stroke-width="3.4" stroke-linejoin="round" stroke-linecap="round" /><path d="M28,21 L72,21 L68,44 L50,52 L32,44 Z" fill="#F2A0BC" stroke="#2E2A28" stroke-width="2.2" stroke-linejoin="round" stroke-linecap="round" /><path d="M33,29 L67,29" fill="none" stroke="#FFFFFF" stroke-width="1.6" stroke-linejoin="round" stroke-linecap="round" /><path d="M33,32.6 L67,32.6" fill="none" stroke="#FFFFFF" stroke-width="1.6" stroke-linejoin="round" stroke-linecap="round" /><path d="M33,36.2 L67,36.2" fill="none" stroke="#FFFFFF" stroke-width="1.6" stroke-linejoin="round" stroke-linecap="round" /><path d="M50,30 L41,26 L41,34 Z M50,30 L59,26 L59,34 Z" fill="#EE7FA6" stroke="#2E2A28" stroke-width="2.2" stroke-linejoin="round" stroke-linecap="round" /><path d="M47,27.5 L53,27.5 L53,32.5 L47,32.5 Z" fill="#EE7FA6" stroke="#2E2A28" stroke-width="2.2" stroke-linejoin="round" stroke-linecap="round" /></svg>