<?xml version="1.0" encoding="UTF-8"?>
<svg xmlns="http://www.w3.org/2000/svg" width="360" height="360" viewBox="-1 -2 102 104"><path d="M50,20 C26,20 16,38 16,56 C16,76 30,88 50,88 C70,88 84,76 84,56 C84,38 74,20 50,20 Z" fill="#EE8A2B" stroke="#2E2A28" stroke-width="3.4" stroke-linejoin="round" stroke-linecap="round" /><path d="M34,24 C28,42 28,66 34,84 M66,24 C72,42 72,66 66,84 M50,21 L50,88" fill="none" stroke="#B85F16" stroke-width="2.0" stroke-linejoin="round" stroke-linecap="round" /><path d="M46,14 C48,8 52,8 54,14 C52,17 48,17 46,14 Z" fill="#4E7A32" stroke="#2E2A28" stroke-width="1.8" stroke-linejoin="round" stroke-linecap="round" /></svg>