<svg xmlns="http://www.w3.org/2000/svg" width="370" height="320" viewBox="0 0 370 320"><defs><style>@import url("https://fonts.googleapis.com/css2?family=Shippori+Mincho+B1:wght@800&display=swap");</style><pattern id="hatchu15" width="7" height="7" patternUnits="userSpaceOnUse" patternTransform="rotate(-35)"><line x1="0" y1="0" x2="0" y2="7" stroke="#1E1A1D" stroke-width="1.8"/></pattern><pattern id="toneu15" width="6" height="6" patternUnits="userSpaceOnUse" patternTransform="rotate(45)"><circle cx="3" cy="3" r="1.5" fill="#1E1A1D"/></pattern><clipPath id="clipu15"><path d="M199.1,275.7 L196.6,275.4 L200.4,254.1 L197.3,240.4 L192.6,239.8 L195.0,219.6 L200.6,204.0 L197.7,201.9 L200.3,199.0 L202.0,199.4 L204.0,196.8 L205.4,198.4 L208.1,191.7 L212.8,191.1 L213.5,182.6 L228.3,170.8 L236.1,169.3 L254.2,171.4 L259.8,176.1 L260.9,180.3 L256.1,180.1 L257.1,183.0 L246.6,188.7 L248.3,203.3 L259.9,220.6 L267.4,221.8 L281.4,218.3 L299.4,229.2 L313.0,226.2 L328.4,235.9 L332.3,234.1 L336.8,235.9 L339.0,234.0 L337.0,238.4 L331.5,238.7 L331.1,242.9 L327.8,244.4 L328.6,252.2 L324.5,260.5 L318.3,262.9 L314.9,271.0 L303.8,270.5 L295.8,261.2 L289.3,261.3 L286.4,264.9 L275.3,261.5 L272.2,258.4 L271.0,252.0 L264.8,254.7 L262.6,259.3 L254.4,261.4 L252.6,258.5 L255.2,251.8 L247.0,250.6 L242.0,254.4 L240.0,251.5 L231.0,260.7 L228.0,253.3 L224.4,254.7 L221.1,253.0 L206.4,269.1 L207.0,272.5ZM152.3,286.1 L148.9,294.4 L144.0,293.4 L141.4,295.3 L141.0,289.1 L139.5,287.1 L140.3,282.1 L144.9,279.3 L142.0,267.8 L138.5,264.3 L136.5,264.1 L136.3,260.4 L142.4,256.1 L140.5,254.0 L142.7,251.6 L142.1,248.0 L143.7,245.3 L141.8,242.0 L142.0,238.3 L146.8,227.1 L143.6,222.7 L141.1,222.5 L142.1,218.4 L140.6,213.7 L143.3,209.7 L145.9,209.9 L145.4,213.9 L149.8,214.9 L153.5,218.2 L155.4,213.1 L164.8,213.7 L167.0,210.3 L166.6,208.7 L177.5,214.7 L181.8,223.6 L187.4,227.6 L187.1,229.4 L194.4,230.3 L192.6,240.5 L197.3,240.4 L200.4,254.1 L198.3,258.0 L199.9,261.2 L196.6,275.4 L199.9,277.1 L197.1,282.8 L199.2,283.6 L194.6,290.4 L190.7,290.2 L189.2,297.0 L183.5,298.8 L181.1,302.0 L177.3,301.0 L180.7,292.4 L176.7,284.6 L173.4,281.8 L166.4,278.7 L162.6,282.8 L159.3,283.6 L157.2,281.7 L151.1,282.4ZM267.8,221.7 L259.0,220.0 L249.0,204.9 L246.6,188.7 L250.8,186.2 L252.2,187.3 L251.2,191.3 L254.0,189.6 L255.1,186.2 L257.8,186.1 L258.6,189.8 L263.0,192.1 L263.4,195.7 L270.5,201.1 L271.8,204.1 L274.4,205.1 L274.4,207.0 L279.3,207.5 L282.6,213.4 L292.1,211.4 L295.3,211.7 L295.4,214.2 L303.6,212.4 L307.0,215.4 L311.5,214.5 L315.7,216.4 L318.6,215.0 L318.4,212.4 L321.5,206.9 L320.7,205.0 L322.2,203.8 L331.4,204.9 L335.0,202.2 L342.2,207.3 L348.4,207.7 L347.8,210.9 L349.8,216.0 L348.6,217.8 L343.5,217.9 L335.6,224.5 L334.9,231.0 L340.6,231.7 L336.8,236.0 L332.3,234.1 L328.2,235.9 L313.2,226.2 L304.2,228.8 L297.3,228.5 L295.4,225.4 L285.6,221.7 L281.4,218.3ZM267.8,199.2 L264.5,196.9 L264.5,195.7 L263.4,195.7 L263.0,192.1 L260.8,191.9 L259.8,189.5 L258.6,189.8 L258.4,186.7 L254.9,186.0 L255.6,183.1 L257.1,183.0 L256.1,180.1 L260.9,180.3 L259.1,178.2 L260.2,176.7 L261.7,179.0 L264.6,179.8 L264.9,181.9 L267.4,180.2 L269.4,181.5 L271.4,182.9 L274.3,180.9 L277.4,181.7 L278.9,179.9 L281.2,182.3 L280.3,185.5 L284.1,187.7 L283.6,183.7 L285.5,186.9 L286.7,186.9 L287.2,185.5 L288.4,186.6 L289.5,181.2 L293.9,181.3 L296.9,184.6 L296.4,189.9 L298.4,193.1 L300.5,192.6 L302.6,193.8 L310.6,194.7 L314.0,193.8 L314.5,192.4 L319.7,199.4 L321.1,199.8 L322.5,203.6 L320.7,205.0 L321.5,206.9 L318.4,212.4 L318.6,215.0 L314.6,216.5 L311.5,214.5 L306.9,215.3 L303.6,212.4 L295.4,214.2 L295.3,211.7 L292.1,211.4 L286.0,213.6 L282.6,213.4 L279.3,207.5 L274.4,207.0 L274.4,205.1 L271.8,204.1 L270.5,201.1ZM278.3,173.9 L269.3,160.3 L271.7,158.4 L271.8,157.5 L271.9,157.5 L271.5,154.1 L275.7,147.4 L275.3,144.0 L279.7,147.3 L280.9,147.0 L281.6,148.5 L285.9,150.5 L290.7,151.1 L296.3,154.0 L296.2,156.4 L294.8,159.2 L296.3,161.6 L296.2,164.0 L299.3,166.4 L302.2,165.4 L304.4,168.4 L308.1,169.3 L308.8,170.8 L312.9,173.0 L314.6,177.1 L319.0,180.4 L318.8,182.3 L315.4,186.6 L313.7,187.6 L313.5,190.2 L314.6,192.8 L314.0,193.8 L310.3,194.7 L308.4,193.9 L306.3,194.4 L304.0,193.3 L302.6,193.8 L300.5,192.6 L298.4,193.1 L296.4,189.9 L297.3,185.7 L294.8,181.9 L289.7,181.1 L288.4,186.5 L287.2,185.5 L286.7,186.9 L285.5,186.9ZM159.3,213.3 L157.9,213.7 L157.4,213.1 L156.1,213.7 L155.4,213.1 L154.4,215.2 L154.2,217.7 L152.7,218.2 L149.8,214.9 L147.3,214.3 L146.9,213.5 L145.4,213.9 L146.1,210.0 L142.8,210.1 L142.3,211.2 L143.0,211.8 L141.9,213.1 L140.4,212.4 L139.5,210.2 L139.8,206.6 L141.9,205.8 L143.1,204.5 L143.2,201.8 L144.7,201.4 L145.3,198.6 L148.2,195.5 L147.5,194.1 L148.0,192.5 L147.5,191.7 L145.2,191.0 L146.5,187.2 L142.8,184.7 L140.7,182.2 L141.6,181.8 L142.2,179.4 L144.6,179.8 L147.4,179.1 L147.8,176.6 L148.5,176.0 L150.6,175.8 L152.0,177.6 L154.0,177.6 L154.4,178.5 L155.4,178.2 L156.4,180.7 L157.2,180.3 L159.8,182.8 L161.6,182.7 L161.8,185.7 L162.6,186.2 L162.7,187.6 L165.6,186.6 L166.5,187.1 L166.3,188.9 L167.1,190.7 L169.2,189.9 L170.9,193.1 L172.3,193.6 L172.2,194.5 L170.1,194.6 L169.5,193.7 L169.1,195.1 L168.3,195.3 L168.7,196.1 L167.8,196.8 L168.4,197.4 L168.0,197.9 L168.7,198.1 L168.2,198.4 L168.6,199.3 L167.4,200.5 L168.5,203.2 L169.6,203.1 L167.8,205.2 L167.1,205.1 L166.9,206.6 L165.5,207.3 L167.0,210.3 L166.0,210.2 L164.9,213.7ZM186.4,227.2 L184.3,226.5 L183.9,224.7 L183.0,224.9 L181.8,223.6 L180.4,221.1 L180.7,220.5 L179.7,220.0 L180.3,219.4 L180.0,218.3 L177.8,216.3 L178.3,215.8 L177.5,214.7 L176.2,214.8 L174.6,212.9 L172.3,212.5 L169.9,211.0 L170.4,210.3 L169.8,209.5 L166.1,208.2 L167.1,205.1 L167.8,205.2 L169.6,203.1 L168.5,203.2 L167.4,200.5 L168.6,199.3 L168.2,198.4 L168.7,198.1 L168.0,197.9 L168.4,197.4 L167.8,196.8 L168.7,196.1 L168.3,195.3 L169.1,195.1 L169.5,193.7 L170.1,194.6 L172.9,195.0 L172.2,194.5 L172.3,193.6 L170.9,193.1 L170.0,191.3 L171.7,191.1 L172.7,192.1 L173.5,191.3 L173.8,192.4 L174.4,191.6 L174.5,192.9 L175.6,192.8 L176.1,195.2 L177.1,195.4 L177.0,198.0 L177.4,198.1 L178.9,198.2 L179.1,196.8 L180.8,196.8 L181.7,195.2 L184.2,195.6 L183.6,199.0 L186.0,198.1 L188.1,198.3 L188.9,194.7 L191.1,194.8 L191.5,195.2 L191.2,196.4 L193.8,197.2 L193.5,198.1 L195.7,199.0 L196.7,198.2 L197.0,199.4 L198.2,200.3 L197.7,201.9 L199.2,202.2 L200.4,203.3 L200.6,204.0 L199.0,205.5 L198.1,208.3 L198.6,209.3 L198.0,210.7 L198.2,214.2 L197.2,214.1 L197.2,215.8 L196.1,217.1 L196.3,218.5 L195.0,219.6 L195.3,222.3 L194.5,223.7 L194.4,230.1 L187.1,229.4 L187.5,227.8ZM206.2,196.3 L205.0,198.8 L204.0,196.8 L203.1,199.6 L202.0,199.4 L202.5,200.5 L204.0,200.8 L203.7,201.3 L202.3,201.1 L202.0,200.1 L200.9,200.3 L200.2,199.6 L201.2,199.6 L200.3,199.0 L197.7,201.9 L198.2,200.3 L197.0,199.4 L196.7,197.0 L195.8,196.3 L196.8,195.0 L195.7,194.7 L194.3,193.1 L193.9,193.5 L194.9,190.1 L188.8,187.6 L195.0,179.0 L194.5,178.7 L194.9,177.7 L196.2,176.6 L197.5,172.6 L197.0,170.0 L197.4,168.2 L199.2,168.1 L199.9,169.1 L201.2,168.8 L202.2,169.8 L204.4,170.7 L205.5,169.9 L206.5,170.4 L209.0,168.6 L210.8,169.1 L210.1,170.4 L210.6,170.7 L211.0,169.8 L213.7,171.7 L215.3,172.0 L215.6,171.0 L212.1,169.4 L212.6,167.9 L212.1,167.8 L211.9,167.1 L212.4,167.0 L211.9,166.9 L212.2,166.4 L212.5,165.8 L216.1,167.6 L216.4,168.7 L216.6,168.6 L217.7,168.5 L218.6,169.3 L218.8,168.9 L220.2,170.3 L225.5,171.7 L225.3,174.4 L223.2,175.6 L221.6,175.3 L219.2,176.4 L218.8,177.3 L219.4,177.6 L218.4,178.9 L218.1,180.8 L215.1,180.6 L214.8,182.0 L213.5,182.6 L213.4,183.4 L213.9,183.7 L212.2,184.7 L212.7,186.2 L213.4,186.2 L213.0,187.1 L213.6,188.2 L212.9,189.1 L213.4,189.9 L212.8,191.1 L210.6,191.3 L209.8,192.5 L208.8,192.7 L208.1,191.7 L207.7,193.1 L207.1,192.9 L207.3,193.7ZM258.1,175.2 L257.6,173.6 L256.6,173.7 L255.9,172.7 L254.9,172.7 L255.0,171.6 L256.0,171.6 L258.8,170.5 L259.0,169.7 L260.8,168.0 L261.4,166.8 L260.9,166.6 L261.8,165.5 L265.9,162.3 L268.3,161.3 L268.5,160.6 L269.3,160.3 L272.3,164.2 L275.4,170.4 L278.9,174.6 L280.7,178.9 L282.3,180.7 L283.7,183.4 L283.4,184.3 L284.1,184.9 L283.7,186.3 L284.4,187.6 L283.0,187.1 L282.1,185.9 L280.3,185.5 L280.5,183.5 L281.2,182.3 L280.9,181.8 L280.1,181.9 L279.8,180.7 L278.9,179.9 L278.2,180.0 L278.1,181.0 L277.4,181.7 L275.7,181.6 L274.3,180.9 L272.5,182.4 L271.5,182.5 L271.4,182.9 L269.4,181.5 L267.4,180.2 L265.8,180.6 L265.3,181.0 L265.3,181.8 L264.9,181.9 L264.6,179.8 L262.3,178.5 L262.1,179.1 L261.7,179.0 L261.5,177.9 L260.2,176.7 L259.9,177.0 L259.6,175.9ZM199.4,163.8 L201.2,162.1 L203.6,163.6 L205.4,165.0 L206.2,164.5 L206.0,165.1 L207.4,165.5 L207.5,165.1 L208.0,165.2 L208.2,164.5 L211.2,165.2 L209.8,166.0 L211.1,167.3 L210.2,167.7 L206.8,167.0 L206.3,168.1 L205.3,166.9 L204.2,167.6 L202.5,167.5 L202.6,165.5 L199.3,164.4ZM251.0,190.1 L251.1,189.4 L251.5,188.6 L251.5,188.2 L252.1,187.8 L252.2,187.6 L252.1,187.0 L251.4,187.0 L251.1,186.9 L251.4,186.5 L251.2,186.4 L251.3,186.2 L250.0,186.3 L250.3,185.8 L250.9,185.3 L251.1,185.0 L251.4,185.0 L251.5,184.5 L252.0,184.4 L252.0,184.3 L252.3,184.2 L252.6,183.8 L252.7,183.8 L253.2,184.3 L253.0,185.1 L253.3,185.3 L253.7,184.9 L253.7,184.5 L253.9,184.2 L254.3,184.4 L254.8,184.0 L255.1,184.1 L255.3,184.4 L255.0,185.0 L254.9,186.0 L255.4,186.6 L255.9,186.4 L256.0,186.9 L255.4,186.9 L255.3,187.5 L254.6,187.6 L254.2,188.1 L254.0,188.2 L253.7,188.0 L253.6,188.5 L253.4,188.3 L253.6,189.3 L254.1,189.5 L253.7,189.8 L253.4,189.7 L253.6,189.9 L253.5,190.2 L252.9,190.6 L252.8,190.9 L252.4,190.6 L252.1,190.7 L252.1,190.5 L251.9,190.4 L251.4,190.6 L251.4,191.1 L251.2,191.3 L251.3,190.9 L251.0,190.9 L250.9,190.7 L250.9,190.1ZM322.0,202.8 L321.1,199.8 L319.7,199.4 L313.5,190.2 L313.7,187.6 L318.3,183.6 L318.3,179.3 L316.4,179.0 L313.2,173.3 L308.1,169.3 L304.4,168.4 L302.2,165.4 L299.3,166.4 L296.2,164.0 L296.3,161.6 L294.8,159.2 L296.3,154.0 L281.6,148.5 L280.9,147.0 L279.7,147.3 L275.3,144.0 L277.3,138.9 L276.4,136.0 L276.4,136.3 L275.1,134.2 L278.9,127.5 L284.9,132.7 L294.7,135.9 L304.2,142.2 L303.1,135.2 L304.0,135.1 L306.0,140.1 L308.0,139.8 L312.7,142.3 L314.1,146.4 L318.9,142.5 L320.6,143.1 L323.5,146.8 L326.8,147.1 L326.8,150.6 L348.5,169.3 L351.1,176.4 L349.3,180.2 L349.1,186.1 L350.6,188.6 L350.0,190.7 L351.2,191.1 L351.7,196.5 L349.8,198.7 L349.5,207.0 L344.3,208.2 L335.0,202.2 L331.4,204.9 L326.7,204.8 L326.2,203.7ZM345.0,153.7 L348.0,156.3 L350.0,161.3 L349.0,165.8 L352.0,169.0 L350.0,172.8 L348.5,169.3 L326.8,150.6 L326.8,147.1 L323.5,146.8 L322.7,144.8 L318.9,142.5 L318.3,140.5 L314.7,136.9 L312.4,138.6 L309.4,138.0 L309.5,136.7 L307.4,136.7 L307.6,130.6 L301.8,131.1 L300.7,128.0 L301.7,122.4 L303.8,121.7 L304.2,117.0 L311.1,116.2 L313.9,113.3 L324.2,112.0 L327.7,114.9 L331.0,120.0 L332.5,119.8 L335.6,121.9 L340.7,121.6 L342.7,126.3 L341.8,127.7 L342.1,131.4 L341.0,132.4 L341.2,135.8 L345.7,141.9 L345.7,152.0ZM177.2,196.9 L174.4,191.6 L173.8,192.4 L173.5,191.3 L172.7,192.1 L171.7,191.1 L169.9,191.4 L168.7,189.8 L167.1,190.7 L166.5,187.1 L162.7,187.6 L161.6,182.7 L159.8,182.8 L157.2,180.3 L156.4,180.8 L155.4,178.2 L152.0,177.6 L150.3,175.8 L151.6,175.1 L154.5,168.5 L152.4,165.1 L154.1,163.9 L158.9,165.3 L161.3,164.4 L163.3,167.4 L164.6,167.4 L166.1,165.7 L166.8,167.1 L170.4,168.6 L175.6,165.1 L175.1,163.7 L176.3,162.9 L178.1,165.3 L179.1,164.0 L181.1,163.0 L182.6,163.4 L183.2,162.0 L184.8,161.7 L189.8,163.1 L190.3,161.2 L189.3,159.8 L187.5,159.6 L186.5,157.8 L187.3,156.8 L188.0,157.4 L188.1,156.1 L189.1,156.4 L189.0,154.1 L190.1,152.5 L196.2,156.6 L198.8,160.0 L199.3,159.9 L200.1,159.1 L201.5,160.0 L200.4,161.1 L201.2,162.1 L199.4,163.3 L199.2,164.4 L202.6,165.5 L202.3,167.4 L205.3,166.9 L206.5,168.6 L209.0,168.6 L206.5,170.4 L205.5,169.9 L204.4,170.7 L201.2,168.8 L197.4,168.2 L197.5,172.6 L196.2,176.6 L188.8,187.6 L194.9,190.1 L193.9,193.5 L196.8,195.0 L195.8,196.3 L196.7,198.2 L195.7,199.0 L193.5,198.1 L193.8,197.2 L191.2,196.4 L191.1,194.8 L188.9,194.7 L188.1,198.3 L186.0,198.1 L184.2,199.1 L183.6,198.9 L184.3,196.4 L183.7,195.3 L181.7,195.2 L180.8,196.8 L179.1,196.8 L178.9,198.2 L177.0,198.0ZM294.9,136.0 L291.4,134.4 L284.9,132.7 L280.9,129.8 L278.9,127.5 L279.5,126.6 L280.9,125.2 L286.5,123.0 L293.3,118.7 L297.1,117.7 L304.2,117.0 L303.8,121.7 L301.7,122.4 L301.0,124.2 L300.7,128.0 L301.5,128.5 L301.8,131.1 L302.8,130.7 L303.2,131.2 L304.1,130.4 L307.6,130.6 L307.6,133.3 L306.9,135.3 L307.4,136.7 L309.5,136.7 L309.4,138.0 L312.4,138.6 L314.7,136.9 L317.0,139.8 L318.3,140.5 L318.8,142.8 L315.5,146.3 L314.1,146.4 L313.2,144.4 L313.6,143.3 L312.7,142.3 L310.8,142.0 L308.0,139.8 L306.0,140.1 L305.2,136.8 L304.0,135.1 L303.1,135.2 L304.5,138.7 L304.6,142.2 L302.1,140.4 L299.5,139.9ZM153.9,158.2 L153.7,156.9 L156.1,152.6 L155.3,149.7 L156.5,149.4 L156.5,147.6 L157.7,146.7 L156.3,145.7 L156.6,144.2 L158.4,143.6 L159.8,142.0 L161.6,137.5 L160.2,135.4 L160.2,131.8 L163.8,126.8 L168.1,125.2 L171.5,119.9 L172.5,120.1 L175.2,118.6 L176.4,118.4 L180.8,121.6 L182.6,119.3 L183.6,115.4 L185.6,115.4 L187.6,117.0 L192.4,116.7 L194.6,115.4 L197.7,117.6 L192.4,122.7 L193.5,127.1 L192.0,129.7 L190.4,130.5 L188.5,134.8 L185.4,137.5 L185.0,139.0 L183.2,139.8 L183.9,143.4 L184.1,143.5 L184.5,145.3 L184.5,146.0 L190.1,152.5 L189.0,154.1 L189.5,154.5 L189.0,154.5 L189.1,156.4 L188.1,156.1 L188.0,157.4 L187.3,156.8 L186.5,157.8 L187.5,159.6 L189.3,159.8 L190.3,161.2 L189.5,162.1 L189.8,163.1 L184.8,161.7 L183.2,162.0 L182.6,163.4 L181.1,163.0 L179.1,164.0 L178.1,165.3 L176.3,162.9 L175.1,163.7 L175.6,165.1 L170.3,168.6 L166.8,167.1 L166.1,165.7 L163.7,167.5 L162.0,166.5 L162.2,165.1 L161.3,164.4 L160.9,165.1 L160.2,164.2 L158.9,165.3 L154.2,164.2 L154.8,161.8Z"/></clipPath><clipPath id="frameu15"><rect x="11" y="11" width="348" height="298"/></clipPath></defs><g clip-path="url(#frameu15)"><path d="M394.1,207.0 L704.0,196.9 L704.0,217.1ZM428.5,238.0 L700.5,265.1 L694.4,301.4ZM421.3,256.6 L691.4,314.6 L682.2,347.4ZM407.9,284.1 L666.8,388.6 L653.5,416.9ZM396.2,299.5 L644.4,433.7 L629.6,458.1ZM376.5,321.5 L600.4,498.0 L583.5,517.5ZM361.5,332.7 L566.4,535.2 L549.6,550.9ZM337.4,347.9 L506.4,584.9 L489.5,596.1ZM320.5,354.4 L471.9,606.6 L439.3,623.6ZM294.1,362.2 L401.2,639.4 L368.8,649.8ZM276.7,363.7 L353.0,653.9 L322.4,660.3ZM250.1,363.9 L276.0,665.9 L247.5,667.0ZM233.6,360.6 L225.6,666.6 L199.9,664.9ZM209.0,353.9 L148.3,656.9 L125.9,651.6ZM181.2,384.1 L99.7,643.7 L80.6,636.9ZM154.1,368.6 L36.6,617.5 L4.5,599.6ZM139.2,355.7 L-7.1,592.4 L-34.9,572.7ZM118.1,334.1 L-68.5,544.4 L-90.7,522.4ZM107.6,318.1 L-103.5,508.2 L-121.5,486.1ZM93.7,292.4 L-149.4,445.2 L-162.1,422.8ZM88.2,274.7 L-173.1,400.8 L-182.2,379.7ZM82.1,247.2 L-199.8,327.6 L-204.7,307.9ZM81.7,229.3 L-208.7,287.8 L-213.7,251.4ZM83.2,202.2 L-215.9,210.2 L-214.8,176.2ZM87.6,185.5 L-213.4,159.9 L-209.2,128.9ZM96.2,160.7 L-198.9,83.3 L-190.4,56.1ZM104.7,146.4 L-182.7,35.6 L-172.5,12.0ZM85.7,104.0 L-147.7,-34.0 L-135.2,-53.3ZM99.9,89.6 L-119.0,-75.4 L-106.2,-91.1ZM123.3,69.6 L-73.2,-126.0 L-45.6,-150.3ZM140.3,59.9 L-34.9,-158.7 L-7.1,-178.4ZM167.5,47.5 L30.9,-200.6 L59.1,-214.1ZM185.9,43.0 L76.7,-221.5 L103.6,-231.0ZM214.4,38.6 L151.4,-243.6 L176.8,-248.0ZM232.7,39.4 L201.3,-251.0 L224.2,-252.6ZM260.3,42.8 L279.2,-251.7 L299.3,-249.7ZM277.1,48.4 L319.6,-246.8 L355.7,-239.3ZM301.9,58.8 L395.1,-227.5 L426.9,-215.2ZM315.9,68.5 L441.8,-208.4 L469.5,-194.0ZM336.1,84.7 L509.0,-169.1 L531.8,-151.9ZM346.5,97.4 L548.6,-137.8 L567.4,-120.3ZM392.7,93.4 L602.4,-81.5 L616.4,-63.2ZM401.4,111.4 L631.8,-40.6 L642.3,-23.3ZM412.2,139.9 L664.2,19.5 L677.8,53.7ZM415.5,159.0 L682.2,66.6 L691.4,99.4ZM418.1,188.4 L699.6,142.5 L702.9,173.6Z" fill="#3B3540" opacity="0.35"/></g><path d="M199.1,275.7 L196.6,275.4 L200.4,254.1 L197.3,240.4 L192.6,239.8 L195.0,219.6 L200.6,204.0 L197.7,201.9 L200.3,199.0 L202.0,199.4 L204.0,196.8 L205.4,198.4 L208.1,191.7 L212.8,191.1 L213.5,182.6 L228.3,170.8 L236.1,169.3 L254.2,171.4 L259.8,176.1 L260.9,180.3 L256.1,180.1 L257.1,183.0 L246.6,188.7 L248.3,203.3 L259.9,220.6 L267.4,221.8 L281.4,218.3 L299.4,229.2 L313.0,226.2 L328.4,235.9 L332.3,234.1 L336.8,235.9 L339.0,234.0 L337.0,238.4 L331.5,238.7 L331.1,242.9 L327.8,244.4 L328.6,252.2 L324.5,260.5 L318.3,262.9 L314.9,271.0 L303.8,270.5 L295.8,261.2 L289.3,261.3 L286.4,264.9 L275.3,261.5 L272.2,258.4 L271.0,252.0 L264.8,254.7 L262.6,259.3 L254.4,261.4 L252.6,258.5 L255.2,251.8 L247.0,250.6 L242.0,254.4 L240.0,251.5 L231.0,260.7 L228.0,253.3 L224.4,254.7 L221.1,253.0 L206.4,269.1 L207.0,272.5ZM152.3,286.1 L148.9,294.4 L144.0,293.4 L141.4,295.3 L141.0,289.1 L139.5,287.1 L140.3,282.1 L144.9,279.3 L142.0,267.8 L138.5,264.3 L136.5,264.1 L136.3,260.4 L142.4,256.1 L140.5,254.0 L142.7,251.6 L142.1,248.0 L143.7,245.3 L141.8,242.0 L142.0,238.3 L146.8,227.1 L143.6,222.7 L141.1,222.5 L142.1,218.4 L140.6,213.7 L143.3,209.7 L145.9,209.9 L145.4,213.9 L149.8,214.9 L153.5,218.2 L155.4,213.1 L164.8,213.7 L167.0,210.3 L166.6,208.7 L177.5,214.7 L181.8,223.6 L187.4,227.6 L187.1,229.4 L194.4,230.3 L192.6,240.5 L197.3,240.4 L200.4,254.1 L198.3,258.0 L199.9,261.2 L196.6,275.4 L199.9,277.1 L197.1,282.8 L199.2,283.6 L194.6,290.4 L190.7,290.2 L189.2,297.0 L183.5,298.8 L181.1,302.0 L177.3,301.0 L180.7,292.4 L176.7,284.6 L173.4,281.8 L166.4,278.7 L162.6,282.8 L159.3,283.6 L157.2,281.7 L151.1,282.4ZM267.8,221.7 L259.0,220.0 L249.0,204.9 L246.6,188.7 L250.8,186.2 L252.2,187.3 L251.2,191.3 L254.0,189.6 L255.1,186.2 L257.8,186.1 L258.6,189.8 L263.0,192.1 L263.4,195.7 L270.5,201.1 L271.8,204.1 L274.4,205.1 L274.4,207.0 L279.3,207.5 L282.6,213.4 L292.1,211.4 L295.3,211.7 L295.4,214.2 L303.6,212.4 L307.0,215.4 L311.5,214.5 L315.7,216.4 L318.6,215.0 L318.4,212.4 L321.5,206.9 L320.7,205.0 L322.2,203.8 L331.4,204.9 L335.0,202.2 L342.2,207.3 L348.4,207.7 L347.8,210.9 L349.8,216.0 L348.6,217.8 L343.5,217.9 L335.6,224.5 L334.9,231.0 L340.6,231.7 L336.8,236.0 L332.3,234.1 L328.2,235.9 L313.2,226.2 L304.2,228.8 L297.3,228.5 L295.4,225.4 L285.6,221.7 L281.4,218.3ZM267.8,199.2 L264.5,196.9 L264.5,195.7 L263.4,195.7 L263.0,192.1 L260.8,191.9 L259.8,189.5 L258.6,189.8 L258.4,186.7 L254.9,186.0 L255.6,183.1 L257.1,183.0 L256.1,180.1 L260.9,180.3 L259.1,178.2 L260.2,176.7 L261.7,179.0 L264.6,179.8 L264.9,181.9 L267.4,180.2 L269.4,181.5 L271.4,182.9 L274.3,180.9 L277.4,181.7 L278.9,179.9 L281.2,182.3 L280.3,185.5 L284.1,187.7 L283.6,183.7 L285.5,186.9 L286.7,186.9 L287.2,185.5 L288.4,186.6 L289.5,181.2 L293.9,181.3 L296.9,184.6 L296.4,189.9 L298.4,193.1 L300.5,192.6 L302.6,193.8 L310.6,194.7 L314.0,193.8 L314.5,192.4 L319.7,199.4 L321.1,199.8 L322.5,203.6 L320.7,205.0 L321.5,206.9 L318.4,212.4 L318.6,215.0 L314.6,216.5 L311.5,214.5 L306.9,215.3 L303.6,212.4 L295.4,214.2 L295.3,211.7 L292.1,211.4 L286.0,213.6 L282.6,213.4 L279.3,207.5 L274.4,207.0 L274.4,205.1 L271.8,204.1 L270.5,201.1ZM278.3,173.9 L269.3,160.3 L271.7,158.4 L271.8,157.5 L271.9,157.5 L271.5,154.1 L275.7,147.4 L275.3,144.0 L279.7,147.3 L280.9,147.0 L281.6,148.5 L285.9,150.5 L290.7,151.1 L296.3,154.0 L296.2,156.4 L294.8,159.2 L296.3,161.6 L296.2,164.0 L299.3,166.4 L302.2,165.4 L304.4,168.4 L308.1,169.3 L308.8,170.8 L312.9,173.0 L314.6,177.1 L319.0,180.4 L318.8,182.3 L315.4,186.6 L313.7,187.6 L313.5,190.2 L314.6,192.8 L314.0,193.8 L310.3,194.7 L308.4,193.9 L306.3,194.4 L304.0,193.3 L302.6,193.8 L300.5,192.6 L298.4,193.1 L296.4,189.9 L297.3,185.7 L294.8,181.9 L289.7,181.1 L288.4,186.5 L287.2,185.5 L286.7,186.9 L285.5,186.9ZM159.3,213.3 L157.9,213.7 L157.4,213.1 L156.1,213.7 L155.4,213.1 L154.4,215.2 L154.2,217.7 L152.7,218.2 L149.8,214.9 L147.3,214.3 L146.9,213.5 L145.4,213.9 L146.1,210.0 L142.8,210.1 L142.3,211.2 L143.0,211.8 L141.9,213.1 L140.4,212.4 L139.5,210.2 L139.8,206.6 L141.9,205.8 L143.1,204.5 L143.2,201.8 L144.7,201.4 L145.3,198.6 L148.2,195.5 L147.5,194.1 L148.0,192.5 L147.5,191.7 L145.2,191.0 L146.5,187.2 L142.8,184.7 L140.7,182.2 L141.6,181.8 L142.2,179.4 L144.6,179.8 L147.4,179.1 L147.8,176.6 L148.5,176.0 L150.6,175.8 L152.0,177.6 L154.0,177.6 L154.4,178.5 L155.4,178.2 L156.4,180.7 L157.2,180.3 L159.8,182.8 L161.6,182.7 L161.8,185.7 L162.6,186.2 L162.7,187.6 L165.6,186.6 L166.5,187.1 L166.3,188.9 L167.1,190.7 L169.2,189.9 L170.9,193.1 L172.3,193.6 L172.2,194.5 L170.1,194.6 L169.5,193.7 L169.1,195.1 L168.3,195.3 L168.7,196.1 L167.8,196.8 L168.4,197.4 L168.0,197.9 L168.7,198.1 L168.2,198.4 L168.6,199.3 L167.4,200.5 L168.5,203.2 L169.6,203.1 L167.8,205.2 L167.1,205.1 L166.9,206.6 L165.5,207.3 L167.0,210.3 L166.0,210.2 L164.9,213.7ZM186.4,227.2 L184.3,226.5 L183.9,224.7 L183.0,224.9 L181.8,223.6 L180.4,221.1 L180.7,220.5 L179.7,220.0 L180.3,219.4 L180.0,218.3 L177.8,216.3 L178.3,215.8 L177.5,214.7 L176.2,214.8 L174.6,212.9 L172.3,212.5 L169.9,211.0 L170.4,210.3 L169.8,209.5 L166.1,208.2 L167.1,205.1 L167.8,205.2 L169.6,203.1 L168.5,203.2 L167.4,200.5 L168.6,199.3 L168.2,198.4 L168.7,198.1 L168.0,197.9 L168.4,197.4 L167.8,196.8 L168.7,196.1 L168.3,195.3 L169.1,195.1 L169.5,193.7 L170.1,194.6 L172.9,195.0 L172.2,194.5 L172.3,193.6 L170.9,193.1 L170.0,191.3 L171.7,191.1 L172.7,192.1 L173.5,191.3 L173.8,192.4 L174.4,191.6 L174.5,192.9 L175.6,192.8 L176.1,195.2 L177.1,195.4 L177.0,198.0 L177.4,198.1 L178.9,198.2 L179.1,196.8 L180.8,196.8 L181.7,195.2 L184.2,195.6 L183.6,199.0 L186.0,198.1 L188.1,198.3 L188.9,194.7 L191.1,194.8 L191.5,195.2 L191.2,196.4 L193.8,197.2 L193.5,198.1 L195.7,199.0 L196.7,198.2 L197.0,199.4 L198.2,200.3 L197.7,201.9 L199.2,202.2 L200.4,203.3 L200.6,204.0 L199.0,205.5 L198.1,208.3 L198.6,209.3 L198.0,210.7 L198.2,214.2 L197.2,214.1 L197.2,215.8 L196.1,217.1 L196.3,218.5 L195.0,219.6 L195.3,222.3 L194.5,223.7 L194.4,230.1 L187.1,229.4 L187.5,227.8ZM206.2,196.3 L205.0,198.8 L204.0,196.8 L203.1,199.6 L202.0,199.4 L202.5,200.5 L204.0,200.8 L203.7,201.3 L202.3,201.1 L202.0,200.1 L200.9,200.3 L200.2,199.6 L201.2,199.6 L200.3,199.0 L197.7,201.9 L198.2,200.3 L197.0,199.4 L196.7,197.0 L195.8,196.3 L196.8,195.0 L195.7,194.7 L194.3,193.1 L193.9,193.5 L194.9,190.1 L188.8,187.6 L195.0,179.0 L194.5,178.7 L194.9,177.7 L196.2,176.6 L197.5,172.6 L197.0,170.0 L197.4,168.2 L199.2,168.1 L199.9,169.1 L201.2,168.8 L202.2,169.8 L204.4,170.7 L205.5,169.9 L206.5,170.4 L209.0,168.6 L210.8,169.1 L210.1,170.4 L210.6,170.7 L211.0,169.8 L213.7,171.7 L215.3,172.0 L215.6,171.0 L212.1,169.4 L212.6,167.9 L212.1,167.8 L211.9,167.1 L212.4,167.0 L211.9,166.9 L212.2,166.4 L212.5,165.8 L216.1,167.6 L216.4,168.7 L216.6,168.6 L217.7,168.5 L218.6,169.3 L218.8,168.9 L220.2,170.3 L225.5,171.7 L225.3,174.4 L223.2,175.6 L221.6,175.3 L219.2,176.4 L218.8,177.3 L219.4,177.6 L218.4,178.9 L218.1,180.8 L215.1,180.6 L214.8,182.0 L213.5,182.6 L213.4,183.4 L213.9,183.7 L212.2,184.7 L212.7,186.2 L213.4,186.2 L213.0,187.1 L213.6,188.2 L212.9,189.1 L213.4,189.9 L212.8,191.1 L210.6,191.3 L209.8,192.5 L208.8,192.7 L208.1,191.7 L207.7,193.1 L207.1,192.9 L207.3,193.7ZM258.1,175.2 L257.6,173.6 L256.6,173.7 L255.9,172.7 L254.9,172.7 L255.0,171.6 L256.0,171.6 L258.8,170.5 L259.0,169.7 L260.8,168.0 L261.4,166.8 L260.9,166.6 L261.8,165.5 L265.9,162.3 L268.3,161.3 L268.5,160.6 L269.3,160.3 L272.3,164.2 L275.4,170.4 L278.9,174.6 L280.7,178.9 L282.3,180.7 L283.7,183.4 L283.4,184.3 L284.1,184.9 L283.7,186.3 L284.4,187.6 L283.0,187.1 L282.1,185.9 L280.3,185.5 L280.5,183.5 L281.2,182.3 L280.9,181.8 L280.1,181.9 L279.8,180.7 L278.9,179.9 L278.2,180.0 L278.1,181.0 L277.4,181.7 L275.7,181.6 L274.3,180.9 L272.5,182.4 L271.5,182.5 L271.4,182.9 L269.4,181.5 L267.4,180.2 L265.8,180.6 L265.3,181.0 L265.3,181.8 L264.9,181.9 L264.6,179.8 L262.3,178.5 L262.1,179.1 L261.7,179.0 L261.5,177.9 L260.2,176.7 L259.9,177.0 L259.6,175.9ZM199.4,163.8 L201.2,162.1 L203.6,163.6 L205.4,165.0 L206.2,164.5 L206.0,165.1 L207.4,165.5 L207.5,165.1 L208.0,165.2 L208.2,164.5 L211.2,165.2 L209.8,166.0 L211.1,167.3 L210.2,167.7 L206.8,167.0 L206.3,168.1 L205.3,166.9 L204.2,167.6 L202.5,167.5 L202.6,165.5 L199.3,164.4ZM251.0,190.1 L251.1,189.4 L251.5,188.6 L251.5,188.2 L252.1,187.8 L252.2,187.6 L252.1,187.0 L251.4,187.0 L251.1,186.9 L251.4,186.5 L251.2,186.4 L251.3,186.2 L250.0,186.3 L250.3,185.8 L250.9,185.3 L251.1,185.0 L251.4,185.0 L251.5,184.5 L252.0,184.4 L252.0,184.3 L252.3,184.2 L252.6,183.8 L252.7,183.8 L253.2,184.3 L253.0,185.1 L253.3,185.3 L253.7,184.9 L253.7,184.5 L253.9,184.2 L254.3,184.4 L254.8,184.0 L255.1,184.1 L255.3,184.4 L255.0,185.0 L254.9,186.0 L255.4,186.6 L255.9,186.4 L256.0,186.9 L255.4,186.9 L255.3,187.5 L254.6,187.6 L254.2,188.1 L254.0,188.2 L253.7,188.0 L253.6,188.5 L253.4,188.3 L253.6,189.3 L254.1,189.5 L253.7,189.8 L253.4,189.7 L253.6,189.9 L253.5,190.2 L252.9,190.6 L252.8,190.9 L252.4,190.6 L252.1,190.7 L252.1,190.5 L251.9,190.4 L251.4,190.6 L251.4,191.1 L251.2,191.3 L251.3,190.9 L251.0,190.9 L250.9,190.7 L250.9,190.1ZM322.0,202.8 L321.1,199.8 L319.7,199.4 L313.5,190.2 L313.7,187.6 L318.3,183.6 L318.3,179.3 L316.4,179.0 L313.2,173.3 L308.1,169.3 L304.4,168.4 L302.2,165.4 L299.3,166.4 L296.2,164.0 L296.3,161.6 L294.8,159.2 L296.3,154.0 L281.6,148.5 L280.9,147.0 L279.7,147.3 L275.3,144.0 L277.3,138.9 L276.4,136.0 L276.4,136.3 L275.1,134.2 L278.9,127.5 L284.9,132.7 L294.7,135.9 L304.2,142.2 L303.1,135.2 L304.0,135.1 L306.0,140.1 L308.0,139.8 L312.7,142.3 L314.1,146.4 L318.9,142.5 L320.6,143.1 L323.5,146.8 L326.8,147.1 L326.8,150.6 L348.5,169.3 L351.1,176.4 L349.3,180.2 L349.1,186.1 L350.6,188.6 L350.0,190.7 L351.2,191.1 L351.7,196.5 L349.8,198.7 L349.5,207.0 L344.3,208.2 L335.0,202.2 L331.4,204.9 L326.7,204.8 L326.2,203.7ZM345.0,153.7 L348.0,156.3 L350.0,161.3 L349.0,165.8 L352.0,169.0 L350.0,172.8 L348.5,169.3 L326.8,150.6 L326.8,147.1 L323.5,146.8 L322.7,144.8 L318.9,142.5 L318.3,140.5 L314.7,136.9 L312.4,138.6 L309.4,138.0 L309.5,136.7 L307.4,136.7 L307.6,130.6 L301.8,131.1 L300.7,128.0 L301.7,122.4 L303.8,121.7 L304.2,117.0 L311.1,116.2 L313.9,113.3 L324.2,112.0 L327.7,114.9 L331.0,120.0 L332.5,119.8 L335.6,121.9 L340.7,121.6 L342.7,126.3 L341.8,127.7 L342.1,131.4 L341.0,132.4 L341.2,135.8 L345.7,141.9 L345.7,152.0ZM177.2,196.9 L174.4,191.6 L173.8,192.4 L173.5,191.3 L172.7,192.1 L171.7,191.1 L169.9,191.4 L168.7,189.8 L167.1,190.7 L166.5,187.1 L162.7,187.6 L161.6,182.7 L159.8,182.8 L157.2,180.3 L156.4,180.8 L155.4,178.2 L152.0,177.6 L150.3,175.8 L151.6,175.1 L154.5,168.5 L152.4,165.1 L154.1,163.9 L158.9,165.3 L161.3,164.4 L163.3,167.4 L164.6,167.4 L166.1,165.7 L166.8,167.1 L170.4,168.6 L175.6,165.1 L175.1,163.7 L176.3,162.9 L178.1,165.3 L179.1,164.0 L181.1,163.0 L182.6,163.4 L183.2,162.0 L184.8,161.7 L189.8,163.1 L190.3,161.2 L189.3,159.8 L187.5,159.6 L186.5,157.8 L187.3,156.8 L188.0,157.4 L188.1,156.1 L189.1,156.4 L189.0,154.1 L190.1,152.5 L196.2,156.6 L198.8,160.0 L199.3,159.9 L200.1,159.1 L201.5,160.0 L200.4,161.1 L201.2,162.1 L199.4,163.3 L199.2,164.4 L202.6,165.5 L202.3,167.4 L205.3,166.9 L206.5,168.6 L209.0,168.6 L206.5,170.4 L205.5,169.9 L204.4,170.7 L201.2,168.8 L197.4,168.2 L197.5,172.6 L196.2,176.6 L188.8,187.6 L194.9,190.1 L193.9,193.5 L196.8,195.0 L195.8,196.3 L196.7,198.2 L195.7,199.0 L193.5,198.1 L193.8,197.2 L191.2,196.4 L191.1,194.8 L188.9,194.7 L188.1,198.3 L186.0,198.1 L184.2,199.1 L183.6,198.9 L184.3,196.4 L183.7,195.3 L181.7,195.2 L180.8,196.8 L179.1,196.8 L178.9,198.2 L177.0,198.0ZM294.9,136.0 L291.4,134.4 L284.9,132.7 L280.9,129.8 L278.9,127.5 L279.5,126.6 L280.9,125.2 L286.5,123.0 L293.3,118.7 L297.1,117.7 L304.2,117.0 L303.8,121.7 L301.7,122.4 L301.0,124.2 L300.7,128.0 L301.5,128.5 L301.8,131.1 L302.8,130.7 L303.2,131.2 L304.1,130.4 L307.6,130.6 L307.6,133.3 L306.9,135.3 L307.4,136.7 L309.5,136.7 L309.4,138.0 L312.4,138.6 L314.7,136.9 L317.0,139.8 L318.3,140.5 L318.8,142.8 L315.5,146.3 L314.1,146.4 L313.2,144.4 L313.6,143.3 L312.7,142.3 L310.8,142.0 L308.0,139.8 L306.0,140.1 L305.2,136.8 L304.0,135.1 L303.1,135.2 L304.5,138.7 L304.6,142.2 L302.1,140.4 L299.5,139.9ZM153.9,158.2 L153.7,156.9 L156.1,152.6 L155.3,149.7 L156.5,149.4 L156.5,147.6 L157.7,146.7 L156.3,145.7 L156.6,144.2 L158.4,143.6 L159.8,142.0 L161.6,137.5 L160.2,135.4 L160.2,131.8 L163.8,126.8 L168.1,125.2 L171.5,119.9 L172.5,120.1 L175.2,118.6 L176.4,118.4 L180.8,121.6 L182.6,119.3 L183.6,115.4 L185.6,115.4 L187.6,117.0 L192.4,116.7 L194.6,115.4 L197.7,117.6 L192.4,122.7 L193.5,127.1 L192.0,129.7 L190.4,130.5 L188.5,134.8 L185.4,137.5 L185.0,139.0 L183.2,139.8 L183.9,143.4 L184.1,143.5 L184.5,145.3 L184.5,146.0 L190.1,152.5 L189.0,154.1 L189.5,154.5 L189.0,154.5 L189.1,156.4 L188.1,156.1 L188.0,157.4 L187.3,156.8 L186.5,157.8 L187.5,159.6 L189.3,159.8 L190.3,161.2 L189.5,162.1 L189.8,163.1 L184.8,161.7 L183.2,162.0 L182.6,163.4 L181.1,163.0 L179.1,164.0 L178.1,165.3 L176.3,162.9 L175.1,163.7 L175.6,165.1 L170.3,168.6 L166.8,167.1 L166.1,165.7 L163.7,167.5 L162.0,166.5 L162.2,165.1 L161.3,164.4 L160.9,165.1 L160.2,164.2 L158.9,165.3 L154.2,164.2 L154.8,161.8Z" fill="none" stroke="#1E1A1D" stroke-width="12" stroke-linejoin="round"/><path d="M199.1,275.7 L196.6,275.4 L200.4,254.1 L197.3,240.4 L192.6,239.8 L195.0,219.6 L200.6,204.0 L197.7,201.9 L200.3,199.0 L202.0,199.4 L204.0,196.8 L205.4,198.4 L208.1,191.7 L212.8,191.1 L213.5,182.6 L228.3,170.8 L236.1,169.3 L254.2,171.4 L259.8,176.1 L260.9,180.3 L256.1,180.1 L257.1,183.0 L246.6,188.7 L248.3,203.3 L259.9,220.6 L267.4,221.8 L281.4,218.3 L299.4,229.2 L313.0,226.2 L328.4,235.9 L332.3,234.1 L336.8,235.9 L339.0,234.0 L337.0,238.4 L331.5,238.7 L331.1,242.9 L327.8,244.4 L328.6,252.2 L324.5,260.5 L318.3,262.9 L314.9,271.0 L303.8,270.5 L295.8,261.2 L289.3,261.3 L286.4,264.9 L275.3,261.5 L272.2,258.4 L271.0,252.0 L264.8,254.7 L262.6,259.3 L254.4,261.4 L252.6,258.5 L255.2,251.8 L247.0,250.6 L242.0,254.4 L240.0,251.5 L231.0,260.7 L228.0,253.3 L224.4,254.7 L221.1,253.0 L206.4,269.1 L207.0,272.5ZM152.3,286.1 L148.9,294.4 L144.0,293.4 L141.4,295.3 L141.0,289.1 L139.5,287.1 L140.3,282.1 L144.9,279.3 L142.0,267.8 L138.5,264.3 L136.5,264.1 L136.3,260.4 L142.4,256.1 L140.5,254.0 L142.7,251.6 L142.1,248.0 L143.7,245.3 L141.8,242.0 L142.0,238.3 L146.8,227.1 L143.6,222.7 L141.1,222.5 L142.1,218.4 L140.6,213.7 L143.3,209.7 L145.9,209.9 L145.4,213.9 L149.8,214.9 L153.5,218.2 L155.4,213.1 L164.8,213.7 L167.0,210.3 L166.6,208.7 L177.5,214.7 L181.8,223.6 L187.4,227.6 L187.1,229.4 L194.4,230.3 L192.6,240.5 L197.3,240.4 L200.4,254.1 L198.3,258.0 L199.9,261.2 L196.6,275.4 L199.9,277.1 L197.1,282.8 L199.2,283.6 L194.6,290.4 L190.7,290.2 L189.2,297.0 L183.5,298.8 L181.1,302.0 L177.3,301.0 L180.7,292.4 L176.7,284.6 L173.4,281.8 L166.4,278.7 L162.6,282.8 L159.3,283.6 L157.2,281.7 L151.1,282.4ZM267.8,221.7 L259.0,220.0 L249.0,204.9 L246.6,188.7 L250.8,186.2 L252.2,187.3 L251.2,191.3 L254.0,189.6 L255.1,186.2 L257.8,186.1 L258.6,189.8 L263.0,192.1 L263.4,195.7 L270.5,201.1 L271.8,204.1 L274.4,205.1 L274.4,207.0 L279.3,207.5 L282.6,213.4 L292.1,211.4 L295.3,211.7 L295.4,214.2 L303.6,212.4 L307.0,215.4 L311.5,214.5 L315.7,216.4 L318.6,215.0 L318.4,212.4 L321.5,206.9 L320.7,205.0 L322.2,203.8 L331.4,204.9 L335.0,202.2 L342.2,207.3 L348.4,207.7 L347.8,210.9 L349.8,216.0 L348.6,217.8 L343.5,217.9 L335.6,224.5 L334.9,231.0 L340.6,231.7 L336.8,236.0 L332.3,234.1 L328.2,235.9 L313.2,226.2 L304.2,228.8 L297.3,228.5 L295.4,225.4 L285.6,221.7 L281.4,218.3ZM267.8,199.2 L264.5,196.9 L264.5,195.7 L263.4,195.7 L263.0,192.1 L260.8,191.9 L259.8,189.5 L258.6,189.8 L258.4,186.7 L254.9,186.0 L255.6,183.1 L257.1,183.0 L256.1,180.1 L260.9,180.3 L259.1,178.2 L260.2,176.7 L261.7,179.0 L264.6,179.8 L264.9,181.9 L267.4,180.2 L269.4,181.5 L271.4,182.9 L274.3,180.9 L277.4,181.7 L278.9,179.9 L281.2,182.3 L280.3,185.5 L284.1,187.7 L283.6,183.7 L285.5,186.9 L286.7,186.9 L287.2,185.5 L288.4,186.6 L289.5,181.2 L293.9,181.3 L296.9,184.6 L296.4,189.9 L298.4,193.1 L300.5,192.6 L302.6,193.8 L310.6,194.7 L314.0,193.8 L314.5,192.4 L319.7,199.4 L321.1,199.8 L322.5,203.6 L320.7,205.0 L321.5,206.9 L318.4,212.4 L318.6,215.0 L314.6,216.5 L311.5,214.5 L306.9,215.3 L303.6,212.4 L295.4,214.2 L295.3,211.7 L292.1,211.4 L286.0,213.6 L282.6,213.4 L279.3,207.5 L274.4,207.0 L274.4,205.1 L271.8,204.1 L270.5,201.1ZM278.3,173.9 L269.3,160.3 L271.7,158.4 L271.8,157.5 L271.9,157.5 L271.5,154.1 L275.7,147.4 L275.3,144.0 L279.7,147.3 L280.9,147.0 L281.6,148.5 L285.9,150.5 L290.7,151.1 L296.3,154.0 L296.2,156.4 L294.8,159.2 L296.3,161.6 L296.2,164.0 L299.3,166.4 L302.2,165.4 L304.4,168.4 L308.1,169.3 L308.8,170.8 L312.9,173.0 L314.6,177.1 L319.0,180.4 L318.8,182.3 L315.4,186.6 L313.7,187.6 L313.5,190.2 L314.6,192.8 L314.0,193.8 L310.3,194.7 L308.4,193.9 L306.3,194.4 L304.0,193.3 L302.6,193.8 L300.5,192.6 L298.4,193.1 L296.4,189.9 L297.3,185.7 L294.8,181.9 L289.7,181.1 L288.4,186.5 L287.2,185.5 L286.7,186.9 L285.5,186.9ZM159.3,213.3 L157.9,213.7 L157.4,213.1 L156.1,213.7 L155.4,213.1 L154.4,215.2 L154.2,217.7 L152.7,218.2 L149.8,214.9 L147.3,214.3 L146.9,213.5 L145.4,213.9 L146.1,210.0 L142.8,210.1 L142.3,211.2 L143.0,211.8 L141.9,213.1 L140.4,212.4 L139.5,210.2 L139.8,206.6 L141.9,205.8 L143.1,204.5 L143.2,201.8 L144.7,201.4 L145.3,198.6 L148.2,195.5 L147.5,194.1 L148.0,192.5 L147.5,191.7 L145.2,191.0 L146.5,187.2 L142.8,184.7 L140.7,182.2 L141.6,181.8 L142.2,179.4 L144.6,179.8 L147.4,179.1 L147.8,176.6 L148.5,176.0 L150.6,175.8 L152.0,177.6 L154.0,177.6 L154.4,178.5 L155.4,178.2 L156.4,180.7 L157.2,180.3 L159.8,182.8 L161.6,182.7 L161.8,185.7 L162.6,186.2 L162.7,187.6 L165.6,186.6 L166.5,187.1 L166.3,188.9 L167.1,190.7 L169.2,189.9 L170.9,193.1 L172.3,193.6 L172.2,194.5 L170.1,194.6 L169.5,193.7 L169.1,195.1 L168.3,195.3 L168.7,196.1 L167.8,196.8 L168.4,197.4 L168.0,197.9 L168.7,198.1 L168.2,198.4 L168.6,199.3 L167.4,200.5 L168.5,203.2 L169.6,203.1 L167.8,205.2 L167.1,205.1 L166.9,206.6 L165.5,207.3 L167.0,210.3 L166.0,210.2 L164.9,213.7ZM186.4,227.2 L184.3,226.5 L183.9,224.7 L183.0,224.9 L181.8,223.6 L180.4,221.1 L180.7,220.5 L179.7,220.0 L180.3,219.4 L180.0,218.3 L177.8,216.3 L178.3,215.8 L177.5,214.7 L176.2,214.8 L174.6,212.9 L172.3,212.5 L169.9,211.0 L170.4,210.3 L169.8,209.5 L166.1,208.2 L167.1,205.1 L167.8,205.2 L169.6,203.1 L168.5,203.2 L167.4,200.5 L168.6,199.3 L168.2,198.4 L168.7,198.1 L168.0,197.9 L168.4,197.4 L167.8,196.8 L168.7,196.1 L168.3,195.3 L169.1,195.1 L169.5,193.7 L170.1,194.6 L172.9,195.0 L172.2,194.5 L172.3,193.6 L170.9,193.1 L170.0,191.3 L171.7,191.1 L172.7,192.1 L173.5,191.3 L173.8,192.4 L174.4,191.6 L174.5,192.9 L175.6,192.8 L176.1,195.2 L177.1,195.4 L177.0,198.0 L177.4,198.1 L178.9,198.2 L179.1,196.8 L180.8,196.8 L181.7,195.2 L184.2,195.6 L183.6,199.0 L186.0,198.1 L188.1,198.3 L188.9,194.7 L191.1,194.8 L191.5,195.2 L191.2,196.4 L193.8,197.2 L193.5,198.1 L195.7,199.0 L196.7,198.2 L197.0,199.4 L198.2,200.3 L197.7,201.9 L199.2,202.2 L200.4,203.3 L200.6,204.0 L199.0,205.5 L198.1,208.3 L198.6,209.3 L198.0,210.7 L198.2,214.2 L197.2,214.1 L197.2,215.8 L196.1,217.1 L196.3,218.5 L195.0,219.6 L195.3,222.3 L194.5,223.7 L194.4,230.1 L187.1,229.4 L187.5,227.8ZM206.2,196.3 L205.0,198.8 L204.0,196.8 L203.1,199.6 L202.0,199.4 L202.5,200.5 L204.0,200.8 L203.7,201.3 L202.3,201.1 L202.0,200.1 L200.9,200.3 L200.2,199.6 L201.2,199.6 L200.3,199.0 L197.7,201.9 L198.2,200.3 L197.0,199.4 L196.7,197.0 L195.8,196.3 L196.8,195.0 L195.7,194.7 L194.3,193.1 L193.9,193.5 L194.9,190.1 L188.8,187.6 L195.0,179.0 L194.5,178.7 L194.9,177.7 L196.2,176.6 L197.5,172.6 L197.0,170.0 L197.4,168.2 L199.2,168.1 L199.9,169.1 L201.2,168.8 L202.2,169.8 L204.4,170.7 L205.5,169.9 L206.5,170.4 L209.0,168.6 L210.8,169.1 L210.1,170.4 L210.6,170.7 L211.0,169.8 L213.7,171.7 L215.3,172.0 L215.6,171.0 L212.1,169.4 L212.6,167.9 L212.1,167.8 L211.9,167.1 L212.4,167.0 L211.9,166.9 L212.2,166.4 L212.5,165.8 L216.1,167.6 L216.4,168.7 L216.6,168.6 L217.7,168.5 L218.6,169.3 L218.8,168.9 L220.2,170.3 L225.5,171.7 L225.3,174.4 L223.2,175.6 L221.6,175.3 L219.2,176.4 L218.8,177.3 L219.4,177.6 L218.4,178.9 L218.1,180.8 L215.1,180.6 L214.8,182.0 L213.5,182.6 L213.4,183.4 L213.9,183.7 L212.2,184.7 L212.7,186.2 L213.4,186.2 L213.0,187.1 L213.6,188.2 L212.9,189.1 L213.4,189.9 L212.8,191.1 L210.6,191.3 L209.8,192.5 L208.8,192.7 L208.1,191.7 L207.7,193.1 L207.1,192.9 L207.3,193.7ZM258.1,175.2 L257.6,173.6 L256.6,173.7 L255.9,172.7 L254.9,172.7 L255.0,171.6 L256.0,171.6 L258.8,170.5 L259.0,169.7 L260.8,168.0 L261.4,166.8 L260.9,166.6 L261.8,165.5 L265.9,162.3 L268.3,161.3 L268.5,160.6 L269.3,160.3 L272.3,164.2 L275.4,170.4 L278.9,174.6 L280.7,178.9 L282.3,180.7 L283.7,183.4 L283.4,184.3 L284.1,184.9 L283.7,186.3 L284.4,187.6 L283.0,187.1 L282.1,185.9 L280.3,185.5 L280.5,183.5 L281.2,182.3 L280.9,181.8 L280.1,181.9 L279.8,180.7 L278.9,179.9 L278.2,180.0 L278.1,181.0 L277.4,181.7 L275.7,181.6 L274.3,180.9 L272.5,182.4 L271.5,182.5 L271.4,182.9 L269.4,181.5 L267.4,180.2 L265.8,180.6 L265.3,181.0 L265.3,181.8 L264.9,181.9 L264.6,179.8 L262.3,178.5 L262.1,179.1 L261.7,179.0 L261.5,177.9 L260.2,176.7 L259.9,177.0 L259.6,175.9ZM199.4,163.8 L201.2,162.1 L203.6,163.6 L205.4,165.0 L206.2,164.5 L206.0,165.1 L207.4,165.5 L207.5,165.1 L208.0,165.2 L208.2,164.5 L211.2,165.2 L209.8,166.0 L211.1,167.3 L210.2,167.7 L206.8,167.0 L206.3,168.1 L205.3,166.9 L204.2,167.6 L202.5,167.5 L202.6,165.5 L199.3,164.4ZM251.0,190.1 L251.1,189.4 L251.5,188.6 L251.5,188.2 L252.1,187.8 L252.2,187.6 L252.1,187.0 L251.4,187.0 L251.1,186.9 L251.4,186.5 L251.2,186.4 L251.3,186.2 L250.0,186.3 L250.3,185.8 L250.9,185.3 L251.1,185.0 L251.4,185.0 L251.5,184.5 L252.0,184.4 L252.0,184.3 L252.3,184.2 L252.6,183.8 L252.7,183.8 L253.2,184.3 L253.0,185.1 L253.3,185.3 L253.7,184.9 L253.7,184.5 L253.9,184.2 L254.3,184.4 L254.8,184.0 L255.1,184.1 L255.3,184.4 L255.0,185.0 L254.9,186.0 L255.4,186.6 L255.9,186.4 L256.0,186.9 L255.4,186.9 L255.3,187.5 L254.6,187.6 L254.2,188.1 L254.0,188.2 L253.7,188.0 L253.6,188.5 L253.4,188.3 L253.6,189.3 L254.1,189.5 L253.7,189.8 L253.4,189.7 L253.6,189.9 L253.5,190.2 L252.9,190.6 L252.8,190.9 L252.4,190.6 L252.1,190.7 L252.1,190.5 L251.9,190.4 L251.4,190.6 L251.4,191.1 L251.2,191.3 L251.3,190.9 L251.0,190.9 L250.9,190.7 L250.9,190.1ZM322.0,202.8 L321.1,199.8 L319.7,199.4 L313.5,190.2 L313.7,187.6 L318.3,183.6 L318.3,179.3 L316.4,179.0 L313.2,173.3 L308.1,169.3 L304.4,168.4 L302.2,165.4 L299.3,166.4 L296.2,164.0 L296.3,161.6 L294.8,159.2 L296.3,154.0 L281.6,148.5 L280.9,147.0 L279.7,147.3 L275.3,144.0 L277.3,138.9 L276.4,136.0 L276.4,136.3 L275.1,134.2 L278.9,127.5 L284.9,132.7 L294.7,135.9 L304.2,142.2 L303.1,135.2 L304.0,135.1 L306.0,140.1 L308.0,139.8 L312.7,142.3 L314.1,146.4 L318.9,142.5 L320.6,143.1 L323.5,146.8 L326.8,147.1 L326.8,150.6 L348.5,169.3 L351.1,176.4 L349.3,180.2 L349.1,186.1 L350.6,188.6 L350.0,190.7 L351.2,191.1 L351.7,196.5 L349.8,198.7 L349.5,207.0 L344.3,208.2 L335.0,202.2 L331.4,204.9 L326.7,204.8 L326.2,203.7ZM345.0,153.7 L348.0,156.3 L350.0,161.3 L349.0,165.8 L352.0,169.0 L350.0,172.8 L348.5,169.3 L326.8,150.6 L326.8,147.1 L323.5,146.8 L322.7,144.8 L318.9,142.5 L318.3,140.5 L314.7,136.9 L312.4,138.6 L309.4,138.0 L309.5,136.7 L307.4,136.7 L307.6,130.6 L301.8,131.1 L300.7,128.0 L301.7,122.4 L303.8,121.7 L304.2,117.0 L311.1,116.2 L313.9,113.3 L324.2,112.0 L327.7,114.9 L331.0,120.0 L332.5,119.8 L335.6,121.9 L340.7,121.6 L342.7,126.3 L341.8,127.7 L342.1,131.4 L341.0,132.4 L341.2,135.8 L345.7,141.9 L345.7,152.0ZM177.2,196.9 L174.4,191.6 L173.8,192.4 L173.5,191.3 L172.7,192.1 L171.7,191.1 L169.9,191.4 L168.7,189.8 L167.1,190.7 L166.5,187.1 L162.7,187.6 L161.6,182.7 L159.8,182.8 L157.2,180.3 L156.4,180.8 L155.4,178.2 L152.0,177.6 L150.3,175.8 L151.6,175.1 L154.5,168.5 L152.4,165.1 L154.1,163.9 L158.9,165.3 L161.3,164.4 L163.3,167.4 L164.6,167.4 L166.1,165.7 L166.8,167.1 L170.4,168.6 L175.6,165.1 L175.1,163.7 L176.3,162.9 L178.1,165.3 L179.1,164.0 L181.1,163.0 L182.6,163.4 L183.2,162.0 L184.8,161.7 L189.8,163.1 L190.3,161.2 L189.3,159.8 L187.5,159.6 L186.5,157.8 L187.3,156.8 L188.0,157.4 L188.1,156.1 L189.1,156.4 L189.0,154.1 L190.1,152.5 L196.2,156.6 L198.8,160.0 L199.3,159.9 L200.1,159.1 L201.5,160.0 L200.4,161.1 L201.2,162.1 L199.4,163.3 L199.2,164.4 L202.6,165.5 L202.3,167.4 L205.3,166.9 L206.5,168.6 L209.0,168.6 L206.5,170.4 L205.5,169.9 L204.4,170.7 L201.2,168.8 L197.4,168.2 L197.5,172.6 L196.2,176.6 L188.8,187.6 L194.9,190.1 L193.9,193.5 L196.8,195.0 L195.8,196.3 L196.7,198.2 L195.7,199.0 L193.5,198.1 L193.8,197.2 L191.2,196.4 L191.1,194.8 L188.9,194.7 L188.1,198.3 L186.0,198.1 L184.2,199.1 L183.6,198.9 L184.3,196.4 L183.7,195.3 L181.7,195.2 L180.8,196.8 L179.1,196.8 L178.9,198.2 L177.0,198.0ZM294.9,136.0 L291.4,134.4 L284.9,132.7 L280.9,129.8 L278.9,127.5 L279.5,126.6 L280.9,125.2 L286.5,123.0 L293.3,118.7 L297.1,117.7 L304.2,117.0 L303.8,121.7 L301.7,122.4 L301.0,124.2 L300.7,128.0 L301.5,128.5 L301.8,131.1 L302.8,130.7 L303.2,131.2 L304.1,130.4 L307.6,130.6 L307.6,133.3 L306.9,135.3 L307.4,136.7 L309.5,136.7 L309.4,138.0 L312.4,138.6 L314.7,136.9 L317.0,139.8 L318.3,140.5 L318.8,142.8 L315.5,146.3 L314.1,146.4 L313.2,144.4 L313.6,143.3 L312.7,142.3 L310.8,142.0 L308.0,139.8 L306.0,140.1 L305.2,136.8 L304.0,135.1 L303.1,135.2 L304.5,138.7 L304.6,142.2 L302.1,140.4 L299.5,139.9ZM153.9,158.2 L153.7,156.9 L156.1,152.6 L155.3,149.7 L156.5,149.4 L156.5,147.6 L157.7,146.7 L156.3,145.7 L156.6,144.2 L158.4,143.6 L159.8,142.0 L161.6,137.5 L160.2,135.4 L160.2,131.8 L163.8,126.8 L168.1,125.2 L171.5,119.9 L172.5,120.1 L175.2,118.6 L176.4,118.4 L180.8,121.6 L182.6,119.3 L183.6,115.4 L185.6,115.4 L187.6,117.0 L192.4,116.7 L194.6,115.4 L197.7,117.6 L192.4,122.7 L193.5,127.1 L192.0,129.7 L190.4,130.5 L188.5,134.8 L185.4,137.5 L185.0,139.0 L183.2,139.8 L183.9,143.4 L184.1,143.5 L184.5,145.3 L184.5,146.0 L190.1,152.5 L189.0,154.1 L189.5,154.5 L189.0,154.5 L189.1,156.4 L188.1,156.1 L188.0,157.4 L187.3,156.8 L186.5,157.8 L187.5,159.6 L189.3,159.8 L190.3,161.2 L189.5,162.1 L189.8,163.1 L184.8,161.7 L183.2,162.0 L182.6,163.4 L181.1,163.0 L179.1,164.0 L178.1,165.3 L176.3,162.9 L175.1,163.7 L175.6,165.1 L170.3,168.6 L166.8,167.1 L166.1,165.7 L163.7,167.5 L162.0,166.5 L162.2,165.1 L161.3,164.4 L160.9,165.1 L160.2,164.2 L158.9,165.3 L154.2,164.2 L154.8,161.8Z" fill="#9CC8F0" stroke="#9CC8F0" stroke-width="2.5" stroke-linejoin="round"/><g clip-path="url(#clipu15)"><rect x="276.0" y="0" width="370" height="320" fill="url(#hatchu15)" opacity="0.35"/></g><g transform="translate(244.1,207.0) scale(0.470)"><path d="M-98,-58 L-14,-30 L-10,-12 L-94,-36Z" fill="#1E1A1D"/><path d="M98,-58 L14,-30 L10,-12 L94,-36Z" fill="#1E1A1D"/><path d="M-86,4 Q-56,-20 -16,-6 Q-50,14 -86,4Z" fill="#fff"/><path d="M-86,4 Q-56,-20 -16,-6" fill="none" stroke="#1E1A1D" stroke-width="8" stroke-linecap="round" stroke-linejoin="round"/><path d="M-80,8 Q-50,14 -20,0" fill="none" stroke="#1E1A1D" stroke-width="4" stroke-linecap="round" stroke-linejoin="round"/><circle cx="-42" cy="-2" r="6" fill="#1E1A1D"/><path d="M86,4 Q56,-20 16,-6 Q50,14 86,4Z" fill="#fff"/><path d="M86,4 Q56,-20 16,-6" fill="none" stroke="#1E1A1D" stroke-width="8" stroke-linecap="round" stroke-linejoin="round"/><path d="M80,8 Q50,14 20,0" fill="none" stroke="#1E1A1D" stroke-width="4" stroke-linecap="round" stroke-linejoin="round"/><circle cx="42" cy="-2" r="6" fill="#1E1A1D"/><path d="M4,-8 L12,34 q-8,8 -20,4" fill="none" stroke="#1E1A1D" stroke-width="5" stroke-linecap="round" stroke-linejoin="round"/><path d="M-58,26 q-14,34 -2,66" fill="none" stroke="#1E1A1D" stroke-width="5" stroke-linecap="round" stroke-linejoin="round"/><path d="M58,26 q14,34 2,66" fill="none" stroke="#1E1A1D" stroke-width="5" stroke-linecap="round" stroke-linejoin="round"/><path d="M-78,18 l26,8" fill="none" stroke="#1E1A1D" stroke-width="4" stroke-linecap="round" stroke-linejoin="round"/><path d="M78,18 l-26,8" fill="none" stroke="#1E1A1D" stroke-width="4" stroke-linecap="round" stroke-linejoin="round"/><rect x="-42" y="62" width="84" height="26" rx="3" fill="#fff" stroke="#1E1A1D" stroke-width="6"/><path d="M-42,75 h84" fill="none" stroke="#1E1A1D" stroke-width="3" stroke-linecap="round" stroke-linejoin="round"/><path d="M-24,64 v22" fill="none" stroke="#1E1A1D" stroke-width="3" stroke-linecap="round" stroke-linejoin="round"/><path d="M-8,64 v22" fill="none" stroke="#1E1A1D" stroke-width="3" stroke-linecap="round" stroke-linejoin="round"/><path d="M8,64 v22" fill="none" stroke="#1E1A1D" stroke-width="3" stroke-linecap="round" stroke-linejoin="round"/><path d="M24,64 v22" fill="none" stroke="#1E1A1D" stroke-width="3" stroke-linecap="round" stroke-linejoin="round"/></g><defs><clipPath id="mapclip"><rect x="270" y="10" width="90" height="96"/></clipPath></defs><g clip-path="url(#mapclip)"><path d="M319.1,44.6 L317.4,44.8 L313.1,43.9 L307.9,44.7 L307.8,45.7 L305.5,46.4 L305.1,48.1 L303.9,48.0 L302.8,49.5 L303.3,51.1 L303.1,52.0 L301.9,52.6 L301.3,52.3 L300.2,54.8 L299.6,54.3 L299.1,55.8 L298.3,55.0 L297.3,56.1 L298.4,56.9 L297.7,57.8 L297.5,60.8 L296.3,62.9 L295.9,69.7 L295.4,70.5 L297.2,70.8 L298.3,76.0 L297.5,77.5 L298.1,78.6 L297.7,80.1 L297.8,81.6 L296.9,84.2 L297.8,84.2 L299.5,83.0 L300.8,83.0 L301.0,81.4 L301.4,81.4 L302.2,79.8 L306.2,75.6 L307.5,76.1 L308.8,75.7 L310.6,78.2 L310.6,77.5 L312.1,76.8 L313.4,75.0 L314.2,76.1 L315.9,74.7 L317.6,75.4 L318.3,74.8 L319.2,75.1 L318.9,77.1 L318.2,77.6 L318.8,78.7 L321.9,78.0 L322.6,77.6 L322.8,76.2 L325.1,75.5 L325.6,75.7 L325.6,77.6 L326.9,78.8 L331.0,80.1 L332.1,78.7 L335.2,78.9 L335.9,80.7 L337.6,82.2 L339.2,82.6 L340.7,82.1 L341.9,82.4 L343.0,81.1 L343.3,79.5 L345.3,78.8 L345.6,78.1 L346.3,75.8 L347.1,75.3 L346.8,72.3 L348.0,71.8 L348.2,70.1 L351.2,69.3 L351.1,68.4 L350.1,69.1 L348.5,68.4 L347.1,69.1 L341.8,65.6 L340.1,65.4 L337.8,66.4 L335.2,66.3 L335.0,65.7 L333.3,64.4 L330.7,63.7 L329.1,62.4 L322.7,63.8 L320.6,63.0 L316.8,57.3 L315.9,51.1 L317.0,50.8 L318.2,49.3 L319.2,49.4 L319.5,47.9 L320.8,48.1 L321.0,46.7Z" fill="#D8312A" stroke="#1E1A1D" stroke-width="1.2" stroke-linejoin="round"/><path d="M298.6,41.0 L298.6,40.3 L297.7,40.2 L294.4,37.3 L294.1,38.8 L293.0,39.3 L294.5,40.7 L294.1,41.3 L291.8,40.9 L287.0,43.4 L283.7,42.7 L283.5,41.9 L282.6,42.2 L280.7,41.7 L280.1,42.3 L280.7,43.6 L280.6,44.6 L279.3,46.2 L283.6,48.9 L284.0,50.7 L285.1,50.3 L285.9,51.9 L288.9,52.7 L289.4,54.6 L290.2,54.7 L291.2,53.6 L292.2,53.7 L291.9,55.0 L293.6,54.8 L294.0,53.5 L296.5,54.9 L296.9,54.7 L295.9,52.7 L296.2,51.7 L293.9,50.7 L296.3,47.4 L297.5,43.2 L299.6,44.2 L300.6,44.2 L301.6,43.5 L299.4,43.1 L299.1,42.3 L297.9,41.9Z" fill="#D8312A" stroke="#1E1A1D" stroke-width="1.2" stroke-linejoin="round"/><path d="M341.7,52.5 L341.4,50.7 L343.4,48.7 L343.2,47.5 L342.5,47.4 L341.1,45.1 L339.5,43.9 L337.9,43.4 L337.0,42.2 L336.0,42.6 L334.8,41.7 L334.2,40.0 L334.8,37.9 L330.8,36.6 L326.8,34.1 L327.0,35.4 L326.1,36.6 L325.4,39.6 L324.6,40.3 L330.7,50.4 L331.8,50.2 L332.8,48.1 L334.2,48.5 L335.2,50.0 L335.0,52.1 L335.7,52.8 L340.9,53.4Z" fill="#D8312A" stroke="#1E1A1D" stroke-width="1.2" stroke-linejoin="round"/><path d="M294.4,37.3 L292.3,34.8 L291.8,32.4 L292.4,32.3 L295.1,28.7 L295.7,27.7 L295.2,26.1 L296.9,24.4 L296.1,23.2 L293.4,23.8 L291.9,23.2 L290.9,25.6 L289.2,24.4 L287.0,25.2 L286.0,27.0 L284.4,27.6 L283.0,29.5 L283.6,31.6 L282.4,33.9 L281.7,34.2 L281.7,36.0 L281.2,36.3 L281.5,37.4 L280.5,39.0 L280.7,41.7 L282.6,42.2 L283.5,41.9 L283.7,42.7 L287.0,43.4 L291.8,40.9 L294.1,41.3 L294.5,40.7 L293.0,39.3 L294.1,38.8Z" fill="#D8312A" stroke="#1E1A1D" stroke-width="1.2" stroke-linejoin="round"/><path d="M321.0,46.7 L325.3,48.8 L326.5,48.1 L327.6,48.4 L328.2,47.8 L329.1,48.7 L328.7,49.8 L329.4,50.0 L330.0,49.2 L324.6,40.3 L321.9,42.2 L320.5,44.2 L319.1,44.6Z" fill="#D8312A" stroke="#1E1A1D" stroke-width="1.2" stroke-linejoin="round"/><path d="M341.7,52.5 L344.1,55.3 L344.8,56.8 L348.7,57.2 L349.5,56.2 L353.1,58.5 L355.0,58.1 L355.2,54.9 L355.9,54.0 L354.9,50.1 L355.0,47.9 L355.7,46.4 L354.6,43.7 L346.4,36.6 L346.2,35.1 L345.1,35.2 L344.1,33.8 L343.4,33.5 L341.6,35.0 L341.4,33.8 L339.3,32.5 L337.7,33.4 L334.3,31.0 L330.4,29.7 L328.2,27.8 L326.8,30.2 L327.6,32.1 L326.8,34.1 L330.8,36.6 L334.8,37.9 L334.2,40.0 L334.8,41.7 L336.0,42.6 L337.0,42.2 L337.9,43.4 L339.5,43.9 L341.1,45.1 L342.5,47.4 L343.2,47.5 L343.4,48.7 L341.4,50.7Z" fill="#D8312A" stroke="#1E1A1D" stroke-width="1.2" stroke-linejoin="round"/><path d="M297.3,56.1 L296.9,54.7 L294.0,53.5 L293.6,54.8 L291.9,55.0 L292.2,53.7 L291.2,53.6 L290.2,54.7 L289.4,54.6 L288.9,52.7 L286.7,52.1 L287.5,53.4 L286.5,53.2 L285.9,54.2 L286.4,56.9 L285.3,58.5 L289.5,61.1 L292.2,65.5 L293.3,66.0 L293.3,66.6 L296.0,66.9 L296.3,62.9 L297.5,60.8 L297.7,57.8 L298.4,56.9Z" fill="#D8312A" stroke="#1E1A1D" stroke-width="1.2" stroke-linejoin="round"/><path d="M279.3,46.2 L278.3,46.5 L278.2,47.5 L276.5,47.5 L275.7,48.8 L277.6,50.3 L277.4,52.1 L278.4,52.6 L277.7,54.8 L276.5,56.3 L276.5,57.1 L275.2,58.1 L275.2,59.3 L275.7,60.3 L276.5,59.9 L276.6,59.1 L277.5,59.2 L277.3,60.4 L280.2,62.3 L282.0,60.4 L284.8,60.6 L285.5,59.3 L285.1,58.4 L286.4,56.9 L285.9,54.2 L286.5,53.2 L287.5,53.4 L286.7,52.1 L285.9,51.9 L285.1,50.3 L284.0,50.7 L283.6,48.9Z" fill="#D8312A" stroke="#1E1A1D" stroke-width="1.2" stroke-linejoin="round"/><path d="M296.0,66.9 L293.3,66.6 L293.3,66.0 L292.2,65.5 L289.5,61.1 L286.7,59.6 L286.7,59.0 L285.3,58.5 L285.4,58.1 L285.5,59.3 L284.8,60.6 L282.0,60.4 L280.2,62.3 L277.3,60.4 L277.5,59.2 L276.6,59.1 L276.5,59.9 L275.7,60.3 L275.6,61.6 L276.1,62.6 L275.8,63.9 L276.7,64.1 L277.9,65.7 L276.1,70.0 L276.1,71.5 L276.7,72.7 L276.2,73.7 L276.4,75.0 L275.6,75.8 L276.1,76.9 L274.7,78.2 L274.0,78.2 L274.1,79.9 L274.8,79.9 L276.1,81.2 L276.6,84.5 L277.1,85.1 L277.0,85.9 L275.3,87.1 L275.6,90.3 L276.1,91.3 L278.7,91.3 L280.0,88.2 L279.6,86.7 L280.1,86.4 L281.9,86.5 L282.2,85.0 L282.8,85.4 L282.8,86.8 L284.0,86.9 L285.4,85.4 L289.3,87.6 L290.0,89.6 L290.6,90.0 L289.6,93.9 L291.1,94.1 L292.2,92.9 L293.2,92.9 L294.8,90.7 L294.5,90.0 L296.1,89.8 L297.3,88.6 L297.1,86.9 L298.1,84.9 L297.8,84.2 L296.9,84.2 L297.8,81.6 L297.7,80.1 L298.1,78.6 L297.5,77.5 L298.3,76.0 L297.2,70.8 L295.4,70.5 L295.9,69.7Z" fill="#D8312A" stroke="#1E1A1D" stroke-width="1.2" stroke-linejoin="round"/><path d="M307.9,44.7 L305.9,44.1 L303.1,42.5 L302.8,43.8 L301.6,43.5 L300.6,44.2 L299.6,44.2 L297.5,43.2 L296.3,47.4 L293.9,50.7 L296.2,51.7 L295.9,52.7 L296.6,53.4 L297.3,56.1 L298.3,55.0 L299.1,55.8 L299.6,54.3 L300.2,54.8 L301.3,52.3 L301.9,52.6 L303.1,52.0 L303.3,51.1 L302.8,49.5 L303.9,48.0 L305.1,48.1 L305.5,46.4 L307.8,45.7ZM300.8,42.9 L302.0,43.1 L301.9,42.5 L300.1,42.1 L298.6,41.0 L297.9,41.9 L299.1,42.3 L299.4,43.1Z" fill="#D8312A" stroke="#1E1A1D" stroke-width="1.2" stroke-linejoin="round"/><path d="M317.2,50.2 L317.8,50.9 L317.5,51.8 L318.3,51.9 L319.2,49.4 L318.2,49.3Z" fill="#D8312A" stroke="#1E1A1D" stroke-width="1.2" stroke-linejoin="round"/><path d="M319.2,49.4 L319.1,50.2 L320.1,50.1 L323.5,55.0 L324.2,55.0 L327.1,58.0 L328.3,58.2 L329.5,60.4 L330.8,60.6 L333.2,59.8 L334.4,60.1 L334.4,60.8 L337.6,60.1 L338.8,61.3 L340.3,60.9 L342.1,61.7 L343.3,60.9 L343.2,60.2 L344.8,56.8 L344.1,55.3 L341.7,52.5 L340.9,53.4 L335.7,52.8 L335.0,52.1 L335.2,50.0 L334.2,48.5 L332.8,48.1 L331.8,50.2 L330.7,50.4 L330.0,49.2 L329.4,50.0 L328.7,49.8 L329.1,48.7 L328.2,47.8 L327.6,48.4 L326.5,48.1 L325.3,48.8 L321.0,46.7 L320.8,48.1 L319.5,47.9Z" fill="#D8312A" stroke="#1E1A1D" stroke-width="1.2" stroke-linejoin="round"/><path d="M351.1,68.4 L351.1,67.3 L349.5,67.2 L349.8,64.7 L352.8,62.2 L354.7,62.2 L355.2,61.5 L354.4,59.5 L354.6,58.3 L353.1,58.5 L349.5,56.2 L348.7,57.2 L344.8,56.8 L343.2,60.2 L343.3,60.9 L342.1,61.7 L340.3,60.9 L338.8,61.3 L337.6,60.1 L334.4,60.8 L334.4,60.1 L333.2,59.8 L330.8,60.6 L329.5,60.4 L328.3,58.2 L327.1,58.0 L324.2,55.0 L323.5,55.0 L320.1,50.1 L319.1,50.2 L318.3,51.9 L317.5,51.8 L317.8,50.9 L317.2,50.2 L317.0,50.8 L315.9,51.1 L316.8,57.3 L320.6,63.0 L322.7,63.8 L329.1,62.4 L330.7,63.7 L333.3,64.4 L335.0,65.7 L335.2,66.3 L336.1,66.5 L337.4,66.1 L337.8,66.4 L340.1,65.4 L341.8,65.6 L347.1,69.1 L348.5,68.4 L350.1,69.1Z" fill="#D8312A" stroke="#1E1A1D" stroke-width="1.2" stroke-linejoin="round"/><path d="M343.4,33.5 L341.8,31.4 L341.1,32.0 L339.8,31.8 L338.8,30.8 L339.1,29.0 L336.9,29.2 L336.5,27.5 L336.8,25.9 L337.6,25.4 L337.8,23.9 L333.5,24.6 L329.0,26.9 L328.2,27.8 L330.4,29.7 L334.3,31.0 L337.7,33.4 L339.3,32.5 L341.4,33.8 L341.6,35.0Z" fill="#D8312A" stroke="#1E1A1D" stroke-width="1.2" stroke-linejoin="round"/><path d="M355.2,45.1 L356.0,43.6 L354.9,42.4 L355.2,40.7 L354.5,38.8 L353.4,37.9 L353.4,32.8 L351.8,30.8 L352.5,27.4 L351.7,25.6 L349.7,25.7 L348.0,24.6 L345.4,21.9 L341.7,22.4 L340.4,23.5 L337.8,23.9 L337.6,25.4 L336.8,25.9 L336.5,27.5 L336.9,29.2 L339.1,29.0 L338.8,30.8 L339.8,31.8 L341.1,32.0 L341.8,31.4 L345.1,35.2 L346.2,35.1 L346.4,36.6 L354.6,43.7Z" fill="#D8312A" stroke="#1E1A1D" stroke-width="1.2" stroke-linejoin="round"/></g><text x="20" y="56.2" font-size="41.5" font-family="'Shippori Mincho B1','Hiragino Mincho ProN',serif" font-weight="800" fill="#1E1A1D" stroke="#fff" stroke-width="10.8" paint-order="stroke" stroke-linejoin="round">きときと</text><text x="20" y="101.0" font-size="41.5" font-family="'Shippori Mincho B1','Hiragino Mincho ProN',serif" font-weight="800" fill="#1E1A1D" stroke="#fff" stroke-width="10.8" paint-order="stroke" stroke-linejoin="round">やちゃ</text><rect x="14" y="278" width="80" height="30" fill="#1E1A1D"/><text x="54.0" y="300" font-size="21" text-anchor="middle" font-family="'Shippori Mincho B1','Hiragino Mincho ProN',serif" font-weight="800" fill="#fff">富山県</text></svg>