<svg xmlns="http://www.w3.org/2000/svg" width="370" height="320" viewBox="0 0 370 320"><defs><style>@import url("https://fonts.googleapis.com/css2?family=Shippori+Mincho+B1:wght@800&display=swap");</style><pattern id="hatchu3" width="7" height="7" patternUnits="userSpaceOnUse" patternTransform="rotate(-35)"><line x1="0" y1="0" x2="0" y2="7" stroke="#1E1A1D" stroke-width="1.8"/></pattern><pattern id="toneu3" width="6" height="6" patternUnits="userSpaceOnUse" patternTransform="rotate(45)"><circle cx="3" cy="3" r="1.5" fill="#1E1A1D"/></pattern><clipPath id="clipu3"><path d="M124.1,229.3 L112.1,209.4 L90.8,203.8 L60.0,141.6 L64.1,136.6 L63.1,141.2 L70.2,140.8 L75.1,135.4 L70.9,133.3 L73.6,132.0 L78.7,137.1 L83.5,134.6 L89.5,130.1 L87.1,126.8 L96.7,120.8 L98.5,123.9 L103.6,121.0 L114.3,124.0 L119.2,106.4 L132.7,108.2 L132.0,114.4 L145.7,116.2 L149.5,128.2 L147.1,132.2 L151.9,132.8 L149.8,135.7 L152.6,141.1 L143.5,142.1 L142.3,138.5 L137.4,139.7 L139.1,144.1 L144.8,153.1 L153.9,150.8 L152.3,145.9 L155.0,143.8 L161.0,151.8 L168.6,147.8 L164.9,140.5 L168.2,138.8 L172.1,146.4 L187.1,138.7 L181.0,126.7 L169.0,132.9 L157.4,127.3 L170.0,120.6 L157.7,96.3 L175.9,86.9 L191.7,117.8 L200.1,113.5 L216.9,152.0 L242.8,174.1 L245.5,199.6 L264.0,223.9 L244.3,229.4 L247.4,233.4 L220.2,241.5 L205.2,252.1 L203.2,259.7 L207.7,268.4 L197.8,273.9 L200.5,285.3 L191.9,290.3 L195.0,301.1 L189.6,302.0 L180.6,301.8 L160.7,289.4 L148.5,289.3 L142.4,282.2 L129.9,283.5 L126.9,275.0 L128.1,246.0Z"/></clipPath><clipPath id="frameu3"><rect x="11" y="11" width="348" height="298"/></clipPath></defs><g clip-path="url(#frameu3)"><path d="M327.3,205.2 L637.2,195.1 L637.2,215.3ZM361.7,236.2 L633.6,263.3 L627.5,299.6ZM354.5,254.8 L624.5,312.8 L615.3,345.6ZM341.1,282.3 L599.9,386.8 L586.6,415.1ZM329.4,297.7 L577.6,431.9 L562.7,456.3ZM309.7,319.7 L533.5,496.2 L516.7,515.7ZM294.7,330.9 L499.6,533.4 L482.8,549.1ZM270.6,346.1 L439.6,583.1 L422.7,594.3ZM253.7,352.6 L405.1,604.8 L372.4,621.8ZM227.3,360.4 L334.4,637.6 L302.0,648.0ZM209.9,361.9 L286.1,652.1 L255.5,658.5ZM183.3,362.1 L209.2,664.1 L180.7,665.2ZM166.8,358.8 L158.8,664.8 L133.1,663.1ZM142.2,352.1 L81.5,655.1 L59.1,649.8ZM114.3,382.3 L32.8,641.9 L13.8,635.1ZM87.3,366.8 L-30.2,615.7 L-62.4,597.8ZM72.3,353.9 L-73.9,590.6 L-101.7,570.9ZM51.3,332.3 L-135.3,542.6 L-157.5,520.6ZM40.8,316.3 L-170.4,506.4 L-188.4,484.3ZM26.9,290.6 L-216.2,443.4 L-228.9,421.0ZM21.4,272.9 L-239.9,399.0 L-249.1,377.9ZM15.2,245.4 L-266.6,325.8 L-271.5,306.1ZM14.8,227.5 L-275.5,286.0 L-280.6,249.6ZM16.4,200.4 L-282.7,208.4 L-281.7,174.4ZM20.8,183.7 L-280.3,158.1 L-276.0,127.1ZM29.4,158.9 L-265.8,81.5 L-257.3,54.3ZM37.9,144.6 L-249.6,33.8 L-239.3,10.2ZM18.8,102.2 L-214.5,-35.8 L-202.0,-55.1ZM33.0,87.8 L-185.8,-77.2 L-173.1,-92.9ZM56.5,67.8 L-140.0,-127.8 L-112.4,-152.1ZM73.5,58.1 L-101.7,-160.5 L-73.9,-180.2ZM100.6,45.7 L-36.0,-202.4 L-7.8,-215.9ZM119.0,41.2 L9.9,-223.3 L36.8,-232.8ZM147.5,36.8 L84.6,-245.4 L110.0,-249.8ZM165.8,37.6 L134.4,-252.8 L157.4,-254.4ZM193.5,41.0 L212.4,-253.5 L232.5,-251.5ZM210.3,46.6 L252.8,-248.6 L288.8,-241.1ZM235.0,57.0 L328.3,-229.3 L360.0,-217.0ZM249.1,66.7 L374.9,-210.2 L402.7,-195.8ZM269.2,82.9 L442.2,-170.9 L465.0,-153.7ZM279.7,95.6 L481.7,-139.6 L500.6,-122.1ZM325.8,91.6 L535.6,-83.3 L549.5,-65.0ZM334.5,109.6 L565.0,-42.4 L575.5,-25.1ZM345.4,138.1 L597.4,17.7 L611.0,51.9ZM348.7,157.2 L615.3,64.8 L624.5,97.6ZM351.3,186.6 L632.8,140.7 L636.1,171.8Z" fill="#3B3540" opacity="0.35"/></g><path d="M124.1,229.3 L112.1,209.4 L90.8,203.8 L60.0,141.6 L64.1,136.6 L63.1,141.2 L70.2,140.8 L75.1,135.4 L70.9,133.3 L73.6,132.0 L78.7,137.1 L83.5,134.6 L89.5,130.1 L87.1,126.8 L96.7,120.8 L98.5,123.9 L103.6,121.0 L114.3,124.0 L119.2,106.4 L132.7,108.2 L132.0,114.4 L145.7,116.2 L149.5,128.2 L147.1,132.2 L151.9,132.8 L149.8,135.7 L152.6,141.1 L143.5,142.1 L142.3,138.5 L137.4,139.7 L139.1,144.1 L144.8,153.1 L153.9,150.8 L152.3,145.9 L155.0,143.8 L161.0,151.8 L168.6,147.8 L164.9,140.5 L168.2,138.8 L172.1,146.4 L187.1,138.7 L181.0,126.7 L169.0,132.9 L157.4,127.3 L170.0,120.6 L157.7,96.3 L175.9,86.9 L191.7,117.8 L200.1,113.5 L216.9,152.0 L242.8,174.1 L245.5,199.6 L264.0,223.9 L244.3,229.4 L247.4,233.4 L220.2,241.5 L205.2,252.1 L203.2,259.7 L207.7,268.4 L197.8,273.9 L200.5,285.3 L191.9,290.3 L195.0,301.1 L189.6,302.0 L180.6,301.8 L160.7,289.4 L148.5,289.3 L142.4,282.2 L129.9,283.5 L126.9,275.0 L128.1,246.0Z" fill="none" stroke="#1E1A1D" stroke-width="12" stroke-linejoin="round"/><path d="M124.1,229.3 L112.1,209.4 L90.8,203.8 L60.0,141.6 L64.1,136.6 L63.1,141.2 L70.2,140.8 L75.1,135.4 L70.9,133.3 L73.6,132.0 L78.7,137.1 L83.5,134.6 L89.5,130.1 L87.1,126.8 L96.7,120.8 L98.5,123.9 L103.6,121.0 L114.3,124.0 L119.2,106.4 L132.7,108.2 L132.0,114.4 L145.7,116.2 L149.5,128.2 L147.1,132.2 L151.9,132.8 L149.8,135.7 L152.6,141.1 L143.5,142.1 L142.3,138.5 L137.4,139.7 L139.1,144.1 L144.8,153.1 L153.9,150.8 L152.3,145.9 L155.0,143.8 L161.0,151.8 L168.6,147.8 L164.9,140.5 L168.2,138.8 L172.1,146.4 L187.1,138.7 L181.0,126.7 L169.0,132.9 L157.4,127.3 L170.0,120.6 L157.7,96.3 L175.9,86.9 L191.7,117.8 L200.1,113.5 L216.9,152.0 L242.8,174.1 L245.5,199.6 L264.0,223.9 L244.3,229.4 L247.4,233.4 L220.2,241.5 L205.2,252.1 L203.2,259.7 L207.7,268.4 L197.8,273.9 L200.5,285.3 L191.9,290.3 L195.0,301.1 L189.6,302.0 L180.6,301.8 L160.7,289.4 L148.5,289.3 L142.4,282.2 L129.9,283.5 L126.9,275.0 L128.1,246.0Z" fill="#9CC8F0" stroke="#9CC8F0" stroke-width="2.5" stroke-linejoin="round"/><g clip-path="url(#clipu3)"><rect x="207.2" y="0" width="370" height="320" fill="url(#hatchu3)" opacity="0.35"/></g><g transform="translate(177.3,205.2) scale(0.440)"><path d="M-98,-58 L-14,-30 L-10,-12 L-94,-36Z" fill="#1E1A1D"/><path d="M98,-58 L14,-30 L10,-12 L94,-36Z" fill="#1E1A1D"/><path d="M-86,4 Q-56,-20 -16,-6 Q-50,14 -86,4Z" fill="#fff"/><path d="M-86,4 Q-56,-20 -16,-6" fill="none" stroke="#1E1A1D" stroke-width="8" stroke-linecap="round" stroke-linejoin="round"/><path d="M-80,8 Q-50,14 -20,0" fill="none" stroke="#1E1A1D" stroke-width="4" stroke-linecap="round" stroke-linejoin="round"/><circle cx="-42" cy="-2" r="6" fill="#1E1A1D"/><path d="M86,4 Q56,-20 16,-6 Q50,14 86,4Z" fill="#fff"/><path d="M86,4 Q56,-20 16,-6" fill="none" stroke="#1E1A1D" stroke-width="8" stroke-linecap="round" stroke-linejoin="round"/><path d="M80,8 Q50,14 20,0" fill="none" stroke="#1E1A1D" stroke-width="4" stroke-linecap="round" stroke-linejoin="round"/><circle cx="42" cy="-2" r="6" fill="#1E1A1D"/><path d="M4,-8 L12,34 q-8,8 -20,4" fill="none" stroke="#1E1A1D" stroke-width="5" stroke-linecap="round" stroke-linejoin="round"/><path d="M-58,26 q-14,34 -2,66" fill="none" stroke="#1E1A1D" stroke-width="5" stroke-linecap="round" stroke-linejoin="round"/><path d="M58,26 q14,34 2,66" fill="none" stroke="#1E1A1D" stroke-width="5" stroke-linecap="round" stroke-linejoin="round"/><path d="M-78,18 l26,8" fill="none" stroke="#1E1A1D" stroke-width="4" stroke-linecap="round" stroke-linejoin="round"/><path d="M78,18 l-26,8" fill="none" stroke="#1E1A1D" stroke-width="4" stroke-linecap="round" stroke-linejoin="round"/><rect x="-42" y="62" width="84" height="26" rx="3" fill="#fff" stroke="#1E1A1D" stroke-width="6"/><path d="M-42,75 h84" fill="none" stroke="#1E1A1D" stroke-width="3" stroke-linecap="round" stroke-linejoin="round"/><path d="M-24,64 v22" fill="none" stroke="#1E1A1D" stroke-width="3" stroke-linecap="round" stroke-linejoin="round"/><path d="M-8,64 v22" fill="none" stroke="#1E1A1D" stroke-width="3" stroke-linecap="round" stroke-linejoin="round"/><path d="M8,64 v22" fill="none" stroke="#1E1A1D" stroke-width="3" stroke-linecap="round" stroke-linejoin="round"/><path d="M24,64 v22" fill="none" stroke="#1E1A1D" stroke-width="3" stroke-linecap="round" stroke-linejoin="round"/></g><defs><clipPath id="mapclip"><rect x="270" y="10" width="90" height="96"/></clipPath></defs><g clip-path="url(#mapclip)"><path d="M303.7,36.7 L302.8,37.5 L303.1,40.2 L302.0,43.0 L302.7,45.8 L303.5,46.3 L305.2,45.9 L306.8,43.6 L305.2,37.7ZM314.2,49.8 L311.4,49.2 L309.3,50.4 L309.2,48.9 L306.7,49.0 L306.3,52.1 L304.2,53.5 L301.3,54.5 L299.8,53.6 L298.1,54.3 L296.3,53.8 L294.8,52.5 L294.1,50.3 L293.0,51.1 L290.7,48.5 L293.7,47.6 L294.6,49.3 L295.8,49.6 L296.9,45.5 L294.6,44.6 L289.6,44.9 L285.8,43.3 L284.1,37.2 L287.2,33.5 L285.6,31.5 L280.3,27.8 L279.3,29.0 L280.1,32.1 L279.4,34.2 L277.8,34.6 L277.2,36.3 L279.4,39.7 L279.2,45.5 L280.3,46.6 L280.7,51.8 L282.6,54.4 L287.3,54.4 L288.2,56.7 L287.1,58.7 L287.8,61.0 L287.0,62.1 L288.0,63.2 L289.3,61.4 L294.4,61.7 L295.5,64.6 L300.3,67.2 L300.2,72.1 L302.5,77.3 L306.4,77.0 L306.5,75.5 L309.1,72.6 L310.3,55.9 L313.2,54.1 L314.3,52.1ZM285.1,19.5 L283.9,20.5 L284.7,21.9 L286.1,23.1 L287.3,22.7 L287.3,21.0ZM236.0,-35.5 L235.1,-33.1 L236.2,-31.9Z" fill="#fff" stroke="#1E1A1D" stroke-width="0.6" stroke-linejoin="round"/><path d="M334.1,25.4 L332.7,25.4 L327.5,28.7 L328.3,31.5 L332.3,29.7 L333.2,30.6 L335.4,29.5 L335.9,28.5ZM303.1,21.1 L299.7,24.1 L300.6,26.7 L302.9,30.0 L307.3,29.6 L305.8,24.4ZM346.3,24.1 L345.1,23.1 L342.8,24.1 L340.9,18.5 L339.2,18.2 L336.5,15.3 L333.3,14.0 L332.9,17.0 L325.4,24.3 L315.0,29.5 L309.6,30.0 L311.9,33.3 L313.3,32.5 L317.1,34.9 L318.8,34.9 L318.6,30.6 L320.7,28.5 L328.3,26.7 L330.0,25.6 L329.6,23.6 L333.4,22.0 L336.5,21.9 L336.8,24.4 L335.3,25.5 L337.5,29.4 L337.0,30.4 L335.2,29.9 L330.0,32.5 L334.3,34.2 L334.0,35.8 L330.6,35.5 L329.8,37.9 L331.2,38.4 L329.6,41.4 L331.9,42.2 L332.3,43.2 L329.9,42.5 L328.6,44.3 L332.8,46.6 L336.1,45.7 L339.5,46.5 L340.1,45.7 L339.2,44.6 L347.1,37.1 L350.6,40.2 L352.8,38.7 L352.2,35.6 L352.8,34.3 L351.8,33.3 L348.9,33.5 L349.0,32.0 L346.3,27.9Z" fill="#fff" stroke="#1E1A1D" stroke-width="0.6" stroke-linejoin="round"/><path d="M328.6,44.3 L327.7,45.3 L329.2,46.9 L327.9,47.4 L332.7,55.5 L339.0,59.9 L344.9,68.1 L346.3,67.5 L346.4,62.8 L344.6,60.5 L345.7,59.8 L347.5,62.8 L348.6,63.0 L350.6,60.6 L348.4,58.5 L348.5,55.3 L346.4,52.4 L343.8,49.4 L342.9,49.6 L341.6,47.7 L339.5,46.5 L336.1,45.7 L332.8,46.6Z" fill="#fff" stroke="#1E1A1D" stroke-width="0.6" stroke-linejoin="round"/><path d="M332.7,55.5 L328.2,57.7 L328.0,60.1 L326.5,61.3 L325.6,60.7 L326.5,66.7 L325.3,67.3 L324.4,70.9 L322.9,72.4 L322.4,74.2 L319.9,73.6 L319.7,75.4 L321.4,77.6 L322.9,76.5 L324.1,77.4 L327.7,76.9 L328.3,75.1 L329.7,74.9 L329.7,73.4 L335.6,69.8 L336.0,72.1 L337.4,72.0 L338.3,71.3 L337.9,70.2 L339.7,68.9 L338.8,65.9 L342.0,64.1 L339.0,59.9Z" fill="#fff" stroke="#1E1A1D" stroke-width="0.6" stroke-linejoin="round"/><path d="M319.9,54.1 L319.2,56.0 L318.1,56.1 L317.3,61.6 L316.3,62.0 L315.5,64.1 L316.0,65.7 L317.6,65.9 L318.5,68.6 L319.5,69.0 L319.9,73.6 L322.4,74.2 L322.9,72.4 L324.4,70.9 L325.3,67.3 L326.5,66.7 L326.3,64.8 L325.6,60.7 L322.8,59.9 L321.9,54.9Z" fill="#fff" stroke="#1E1A1D" stroke-width="0.6" stroke-linejoin="round"/><path d="M301.1,75.1 L299.6,76.9 L298.0,77.0 L296.1,80.6 L297.1,82.3 L296.3,82.7 L296.1,85.4 L301.0,88.4 L302.2,90.2 L306.1,90.7 L306.7,91.9 L308.2,91.7 L312.1,94.3 L312.5,95.8 L314.8,95.9 L317.4,99.5 L321.2,99.5 L323.2,102.0 L325.5,101.1 L327.7,101.3 L327.7,97.3 L329.5,98.0 L329.8,97.2 L328.4,95.8 L328.6,94.7 L325.7,92.9 L325.1,90.7 L325.7,89.3 L323.9,85.1 L323.2,79.8 L319.7,75.4 L320.2,72.1 L319.5,69.0 L318.5,68.6 L317.6,65.9 L316.0,65.7 L315.5,64.1 L316.3,62.0 L317.3,61.6 L318.1,56.1 L319.2,56.0 L319.9,54.1 L317.6,49.5 L314.2,49.8 L314.3,52.1 L313.2,54.1 L310.3,55.9 L309.1,72.6 L306.5,75.5 L306.4,77.0 L302.5,77.3Z" fill="#fff" stroke="#1E1A1D" stroke-width="0.6" stroke-linejoin="round"/><path d="M327.9,47.4 L327.3,47.7 L326.2,45.5 L324.8,46.2 L327.0,49.3 L325.1,50.2 L323.9,47.6 L322.0,46.9 L317.6,49.5 L319.9,54.1 L321.9,54.9 L322.8,59.9 L326.5,61.3 L328.0,60.1 L328.2,57.7 L332.7,55.5Z" fill="#D8312A" stroke="#1E1A1D" stroke-width="1.2" stroke-linejoin="round"/></g><text x="20" y="43.5" font-size="27.7" font-family="'Shippori Mincho B1','Hiragino Mincho ProN',serif" font-weight="800" fill="#1E1A1D" stroke="#fff" stroke-width="7.2" paint-order="stroke" stroke-linejoin="round">天神で</text><text x="20" y="73.3" font-size="27.7" font-family="'Shippori Mincho B1','Hiragino Mincho ProN',serif" font-weight="800" fill="#1E1A1D" stroke="#fff" stroke-width="7.2" paint-order="stroke" stroke-linejoin="round">待っとくけん</text><rect x="14" y="278" width="80" height="30" fill="#1E1A1D"/><text x="54.0" y="300" font-size="21" text-anchor="middle" font-family="'Shippori Mincho B1','Hiragino Mincho ProN',serif" font-weight="800" fill="#fff">中央区</text></svg>