<svg xmlns="http://www.w3.org/2000/svg" width="370" height="320" viewBox="0 0 370 320"><defs><style>@import url("https://fonts.googleapis.com/css2?family=Yusei+Magic&display=swap");</style></defs><path d="M238.3,272.0 C250.1,284.4 251.5,255.3 262.4,252.8 C273.3,250.3 304.6,256.0 316.3,254.3 C328.0,252.6 349.9,253.3 346.0,240.9 C342.1,228.5 292.9,179.1 288.8,166.0 C284.7,153.0 314.8,156.6 316.5,147.7 C318.2,138.9 305.8,102.6 301.0,102.5 C296.2,102.5 293.1,138.3 282.1,147.3 C271.2,156.3 237.2,164.5 222.6,166.9 C208.1,169.3 175.8,149.7 178.0,164.5 C180.2,179.2 226.5,259.6 238.3,272.0Z" fill="#9CC8F0" stroke="#3B3540" stroke-width="5.5" stroke-linejoin="round"/><g transform="translate(259.2,204.2) scale(0.454) translate(-408,-325)"><ellipse cx="335" cy="352" rx="22" ry="13" fill="#FF9E8A" opacity=".75"/><ellipse cx="482" cy="352" rx="22" ry="13" fill="#FF9E8A" opacity=".75"/><path d="M348,305 q17,-24 34,0" fill="none" stroke="#3B3540" stroke-width="9" stroke-linecap="round" stroke-linejoin="round"/><path d="M433,305 q17,-24 34,0" fill="none" stroke="#3B3540" stroke-width="9" stroke-linecap="round" stroke-linejoin="round"/><path d="M380,338 q28,0 56,0 q-4,40 -28,40 q-24,0 -28,-40Z" fill="#3B3540"/><path d="M394,364 q14,14 28,0 q-14,-6 -28,0Z" fill="#FF7B6B"/></g><path d="M334.9,148.2 L344.9,148.2" fill="none" stroke="#3B3540" stroke-width="4" stroke-linecap="round" stroke-linejoin="round"/><path d="M328.5,163.7 L335.5,170.8" fill="none" stroke="#3B3540" stroke-width="4" stroke-linecap="round" stroke-linejoin="round"/><path d="M312.9,170.2 L312.9,180.2" fill="none" stroke="#3B3540" stroke-width="4" stroke-linecap="round" stroke-linejoin="round"/><path d="M297.3,163.7 L290.3,170.8" fill="none" stroke="#3B3540" stroke-width="4" stroke-linecap="round" stroke-linejoin="round"/><path d="M290.9,148.2 L280.9,148.2" fill="none" stroke="#3B3540" stroke-width="4" stroke-linecap="round" stroke-linejoin="round"/><path d="M297.3,132.6 L290.3,125.6" fill="none" stroke="#3B3540" stroke-width="4" stroke-linecap="round" stroke-linejoin="round"/><path d="M312.9,126.2 L312.9,116.2" fill="none" stroke="#3B3540" stroke-width="4" stroke-linecap="round" stroke-linejoin="round"/><path d="M328.5,132.6 L335.5,125.6" fill="none" stroke="#3B3540" stroke-width="4" stroke-linecap="round" stroke-linejoin="round"/><circle cx="312.89473400518426" cy="148.18094133464888" r="15" fill="#FFB347" stroke="#3B3540" stroke-width="4"/><text x="17" y="55.2" font-size="35.0" font-family="'Yusei Magic','Hiragino Maru Gothic ProN',sans-serif" fill="#3B3540" stroke="#fff" stroke-width="7.7" paint-order="stroke" stroke-linejoin="round">おはよう</text><text x="17" y="94.5" font-size="35.0" font-family="'Yusei Magic','Hiragino Maru Gothic ProN',sans-serif" fill="#3B3540" stroke="#fff" stroke-width="7.7" paint-order="stroke" stroke-linejoin="round">さん！</text><rect x="237.0" y="284" width="50" height="24" rx="12" fill="#3B3540"/><text x="262.0" y="301.5" font-size="16" text-anchor="middle" font-family="'Yusei Magic','Hiragino Maru Gothic ProN',sans-serif" fill="#fff">旭区</text></svg>