<svg xmlns="http://www.w3.org/2000/svg" width="370" height="320" viewBox="0 0 370 320"><defs><style>@import url("https://fonts.googleapis.com/css2?family=Shippori+Mincho+B1:wght@800&display=swap");</style><pattern id="hatch27117c" width="7" height="7" patternUnits="userSpaceOnUse" patternTransform="rotate(-35)"><line x1="0" y1="0" x2="0" y2="7" stroke="#1E1A1D" stroke-width="1.8"/></pattern><pattern id="tone27117c" width="6" height="6" patternUnits="userSpaceOnUse" patternTransform="rotate(45)"><circle cx="3" cy="3" r="1.5" fill="#1E1A1D"/></pattern><clipPath id="clip27117c"><path d="M97.6,138.9 L123.0,143.4 L160.2,139.9 L206.0,128.8 L227.9,118.2 L252.1,94.2 L265.4,44.0 L287.0,74.7 L293.5,96.9 L288.9,112.8 L246.8,140.7 L256.0,155.7 L257.3,202.3 L286.7,192.2 L291.5,198.8 L309.5,202.5 L321.1,218.1 L324.2,238.0 L333.9,254.7 L324.6,259.0 L308.3,257.8 L307.7,275.2 L206.6,272.8 L184.6,283.8 L169.9,302.0 L121.7,231.3 L92.4,172.1 L78.1,138.3Z"/></clipPath><clipPath id="frame27117c"><rect x="11" y="11" width="348" height="298"/></clipPath></defs><g clip-path="url(#frame27117c)"><path d="M340.0,205.2 L649.9,195.1 L649.9,215.4ZM374.4,236.3 L646.3,263.3 L640.2,299.6ZM367.2,254.9 L637.2,312.9 L628.1,345.7ZM353.8,282.3 L612.7,386.8 L599.3,415.1ZM342.1,297.7 L590.3,432.0 L575.5,456.3ZM322.4,319.7 L546.3,496.3 L529.4,515.7ZM307.4,331.0 L512.3,533.5 L495.5,549.2ZM283.3,346.2 L452.3,583.2 L435.4,594.3ZM266.4,352.6 L417.8,604.9 L385.1,621.8ZM240.0,360.4 L347.1,637.6 L314.7,648.0ZM222.6,361.9 L298.9,652.2 L268.2,658.5ZM196.0,362.1 L221.9,664.1 L193.4,665.2ZM179.5,358.9 L171.5,664.9 L145.8,663.1ZM154.9,352.1 L94.2,655.2 L71.8,649.8ZM127.1,382.4 L45.5,642.0 L26.5,635.2ZM100.0,366.9 L-17.5,615.8 L-49.7,597.9ZM85.1,353.9 L-61.2,590.6 L-89.0,571.0ZM64.0,332.3 L-122.6,542.7 L-144.8,520.7ZM53.5,316.3 L-157.6,506.5 L-175.6,484.4ZM39.6,290.7 L-203.5,443.5 L-216.2,421.1ZM34.1,273.0 L-227.2,399.0 L-236.4,377.9ZM27.9,245.5 L-253.9,325.8 L-258.8,306.2ZM27.5,227.6 L-262.8,286.1 L-267.8,249.6ZM29.1,200.4 L-270.0,208.5 L-269.0,174.5ZM33.5,183.7 L-267.6,158.1 L-263.3,127.2ZM42.1,159.0 L-253.1,81.6 L-244.5,54.4ZM50.6,144.7 L-236.9,33.9 L-226.6,10.2ZM31.5,102.2 L-201.8,-35.7 L-189.3,-55.0ZM45.7,87.9 L-173.1,-77.1 L-160.3,-92.8ZM69.2,67.8 L-127.3,-127.8 L-99.7,-152.1ZM86.2,58.2 L-89.0,-160.5 L-61.2,-180.1ZM113.3,45.7 L-23.2,-202.3 L4.9,-215.9ZM131.7,41.3 L22.6,-223.2 L49.5,-232.8ZM160.3,36.9 L97.3,-245.3 L122.7,-249.8ZM178.5,37.6 L147.2,-252.7 L170.1,-254.3ZM206.2,41.0 L225.1,-253.4 L245.2,-251.4ZM223.0,46.6 L265.5,-248.5 L301.5,-241.0ZM247.7,57.1 L341.0,-229.3 L372.7,-216.9ZM261.8,66.7 L387.6,-210.1 L415.4,-195.7ZM282.0,83.0 L454.9,-170.8 L477.7,-153.7ZM292.4,95.6 L494.5,-139.6 L513.3,-122.0ZM338.5,91.6 L548.3,-83.3 L562.3,-65.0ZM347.2,109.6 L577.7,-42.3 L588.2,-25.1ZM358.1,138.2 L610.1,17.8 L623.7,51.9ZM361.4,157.2 L628.1,64.8 L637.2,97.6ZM364.0,186.6 L645.5,140.8 L648.8,171.9Z" fill="#3B3540" opacity="0.35"/></g><path d="M97.6,138.9 L123.0,143.4 L160.2,139.9 L206.0,128.8 L227.9,118.2 L252.1,94.2 L265.4,44.0 L287.0,74.7 L293.5,96.9 L288.9,112.8 L246.8,140.7 L256.0,155.7 L257.3,202.3 L286.7,192.2 L291.5,198.8 L309.5,202.5 L321.1,218.1 L324.2,238.0 L333.9,254.7 L324.6,259.0 L308.3,257.8 L307.7,275.2 L206.6,272.8 L184.6,283.8 L169.9,302.0 L121.7,231.3 L92.4,172.1 L78.1,138.3Z" fill="#9CC8F0" stroke="#1E1A1D" stroke-width="6" stroke-linejoin="round"/><g clip-path="url(#clip27117c)"><rect x="224.1" y="0" width="370" height="320" fill="url(#hatch27117c)" opacity="0.35"/></g><path d="M97.6,138.9 L123.0,143.4 L160.2,139.9 L206.0,128.8 L227.9,118.2 L252.1,94.2 L265.4,44.0 L287.0,74.7 L293.5,96.9 L288.9,112.8 L246.8,140.7 L256.0,155.7 L257.3,202.3 L286.7,192.2 L291.5,198.8 L309.5,202.5 L321.1,218.1 L324.2,238.0 L333.9,254.7 L324.6,259.0 L308.3,257.8 L307.7,275.2 L206.6,272.8 L184.6,283.8 L169.9,302.0 L121.7,231.3 L92.4,172.1 L78.1,138.3Z" fill="none" stroke="#1E1A1D" stroke-width="6" stroke-linejoin="round"/><g transform="translate(190.0,205.2) scale(0.502)"><path d="M-98,-58 L-14,-30 L-10,-12 L-94,-36Z" fill="#1E1A1D"/><path d="M98,-58 L14,-30 L10,-12 L94,-36Z" fill="#1E1A1D"/><path d="M-86,4 Q-56,-20 -16,-6 Q-50,14 -86,4Z" fill="#fff"/><path d="M-86,4 Q-56,-20 -16,-6" fill="none" stroke="#1E1A1D" stroke-width="8" stroke-linecap="round" stroke-linejoin="round"/><path d="M-80,8 Q-50,14 -20,0" fill="none" stroke="#1E1A1D" stroke-width="4" stroke-linecap="round" stroke-linejoin="round"/><circle cx="-42" cy="-2" r="6" fill="#1E1A1D"/><path d="M86,4 Q56,-20 16,-6 Q50,14 86,4Z" fill="#fff"/><path d="M86,4 Q56,-20 16,-6" fill="none" stroke="#1E1A1D" stroke-width="8" stroke-linecap="round" stroke-linejoin="round"/><path d="M80,8 Q50,14 20,0" fill="none" stroke="#1E1A1D" stroke-width="4" stroke-linecap="round" stroke-linejoin="round"/><circle cx="42" cy="-2" r="6" fill="#1E1A1D"/><path d="M4,-8 L12,34 q-8,8 -20,4" fill="none" stroke="#1E1A1D" stroke-width="5" stroke-linecap="round" stroke-linejoin="round"/><path d="M-58,26 q-14,34 -2,66" fill="none" stroke="#1E1A1D" stroke-width="5" stroke-linecap="round" stroke-linejoin="round"/><path d="M58,26 q14,34 2,66" fill="none" stroke="#1E1A1D" stroke-width="5" stroke-linecap="round" stroke-linejoin="round"/><path d="M-78,18 l26,8" fill="none" stroke="#1E1A1D" stroke-width="4" stroke-linecap="round" stroke-linejoin="round"/><path d="M78,18 l-26,8" fill="none" stroke="#1E1A1D" stroke-width="4" stroke-linecap="round" stroke-linejoin="round"/><path d="M-46,58 Q0,74 46,58 Q34,94 0,96 Q-34,94 -46,58Z" fill="#fff"/><path d="M-46,58 Q0,74 46,58 Q34,94 0,96 Q-34,94 -46,58Z" fill="none" stroke="#1E1A1D" stroke-width="6" stroke-linecap="round" stroke-linejoin="round"/><path d="M-40,66 Q0,80 40,66" fill="none" stroke="#1E1A1D" stroke-width="3" stroke-linecap="round" stroke-linejoin="round"/></g><text x="20" y="56.2" font-size="41.5" font-family="'Shippori Mincho B1','Hiragino Mincho ProN',serif" font-weight="800" fill="#1E1A1D" stroke="#fff" stroke-width="10.8" paint-order="stroke" stroke-linejoin="round">おはよう</text><text x="20" y="101.0" font-size="41.5" font-family="'Shippori Mincho B1','Hiragino Mincho ProN',serif" font-weight="800" fill="#1E1A1D" stroke="#fff" stroke-width="10.8" paint-order="stroke" stroke-linejoin="round">さん！</text><rect x="14" y="278" width="58" height="30" fill="#1E1A1D"/><text x="43.0" y="300" font-size="21" text-anchor="middle" font-family="'Shippori Mincho B1','Hiragino Mincho ProN',serif" font-weight="800" fill="#fff">旭区</text></svg>