<svg xmlns="http://www.w3.org/2000/svg" width="370" height="320" viewBox="0 0 370 320"><defs><style>@import url("https://fonts.googleapis.com/css2?family=Shippori+Mincho+B1:wght@800&display=swap");</style><pattern id="hatchu16" width="7" height="7" patternUnits="userSpaceOnUse" patternTransform="rotate(-35)"><line x1="0" y1="0" x2="0" y2="7" stroke="#1E1A1D" stroke-width="1.8"/></pattern><pattern id="toneu16" width="6" height="6" patternUnits="userSpaceOnUse" patternTransform="rotate(45)"><circle cx="3" cy="3" r="1.5" fill="#1E1A1D"/></pattern><clipPath id="clipu16"><path d="M67.9,199.7 L68.2,183.9 L77.2,177.6 L88.1,159.5 L84.5,145.6 L77.4,142.8 L75.5,135.2 L79.4,116.6 L128.5,121.6 L129.1,111.0 L135.3,108.6 L144.7,117.1 L140.9,130.7 L156.2,129.3 L166.7,134.7 L172.1,129.5 L157.6,114.6 L165.1,100.8 L163.9,94.2 L153.3,79.6 L164.6,75.5 L162.1,64.0 L173.5,67.3 L190.8,64.5 L201.2,73.7 L208.0,67.6 L238.4,82.8 L241.7,86.0 L237.5,100.7 L241.8,110.2 L260.5,127.0 L262.8,137.6 L280.1,162.8 L296.6,174.4 L307.0,175.4 L312.9,182.9 L322.6,180.0 L331.0,183.1 L335.0,195.0 L341.3,197.8 L340.5,204.1 L347.9,204.2 L345.2,206.8 L352.0,213.2 L346.8,231.6 L336.3,242.9 L320.6,229.9 L292.6,238.3 L275.4,200.7 L262.9,197.0 L229.8,216.9 L227.4,212.3 L202.1,209.8 L200.4,214.4 L210.8,225.5 L208.7,229.9 L227.0,263.8 L222.8,286.2 L197.7,258.9 L179.9,267.2 L167.3,263.5 L143.1,279.6 L142.9,291.9 L132.9,302.0 L123.2,290.2 L114.3,293.4 L110.9,289.8 L108.4,293.2 L100.9,293.6 L90.5,282.8 L96.4,267.1 L79.2,259.5 L73.4,251.3 L77.1,246.6 L94.9,242.3 L95.1,238.6 L83.7,226.2 L80.0,208.7 L69.1,213.1Z"/></clipPath><clipPath id="frameu16"><rect x="11" y="11" width="348" height="298"/></clipPath></defs><g clip-path="url(#frameu16)"><path d="M288.9,194.9 L598.8,184.8 L598.8,205.0ZM323.3,225.9 L595.2,253.0 L589.1,289.3ZM316.1,244.5 L586.1,302.5 L576.9,335.3ZM302.7,272.0 L561.5,376.5 L548.2,404.8ZM291.0,287.4 L539.1,421.6 L524.3,446.0ZM271.3,309.4 L495.1,485.9 L478.3,505.4ZM256.3,320.6 L461.2,523.1 L444.4,538.8ZM232.2,335.8 L401.1,572.8 L384.3,584.0ZM215.3,342.3 L366.7,594.5 L334.0,611.5ZM188.8,350.1 L296.0,627.3 L263.6,637.7ZM171.4,351.6 L247.7,641.8 L217.1,648.2ZM144.9,351.8 L170.7,653.8 L142.2,654.9ZM128.4,348.5 L120.4,654.5 L94.7,652.8ZM103.7,341.8 L43.0,644.8 L20.7,639.5ZM75.9,372.0 L-5.6,631.6 L-24.7,624.8ZM48.9,356.5 L-68.6,605.4 L-100.8,587.5ZM33.9,343.6 L-112.3,580.3 L-140.1,560.6ZM12.8,322.0 L-173.7,532.3 L-195.9,510.3ZM2.4,306.0 L-208.8,496.1 L-226.8,474.0ZM-11.6,280.3 L-254.6,433.1 L-267.3,410.7ZM-17.0,262.6 L-278.3,388.7 L-287.5,367.6ZM-23.2,235.1 L-305.0,315.5 L-309.9,295.8ZM-23.6,217.2 L-314.0,275.7 L-319.0,239.3ZM-22.0,190.1 L-321.1,198.1 L-320.1,164.1ZM-17.6,173.4 L-318.7,147.8 L-314.4,116.8ZM-9.0,148.6 L-304.2,71.2 L-295.7,44.0ZM-0.5,134.3 L-288.0,23.5 L-277.7,-0.1ZM-19.6,91.9 L-252.9,-46.1 L-240.4,-65.4ZM-5.4,77.5 L-224.2,-87.5 L-211.5,-103.2ZM18.0,57.5 L-178.4,-138.1 L-150.8,-162.4ZM35.1,47.8 L-140.1,-170.8 L-112.3,-190.5ZM62.2,35.4 L-74.4,-212.7 L-46.2,-226.2ZM80.6,30.9 L-28.5,-233.6 L-1.6,-243.1ZM109.1,26.5 L46.2,-255.7 L71.6,-260.1ZM127.4,27.3 L96.0,-263.1 L119.0,-264.7ZM155.1,30.7 L174.0,-263.8 L194.1,-261.8ZM171.8,36.3 L214.4,-258.9 L250.4,-251.4ZM196.6,46.7 L289.9,-239.6 L321.6,-227.3ZM210.7,56.4 L336.5,-220.5 L364.3,-206.1ZM230.8,72.6 L403.8,-181.2 L426.6,-164.0ZM241.3,85.3 L443.3,-149.9 L462.2,-132.4ZM287.4,81.3 L497.2,-93.6 L511.1,-75.3ZM296.1,99.3 L526.6,-52.7 L537.1,-35.4ZM307.0,127.8 L559.0,7.4 L572.6,41.6ZM310.3,146.9 L576.9,54.5 L586.1,87.3ZM312.9,176.3 L594.4,130.4 L597.7,161.5Z" fill="#3B3540" opacity="0.35"/></g><path d="M67.9,199.7 L68.2,183.9 L77.2,177.6 L88.1,159.5 L84.5,145.6 L77.4,142.8 L75.5,135.2 L79.4,116.6 L128.5,121.6 L129.1,111.0 L135.3,108.6 L144.7,117.1 L140.9,130.7 L156.2,129.3 L166.7,134.7 L172.1,129.5 L157.6,114.6 L165.1,100.8 L163.9,94.2 L153.3,79.6 L164.6,75.5 L162.1,64.0 L173.5,67.3 L190.8,64.5 L201.2,73.7 L208.0,67.6 L238.4,82.8 L241.7,86.0 L237.5,100.7 L241.8,110.2 L260.5,127.0 L262.8,137.6 L280.1,162.8 L296.6,174.4 L307.0,175.4 L312.9,182.9 L322.6,180.0 L331.0,183.1 L335.0,195.0 L341.3,197.8 L340.5,204.1 L347.9,204.2 L345.2,206.8 L352.0,213.2 L346.8,231.6 L336.3,242.9 L320.6,229.9 L292.6,238.3 L275.4,200.7 L262.9,197.0 L229.8,216.9 L227.4,212.3 L202.1,209.8 L200.4,214.4 L210.8,225.5 L208.7,229.9 L227.0,263.8 L222.8,286.2 L197.7,258.9 L179.9,267.2 L167.3,263.5 L143.1,279.6 L142.9,291.9 L132.9,302.0 L123.2,290.2 L114.3,293.4 L110.9,289.8 L108.4,293.2 L100.9,293.6 L90.5,282.8 L96.4,267.1 L79.2,259.5 L73.4,251.3 L77.1,246.6 L94.9,242.3 L95.1,238.6 L83.7,226.2 L80.0,208.7 L69.1,213.1Z" fill="none" stroke="#1E1A1D" stroke-width="12" stroke-linejoin="round"/><path d="M67.9,199.7 L68.2,183.9 L77.2,177.6 L88.1,159.5 L84.5,145.6 L77.4,142.8 L75.5,135.2 L79.4,116.6 L128.5,121.6 L129.1,111.0 L135.3,108.6 L144.7,117.1 L140.9,130.7 L156.2,129.3 L166.7,134.7 L172.1,129.5 L157.6,114.6 L165.1,100.8 L163.9,94.2 L153.3,79.6 L164.6,75.5 L162.1,64.0 L173.5,67.3 L190.8,64.5 L201.2,73.7 L208.0,67.6 L238.4,82.8 L241.7,86.0 L237.5,100.7 L241.8,110.2 L260.5,127.0 L262.8,137.6 L280.1,162.8 L296.6,174.4 L307.0,175.4 L312.9,182.9 L322.6,180.0 L331.0,183.1 L335.0,195.0 L341.3,197.8 L340.5,204.1 L347.9,204.2 L345.2,206.8 L352.0,213.2 L346.8,231.6 L336.3,242.9 L320.6,229.9 L292.6,238.3 L275.4,200.7 L262.9,197.0 L229.8,216.9 L227.4,212.3 L202.1,209.8 L200.4,214.4 L210.8,225.5 L208.7,229.9 L227.0,263.8 L222.8,286.2 L197.7,258.9 L179.9,267.2 L167.3,263.5 L143.1,279.6 L142.9,291.9 L132.9,302.0 L123.2,290.2 L114.3,293.4 L110.9,289.8 L108.4,293.2 L100.9,293.6 L90.5,282.8 L96.4,267.1 L79.2,259.5 L73.4,251.3 L77.1,246.6 L94.9,242.3 L95.1,238.6 L83.7,226.2 L80.0,208.7 L69.1,213.1Z" fill="#C9B3F2" stroke="#C9B3F2" stroke-width="2.5" stroke-linejoin="round"/><g clip-path="url(#clipu16)"><rect x="172.2" y="0" width="370" height="320" fill="url(#hatchu16)" opacity="0.35"/></g><g transform="translate(138.9,194.9) scale(0.490)"><path d="M-98,-58 L-14,-30 L-10,-12 L-94,-36Z" fill="#1E1A1D"/><path d="M98,-58 L14,-30 L10,-12 L94,-36Z" fill="#1E1A1D"/><path d="M-86,4 Q-56,-20 -16,-6 Q-50,14 -86,4Z" fill="#fff"/><path d="M-86,4 Q-56,-20 -16,-6" fill="none" stroke="#1E1A1D" stroke-width="8" stroke-linecap="round" stroke-linejoin="round"/><path d="M-80,8 Q-50,14 -20,0" fill="none" stroke="#1E1A1D" stroke-width="4" stroke-linecap="round" stroke-linejoin="round"/><circle cx="-42" cy="-2" r="6" fill="#1E1A1D"/><path d="M86,4 Q56,-20 16,-6 Q50,14 86,4Z" fill="#fff"/><path d="M86,4 Q56,-20 16,-6" fill="none" stroke="#1E1A1D" stroke-width="8" stroke-linecap="round" stroke-linejoin="round"/><path d="M80,8 Q50,14 20,0" fill="none" stroke="#1E1A1D" stroke-width="4" stroke-linecap="round" stroke-linejoin="round"/><circle cx="42" cy="-2" r="6" fill="#1E1A1D"/><path d="M4,-8 L12,34 q-8,8 -20,4" fill="none" stroke="#1E1A1D" stroke-width="5" stroke-linecap="round" stroke-linejoin="round"/><path d="M-58,26 q-14,34 -2,66" fill="none" stroke="#1E1A1D" stroke-width="5" stroke-linecap="round" stroke-linejoin="round"/><path d="M58,26 q14,34 2,66" fill="none" stroke="#1E1A1D" stroke-width="5" stroke-linecap="round" stroke-linejoin="round"/><path d="M-78,18 l26,8" fill="none" stroke="#1E1A1D" stroke-width="4" stroke-linecap="round" stroke-linejoin="round"/><path d="M78,18 l-26,8" fill="none" stroke="#1E1A1D" stroke-width="4" stroke-linecap="round" stroke-linejoin="round"/><rect x="-42" y="62" width="84" height="26" rx="3" fill="#fff" stroke="#1E1A1D" stroke-width="6"/><path d="M-42,75 h84" fill="none" stroke="#1E1A1D" stroke-width="3" stroke-linecap="round" stroke-linejoin="round"/><path d="M-24,64 v22" fill="none" stroke="#1E1A1D" stroke-width="3" stroke-linecap="round" stroke-linejoin="round"/><path d="M-8,64 v22" fill="none" stroke="#1E1A1D" stroke-width="3" stroke-linecap="round" stroke-linejoin="round"/><path d="M8,64 v22" fill="none" stroke="#1E1A1D" stroke-width="3" stroke-linecap="round" stroke-linejoin="round"/><path d="M24,64 v22" fill="none" stroke="#1E1A1D" stroke-width="3" stroke-linecap="round" stroke-linejoin="round"/></g><defs><clipPath id="mapclip"><rect x="270" y="10" width="90" height="96"/></clipPath></defs><g clip-path="url(#mapclip)"><path d="M331.7,65.0 L332.2,67.6 L331.8,69.0 L332.5,70.1 L333.7,70.3 L333.5,69.6 L335.2,69.5 L335.6,68.9 L335.1,68.6 L335.1,64.8 L334.4,64.0Z" fill="#fff" stroke="#1E1A1D" stroke-width="0.6" stroke-linejoin="round"/><path d="M335.1,66.6 L338.2,65.8 L338.3,64.5 L336.3,62.3 L334.5,62.7 L335.3,64.1Z" fill="#fff" stroke="#1E1A1D" stroke-width="0.6" stroke-linejoin="round"/><path d="M335.6,68.9 L335.8,68.2 L338.6,68.8 L338.2,65.8 L335.1,66.6 L335.1,68.6Z" fill="#fff" stroke="#1E1A1D" stroke-width="0.6" stroke-linejoin="round"/><path d="M338.2,65.8 L338.7,67.8 L339.5,68.4 L342.3,68.0 L341.7,66.9 L342.3,66.5 L340.1,62.5 L338.7,62.6 L338.5,63.5 L337.1,63.4 L338.3,64.5Z" fill="#fff" stroke="#1E1A1D" stroke-width="0.6" stroke-linejoin="round"/><path d="M335.6,68.9 L336.6,70.5 L338.1,71.5 L337.8,68.8 L335.8,68.2Z" fill="#fff" stroke="#1E1A1D" stroke-width="0.6" stroke-linejoin="round"/><path d="M333.7,70.3 L335.8,73.4 L337.8,72.9 L337.8,71.3 L336.6,70.5 L335.6,68.9 L335.2,69.5 L333.5,69.6Z" fill="#fff" stroke="#1E1A1D" stroke-width="0.6" stroke-linejoin="round"/><path d="M337.8,68.8 L338.1,71.5 L339.4,72.4 L340.0,71.9 L340.1,69.3 L338.7,67.8 L338.6,68.8Z" fill="#fff" stroke="#1E1A1D" stroke-width="0.6" stroke-linejoin="round"/><path d="M337.8,71.3 L337.8,72.9 L336.5,73.5 L336.6,73.9 L340.7,73.6 L340.5,72.1 L341.9,72.3 L342.1,71.5 L340.8,70.7 L339.9,71.2 L339.4,72.4Z" fill="#fff" stroke="#1E1A1D" stroke-width="0.6" stroke-linejoin="round"/><path d="M339.5,68.4 L340.1,69.3 L339.9,71.2 L340.8,70.7 L342.1,71.5 L343.5,71.1 L343.2,69.9 L345.1,69.9 L345.2,69.1 L343.5,67.1 L342.3,66.5 L341.7,66.9 L342.3,68.0Z" fill="#fff" stroke="#1E1A1D" stroke-width="0.6" stroke-linejoin="round"/><path d="M342.3,66.5 L345.9,69.6 L345.4,68.4 L345.9,68.2 L346.0,67.0 L345.4,66.4 L346.0,64.9 L345.4,63.4 L343.2,62.3 L343.9,61.7 L343.9,60.6 L341.7,59.4 L341.9,60.1 L341.2,61.4 L339.9,61.4 L339.3,62.4 L340.1,62.5 L341.0,63.7 L341.2,65.1Z" fill="#fff" stroke="#1E1A1D" stroke-width="0.6" stroke-linejoin="round"/><path d="M331.4,64.7 L331.0,63.8 L326.2,62.8 L323.9,64.0 L323.7,62.9 L323.0,63.1 L323.5,64.5 L322.3,65.8 L320.8,66.7 L320.1,66.2 L321.6,68.3 L322.3,67.8 L325.3,69.9 L325.8,69.8 L326.1,70.7 L325.6,71.4 L326.9,73.2 L327.5,72.8 L326.7,71.7 L328.1,70.9 L329.4,68.9 L331.7,69.5 L332.2,67.6Z" fill="#fff" stroke="#1E1A1D" stroke-width="0.6" stroke-linejoin="round"/><path d="M324.6,42.6 L318.6,37.8 L316.5,38.9 L317.1,39.5 L316.8,43.6 L314.2,45.6 L315.6,46.9 L315.4,49.4 L314.7,50.0 L316.1,51.6 L317.5,51.7 L317.6,50.5 L321.2,50.7 L322.4,51.7 L322.1,52.9 L323.0,53.4 L324.7,52.5 L323.8,51.5 L323.7,48.1 L323.1,47.5 L323.1,46.8 L323.8,46.8 L323.9,44.8 L323.0,44.7 L322.8,43.2 L323.1,42.5Z" fill="#fff" stroke="#1E1A1D" stroke-width="0.6" stroke-linejoin="round"/><path d="M340.7,73.6 L342.9,74.2 L342.2,75.1 L342.1,76.5 L344.6,77.3 L344.9,78.1 L346.0,77.5 L346.4,76.6 L345.7,75.8 L348.3,74.3 L346.6,71.0 L347.1,70.8 L345.2,69.1 L345.1,69.9 L343.2,69.9 L343.5,71.1 L342.5,71.1 L341.9,72.3 L340.5,72.1Z" fill="#fff" stroke="#1E1A1D" stroke-width="0.6" stroke-linejoin="round"/><path d="M323.7,49.9 L324.4,49.4 L326.1,49.7 L328.0,51.5 L328.6,50.5 L328.2,49.8 L329.1,48.7 L330.6,49.3 L330.9,48.6 L330.1,47.6 L329.6,47.6 L329.2,46.2 L328.3,46.1 L327.6,44.6 L328.5,43.8 L328.1,42.9 L326.7,43.2 L323.1,42.5 L323.0,44.7 L323.9,44.8 L323.8,46.8 L323.1,46.8Z" fill="#fff" stroke="#1E1A1D" stroke-width="0.6" stroke-linejoin="round"/><path d="M292.3,49.4 L291.8,48.8 L291.0,48.8 L290.9,50.4 L289.1,51.8 L289.3,52.6 L290.8,54.3 L292.0,54.8 L291.8,55.7 L292.8,56.4 L294.5,57.0 L295.6,58.0 L297.4,57.7 L297.4,58.6 L296.7,59.2 L297.4,60.0 L296.9,61.1 L294.8,62.2 L294.5,61.1 L293.4,61.4 L292.6,60.8 L291.0,61.1 L289.7,62.2 L285.5,61.5 L282.9,59.3 L283.0,56.8 L282.0,56.2 L279.5,56.9 L278.0,56.1 L276.9,56.4 L276.2,58.5 L274.3,60.0 L274.0,61.1 L274.2,62.3 L275.9,64.6 L275.2,67.1 L276.6,67.7 L278.5,67.8 L279.3,68.5 L279.9,70.3 L281.0,71.1 L284.0,70.9 L284.1,71.5 L284.9,71.5 L286.4,73.0 L287.7,71.9 L288.8,72.2 L290.0,71.7 L290.7,70.1 L292.4,69.2 L293.9,69.2 L294.6,68.1 L295.5,68.1 L297.3,69.7 L298.9,70.3 L299.6,70.0 L300.8,70.7 L301.4,70.2 L302.2,68.3 L301.7,66.2 L300.5,64.8 L300.6,63.4 L299.9,61.4 L300.4,59.6 L301.2,58.6 L301.8,59.4 L306.0,60.3 L306.1,59.6 L304.4,57.1 L302.5,56.3 L301.9,54.6 L300.5,54.4 L299.7,53.7 L297.9,54.3 L297.7,53.2 L296.3,53.4 L295.3,52.7 L294.2,51.9 L294.4,51.1 L293.4,51.2Z" fill="#fff" stroke="#1E1A1D" stroke-width="0.6" stroke-linejoin="round"/><path d="M326.8,73.0 L325.9,72.7 L323.8,74.6 L320.6,75.9 L320.5,77.4 L321.2,77.9 L321.1,78.5 L320.2,78.6 L320.2,79.3 L324.6,79.3 L330.5,76.9 L331.6,75.3 L330.7,74.3 L328.6,75.2Z" fill="#fff" stroke="#1E1A1D" stroke-width="0.6" stroke-linejoin="round"/><path d="M300.8,70.7 L303.2,70.8 L307.2,73.0 L308.6,72.4 L310.0,73.3 L313.4,73.0 L314.7,73.4 L314.8,74.4 L315.7,74.8 L316.4,74.2 L317.8,74.1 L318.1,71.4 L319.8,70.6 L316.5,69.4 L314.3,70.6 L313.4,70.4 L312.9,70.0 L312.8,66.8 L312.1,65.8 L311.4,66.0 L310.3,65.3 L309.7,64.0 L307.8,62.3 L306.2,61.9 L305.5,63.7 L301.0,65.6 L301.7,66.2 L302.2,68.3Z" fill="#fff" stroke="#1E1A1D" stroke-width="0.6" stroke-linejoin="round"/><path d="M330.6,49.3 L331.0,50.3 L332.0,50.8 L331.2,52.4 L332.5,53.2 L333.7,53.3 L334.4,52.7 L334.9,53.2 L335.6,51.9 L337.3,52.6 L338.5,51.0 L340.1,50.2 L339.8,49.4 L341.2,48.6 L341.2,47.7 L342.5,47.0 L341.3,42.0 L338.7,41.4 L338.9,42.5 L336.6,43.2 L336.0,42.6 L335.5,43.5 L336.2,44.7 L335.8,45.8 L334.6,45.4 L334.4,46.5 L333.4,46.6 L332.8,47.7 L330.1,47.6 L330.9,48.6Z" fill="#fff" stroke="#1E1A1D" stroke-width="0.6" stroke-linejoin="round"/><path d="M310.7,38.5 L309.4,37.3 L308.5,37.5 L305.6,35.9 L304.6,38.0 L305.5,39.0 L303.3,40.5 L302.7,41.7 L301.4,41.7 L301.5,42.4 L299.1,44.3 L299.2,45.6 L298.6,45.5 L298.5,47.2 L297.8,48.6 L298.8,49.2 L299.6,49.0 L301.2,47.1 L303.3,46.9 L304.0,46.3 L303.8,45.4 L304.6,44.3 L305.2,41.9 L305.8,41.4 L307.3,41.6 L307.5,40.9 L309.0,39.9 L310.6,40.2 L311.0,39.5Z" fill="#fff" stroke="#1E1A1D" stroke-width="0.6" stroke-linejoin="round"/><path d="M320.6,50.7 L320.0,53.9 L320.5,55.8 L319.3,56.2 L316.8,55.8 L317.2,58.1 L319.4,59.7 L320.1,60.9 L321.8,60.6 L323.9,59.1 L325.3,58.9 L325.5,58.3 L324.3,58.2 L322.8,56.3 L323.0,53.4 L322.1,52.9 L322.4,51.7Z" fill="#fff" stroke="#1E1A1D" stroke-width="0.6" stroke-linejoin="round"/><path d="M345.8,64.4 L347.7,64.6 L347.5,63.8 L348.2,63.2 L349.3,64.4 L350.6,62.3 L351.5,62.0 L350.1,59.6 L350.2,56.2 L349.6,55.7 L347.6,57.1 L348.0,58.3 L347.6,58.8 L343.9,59.5 L343.2,58.9 L342.8,59.8 L343.9,60.6 L343.9,61.7 L343.2,62.3 L345.4,63.4Z" fill="#fff" stroke="#1E1A1D" stroke-width="0.6" stroke-linejoin="round"/><path d="M321.6,68.3 L320.7,69.4 L320.8,70.0 L318.8,71.3 L319.0,72.8 L320.8,71.9 L321.1,72.9 L322.0,73.0 L322.9,74.9 L325.0,73.8 L325.9,72.7 L326.8,73.0 L325.6,71.4 L326.1,70.7 L325.8,69.8 L325.3,69.9 L322.3,67.8Z" fill="#fff" stroke="#1E1A1D" stroke-width="0.6" stroke-linejoin="round"/><path d="M330.1,47.6 L332.8,47.7 L333.4,46.6 L334.4,46.5 L334.6,45.4 L335.8,45.8 L336.2,44.7 L335.5,43.5 L336.0,42.6 L335.6,42.0 L334.5,41.4 L330.9,42.9 L328.1,42.9 L328.5,43.8 L327.6,44.6 L328.3,46.1 L329.2,46.2 L329.6,47.6Z" fill="#fff" stroke="#1E1A1D" stroke-width="0.6" stroke-linejoin="round"/><path d="M324.7,52.2 L326.6,54.2 L327.3,54.3 L328.0,56.4 L330.0,56.3 L329.9,55.3 L330.7,55.0 L332.9,56.3 L333.3,55.9 L332.7,55.3 L332.5,53.2 L331.2,52.4 L332.0,50.8 L331.0,50.3 L330.6,49.3 L329.1,48.7 L328.2,49.8 L328.6,50.5 L327.6,51.6 L326.1,49.7 L324.4,49.4 L323.7,49.9 L323.8,51.5Z" fill="#fff" stroke="#1E1A1D" stroke-width="0.6" stroke-linejoin="round"/><path d="M316.5,38.9 L315.7,39.2 L312.3,38.0 L310.7,38.5 L311.0,39.5 L310.6,40.2 L309.0,39.9 L307.5,40.9 L307.5,42.5 L308.3,42.7 L308.0,43.7 L307.0,44.3 L310.0,46.0 L307.8,47.7 L308.9,48.5 L308.9,49.2 L312.8,49.2 L312.9,50.3 L315.4,49.4 L315.6,46.9 L314.2,45.6 L316.8,43.6 L317.1,39.5Z" fill="#fff" stroke="#1E1A1D" stroke-width="0.6" stroke-linejoin="round"/><path d="M346.9,74.9 L348.6,76.0 L350.1,75.7 L351.3,73.4 L351.1,71.5 L352.0,71.6 L351.9,70.4 L350.4,70.5 L349.6,71.6 L347.7,71.4 L347.1,70.8 L346.6,71.0 L348.3,74.3Z" fill="#fff" stroke="#1E1A1D" stroke-width="0.6" stroke-linejoin="round"/><path d="M345.9,69.6 L347.7,71.4 L349.6,71.6 L350.4,70.5 L351.9,70.4 L351.8,68.4 L351.1,68.1 L351.7,67.4 L349.7,66.5 L349.5,65.9 L350.4,65.2 L348.2,63.2 L347.5,63.8 L347.7,64.6 L345.8,64.4 L345.4,66.4 L346.0,67.0 L345.9,68.2 L345.4,68.4Z" fill="#fff" stroke="#1E1A1D" stroke-width="0.6" stroke-linejoin="round"/><path d="M339.7,73.9 L341.4,75.2 L342.2,75.1 L342.9,74.2 L340.7,73.6Z" fill="#fff" stroke="#1E1A1D" stroke-width="0.6" stroke-linejoin="round"/><path d="M336.6,73.9 L336.9,75.6 L338.5,76.6 L342.1,76.5 L342.2,75.1 L341.4,75.2 L338.8,73.6Z" fill="#fff" stroke="#1E1A1D" stroke-width="0.6" stroke-linejoin="round"/><path d="M322.9,74.9 L322.0,73.0 L321.1,72.9 L320.8,71.9 L319.0,72.8 L318.8,71.3 L318.1,71.4 L317.7,72.1 L317.8,74.1 L316.4,74.2 L315.7,74.8 L316.2,76.4 L316.9,77.1 L317.8,76.7 L319.4,77.2 L319.4,78.0 L320.2,78.6 L321.1,78.5 L321.2,77.9 L320.5,77.4 L320.6,75.9Z" fill="#fff" stroke="#1E1A1D" stroke-width="0.6" stroke-linejoin="round"/><path d="M335.8,73.4 L335.0,74.1 L334.4,73.7 L333.6,75.2 L333.9,77.5 L334.9,78.2 L336.9,75.6 L336.5,73.5Z" fill="#fff" stroke="#1E1A1D" stroke-width="0.6" stroke-linejoin="round"/><path d="M334.3,71.3 L333.3,73.4 L332.2,74.0 L332.7,74.8 L335.8,73.4Z" fill="#fff" stroke="#1E1A1D" stroke-width="0.6" stroke-linejoin="round"/><path d="M336.9,75.6 L335.6,77.0 L335.1,78.3 L335.6,78.9 L336.5,78.9 L338.5,76.6Z" fill="#fff" stroke="#1E1A1D" stroke-width="0.6" stroke-linejoin="round"/><path d="M331.3,75.8 L331.7,76.2 L331.0,77.2 L331.7,78.6 L331.7,80.4 L334.9,78.2 L333.9,77.5 L333.8,74.5 L332.7,74.8 L332.2,74.2 L332.1,74.7 L330.8,74.8 L331.6,75.3Z" fill="#fff" stroke="#1E1A1D" stroke-width="0.6" stroke-linejoin="round"/><path d="M332.9,56.3 L332.3,56.9 L332.5,57.8 L330.0,58.4 L329.0,59.7 L330.0,62.1 L330.8,62.7 L331.1,60.0 L332.9,60.4 L333.5,59.5 L333.5,58.6 L334.7,58.6 L335.0,57.0 L333.3,56.3 L333.3,55.9Z" fill="#fff" stroke="#1E1A1D" stroke-width="0.6" stroke-linejoin="round"/><path d="M332.5,53.2 L332.7,55.3 L333.3,56.3 L334.5,56.9 L335.6,56.2 L335.8,55.5 L338.9,56.1 L339.5,55.9 L339.4,55.2 L341.1,55.8 L341.5,55.5 L341.2,54.4 L342.2,54.6 L342.8,53.0 L341.6,52.2 L342.3,51.0 L343.6,50.7 L344.1,49.8 L342.5,47.0 L341.2,47.7 L341.2,48.6 L339.8,49.4 L340.1,50.2 L338.5,51.0 L337.3,52.6 L335.6,51.9 L334.9,53.2 L334.4,52.7 L333.7,53.3Z" fill="#fff" stroke="#1E1A1D" stroke-width="0.6" stroke-linejoin="round"/><path d="M328.0,56.4 L328.7,57.3 L328.5,59.2 L329.0,59.7 L330.0,58.4 L332.5,57.8 L332.3,56.9 L332.9,56.3 L330.7,55.0 L329.9,55.3 L330.0,56.3Z" fill="#fff" stroke="#1E1A1D" stroke-width="0.6" stroke-linejoin="round"/><path d="M350.6,75.1 L350.9,77.0 L351.8,76.3 L352.8,77.1 L353.2,76.9 L353.0,76.0 L353.8,75.4 L353.6,74.4 L352.4,74.0 L352.0,71.6 L351.1,71.5 L351.3,73.4 L350.0,75.1Z" fill="#fff" stroke="#1E1A1D" stroke-width="0.6" stroke-linejoin="round"/><path d="M331.8,69.0 L331.9,70.5 L329.7,71.0 L331.2,73.4 L332.2,74.0 L333.3,73.4 L334.3,71.3 L333.7,70.3 L332.5,70.1Z" fill="#fff" stroke="#1E1A1D" stroke-width="0.6" stroke-linejoin="round"/><path d="M352.0,71.6 L352.4,74.0 L353.6,74.4 L353.8,75.4 L353.0,76.0 L353.2,76.9 L354.0,76.6 L354.5,78.0 L355.6,77.9 L355.2,74.3 L356.0,70.7 L354.2,70.6Z" fill="#fff" stroke="#1E1A1D" stroke-width="0.6" stroke-linejoin="round"/><path d="M339.3,62.4 L339.9,61.4 L341.2,61.4 L341.9,60.1 L341.3,59.0 L340.6,59.4 L339.6,58.3 L338.8,58.5 L338.7,56.7 L337.2,57.0 L335.6,56.2 L334.5,56.9 L337.8,58.8 L338.4,59.9 L338.3,61.9 L338.7,62.6Z" fill="#fff" stroke="#1E1A1D" stroke-width="0.6" stroke-linejoin="round"/><path d="M326.2,62.8 L323.6,59.5 L321.8,60.6 L318.7,61.4 L318.0,62.0 L318.6,63.4 L317.6,65.2 L317.0,64.8 L316.3,65.4 L317.5,66.1 L321.0,63.3 L322.2,63.7 L323.7,62.9 L323.9,64.0Z" fill="#fff" stroke="#1E1A1D" stroke-width="0.6" stroke-linejoin="round"/><path d="M342.4,54.0 L345.0,55.9 L345.9,54.7 L346.9,55.7 L347.8,55.5 L347.8,54.5 L348.4,54.1 L347.8,52.3 L346.8,52.5 L344.2,51.7 L344.1,50.2 L342.3,51.0 L341.6,52.2 L342.8,53.0Z" fill="#fff" stroke="#1E1A1D" stroke-width="0.6" stroke-linejoin="round"/><path d="M323.0,63.1 L322.2,63.7 L321.0,63.3 L318.2,65.5 L319.2,65.5 L320.8,66.7 L322.3,65.8 L323.5,64.5Z" fill="#fff" stroke="#1E1A1D" stroke-width="0.6" stroke-linejoin="round"/><path d="M320.1,66.2 L318.2,65.5 L317.5,66.1 L316.5,65.9 L315.3,66.6 L315.2,67.1 L313.0,67.8 L312.9,70.0 L314.3,70.6 L316.5,69.4 L319.8,70.6 L320.8,70.0 L320.7,69.4 L321.6,68.3Z" fill="#fff" stroke="#1E1A1D" stroke-width="0.6" stroke-linejoin="round"/><path d="M351.9,71.3 L354.2,70.6 L356.0,70.7 L355.4,68.5 L353.4,65.1 L352.6,64.6 L351.7,65.6 L352.4,66.9 L351.1,68.1 L351.8,68.4Z" fill="#fff" stroke="#1E1A1D" stroke-width="0.6" stroke-linejoin="round"/><path d="M327.5,72.8 L327.8,72.2 L329.1,72.1 L329.9,72.7 L330.3,72.2 L329.7,71.0 L331.9,70.5 L331.7,69.5 L329.4,68.9 L328.1,70.9 L326.7,71.7Z" fill="#fff" stroke="#1E1A1D" stroke-width="0.6" stroke-linejoin="round"/><path d="M342.8,59.8 L343.2,58.9 L342.6,58.3 L342.9,57.7 L341.5,56.9 L341.1,55.8 L339.4,55.2 L339.5,55.9 L338.9,56.1 L335.8,55.5 L335.6,56.2 L337.2,57.0 L338.7,56.7 L338.8,58.5 L339.6,58.3 L340.6,59.4 L341.3,59.0Z" fill="#fff" stroke="#1E1A1D" stroke-width="0.6" stroke-linejoin="round"/><path d="M338.3,61.9 L338.4,59.9 L337.8,58.8 L335.0,57.0 L334.7,58.6 L335.7,59.1 L336.8,61.3Z" fill="#fff" stroke="#1E1A1D" stroke-width="0.6" stroke-linejoin="round"/><path d="M326.9,73.2 L328.6,75.2 L330.7,74.3 L330.8,74.8 L332.1,74.7 L332.2,74.2 L330.3,72.2 L329.9,72.7 L329.1,72.1 L327.8,72.2Z" fill="#fff" stroke="#1E1A1D" stroke-width="0.6" stroke-linejoin="round"/><path d="M313.0,67.8 L315.2,67.1 L317.0,64.8 L317.6,65.2 L318.6,63.4 L318.0,62.0 L317.3,62.6 L315.7,62.5 L314.6,64.1 L312.9,63.5 L311.9,65.0Z" fill="#fff" stroke="#1E1A1D" stroke-width="0.6" stroke-linejoin="round"/><path d="M312.1,65.8 L311.9,65.0 L312.9,63.5 L314.6,64.1 L316.1,62.3 L313.8,60.1 L309.8,61.5 L308.6,63.1 L310.3,65.3 L311.4,66.0Z" fill="#fff" stroke="#1E1A1D" stroke-width="0.6" stroke-linejoin="round"/><path d="M316.1,51.6 L316.8,52.4 L316.4,53.7 L317.2,54.1 L316.9,54.8 L317.4,55.2 L316.8,55.8 L319.3,56.2 L320.5,55.8 L320.0,53.9 L320.6,50.7 L317.6,50.5 L317.5,51.7Z" fill="#fff" stroke="#1E1A1D" stroke-width="0.6" stroke-linejoin="round"/><path d="M314.7,50.0 L313.8,50.3 L314.0,52.4 L315.2,54.0 L314.6,54.3 L314.4,56.6 L315.8,58.6 L317.1,58.8 L317.6,58.6 L316.8,55.8 L317.4,55.2 L316.9,54.8 L317.2,54.1 L316.4,53.7 L316.8,52.4Z" fill="#fff" stroke="#1E1A1D" stroke-width="0.6" stroke-linejoin="round"/><path d="M313.8,50.9 L313.2,51.4 L312.6,51.0 L311.3,52.2 L308.4,51.9 L307.6,53.5 L309.8,54.8 L306.7,57.2 L307.0,58.8 L308.6,58.8 L311.7,56.5 L312.6,56.9 L314.4,56.6 L314.6,54.3 L315.2,54.0 L314.0,52.4Z" fill="#fff" stroke="#1E1A1D" stroke-width="0.6" stroke-linejoin="round"/><path d="M331.0,63.8 L331.6,63.5 L330.0,62.1 L328.5,59.2 L328.4,58.2 L327.0,57.7 L323.6,59.5 L326.2,62.8Z" fill="#fff" stroke="#1E1A1D" stroke-width="0.6" stroke-linejoin="round"/><path d="M323.0,53.4 L322.8,56.3 L324.3,58.2 L325.5,58.3 L327.0,57.7 L328.4,58.2 L328.7,57.3 L327.3,54.3 L326.6,54.2 L325.4,52.6 L324.7,52.2Z" fill="#fff" stroke="#1E1A1D" stroke-width="0.6" stroke-linejoin="round"/><path d="M317.6,58.6 L315.8,58.6 L314.0,59.5 L313.8,60.1 L316.1,62.3 L317.3,62.6 L318.7,61.4 L320.1,60.9 L319.4,59.7Z" fill="#fff" stroke="#1E1A1D" stroke-width="0.6" stroke-linejoin="round"/><path d="M306.0,60.3 L305.7,60.5 L306.2,61.9 L307.8,62.3 L308.6,63.1 L309.8,61.5 L313.8,60.1 L314.0,59.5 L315.8,58.6 L315.7,58.1 L314.4,56.6 L312.6,56.9 L311.7,56.5 L308.6,58.8 L307.0,58.8 L306.1,59.6Z" fill="#fff" stroke="#1E1A1D" stroke-width="0.6" stroke-linejoin="round"/><path d="M301.0,65.6 L305.5,63.7 L306.2,61.9 L305.7,60.5 L306.0,60.3 L301.8,59.4 L301.2,58.6 L300.4,59.6 L299.9,61.4Z" fill="#fff" stroke="#1E1A1D" stroke-width="0.6" stroke-linejoin="round"/><path d="M304.4,57.1 L304.9,54.3 L304.4,51.8 L300.3,51.6 L299.6,49.0 L298.8,49.2 L297.8,48.6 L296.3,50.8 L294.4,51.1 L294.2,51.9 L296.3,53.4 L297.7,53.2 L297.9,54.3 L299.7,53.7 L300.5,54.4 L301.3,54.3 L302.5,56.3Z" fill="#fff" stroke="#1E1A1D" stroke-width="0.6" stroke-linejoin="round"/><path d="M299.6,49.0 L300.3,51.6 L303.5,51.6 L304.1,48.0 L305.0,47.9 L302.6,46.7 L301.2,47.1Z" fill="#fff" stroke="#1E1A1D" stroke-width="0.6" stroke-linejoin="round"/><path d="M289.1,51.8 L288.1,51.4 L286.8,51.6 L283.3,53.7 L282.0,56.2 L283.0,56.8 L282.9,59.3 L285.5,61.5 L288.3,62.1 L289.7,62.2 L291.0,61.1 L292.6,60.8 L293.4,61.4 L294.5,61.1 L294.8,62.2 L295.9,62.0 L297.4,60.0 L296.7,59.2 L297.4,58.6 L297.4,57.7 L295.6,58.0 L294.5,57.0 L292.8,56.4 L291.8,55.7 L292.0,54.8 L290.8,54.3Z" fill="#fff" stroke="#1E1A1D" stroke-width="0.6" stroke-linejoin="round"/><path d="M306.1,59.6 L307.0,58.8 L306.7,57.2 L309.8,54.8 L307.0,53.5 L304.8,51.5 L304.4,51.8 L304.9,54.3 L304.4,57.1Z" fill="#fff" stroke="#1E1A1D" stroke-width="0.6" stroke-linejoin="round"/><path d="M303.3,46.9 L305.0,47.9 L306.1,47.9 L307.2,47.1 L307.6,45.8 L307.0,44.3 L308.0,43.7 L308.3,42.7 L307.5,42.5 L307.3,41.6 L305.8,41.4 L305.2,41.9 L304.6,44.3 L303.8,45.4 L304.0,46.3Z" fill="#fff" stroke="#1E1A1D" stroke-width="0.6" stroke-linejoin="round"/><path d="M294.4,51.1 L296.3,50.8 L296.9,50.2 L298.5,47.2 L298.6,45.5 L299.2,45.6 L299.1,44.3 L301.5,42.4 L301.4,41.7 L302.7,41.7 L303.3,40.5 L302.1,40.7 L301.5,39.3 L300.6,39.1 L298.3,42.7 L297.8,44.0 L298.1,46.4 L296.8,46.7 L296.8,48.4 L295.0,47.9 L292.9,49.5 L292.3,49.4 L293.4,51.2Z" fill="#fff" stroke="#1E1A1D" stroke-width="0.6" stroke-linejoin="round"/><path d="M305.6,35.9 L302.7,35.6 L301.3,37.1 L300.6,39.1 L301.5,39.3 L302.1,40.7 L304.2,40.0 L305.5,39.0 L304.6,38.0Z" fill="#fff" stroke="#1E1A1D" stroke-width="0.6" stroke-linejoin="round"/><path d="M307.0,44.3 L307.6,45.8 L307.2,47.1 L306.1,47.9 L304.1,48.0 L303.5,51.6 L304.8,51.5 L307.6,53.5 L308.4,51.9 L311.3,52.2 L312.6,51.0 L313.2,51.4 L313.8,50.9 L313.8,50.3 L312.9,50.3 L312.8,49.2 L308.9,49.2 L308.9,48.5 L307.8,47.7 L310.0,46.0Z" fill="#fff" stroke="#1E1A1D" stroke-width="0.6" stroke-linejoin="round"/><path d="M345.3,59.3 L345.8,58.2 L342.8,56.3 L342.2,54.6 L341.2,54.4 L341.5,56.9 L342.6,57.2 L342.9,57.7 L342.6,58.3 L343.9,59.5Z" fill="#fff" stroke="#1E1A1D" stroke-width="0.6" stroke-linejoin="round"/><path d="M349.6,55.7 L348.4,54.1 L347.8,54.5 L347.8,55.5 L346.9,55.7 L345.9,54.7 L345.0,55.9 L342.4,54.0 L342.0,55.2 L342.8,56.3 L345.8,58.2 L345.3,59.3 L346.2,59.4 L346.4,58.9 L347.6,58.8 L348.0,58.3 L347.6,57.1Z" fill="#fff" stroke="#1E1A1D" stroke-width="0.6" stroke-linejoin="round"/><path d="M349.3,64.4 L350.4,65.2 L349.5,65.9 L349.7,66.5 L351.7,67.4 L352.4,66.9 L351.7,65.6 L352.6,64.6 L351.5,62.0 L350.6,62.3Z" fill="#fff" stroke="#1E1A1D" stroke-width="0.6" stroke-linejoin="round"/><path d="M331.7,65.0 L334.4,64.0 L335.1,64.8 L334.5,62.7 L336.3,62.3 L337.1,63.4 L338.5,63.5 L338.7,62.6 L336.8,61.3 L335.7,59.1 L333.5,58.6 L333.5,59.5 L332.9,60.4 L331.1,60.0 L330.8,62.7 L331.6,63.5 L331.0,63.8Z" fill="#D8312A" stroke="#1E1A1D" stroke-width="1.2" stroke-linejoin="round"/></g><text x="20" y="48.5" font-size="33.2" font-family="'Shippori Mincho B1','Hiragino Mincho ProN',serif" font-weight="800" fill="#1E1A1D" stroke="#fff" stroke-width="8.6" paint-order="stroke" stroke-linejoin="round">テンション</text><text x="20" y="84.4" font-size="33.2" font-family="'Shippori Mincho B1','Hiragino Mincho ProN',serif" font-weight="800" fill="#1E1A1D" stroke="#fff" stroke-width="8.6" paint-order="stroke" stroke-linejoin="round">上げお！</text><rect x="14" y="278" width="80" height="30" fill="#1E1A1D"/><text x="54.0" y="300" font-size="21" text-anchor="middle" font-family="'Shippori Mincho B1','Hiragino Mincho ProN',serif" font-weight="800" fill="#fff">上尾市</text></svg>